<?xml version="1.0" standalone="no"?>
<!DOCTYPE svg PUBLIC "-//W3C//DTD SVG 1.1//EN" "http://www.w3.org/Graphics/SVG/1.1/DTD/svg11.dtd" >
<svg>
<metadata>
Created by FontForge 20090914 at Thu Feb 16 04:09:35 2017
 By www-data
Copyright (c) 2016 by Fontsmith Ltd. All rights reserved. This font may not be altered in any way without prior permission of Fontsmith Ltd.
</metadata>
<defs>
<font id="BAESystems-Bold" horiz-adv-x="550" >
  <font-face 
    font-family="BAE Systems"
    font-weight="700"
    font-stretch="normal"
    units-per-em="1000"
    panose-1="0 0 8 0 0 0 0 0 0 0"
    ascent="734"
    descent="-266"
    x-height="470"
    cap-height="685"
    bbox="-364 -264.001 1000 1018"
    underline-thickness="40"
    underline-position="-60"
    unicode-range="U+000D-U+FB02"
  />
<missing-glyph horiz-adv-x="709" 
d="M110 685h489v-685h-489v685zM520 636h-333l170 -250zM325 342l-165 250v-499zM550 592l-165 -250l165 -249v499zM520 50l-163 250l-170 -250h333z" />
    <glyph glyph-name="fi" unicode="fi" horiz-adv-x="479" 
d="M81 9.5c-6.66699 6.33301 -9.99902 15.5039 -9.99902 27.5039v451c0 46.667 7.16699 87.667 21.5 123s35 62.666 62 81.999s58.167 29 93.5 29c14 0 25.167 -3.33301 33.5 -10s12.5 -15.334 12.5 -26.001c0 -19.333 -12.333 -30 -37 -32
c-42.667 -4 -72.834 -20.167 -90.501 -48.5s-26.5 -63.5 -26.5 -105.5v-30h88c10.667 0 19.167 -2.83301 25.5 -8.5s9.5 -13.834 9.5 -24.501s-3.16699 -18.834 -9.5 -24.501s-14.833 -8.5 -25.5 -8.5h-88v-367c0 -12 -3.33301 -21.167 -10 -27.5s-14.667 -9.5 -24 -9.5
c-10 0 -18.333 3.16699 -25 9.5zM340.001 611.504c-8.66699 9.66699 -13 21.167 -13 34.5s4.33301 24.833 13 34.5s19.667 14.5 33 14.5s24.333 -4.83301 33 -14.5s13 -21.167 13 -34.5s-4.33301 -24.833 -13 -34.5s-19.667 -14.5 -33 -14.5s-24.333 4.83301 -33 14.5z
M348.001 9.50391c-6.66699 6.33301 -10 15.5 -10 27.5v396c0 12 3.33301 21.167 10 27.5s14.667 9.5 24 9.5c10 0 18.333 -3.16699 25 -9.5s10 -15.5 10 -27.5v-396c0 -12 -3.33301 -21.167 -10 -27.5s-15 -9.5 -25 -9.5c-9.33301 0 -17.333 3.16699 -24 9.5z" />
    <glyph glyph-name="fl" unicode="fl" horiz-adv-x="517" 
d="M81 9.5c-6.66699 6.33301 -9.99902 15.5039 -9.99902 27.5039v451c0 46.667 7.16699 87.667 21.5 123s35 62.666 62 81.999s58.167 29 93.5 29c14 0 25.167 -3.33301 33.5 -10s12.5 -15.334 12.5 -26.001c0 -19.333 -12.333 -30 -37 -32
c-42.667 -4 -72.834 -20.167 -90.501 -48.5s-26.5 -63.5 -26.5 -105.5v-30h88c10.667 0 19.167 -2.83301 25.5 -8.5s9.5 -13.834 9.5 -24.501s-3.16699 -18.834 -9.5 -24.501s-14.833 -8.5 -25.5 -8.5h-88v-367c0 -12 -3.33301 -21.167 -10 -27.5s-14.667 -9.5 -24 -9.5
c-10 0 -18.333 3.16699 -25 9.5zM365.001 35.5039c-18.667 23.667 -28 59.832 -28 108.499v541c0 12 3.33301 21.167 10 27.5s15 9.5 25 9.5c9.33301 0 17.333 -3.16699 24 -9.5s10 -15.5 10 -27.5v-548c0 -22 3.5 -38 10.5 -48s22.167 -19.667 45.5 -29
c13.333 -5.33301 20 -14.666 20 -27.999c0 -10 -4.16699 -17.833 -12.5 -23.5s-19.833 -8.5 -34.5 -8.5c-28 0 -51.333 11.833 -70 35.5z" />
    <glyph glyph-name=".notdef" horiz-adv-x="709" 
d="M110 685h489v-685h-489v685zM520 636h-333l170 -250zM325 342l-165 250v-499zM550 592l-165 -250l165 -249v499zM520 50l-163 250l-170 -250h333z" />
    <glyph glyph-name="nonmarkingreturn" unicode="&#xd;" horiz-adv-x="212" 
 />
    <glyph glyph-name="space" unicode=" " horiz-adv-x="212" 
 />
    <glyph glyph-name="exclam" unicode="!" horiz-adv-x="276" 
d="M113 185.5c-6.66699 6.33301 -10 14.5 -10 24.5v441c0 10 3.33301 18.167 10 24.5s14.667 9.5 24 9.5c10 0 18.333 -3.16699 25 -9.5s10 -14.5 10 -24.5v-441c0 -10 -3.33301 -18.167 -10 -24.5s-14.667 -9.5 -24 -9.5c-10 0 -18.333 3.16699 -25 9.5zM105 14.5
c-8.66699 9.66699 -13 21.167 -13 34.5s4.33301 24.833 13 34.5s19.667 14.5 33 14.5s24.333 -4.83301 33 -14.5s13 -21.167 13 -34.5s-4.33301 -24.833 -13 -34.5s-19.667 -14.5 -33 -14.5s-24.333 4.83301 -33 14.5z" />
    <glyph glyph-name="quotedbl" unicode="&#x22;" horiz-adv-x="313" 
d="M74.5 501.5c-6.33301 6.33301 -9.5 13.833 -9.5 22.5v129c0 9.33301 3 17 9 23s13.333 9 22 9c9.33301 0 17.166 -3.16699 23.499 -9.5s9.5 -13.833 9.5 -22.5v-129c0 -9.33301 -3 -17 -9 -23s-13.333 -9 -22 -9c-9.33301 0 -17.166 3.16699 -23.499 9.5zM193.5 501.5
c-6.33301 6.33301 -9.5 13.833 -9.5 22.5v129c0 9.33301 3 17 9 23s13.333 9 22 9c9.33301 0 17.166 -3.16699 23.499 -9.5s9.5 -13.833 9.5 -22.5v-129c0 -9.33301 -3 -17 -9 -23s-13.333 -9 -22 -9c-9.33301 0 -17.166 3.16699 -23.499 9.5z" />
    <glyph glyph-name="numbersign" unicode="#" horiz-adv-x="508" 
d="M167.5 190.5c-7 7 -10.5 15.5 -10.5 25.5v110h-92c-10 0 -18.333 3.16699 -25 9.5s-10 14.5 -10 24.5s3.5 18.333 10.5 25s15.167 10 24.5 10h92v76h-92c-9.33301 0 -17.5 3.33301 -24.5 10s-10.5 15 -10.5 25s3.33301 18.167 10 24.5s15 9.5 25 9.5h92v120
c0 10 3.5 18.333 10.5 25s15.167 10 24.5 10s17.5 -3.33301 24.5 -10s10.5 -15 10.5 -25v-120h54v120c0 10 3.5 18.333 10.5 25s15.167 10 24.5 10s17.5 -3.33301 24.5 -10s10.5 -15 10.5 -25v-120h92c10 0 18.333 -3.16699 25 -9.5s10 -14.5 10 -24.5
s-3.5 -18.333 -10.5 -25s-15.167 -10 -24.5 -10h-92v-76h92c9.33301 0 17.5 -3.33301 24.5 -10s10.5 -15 10.5 -25s-3.33301 -18.167 -10 -24.5s-15 -9.5 -25 -9.5h-92v-110c0 -10 -3.5 -18.5 -10.5 -25.5s-15.167 -10.5 -24.5 -10.5s-17.5 3.5 -24.5 10.5
s-10.5 15.5 -10.5 25.5v110h-54v-110c0 -10 -3.5 -18.5 -10.5 -25.5s-15.167 -10.5 -24.5 -10.5s-17.5 3.5 -24.5 10.5zM281 395v76h-54v-76h54z" />
    <glyph glyph-name="dollar" unicode="$" horiz-adv-x="522" 
d="M234 -102c-6.66699 7.33301 -10.002 16.0029 -10.002 26.0029v63c-27.333 4 -53 13.167 -77 27.5s-45.333 33.166 -64 56.499c-5.33301 6.66699 -8 14.334 -8 23.001c0 11.333 3.83301 20.166 11.5 26.499s15.167 9.5 22.5 9.5c6.66699 0 13.334 -2.66699 20.001 -8
c3.33301 -2.66699 8.66602 -7.66699 15.999 -15c14.667 -12.667 27.334 -22.667 38.001 -30s24.334 -12.666 41.001 -15.999v282c-28.667 12.667 -53.167 25.667 -73.5 39s-37.333 31.666 -51 54.999s-20.5 53 -20.5 89c0 46.667 13.833 85.167 41.5 115.5
s62.167 49.166 103.5 56.499v45c0 10 3.33301 18.667 10 26s14.667 11 24 11s17.333 -3.66699 24 -11s10 -16 10 -26v-44c19.333 -2 43.166 -9.16699 71.499 -21.5s47.833 -26.833 58.5 -43.5c4.66699 -8 7 -15.667 7 -23c0 -10 -3.33301 -18.5 -10 -25.5
s-14.667 -10.5 -24 -10.5c-7.33301 0 -14.666 2.66699 -21.999 8c-4.66699 3.33301 -11.334 8.5 -20.001 15.5s-18 13 -28 18s-21 8.5 -33 10.5v-235c30 -12.667 56 -26.834 78 -42.501s40.333 -37.167 55 -64.5s22 -61.666 22 -102.999c0 -32 -6.83301 -61.833 -20.5 -89.5
s-32.167 -50.834 -55.5 -69.501s-49.666 -30.667 -78.999 -36v-63c0 -10 -3.33301 -18.667 -10 -26s-14.667 -11 -24 -11s-17.333 3.66699 -24 11zM223.998 625.003c-23.333 -6 -42 -17.666 -56 -34.999s-21 -38.666 -21 -63.999c0 -26.667 6.33301 -47.834 19 -63.501
s32 -29.834 58 -42.501v205zM354.498 106.504c16.333 22.333 24.502 47.501 24.502 75.501c0 34 -7.33301 60.667 -22 80s-36.334 36.333 -65.001 51v-251c25.333 7.33301 46.166 22.166 62.499 44.499z" />
    <glyph glyph-name="percent" unicode="%" horiz-adv-x="540" 
d="M84 395.5c-15.333 17.667 -26.5 39 -33.5 64s-10.5 49.5 -10.5 73.5c0 40 8 77 24 111s42 51 78 51s62.333 -17 79 -51s25 -71 25 -111c0 -24 -3.5 -48.5 -10.5 -73.5s-18.167 -46.333 -33.5 -64s-35 -26.5 -59 -26.5s-43.667 8.83301 -59 26.5zM148.5 9
c-7 6 -10.499 14 -10.499 24c0 5.33301 1.66699 13 5 23l190 607c2.66699 8 7.16699 14.167 13.5 18.5s13.166 6.5 20.499 6.5c9.33301 0 17.5 -3.66699 24.5 -11s10.5 -16 10.5 -26l-3 -14l-193 -612c-2.66699 -8 -7 -14.167 -13 -18.5s-12.667 -6.5 -20 -6.5
c-9.33301 0 -17.5 3 -24.5 9zM169.001 462c5.33301 14 8.00098 31.001 8.00098 51.001v36c0 20.667 -2 38.167 -6 52.5s-13.333 21.5 -28 21.5c-22.667 0 -34 -23.333 -34 -70v-46c0 -16.667 2.16699 -31.834 6.5 -45.501s13.166 -20.5 26.499 -20.5
c12.667 0 21.667 7 27 21zM338.002 16.501c-15.333 17.667 -26.5 38.999 -33.5 63.999s-10.5 49.5 -10.5 73.5c0 40.667 7.83301 77.834 23.5 111.501s41.5 50.5 77.5 50.5s62.5 -17 79.5 -51s25.5 -71 25.5 -111c0 -24 -3.5 -48.5 -10.5 -73.5s-18.167 -46.333 -33.5 -64
s-35 -26.5 -59 -26.5s-43.667 8.83301 -59 26.5zM422.502 83.5c5.66699 14.333 8.49902 31.167 8.49902 50.5v36c0 20.667 -2 38.167 -6 52.5s-13.333 21.5 -28 21.5c-22.667 0 -34 -23.667 -34 -71v-45c0 -44 10.667 -66 32 -66c12.667 0 21.834 7.16699 27.501 21.5z" />
    <glyph glyph-name="ampersand" unicode="&#x26;" horiz-adv-x="571" 
d="M115 34c-35.333 30 -53 73.999 -53 131.999c0 32 8.33301 61.167 25 87.5s37 45.833 61 58.5c-16 12.667 -29.333 28.667 -40 48s-16 40.666 -16 63.999c0 52 17.5 91.167 52.5 117.5s77.5 39.5 127.5 39.5h131c9.33301 0 17.333 -3.16699 24 -9.5s10 -14.166 10 -23.499
s-3.33301 -17.333 -10 -24s-14.667 -10 -24 -10h-131c-34 0 -60.5 -7.5 -79.5 -22.5s-28.5 -37.5 -28.5 -67.5c0 -25.333 9 -45.5 27 -60.5s40 -22.5 66 -22.5h124v57c0 10 3.5 18.333 10.5 25s15.167 10 24.5 10s17.5 -3.33301 24.5 -10s10.5 -15 10.5 -25v-57h75
c9.33301 0 17.5 -3.33301 24.5 -10s10.5 -14.667 10.5 -24s-3.5 -17.166 -10.5 -23.499s-15.167 -9.5 -24.5 -9.5h-75v-105c0 -62 -18.5 -107.5 -55.5 -136.5s-84.833 -43.5 -143.5 -43.5c-56 0 -101.667 15 -137 45zM349 82.499c21.333 17.667 32.001 46.5 32.001 86.5v105
h-148c-30.667 0 -55 -10.5 -73 -31.5s-27 -46.5 -27 -76.5c0 -36 10.667 -63.333 32 -82s50.666 -28 87.999 -28c42.667 0 74.667 8.83301 96 26.5z" />
    <glyph glyph-name="quotesingle" unicode="'" horiz-adv-x="194" 
d="M74.5 501.5c-6.33301 6.33301 -9.5 13.833 -9.5 22.5v129c0 9.33301 3 17 9 23s13.333 9 22 9c9.33301 0 17.166 -3.16699 23.499 -9.5s9.5 -13.833 9.5 -22.5v-129c0 -9.33301 -3 -17 -9 -23s-13.333 -9 -22 -9c-9.33301 0 -17.166 3.16699 -23.499 9.5z" />
    <glyph glyph-name="parenleft" unicode="(" horiz-adv-x="361" 
d="M193 -72c-26.667 47.333 -46.666 103.168 -59.999 167.501s-20 125.5 -20 183.5c0 57.333 6.66699 117.833 20 181.5s33.333 119.167 60 166.5c13.333 23.333 25.166 40.5 35.499 51.5s20.5 16.5 30.5 16.5c9.33301 0 16.833 -3.5 22.5 -10.5s8.5 -14.833 8.5 -23.5
s-2.66699 -16.667 -8 -24c-12.667 -16.667 -24 -33.667 -34 -51c-24 -43.333 -41.667 -91.833 -53 -145.5s-17 -107.5 -17 -161.5s5.66699 -108.5 17 -163.5s29 -103.833 53 -146.5c10 -17.333 21.333 -34.333 34 -51c5.33301 -7.33301 8 -15.333 8 -24
s-2.83301 -16.334 -8.5 -23.001s-13.167 -10 -22.5 -10c-18.667 0 -40.667 22.333 -66 67z" />
    <glyph glyph-name="parenright" unicode=")" horiz-adv-x="361" 
d="M80.5 -129c-5.66699 6.66699 -8.49902 14.332 -8.49902 22.999s2.66699 16.667 8 24c12.667 16.667 24 33.667 34 51c24 42.667 41.667 91.5 53 146.5s17 109.5 17 163.5s-5.66699 107.833 -17 161.5s-29 102.167 -53 145.5c-10 17.333 -21.333 34.333 -34 51
c-5.33301 7.33301 -8 15.333 -8 24s2.83301 16.5 8.5 23.5s13.167 10.5 22.5 10.5c10 0 20.167 -5.5 30.5 -16.5s22.166 -28.167 35.499 -51.5c26.667 -47.333 46.667 -102.833 60 -166.5s20 -124.167 20 -181.5c0 -58 -6.66699 -119.167 -20 -183.5
s-33.333 -120.166 -60 -167.499c-25.333 -44.667 -47.333 -67 -66 -67c-9.33301 0 -16.833 3.33301 -22.5 10z" />
    <glyph glyph-name="asterisk" unicode="*" horiz-adv-x="347" 
d="M161.5 483c-3 2.66699 -4.5 6.33398 -4.5 11.001v88l-50 -55c-3.33301 -4 -6 -6.66699 -8 -8s-4.33301 -2 -7 -2c-4.66699 0 -8.66699 1.66699 -12 5s-5 7 -5 11c0 4.66699 2.33301 9.66699 7 15l56 62h-82c-4.66699 0 -8.5 1.33301 -11.5 4s-4.5 6.33398 -4.5 11.001
s1.5 8.5 4.5 11.5s6.83301 4.5 11.5 4.5h82l-56 62c-4.66699 5.33301 -7 10.333 -7 15c0 4 1.66699 7.66699 5 11s7.33301 5 12 5c2.66699 0 5 -0.666992 7 -2s4.66699 -4 8 -8l50 -55v88c0 4.66699 1.5 8.33398 4.5 11.001s6.83301 4 11.5 4s8.33398 -1.33301 11.001 -4
s4 -6.33398 4 -11.001v-88l50 55c3.33301 4 6 6.66699 8 8s4.33301 2 7 2c4.66699 0 8.66699 -1.66699 12 -5s5 -7 5 -11c0 -4.66699 -2.33301 -9.66699 -7 -15l-56 -62h84c4.66699 0 8.5 -1.5 11.5 -4.5s4.5 -6.83301 4.5 -11.5s-1.5 -8.33398 -4.5 -11.001
s-6.83301 -4 -11.5 -4h-84l56 -62c4.66699 -5.33301 7 -10.333 7 -15c0 -4 -1.66699 -7.66699 -5 -11s-7.33301 -5 -12 -5c-2.66699 0 -5 0.666992 -7 2s-4.66699 4 -8 8l-50 55v-88c0 -4.66699 -1.33301 -8.33398 -4 -11.001s-6.33398 -4 -11.001 -4s-8.5 1.33301 -11.5 4z
" />
    <glyph glyph-name="plus" unicode="+" 
d="M250.5 10c-7 6.66699 -10.5 15 -10.5 25v171h-154c-9.33301 0 -17.5 3.33301 -24.5 10s-10.5 15 -10.5 25s3.5 18.333 10.5 25s15.167 10 24.5 10h154v168c0 10 3.5 18.333 10.5 25s15.167 10 24.5 10s17.5 -3.33301 24.5 -10s10.5 -15 10.5 -25v-168h154
c9.33301 0 17.5 -3.33301 24.5 -10s10.5 -15 10.5 -25s-3.5 -18.333 -10.5 -25s-15.167 -10 -24.5 -10h-154v-171c0 -10 -3.5 -18.333 -10.5 -25s-15.167 -10 -24.5 -10s-17.5 3.33301 -24.5 10z" />
    <glyph glyph-name="comma" unicode="," horiz-adv-x="197" 
d="M43 -70.5c-6.66699 5 -10 11.8311 -10 20.498c0 4.66699 1 10 3 16l45 121c2.66699 6.66699 6.66699 11.834 12 15.501s11.333 5.5 18 5.5c9.33301 0 17.333 -2.66699 24 -8s10 -12.666 10 -21.999c0 -4.66699 -1 -9.66699 -3 -15l-45 -119
c-2.66699 -6.66699 -6.66699 -12 -12 -16s-11.333 -6 -18 -6c-9.33301 0 -17.333 2.5 -24 7.5z" />
    <glyph glyph-name="hyphen" unicode="-" horiz-adv-x="430" 
d="M94.5 215.5c-6.33301 6.33301 -9.5 14.5 -9.5 24.5s3.16699 18 9.5 24s13.833 9 22.5 9h196c8.66699 0 16.167 -3.16699 22.5 -9.5s9.5 -14.5 9.5 -24.5s-3.16699 -18 -9.5 -24s-13.833 -9 -22.5 -9h-196c-8.66699 0 -16.167 3.16699 -22.5 9.5z" />
    <glyph glyph-name="period" unicode="." horiz-adv-x="198" 
d="M66 14.5c-8.66699 9.66699 -13 21.167 -13 34.5s4.33301 24.833 13 34.5s19.667 14.5 33 14.5s24.333 -4.83301 33 -14.5s13 -21.167 13 -34.5s-4.33301 -24.833 -13 -34.5s-19.667 -14.5 -33 -14.5s-24.333 4.83301 -33 14.5z" />
    <glyph glyph-name="slash" unicode="/" horiz-adv-x="372" 
d="M69.5 -1.5c-6.33301 5.66699 -9.5 13.501 -9.5 23.501c0 2.66699 2 10.667 6 24l181 624c2.66699 8 7 14.167 13 18.5s12.667 6.5 20 6.5c8.66699 0 16.167 -3.16699 22.5 -9.5s9.5 -14.5 9.5 -24.5c0 -4.66699 -1.33301 -11.334 -4 -20.001l-183 -626
c-2.66699 -8 -6.83398 -14.167 -12.501 -18.5s-12.167 -6.5 -19.5 -6.5c-9.33301 0 -17.166 2.83301 -23.499 8.5z" />
    <glyph glyph-name="zero" unicode="0" horiz-adv-x="524" 
d="M98 85.5c-32 63.667 -48 149.5 -48 257.5s16 193.667 48 257s86.667 95 164 95s132 -31.667 164 -95s48 -149 48 -257s-16 -193.833 -48 -257.5s-86.667 -95.5 -164 -95.5s-132 31.833 -164 95.5zM370 133.5c20 51 30 120.833 30 209.5s-10 158.334 -30 209.001
s-56 76 -108 76s-88 -25.333 -108 -76s-30 -120.334 -30 -209.001s10 -158.5 30 -209.5s56 -76.5 108 -76.5s88 25.5 108 76.5z" />
    <glyph glyph-name="one" unicode="1" horiz-adv-x="278" 
d="M114.5 9.5c-7 6.33301 -10.5 14.5 -10.5 24.5v627c0 10 3.33301 18.167 10 24.5s14.667 9.5 24 9.5c10 0 18.5 -3.16699 25.5 -9.5s10.5 -14.5 10.5 -24.5v-627c0 -10 -3.33301 -18.167 -10 -24.5s-14.667 -9.5 -24 -9.5c-10 0 -18.5 3.16699 -25.5 9.5z" />
    <glyph glyph-name="two" unicode="2" horiz-adv-x="503" 
d="M60 10c-6.66699 6.66699 -10.0049 15.0049 -10.0049 25.0049v88c0 69.333 21.667 123.666 65 162.999c19.333 17.333 39.333 30.166 60 38.499s49.334 17.833 86.001 28.5c30 9.33301 53.5 19.166 70.5 29.499s30 24.166 39 41.499s13.5 39.666 13.5 66.999
c0 44.667 -10.667 78.667 -32 102s-53.333 35 -96 35c-27.333 0 -48.666 -4 -63.999 -12s-29 -18.333 -41 -31c-2 -2.66699 -5.66699 -6.83398 -11 -12.501s-10.166 -9.83398 -14.499 -12.501s-9.16602 -4 -14.499 -4c-8.66699 0 -17 3 -25 9s-12 14.667 -12 26
c0 4 2 10 6 18c16.667 30 41.667 51.833 75 65.5s67.333 20.5 102 20.5c62.667 0 111.834 -18.167 147.501 -54.5s53.5 -86.166 53.5 -149.499c0 -54 -14.667 -96.667 -44 -128s-73 -55.666 -131 -72.999c-31.333 -9.33301 -56 -17.833 -74 -25.5s-34.667 -19.167 -50 -34.5
c-26.667 -28 -40 -64.667 -40 -110v-53h268c9.33301 0 17.333 -3.16699 24 -9.5s10 -14.5 10 -24.5s-3.16699 -18 -9.5 -24s-14.5 -9 -24.5 -9h-303c-9.33301 -0 -17.333 3.33301 -24 10z" />
    <glyph glyph-name="three" unicode="3" horiz-adv-x="461" 
d="M411 205v-20c0 -123.333 -69.333 -185 -208 -185h-129c-9.33301 0 -17.333 3.16699 -24 9.5s-10 14.5 -10 24.5s3.16699 18 9.5 24s14.5 9 24.5 9h129c48 0 82.667 9 104 27s32 48.333 32 91v20c0 42.667 -10.667 73 -32 91s-56 27 -104 27h-83c-10 0 -18.167 3 -24.5 9
s-9.5 14 -9.5 24s3.33301 18.167 10 24.5s14.667 9.5 24 9.5h83c43.333 0 74.5 9.33301 93.5 28s28.5 47.667 28.5 87c0 38 -9.5 66.333 -28.5 85s-50.167 28 -93.5 28h-124c-10 0 -18.167 3 -24.5 9s-9.5 14 -9.5 24s3.33301 18.167 10 24.5s14.667 9.5 24 9.5h124
c62.667 0 110.667 -16 144 -48s50 -77.667 50 -137c0 -62.667 -20.667 -109.667 -62 -141c50.667 -30 76 -81.333 76 -154z" />
    <glyph glyph-name="four" unicode="4" horiz-adv-x="501" 
d="M372.5 10c-7 6.66699 -10.499 14.998 -10.499 24.998v97h-248c-30 0 -53.167 6.5 -69.5 19.5s-24.5 31.5 -24.5 55.5c0 16.667 5.16699 33.834 15.5 51.501s26.166 39.834 47.499 66.501l288 362c6 6.66699 14.333 10 25 10c9.33301 0 17.333 -3.16699 24 -9.5
s10 -14.5 10 -24.5c0 -9.33301 -3.33301 -18 -10 -26l-291 -362c-12.667 -16 -21 -27.333 -25 -34s-6 -13 -6 -19c0 -15.333 13.667 -23 41 -23h223v169c0 10 3.5 18.333 10.5 25s15.167 10 24.5 10s17.333 -3.33301 24 -10s10 -15 10 -25v-333
c0 -10 -3.33301 -18.333 -10 -25s-14.667 -10 -24 -10s-17.5 3.33301 -24.5 10z" />
    <glyph glyph-name="five" unicode="5" horiz-adv-x="484" 
d="M130 11c-34.667 14 -60.9961 35.6689 -78.9961 65.002c-4 7.33301 -6 13.333 -6 18c0 10 3.33301 18.5 10 25.5s14.667 10.5 24 10.5c8 0 16.667 -4 26 -12l22 -22c11.333 -11.333 26.166 -20.666 44.499 -27.999s40.166 -11 65.499 -11c42 0 75 15.167 99 45.5
s36 69.166 36 116.499c0 46 -11.333 83 -34 111s-55 42 -97 42h-56c-43.333 0 -73.833 7.66699 -91.5 23s-26.5 40.666 -26.5 75.999v179c0 10 3 18.333 9 25s13.667 10 23 10h297c10 0 18.167 -3 24.5 -9s9.5 -14 9.5 -24s-3.33301 -18.167 -10 -24.5
s-14.667 -9.5 -24 -9.5h-260v-133c0 -16 3.33301 -27.667 10 -35s19.334 -11 38.001 -11h47c67.333 0 119.666 -19.833 156.999 -59.5s56 -92.834 56 -159.501c0 -41.333 -8.33301 -79.5 -25 -114.5s-40.834 -63 -72.501 -84s-69.167 -31.5 -112.5 -31.5
c-34.667 0 -69.334 7 -104.001 21z" />
    <glyph glyph-name="six" unicode="6" horiz-adv-x="492" 
d="M149.5 26.5c-29.667 24.333 -52.832 60.167 -69.499 107.5s-25 104.666 -25 171.999c0 70.667 7.33301 132.334 22 185.001s38.334 96.667 71.001 132c44.667 48 103 72 175 72c19.333 0 33.666 -2.83301 42.999 -8.5s14 -14.5 14 -26.5c0 -10 -3.33301 -18.667 -10 -26
s-14.667 -11 -24 -11c-37.333 0 -66.5 -3.83301 -87.5 -11.5s-40.167 -20.167 -57.5 -37.5c-23.333 -22.667 -40.5 -51.5 -51.5 -86.5s-17.5 -71.167 -19.5 -108.5l14 9l44 29c27.333 17.333 52.666 26 75.999 26c62 0 108.833 -21.667 140.5 -65s47.5 -97.333 47.5 -162
c0 -40.667 -7.66699 -78.167 -23 -112.5s-38 -61.833 -68 -82.5s-66 -31 -108 -31c-39.333 0 -73.833 12.167 -103.5 36.5zM346.002 102.001c21.333 28.667 32.001 66.666 32.001 113.999c0 48 -9.33301 86 -28 114s-48.334 42 -89.001 42c-6 0 -12 -1.33301 -18 -4
s-14 -7 -24 -13l-71 -45c-8 -5.33301 -13.167 -10.5 -15.5 -15.5s-3.5 -12.833 -3.5 -23.5c0 -36 4.83301 -70.167 14.5 -102.5s24 -58.666 43 -78.999s41.167 -30.5 66.5 -30.5c40.667 0 71.667 14.333 93 43z" />
    <glyph glyph-name="seven" unicode="7" horiz-adv-x="419" 
d="M89 7.5c-6.66699 5.66699 -10 13.167 -10 22.5c0 6 3.33301 16.667 10 32l233 553h-268c-9.33301 0 -17.333 3.33301 -24 10s-10 15 -10 25s3.33301 18.333 10 25s14.667 10 24 10h320c10.667 0 19.167 -2.66699 25.5 -8s9.5 -13 9.5 -23
c0 -7.33301 -2.16699 -16 -6.5 -26s-6.83301 -16.333 -7.5 -19l-249 -589c-2.66699 -6 -7 -11 -13 -15s-12.667 -6 -20 -6c-9.33301 0 -17.333 2.83301 -24 8.5z" />
    <glyph glyph-name="eight" unicode="8" horiz-adv-x="495" 
d="M149 16.5c-29.333 17.667 -52.333 41.833 -69 72.5s-25 65 -25 103c0 37.333 9 71.833 27 103.5s40.667 53.5 68 65.5c-28.667 18 -49.834 38.833 -63.501 62.5s-20.5 52.834 -20.5 87.501c0 35.333 8.16699 67 24.5 95s38.5 49.833 66.5 65.5s58 23.5 90 23.5
s62 -7.83301 90 -23.5s50.167 -37.5 66.5 -65.5s24.5 -59.667 24.5 -95c0 -34.667 -6.83301 -63.834 -20.5 -87.501s-34.834 -44.5 -63.501 -62.5c28 -11.333 51 -33 69 -65s27 -66.333 27 -103c0 -37.333 -8.66699 -71.5 -26 -102.5s-40.666 -55.5 -69.999 -73.5
s-61.666 -27 -96.999 -27c-36 0 -68.667 8.83301 -98 26.5zM324 427.999c21.333 22.667 32 50.334 32 83.001c0 32 -10.833 59.167 -32.5 81.5s-47.167 33.5 -76.5 33.5s-54.833 -11.167 -76.5 -33.5s-32.5 -49.5 -32.5 -81.5c0 -32.667 10.667 -60.334 32 -83.001
s47 -34 77 -34s55.667 11.333 77 34zM307.5 74.999c18.333 12 33.001 28.501 44.001 49.501s16.5 43.833 16.5 68.5c0 37.333 -11.5 68.666 -34.5 93.999s-51.833 38 -86.5 38c-21.333 0 -41.333 -5.83301 -60 -17.5s-33.334 -27.667 -44.001 -48s-16 -42.5 -16 -66.5
c0 -38.667 11.5 -71 34.5 -97s51.5 -39 85.5 -39c22 0 42.167 6 60.5 18z" />
    <glyph glyph-name="nine" unicode="9" horiz-adv-x="491" 
d="M131 -1.5c-9.33301 5.66699 -14 14.5029 -14 26.5029c0 10 3.33301 18.667 10 26s14.667 11 24 11c37.333 0 66.5 3.83301 87.5 11.5s40.167 20.167 57.5 37.5c22.667 22.667 39.667 51.667 51 87s18 71.666 20 108.999l-10 -7l-48 -32c-26 -16.667 -51.333 -25 -76 -25
c-62 0 -108.833 21.667 -140.5 65s-47.5 97.333 -47.5 162c0 40.667 7.5 78.167 22.5 112.5s37.167 61.666 66.5 81.999s64.333 30.5 105 30.5c62 0 111.167 -27.333 147.5 -82s54.5 -132.667 54.5 -234c0 -70.667 -7.33301 -132.334 -22 -185.001
s-38.334 -96.667 -71.001 -132c-44.667 -48 -102.667 -72 -174 -72c-19.333 0 -33.666 2.83301 -42.999 8.5zM254 317.003c6 2.66699 14 7.00195 24 13.002l70 45c8 5.33301 13.333 10.666 16 15.999s4 13.333 4 24c0 36 -5 70.167 -15 102.5s-24.667 58.5 -44 78.5
s-42.666 30 -69.999 30c-38.667 0 -68.334 -14.333 -89.001 -43s-31 -66.334 -31 -113.001c0 -48 9.5 -86.167 28.5 -114.5s48.5 -42.5 88.5 -42.5c6 0 12 1.33301 18 4z" />
    <glyph glyph-name="colon" unicode=":" horiz-adv-x="197" 
d="M66 14.5c-8.66699 9.66699 -13 21.167 -13 34.5s4.33301 24.833 13 34.5s19.667 14.5 33 14.5s24.333 -4.83301 33 -14.5s13 -21.167 13 -34.5s-4.33301 -24.833 -13 -34.5s-19.667 -14.5 -33 -14.5s-24.333 4.83301 -33 14.5zM66 340.5
c-8.66699 9.66699 -13 21.167 -13 34.5s4.33301 24.833 13 34.5s19.667 14.5 33 14.5s24.333 -4.83301 33 -14.5s13 -21.167 13 -34.5s-4.33301 -24.833 -13 -34.5s-19.667 -14.5 -33 -14.5s-24.333 4.83301 -33 14.5z" />
    <glyph glyph-name="semicolon" unicode=";" horiz-adv-x="197" 
d="M29 -70.5c-6.66699 5 -10 11.8311 -10 20.498c0 4.66699 1 10 3 16l45 121c2.66699 6.66699 6.66699 11.834 12 15.501s11.333 5.5 18 5.5c9.33301 0 17.333 -2.66699 24 -8s10 -12.666 10 -21.999c0 -4.66699 -1 -9.66699 -3 -15l-45 -119
c-2.66699 -6.66699 -6.66699 -12 -12 -16s-11.333 -6 -18 -6c-9.33301 0 -17.333 2.5 -24 7.5zM66 340.498c-8.66699 9.66699 -13 21.167 -13 34.5s4.33301 24.833 13 34.5s19.667 14.5 33 14.5s24.333 -4.83301 33 -14.5s13 -21.167 13 -34.5s-4.33301 -24.833 -13 -34.5
s-19.667 -14.5 -33 -14.5s-24.333 4.83301 -33 14.5z" />
    <glyph glyph-name="less" unicode="&#x3c;" 
d="M436 55l-353.999 157c-12 6 -18 15.667 -18 29c0 14 6 24 18 30l354 158c9.33301 4 16 6 20 6c10 0 17.5 -3.33301 22.5 -10s7.5 -14 7.5 -22c0 -7.33301 -2 -13.5 -6 -18.5s-8.33301 -8.5 -13 -10.5l-302 -132l302 -132c4.66699 -2 9 -5.5 13 -10.5s6 -11.167 6 -18.5
c0 -8 -2.5 -15.333 -7.5 -22s-12.5 -10 -22.5 -10c-6.66699 0 -13.334 2 -20.001 6z" />
    <glyph glyph-name="equal" unicode="=" 
d="M74 126.5c-6.66699 6.33301 -10 14.5 -10 24.5s3.5 18.5 10.5 25.5s15.167 10.5 24.5 10.5h352c9.33301 0 17.5 -3.5 24.5 -10.5s10.5 -15.5 10.5 -25.5s-3.33301 -18.167 -10 -24.5s-15 -9.5 -25 -9.5h-352c-10 0 -18.333 3.16699 -25 9.5zM74 306.5
c-6.66699 6.33301 -10 14.5 -10 24.5s3.5 18.5 10.5 25.5s15.167 10.5 24.5 10.5h352c9.33301 0 17.5 -3.5 24.5 -10.5s10.5 -15.5 10.5 -25.5s-3.33301 -18.167 -10 -24.5s-15 -9.5 -25 -9.5h-352c-10 0 -18.333 3.16699 -25 9.5z" />
    <glyph glyph-name="greater" unicode="&#x3e;" 
d="M114 429l354 -157c12 -6 18 -15.667 18 -29c0 -14 -6 -24 -18 -30l-354 -158c-9.33301 -4 -16 -6 -20 -6c-10 0 -17.5 3.33301 -22.5 10s-7.5 14 -7.5 22c0 7.33301 2 13.5 6 18.5s8.33301 8.5 13 10.5l302 132l-302 132c-4.66699 2 -9 5.5 -13 10.5s-6 11.167 -6 18.5
c0 8 2.5 15.333 7.5 22s12.5 10 22.5 10c6 0 12.667 -2 20 -6z" />
    <glyph glyph-name="question" unicode="?" horiz-adv-x="455" 
d="M104 186.5c-6.66699 7 -10.001 15.498 -10.001 25.498v32c0 48 13.833 84 41.5 108s71.167 36 130.5 36c35.333 0 60.833 8.83301 76.5 26.5s23.5 44.834 23.5 81.501v13c0 36.667 -9.5 63.834 -28.5 81.501s-49.5 26.5 -91.5 26.5h-150
c-9.33301 0 -17.666 3.5 -24.999 10.5s-11 15.167 -11 24.5s3.5 17.166 10.5 23.499s15.5 9.5 25.5 9.5h150c60 0 106.5 -14.167 139.5 -42.5s49.5 -72.166 49.5 -131.499v-16c0 -59.333 -14.833 -103.333 -44.5 -132s-71.167 -43 -124.5 -43c-39.333 0 -66.333 -6 -81 -18
s-22 -32 -22 -60v-30c0 -10 -3.5 -18.5 -10.5 -25.5s-15.167 -10.5 -24.5 -10.5s-17.333 3.5 -24 10.5zM95.999 14.498c-8.66699 9.66699 -13 21.167 -13 34.5s4.33301 24.833 13 34.5s19.667 14.5 33 14.5s24.333 -4.83301 33 -14.5s13 -21.167 13 -34.5
s-4.33301 -24.833 -13 -34.5s-19.667 -14.5 -33 -14.5s-24.333 4.83301 -33 14.5z" />
    <glyph glyph-name="at" unicode="@" horiz-adv-x="682" 
d="M456.5 424c24.333 -30.667 36.4961 -73.667 36.4961 -129v-49c0 -16 2.83301 -27 8.5 -33s14.5 -9 26.5 -9c14.667 0 26.667 9.33301 36 28s14 43 14 73c0 72.667 -20 129.167 -60 169.5s-95.667 60.5 -167 60.5c-52 0 -95.833 -11.833 -131.5 -35.5
s-62.167 -54 -79.5 -91s-26 -75.5 -26 -115.5c0 -43.333 7.83301 -83.833 23.5 -121.5s40.834 -68.5 75.501 -92.5s78.667 -36 132 -36c31.333 0 58.333 3.16699 81 9.5s45 16.833 67 31.5c8.66699 6.66699 17.667 10 27 10c8 0 15 -3.5 21 -10.5s9 -14.5 9 -22.5
c0 -6.66699 -1.16699 -12.167 -3.5 -16.5s-7.16602 -8.83301 -14.499 -13.5c-25.333 -17.333 -54.166 -30.5 -86.499 -39.5s-66.166 -13.5 -101.499 -13.5c-70 0 -127.333 14.833 -172 44.5s-77 68.334 -97 116.001s-30 99.167 -30 154.5c0 48 11.5 95.833 34.5 143.5
s57.5 87.167 103.5 118.5s102 47 168 47c60 0 112.333 -12 157 -36s79 -58.333 103 -103s36 -96.667 36 -156c0 -50 -10.833 -89.5 -32.5 -118.5s-51.5 -43.5 -89.5 -43.5c-32.667 0 -57.334 9.33301 -74.001 28l-26 -26c-10.667 -10 -23.667 -17.833 -39 -23.5
s-31.333 -8.5 -48 -8.5c-44.667 0 -79.667 16.167 -105 48.5s-38 76.166 -38 131.499c0 51.333 14.333 93.333 43 126s66.334 49 113.001 49c46 0 81.167 -15.333 105.5 -46zM422.996 235.5c0.666992 3 1.00098 6.16797 1.00098 9.50098v7v43c0 72 -24.333 108 -73 108
c-26.667 0 -47.834 -9.83301 -63.501 -29.5s-23.5 -45.834 -23.5 -78.501c0 -36.667 7 -64.667 21 -84s34 -29 60 -29c18 0 30.667 3.33301 38 10l33 33c4 4 6.33301 7.5 7 10.5z" />
    <glyph glyph-name="A" unicode="A" horiz-adv-x="579" 
d="M545 34c0 -10 -3.50098 -18.1689 -10.501 -24.502s-15.5 -9.5 -25.5 -9.5c-7.33301 0 -14.166 2.16699 -20.499 6.5s-10.833 10.166 -13.5 17.499l-76 209h-223l-73 -209c-2.66699 -7.33301 -7.16699 -13.166 -13.5 -17.499s-13.166 -6.5 -20.499 -6.5
c-10.667 0 -19 2.83301 -25 8.5s-9 12.834 -9 21.501c0 6.66699 1 12.334 3 17.001l215 614c2.66699 7.33301 7 13.166 13 17.499s12.667 6.5 20 6.5s14.166 -2.16699 20.499 -6.5s10.833 -10.166 13.5 -17.499l221 -607c2.66699 -7.33301 4 -14 4 -20zM374.999 299.998
l-89 247l-86 -247h175z" />
    <glyph glyph-name="B" unicode="B" horiz-adv-x="556" 
d="M114 10c-6.66699 6.66699 -10 15.001 -10 25.001v615c0 10 3.33301 18.333 10 25s14.667 10 24 10h141c54 0 98 -16.167 132 -48.5s51 -76.166 51 -131.499c0 -18.667 -2.83301 -37.167 -8.5 -55.5s-13.167 -33.833 -22.5 -46.5
c-5.33301 -6.66699 -12 -13.334 -20 -20.001s-15.333 -11.334 -22 -14.001c34.667 -12 61.167 -33.667 79.5 -65s27.5 -65.666 27.5 -102.999c0 -38.667 -8 -73.334 -24 -104.001s-39 -54.5 -69 -71.5s-65 -25.5 -105 -25.5h-160c-9.33301 -0 -17.333 3.33301 -24 10z
M284 395.001c32.667 0 58.501 9.83301 77.501 29.5s28.5 46.5 28.5 80.5c0 36 -9.83301 63.833 -29.5 83.5s-46.834 29.5 -81.501 29.5h-106v-223h111zM298.001 67.001c40 0 70.833 11.833 92.5 35.5s32.5 56.5 32.5 98.5c0 38.667 -11 69.5 -33 92.5s-52 34.5 -90 34.5
h-127v-261h125z" />
    <glyph glyph-name="C" unicode="C" horiz-adv-x="540" 
d="M173 37c-38 31.333 -66.6689 73.835 -86.002 127.502s-29 113.167 -29 178.5c0 66 9.83301 125.5 29.5 178.5s49.334 95.167 89.001 126.5s88.167 47 145.5 47c28.667 0 56.5 -5.16699 83.5 -15.5s51.167 -26.166 72.5 -47.499c6.66699 -6.66699 10 -15.334 10 -26.001
c0 -10 -3.5 -18.333 -10.5 -25s-15.167 -10 -24.5 -10c-6 0 -12.667 2 -20 6c-4 2 -9.66699 6 -17 12c-14.667 11.333 -29 20.166 -43 26.499s-31.667 9.5 -53 9.5c-39.333 0 -73 -12.5 -101 -37.5s-49.167 -58.833 -63.5 -101.5s-21.5 -90.334 -21.5 -143.001
c0 -82 16 -149.667 48 -203s78 -80 138 -80c23.333 0 42.333 3.83301 57 11.5s29.334 17.5 44.001 29.5c12 10 23.333 15 34 15c8.66699 0 16.334 -3.5 23.001 -10.5s10 -14.833 10 -23.5c0 -11.333 -5 -22 -15 -32c-18.667 -20 -42.334 -35 -71.001 -45
s-58.667 -15 -90 -15c-54.667 0 -101 15.667 -139 47z" />
    <glyph glyph-name="D" unicode="D" horiz-adv-x="630" 
d="M114 10c-6.66699 6.66699 -10 15.001 -10 25.001v615c0 10 3.5 18.333 10.5 25s15.167 10 24.5 10h188c60 0 108.333 -18 145 -54s62.5 -79.833 77.5 -131.5s22.5 -103.834 22.5 -156.501s-7.5 -105 -22.5 -157s-40.833 -96 -77.5 -132s-85 -54 -145 -54h-189
c-9.33301 -0 -17.333 3.33301 -24 10zM327 67.001c59.333 0 102.333 26.832 129 80.499s40 118.834 40 195.501c0 76 -13.5 140.833 -40.5 194.5s-70.5 80.5 -130.5 80.5h-152v-551h154z" />
    <glyph glyph-name="E" unicode="E" horiz-adv-x="474" 
d="M114 10c-6.66699 6.66699 -10 15 -10 25v615c0 10 3.33301 18.333 10 25s14.667 10 24 10h260c10.667 0 19.334 -3 26.001 -9s10 -14 10 -24c0 -10.667 -3.33301 -19 -10 -25s-15.334 -9 -26.001 -9h-225v-224h187c10.667 0 19.334 -3 26.001 -9s10 -14 10 -24
c0 -10.667 -3.33301 -19 -10 -25s-15.334 -9 -26.001 -9h-187v-260h225c10.667 0 19.334 -3 26.001 -9s10 -14 10 -24c0 -10.667 -3.33301 -19 -10 -25s-15.334 -9 -26.001 -9h-260c-9.33301 -0 -17.333 3.33301 -24 10z" />
    <glyph glyph-name="F" unicode="F" horiz-adv-x="450" 
d="M114.5 10c-7 6.66699 -10.5 15 -10.5 25v615c0 10 3.33301 18.333 10 25s14.667 10 24 10h260c10.667 0 19.334 -3 26.001 -9s10 -14 10 -24c0 -10.667 -3.33301 -19 -10 -25s-15.334 -9 -26.001 -9h-225v-224h187c10.667 0 19.334 -3 26.001 -9s10 -14 10 -24
c0 -10.667 -3.33301 -19 -10 -25s-15.334 -9 -26.001 -9h-187v-292c0 -10 -3.33301 -18.333 -10 -25s-14.667 -10 -24 -10s-17.5 3.33301 -24.5 10z" />
    <glyph glyph-name="G" unicode="G" horiz-adv-x="600" 
d="M174.5 37c-38.333 31.333 -67.332 73.834 -86.999 127.501s-29.5 113.167 -29.5 178.5s9.83301 124.666 29.5 177.999s48.5 95.666 86.5 126.999s84 47 138 47c31.333 0 61.5 -5.16699 90.5 -15.5s54.167 -26.166 75.5 -47.499c6.66699 -6.66699 10 -15.334 10 -26.001
c0 -10 -3.5 -18.333 -10.5 -25s-15.167 -10 -24.5 -10c-8 0 -15.667 2.66699 -23 8c-4 2.66699 -11.833 8.33398 -23.5 17.001s-25.334 15.667 -41.001 21s-33.5 8 -53.5 8c-36.667 0 -68.5 -12.5 -95.5 -37.5s-47.5 -59 -61.5 -102s-21 -90.5 -21 -142.5
s7.16699 -99.5 21.5 -142.5s35 -77.167 62 -102.5s58.833 -38 95.5 -38c29.333 0 56.5 7.16699 81.5 21.5s45 35.333 60 63s22.5 60.167 22.5 97.5v69h-149c-10.667 0 -19.334 3 -26.001 9s-10 14 -10 24c0 10.667 3.33301 19 10 25s15.334 9 26.001 9h178
c13.333 0 23.333 -4 30 -12s10 -19 10 -33v-93c0 -48 -10 -91 -30 -129s-47.667 -67.667 -83 -89s-75.333 -32 -120 -32c-54 0 -100.167 15.667 -138.5 47z" />
    <glyph glyph-name="H" unicode="H" horiz-adv-x="643" 
d="M114 9.5c-6.66699 6.33301 -10 15.5 -10 27.5v611c0 12 3.33301 21.167 10 27.5s14.667 9.5 24 9.5c10 0 18.333 -3.16699 25 -9.5s10 -15.5 10 -27.5v-271h297v271c0 12 3.33301 21.167 10 27.5s14.667 9.5 24 9.5c10 0 18.333 -3.16699 25 -9.5s10 -15.5 10 -27.5v-611
c0 -12 -3.33301 -21.167 -10 -27.5s-14.667 -9.5 -24 -9.5c-10 0 -18.333 3.16699 -25 9.5s-10 15.5 -10 27.5v273h-297v-273c0 -12 -3.33301 -21.167 -10 -27.5s-14.667 -9.5 -24 -9.5c-10 0 -18.333 3.16699 -25 9.5z" />
    <glyph glyph-name="I" unicode="I" horiz-adv-x="277" 
d="M114 9.5c-6.66699 6.33301 -10 15.5 -10 27.5v611c0 12 3.33301 21.167 10 27.5s14.667 9.5 24 9.5c10 0 18.333 -3.16699 25 -9.5s10 -15.5 10 -27.5v-611c0 -12 -3.33301 -21.167 -10 -27.5s-14.667 -9.5 -24 -9.5c-10 0 -18.333 3.16699 -25 9.5z" />
    <glyph glyph-name="J" unicode="J" horiz-adv-x="303" 
d="M16.5 0c-7.66699 6.66699 -11.499 15.001 -11.499 25.001c0 10.667 3.16699 19.334 9.5 26.001s14.166 10 23.499 10c34 0 61.667 11.667 83 35c15.333 17.333 25.5 38.166 30.5 62.499s7.5 52.166 7.5 83.499v406c0 12 3.33301 21.167 10 27.5s14.667 9.5 24 9.5
c10 0 18.333 -3.16699 25 -9.5s10 -15.5 10 -27.5v-404c0 -48 -5 -88.667 -15 -122s-28.333 -62.333 -55 -87c-32 -30 -70.333 -45 -115 -45c-10 0 -18.833 3.33301 -26.5 10z" />
    <glyph glyph-name="K" unicode="K" horiz-adv-x="561" 
d="M114 9.5c-6.66699 6.33301 -10 15.501 -10 27.501v611c0 12 3.33301 21.167 10 27.5s14.667 9.5 24 9.5c10 0 18.333 -3.16699 25 -9.5s10 -15.5 10 -27.5v-271h76c10 0 17.833 1 23.5 3s10.167 6 13.5 12l169 276c7.33301 11.333 17 17 29 17
c9.33301 0 17.166 -2.83301 23.499 -8.5s9.5 -13.5 9.5 -23.5c0 -6.66699 -2.66699 -14.334 -8 -23.001l-170 -276l-8 -13l161 -280c6.66699 -11.333 10 -21 10 -29c0 -8.66699 -3.5 -16.167 -10.5 -22.5s-15.833 -9.5 -26.5 -9.5c-13.333 -0 -24.666 8.33301 -33.999 25
l-161 288c-4.66699 -2 -12 -3 -22 -3h-75v-273c0 -12 -3.33301 -21.167 -10 -27.5s-14.667 -9.5 -24 -9.5c-10 0 -18.333 3.16699 -25 9.5z" />
    <glyph glyph-name="L" unicode="L" horiz-adv-x="441" 
d="M114 10c-6.66699 6.66699 -10 15.001 -10 25.001v613c0 12 3.33301 21.167 10 27.5s14.667 9.5 24 9.5c10 0 18.333 -3.16699 25 -9.5s10 -15.5 10 -27.5v-581h223c10.667 0 19.167 -2.83301 25.5 -8.5s9.5 -13.834 9.5 -24.501s-3.16699 -19 -9.5 -25
s-14.833 -9 -25.5 -9h-258c-9.33301 -0 -17.333 3.33301 -24 10z" />
    <glyph glyph-name="M" unicode="M" horiz-adv-x="736" 
d="M624 675c5.33301 -6.66699 8 -15 8 -25v-613c0 -12 -3.33301 -21.167 -10 -27.5s-14.667 -9.5 -24 -9.5s-17.166 3.16699 -23.499 9.5s-9.5 15.5 -9.5 27.5v475l-165 -334c-4.66699 -8 -9.33398 -14 -14.001 -18s-10.667 -6 -18 -6c-14 0 -25 8 -33 24l-164 331v-472
c0 -12 -3.16699 -21.167 -9.5 -27.5s-14.166 -9.5 -23.499 -9.5s-17.333 3.16699 -24 9.5s-10 15.5 -10 27.5v613c0 10 3 18.333 9 25s13.667 10 23 10c14.667 0 26 -8.33301 34 -25l200 -404l198 404c8.66699 16.667 20 25 34 25c9.33301 0 16.666 -3.33301 21.999 -10z
" />
    <glyph glyph-name="N" unicode="N" horiz-adv-x="654" 
d="M114 9.5c-6.66699 6.33301 -9.99902 15.499 -9.99902 27.499v612c0 10 3.16699 18.5 9.5 25.5s14.166 10.5 23.499 10.5c8 0 14.667 -1.66699 20 -5s10 -8.66602 14 -15.999l309 -503v487c0 12 3.33301 21.167 10 27.5s14.667 9.5 24 9.5c10 0 18.333 -3.16699 25 -9.5
s10 -15.5 10 -27.5v-617c0 -9.33301 -3.16699 -16.833 -9.5 -22.5s-13.833 -8.5 -22.5 -8.5c-14 -0 -25 6.33301 -33 19l-311 506v-488c0 -12 -3.33301 -21.167 -10 -27.5s-14.667 -9.5 -24 -9.5c-10 0 -18.333 3.16699 -25 9.5z" />
    <glyph glyph-name="O" unicode="O" horiz-adv-x="644" 
d="M175.5 37c-39.667 31.333 -69.167 73.666 -88.5 126.999s-29 113 -29 179s9.66699 125.5 29 178.5s48.833 95.167 88.5 126.5s88.5 47 146.5 47s106.833 -15.667 146.5 -47s69.167 -73.5 88.5 -126.5s29 -112.5 29 -178.5s-9.66699 -125.667 -29 -179
s-48.833 -95.666 -88.5 -126.999s-88.5 -47 -146.5 -47s-106.833 15.667 -146.5 47zM462.5 138c33 54 49.5 122.333 49.5 205s-16.5 150.834 -49.5 204.501s-79.833 80.5 -140.5 80.5s-107.5 -26.833 -140.5 -80.5s-49.5 -121.834 -49.5 -204.501s16.5 -151 49.5 -205
s79.833 -81 140.5 -81s107.5 27 140.5 81z" />
    <glyph glyph-name="P" unicode="P" horiz-adv-x="517" 
d="M114 9.5c-6.66699 6.33301 -9.99902 15.5 -9.99902 27.5v613c0 10 3.33301 18.333 10 25s14.667 10 24 10h161c53.333 0 95.666 -16.667 126.999 -50s47 -77.333 47 -132v-33c0 -54.667 -16.667 -98.667 -50 -132s-78 -50 -134 -50h-116v-251
c0 -12 -3.33301 -21.167 -10 -27.5s-14.667 -9.5 -24 -9.5c-10 0 -18.333 3.16699 -25 9.5zM289.001 355c37.333 0 66.167 9.83301 86.5 29.5s30.5 47.5 30.5 83.5v37c0 36 -9.33301 63.833 -28 83.5s-45 29.5 -79 29.5h-126v-263h116z" />
    <glyph glyph-name="Q" unicode="Q" horiz-adv-x="691" 
d="M623 53c6.66699 -6 9.99707 -14.666 9.99707 -25.999s-4 -20.333 -12 -27s-19.333 -10 -34 -10c-13.333 0 -25.666 2.66699 -36.999 8s-23.666 14.333 -36.999 27l-28 27c-43.333 -41.333 -97.666 -62 -162.999 -62c-58 0 -106.833 15.667 -146.5 47
s-69.167 73.666 -88.5 126.999s-29 113 -29 179s9.66699 125.5 29 178.5s48.833 95.167 88.5 126.5s88.5 47 146.5 47s106.833 -15.667 146.5 -47s69.167 -73.5 88.5 -126.5s29 -112.5 29 -178.5c0 -95.333 -18.667 -174 -56 -236l26 -26c12.667 -12.667 26.667 -19 42 -19
c10 0 18.333 -3 25 -9zM433.997 102.001l-26.999 26.002c-8.66699 8.66699 -15.167 16.167 -19.5 22.5s-6.5 13.166 -6.5 20.499c0 10 3.33301 18.333 10 25s15 10 25 10c6.66699 0 12.5 -1.5 17.5 -4.5s12.167 -9.16699 21.5 -18.5l21 -21c24 49.333 36 109.666 36 180.999
c0 82.667 -16.5 150.834 -49.5 204.501s-79.833 80.5 -140.5 80.5s-107.5 -26.833 -140.5 -80.5s-49.5 -121.834 -49.5 -204.501s16.5 -151 49.5 -205s79.833 -81 140.5 -81c43.333 0 80.666 15 111.999 45z" />
    <glyph glyph-name="R" unicode="R" horiz-adv-x="566" 
d="M516 31c0 -8 -3.00098 -15.166 -9.00098 -21.499s-14 -9.5 -24 -9.5c-14.667 0 -25.334 6.66699 -32.001 20l-137 269c-3.33301 -0.666992 -8.66602 -1 -15.999 -1h-125v-251c0 -12 -3.33301 -21.167 -10 -27.5s-14.667 -9.5 -24 -9.5c-10 0 -18.333 3.16699 -25 9.5
s-10 15.5 -10 27.5v613c0 10 3.33301 18.333 10 25s14.667 10 24 10h170c53.333 0 95.833 -16.667 127.5 -50s47.5 -77.333 47.5 -132v-33c0 -38.667 -8.66699 -72.5 -26 -101.5s-41.666 -50.167 -72.999 -63.5l126 -251c4 -6.66699 6 -14.334 6 -23.001zM297.999 355.001
c37.333 0 66.333 10.167 87 30.5s31 48.5 31 84.5v33c0 36 -9.5 64.167 -28.5 84.5s-45.5 30.5 -79.5 30.5h-135v-263h125z" />
    <glyph glyph-name="S" unicode="S" horiz-adv-x="501" 
d="M144 9c-30.667 12.667 -56.665 32.333 -77.998 59c-2 2.66699 -3.83301 6.5 -5.5 11.5s-2.5 9.83301 -2.5 14.5c0 11.333 3.66699 19.833 11 25.5s15 8.5 23 8.5c6.66699 0 15 -3.66699 25 -11c3.33301 -2.66699 10.833 -9.5 22.5 -20.5s26.167 -20 43.5 -27
s37.666 -10.5 60.999 -10.5c22 0 42.5 5.66699 61.5 17s34.167 26.5 45.5 45.5s17 39.5 17 61.5c0 30 -6.5 54.5 -19.5 73.5s-29 33.833 -48 44.5s-45.167 22.667 -78.5 36c-36 14 -64.833 27.5 -86.5 40.5s-40 31.167 -55 54.5s-22.5 53.666 -22.5 90.999
c0 35.333 9 66 27 92s41.5 45.833 70.5 59.5s59.5 20.5 91.5 20.5c31.333 0 61.666 -5.16699 90.999 -15.5s54.333 -26.166 75 -47.499c6.66699 -6.66699 10 -15.334 10 -26.001c0 -10 -3.33301 -18.333 -10 -25s-14.667 -10 -24 -10c-8.66699 0 -18.667 4 -30 12
c-18.667 14 -35.5 24.5 -50.5 31.5s-35.5 10.5 -61.5 10.5c-33.333 0 -60.666 -9.33301 -81.999 -28s-32 -43.334 -32 -74.001c0 -22.667 5.66699 -41.667 17 -57s25.5 -27.666 42.5 -36.999s40.167 -19.666 69.5 -30.999c38.667 -15.333 70 -30.166 94 -44.499
s44.5 -35.333 61.5 -63s25.5 -63.5 25.5 -107.5c0 -34.667 -9.33301 -66.834 -28 -96.501s-43.334 -53.167 -74.001 -70.5s-63 -26 -97 -26c-36 0 -69.333 6.33301 -100 19z" />
    <glyph glyph-name="T" unicode="T" horiz-adv-x="546" 
d="M531 676c6.66699 -6 10 -14 10 -24c0 -10.667 -3.33301 -19 -10 -25s-15.334 -9 -26.001 -9h-198v-581c0 -12 -3.33301 -21.167 -10 -27.5s-14.667 -9.5 -24 -9.5c-10 0 -18.333 3.16699 -25 9.5s-10 15.5 -10 27.5v581h-197c-10.667 0 -19.334 3 -26.001 9
s-10 14.333 -10 25c0 10 3.33301 18 10 24s15.334 9 26.001 9h464c10.667 0 19.334 -3 26.001 -9z" />
    <glyph glyph-name="U" unicode="U" horiz-adv-x="672" 
d="M159 77.5c-36.667 58.333 -54.999 128.832 -54.999 211.499v359c0 12 3.33301 21.167 10 27.5s14.667 9.5 24 9.5c10 0 18.333 -3.16699 25 -9.5s10 -15.5 10 -27.5v-349c0 -68 13.167 -124.667 39.5 -170s67.5 -68 123.5 -68c54 0 94.667 23 122 69s41 102.333 41 169
v349c0 12 3.33301 21.167 10 27.5s14.667 9.5 24 9.5c10 0 18.333 -3.16699 25 -9.5s10 -15.5 10 -27.5v-359c0 -51.333 -7.66699 -99.666 -23 -144.999s-40.333 -82.333 -75 -111s-79.334 -43 -134.001 -43c-81.333 0 -140.333 29.167 -177 87.5z" />
    <glyph glyph-name="V" unicode="V" horiz-adv-x="577" 
d="M532.5 676c6.33301 -6 9.5 -14.333 9.5 -25c0 -4.66699 -1 -10 -3 -16l-218 -622c-2.66699 -6.66699 -7 -12.167 -13 -16.5s-12.667 -6.5 -20 -6.5s-14 2.16699 -20 6.5s-10.333 9.83301 -13 16.5l-217 620c-2 6 -3 12 -3 18c0 10 3.16699 18.167 9.5 24.5
s14.5 9.5 24.5 9.5c18 0 30.333 -9.33301 37 -28l185 -533l183 537c6 16 17.333 24 34 24c10 0 18.167 -3 24.5 -9z" />
    <glyph glyph-name="W" unicode="W" horiz-adv-x="928" 
d="M884.5 676c5.66699 -6 8.49902 -14.001 8.49902 -24.001c0 -2 -1 -7 -3 -15l-191 -620c-6 -18 -17 -27 -33 -27c-8.66699 0 -16 2.66699 -22 8s-10 11.666 -12 18.999l-167 529l-166 -529c-2 -7.33301 -6.16699 -13.666 -12.5 -18.999s-13.833 -8 -22.5 -8
c-16 0 -27 9 -33 27l-194 618c-1.33301 4 -2 9.33301 -2 16c0 10.667 3.33301 19 10 25s14.667 9 24 9c8 0 15.167 -2.16699 21.5 -6.5s10.833 -10.5 13.5 -18.5l165 -524l162 522c6 18 18 27 36 27c17.333 0 29 -9 35 -27l165 -522l155 513c4 12.667 9 21.834 15 27.501
s13.667 8.5 23 8.5c10.667 0 18.834 -3 24.501 -9z" />
    <glyph glyph-name="X" unicode="X" horiz-adv-x="624" 
d="M66.5 11.5c-5.66699 7.66699 -8.5 16.1689 -8.5 25.502c0 28.667 6.5 56.667 19.5 84s29.5 52 49.5 74l137 148l-137 148c-20 21.333 -36.5 45.833 -49.5 73.5s-19.5 55.834 -19.5 84.501c0 9.33301 2.83301 17.666 8.5 24.999s14.5 11 26.5 11
c13.333 0 22.166 -3.83301 26.499 -11.5s7.16602 -16.334 8.49902 -26.001l3 -21.5c3.33301 -16.667 8.66602 -31.5 15.999 -44.5s18 -26.833 32 -41.5l133 -144l132 144c14 14.667 24.667 28.5 32 41.5s12.666 27.833 15.999 44.5l3.5 23.5c1.66699 11 5 19.667 10 26
s13.167 9.5 24.5 9.5c12 0 21 -3.83301 27 -11.5s9 -15.834 9 -24.501c0 -28.667 -6.5 -56.834 -19.5 -84.501s-29.5 -52.167 -49.5 -73.5l-137 -148l137 -148c20 -22 36.5 -46.667 49.5 -74s19.5 -55.333 19.5 -84c0 -9.33301 -3 -17.833 -9 -25.5s-15 -11.5 -27 -11.5
c-13.333 0 -22.166 3.83301 -26.499 11.5s-7.16602 16.334 -8.49902 26.001l-3 21.5c-3.33301 17.333 -8.5 32.5 -15.5 45.5s-17.167 26.5 -30.5 40.5l-134 145l-134 -145c-13.333 -14.667 -23.666 -28.5 -30.999 -41.5s-12.666 -27.833 -15.999 -44.5l-3.5 -23.5
c-1.66699 -11 -5 -19.667 -10 -26s-13.167 -9.5 -24.5 -9.5c-12 -0 -20.833 3.83301 -26.5 11.5z" />
    <glyph glyph-name="Y" unicode="Y" horiz-adv-x="559" 
d="M259 9.5c-6.66699 6.33301 -10.001 15.5 -10.001 27.5v213l-203 380c-4.66699 9.33301 -7 16.666 -7 21.999c0 10.667 3.33301 18.834 10 24.501s14 8.5 22 8.5c9.33301 0 16.833 -1.83301 22.5 -5.5s10.834 -10.167 15.501 -19.5l173 -329l174 329
c4.66699 8.66699 9.66699 15 15 19s12 6 20 6c10 0 18.167 -3.33301 24.5 -10s9.5 -14.667 9.5 -24c0 -4.66699 -1.33301 -9.66699 -4 -15l-203 -384v-215c0 -12 -3.33301 -21.167 -10 -27.5s-14.667 -9.5 -24 -9.5c-10 0 -18.333 3.16699 -25 9.5z" />
    <glyph glyph-name="Z" unicode="Z" horiz-adv-x="531" 
d="M461.5 57.5c7 -6.33301 10.5 -14.167 10.5 -23.5c0 -10 -3.33301 -18.167 -10 -24.5s-15 -9.5 -25 -9.5h-340c-10 0 -18.667 3.16699 -26 9.5s-11 14.5 -11 24.5c0 6 3.33301 15 10 27l312 557h-266c-10 0 -18.333 3 -25 9s-10 14 -10 24s3.33301 18.167 10 24.5
s15 9.5 25 9.5h330c10 0 18.333 -3.16699 25 -9.5s10 -14.5 10 -24.5c0 -5.33301 -3.33301 -14 -10 -26l-312 -558h278c9.33301 0 17.5 -3.16699 24.5 -9.5z" />
    <glyph glyph-name="bracketleft" unicode="[" horiz-adv-x="403" 
d="M204.5 -110c-28.333 19.333 -50.666 48.1699 -66.999 86.5029s-24.5 84.833 -24.5 139.5v324c0 54.667 8.16699 101.167 24.5 139.5s38.666 67.166 66.999 86.499s60.166 29 95.499 29c8.66699 0 16.334 -3.66699 23.001 -11s10 -16 10 -26s-3.16699 -18.333 -9.5 -25
s-14.166 -10 -23.499 -10c-40.667 0 -70.5 -16.833 -89.5 -50.5s-28.5 -77.834 -28.5 -132.501v-324c0 -64.667 11.167 -111.334 33.5 -140.001s50.5 -43 84.5 -43c9.33301 0 17.166 -3.33301 23.499 -10s9.5 -15 9.5 -25s-3.33301 -18.667 -10 -26s-14.334 -11 -23.001 -11
c-35.333 0 -67.166 9.66699 -95.499 29z" />
    <glyph glyph-name="backslash" unicode="\" horiz-adv-x="372" 
d="M259.5 -3.5c-5.66699 4.33301 -9.83398 10.499 -12.501 18.499l-183 626c-2.66699 8.66699 -4 15.334 -4 20.001c0 10 3.16699 18.167 9.5 24.5s13.833 9.5 22.5 9.5c7.33301 0 14 -2.16699 20 -6.5s10.333 -10.5 13 -18.5l181 -624c4 -13.333 6 -21.333 6 -24
c0 -10 -3.16699 -17.833 -9.5 -23.5s-14.166 -8.5 -23.499 -8.5c-7.33301 0 -13.833 2.16699 -19.5 6.5z" />
    <glyph glyph-name="bracketright" unicode="]" horiz-adv-x="403" 
d="M80.5 -128c-6.33301 7.33301 -9.5 15.9961 -9.5 25.9961s3 18.333 9 25s13.667 10 23 10c38.667 0 68 15.333 88 46s30 76.334 30 137.001v324c0 64.667 -11.167 111.334 -33.5 140.001s-50.5 43 -84.5 43c-9.33301 0 -17 3.33301 -23 10s-9 15 -9 25
s3.16699 18.667 9.5 26s13.833 11 22.5 11c35.333 0 67.166 -9.66699 95.499 -29s50.666 -48.166 66.999 -86.499s24.5 -84.833 24.5 -139.5v-324c0 -54.667 -8.16699 -101.167 -24.5 -139.5s-38.666 -67.166 -66.999 -86.499s-60.166 -29 -95.499 -29
c-8.66699 0 -16.167 3.66699 -22.5 11z" />
    <glyph glyph-name="asciicircum" unicode="^" 
d="M83.5 450.5c-7 6.33301 -10.5029 14.166 -10.5029 23.499c0 8 2.66699 15.333 8 22l166 188c7.33301 8.66699 16.333 13 27 13s19.667 -4.33301 27 -13l165 -189c6.66699 -8 10 -15 10 -21c0 -9.33301 -3.5 -17.166 -10.5 -23.499s-15.167 -9.5 -24.5 -9.5
c-5.33301 0 -10.666 1.16699 -15.999 3.5s-9.66602 5.5 -12.999 9.5l-138 161l-138 -161c-7.33301 -8.66699 -16.666 -13 -27.999 -13c-9.33301 0 -17.5 3.16699 -24.5 9.5z" />
    <glyph glyph-name="underscore" unicode="_" horiz-adv-x="433" 
d="M29.5 -107c-6.33301 6.66699 -9.5 14.667 -9.5 24s3.16699 17.166 9.5 23.499s13.833 9.5 22.5 9.5h328c8.66699 0 16.334 -3.33301 23.001 -10s10 -14.667 10 -24s-3.33301 -17.166 -10 -23.499s-14.334 -9.5 -23.001 -9.5h-328c-8.66699 0 -16.167 3.33301 -22.5 10z
" />
    <glyph glyph-name="grave" unicode="`" horiz-adv-x="227" 
d="M153 544l-114 58c-9.33301 5.33301 -14 13 -14 23c0 6.66699 2.5 12.334 7.5 17.001s11.167 7 18.5 7c5.33301 0 11.333 -1.66699 18 -5l114 -58c9.33301 -5.33301 14 -13 14 -23c0 -6.66699 -2.5 -12.334 -7.5 -17.001s-11.167 -7 -18.5 -7
c-5.33301 0 -11.333 1.66699 -18 5z" />
    <glyph glyph-name="a" unicode="a" horiz-adv-x="514" 
d="M126.5 25.5c-29.667 23.667 -50.999 54.001 -63.999 91.001s-19.5 76.167 -19.5 117.5c0 40.667 7.16699 79.667 21.5 117s36.833 68 67.5 92s69.334 36 116.001 36s85 -11.667 115 -35s51.667 -53.333 65 -90s20 -75.667 20 -117v-200c0 -12 -3.33301 -21.167 -10 -27.5
s-14.667 -9.5 -24 -9.5c-10 0 -18.333 3.16699 -25 9.5s-10 15.5 -10 27.5v30c-4 -4.66699 -10 -10.334 -18 -17.001l-33 -27c-14.667 -12 -28.334 -20.5 -41.001 -25.5s-28 -7.5 -46 -7.5c-46.667 0 -84.834 11.833 -114.501 35.5zM293.001 73.001l67.001 60
c7.33301 6 12.333 12 15 18s4 13 4 21v65c0 49.333 -11.167 90.833 -33.5 124.5s-54.833 50.5 -97.5 50.5s-75.334 -17.167 -98.001 -51.5s-34 -76.5 -34 -126.5c0 -50.667 10.333 -93 31 -127s52 -51 94 -51c22 0 39.333 5.66699 52 17z" />
    <glyph glyph-name="b" unicode="b" horiz-adv-x="518" 
d="M230 -2.5c-13.333 5 -26.666 13.499 -39.999 25.499l-32 28c-8 6.66699 -14 12.334 -18 17.001v-31c0 -12 -3.33301 -21.167 -10 -27.5s-15 -9.5 -25 -9.5c-9.33301 0 -17.333 3.16699 -24 9.5s-10 15.5 -10 27.5v648c0 12 3.33301 21.167 10 27.5s15 9.5 25 9.5
c9.33301 0 17.333 -3.16699 24 -9.5s10 -15.5 10 -27.5v-263c13.333 18 31.666 32 54.999 42s48.666 15 75.999 15c46.667 0 85.334 -12 116.001 -36s53 -54.667 67 -92s21 -76.333 21 -117c0 -41.333 -6.5 -80.5 -19.5 -117.5s-34.167 -67.333 -63.5 -91
s-67.333 -35.5 -114 -35.5c-18.667 0 -34.667 2.5 -48 7.5zM371.5 106.999c20.333 34 30.501 76.333 30.501 127c0 50 -11.167 92.333 -33.5 127s-54.833 52 -97.5 52c-44 0 -76.833 -15.667 -98.5 -47s-32.5 -71.666 -32.5 -120.999v-73
c0 -8.66699 1.16699 -15.834 3.5 -21.501s7.16602 -11.5 14.499 -17.5l68 -60c12.667 -11.333 30 -17 52 -17c42 0 73.167 17 93.5 51z" />
    <glyph glyph-name="c" unicode="c" horiz-adv-x="409" 
d="M132.5 25.5c-31 23.667 -53.6709 54.166 -68.0039 91.499s-21.5 76.333 -21.5 117s7.16699 79.667 21.5 117s36.833 68 67.5 92s69.334 36 116.001 36c21.333 0 43.333 -3.16699 66 -9.5s40.334 -15.166 53.001 -26.499c11.333 -10 17 -21.333 17 -34
c0 -10 -3.16699 -18.167 -9.5 -24.5s-14.166 -9.5 -23.499 -9.5c-6.66699 0 -13 2 -19 6c-4 2 -10 5.83301 -18 11.5s-17.333 10.167 -28 13.5s-23 5 -37 5c-42.667 0 -75.5 -17 -98.5 -51s-34.5 -76 -34.5 -126c0 -49.333 11.333 -91 34 -125s55.334 -51 98.001 -51
c17.333 0 31.5 2.16699 42.5 6.5s19.833 8.83301 26.5 13.5l13 9c8 4.66699 15.333 7 22 7c9.33301 0 17 -3 23 -9s9 -14 9 -24c0 -4.66699 -1 -9.66699 -3 -15s-4.66699 -9.33301 -8 -12c-16 -14.667 -35 -25.667 -57 -33s-44.333 -11 -67 -11
c-46.667 0 -85.5 11.833 -116.5 35.5z" />
    <glyph glyph-name="d" unicode="d" horiz-adv-x="519" 
d="M126.5 25.5c-29.667 23.667 -50.999 54.001 -63.999 91.001s-19.5 76.167 -19.5 117.5s7.16699 80.5 21.5 117.5s36.833 67.5 67.5 91.5s69.334 36 116.001 36c27.333 0 52.666 -5 75.999 -15s41.666 -24 54.999 -42v263c0 12 3.33301 21.167 10 27.5s14.667 9.5 24 9.5
c10 0 18.333 -3.16699 25 -9.5s10 -15.5 10 -27.5v-648c0 -12 -3.33301 -21.167 -10 -27.5s-14.667 -9.5 -24 -9.5c-10 0 -18.333 3.16699 -25 9.5s-10 15.5 -10 27.5v31c-4 -4.66699 -10 -10.334 -18 -17.001l-32 -28c-13.333 -12 -26.666 -20.5 -39.999 -25.5
s-29.333 -7.5 -48 -7.5c-46.667 0 -84.834 11.833 -114.501 35.5zM293.001 73.001l68.002 60c7.33301 6 12.166 11.833 14.499 17.5s3.5 12.834 3.5 21.501v73c0 49.333 -10.833 89.666 -32.5 120.999s-54.5 47 -98.5 47c-42.667 0 -75.334 -17.333 -98.001 -52
s-34 -77 -34 -127c0 -50.667 10.167 -93 30.5 -127s51.833 -51 94.5 -51c22 0 39.333 5.66699 52 17z" />
    <glyph glyph-name="e" unicode="e" horiz-adv-x="480" 
d="M133 25c-31.333 23.333 -54.1631 53.5029 -68.4961 90.5029s-21.5 76.5 -21.5 118.5c0 40.667 7.33301 79.667 22 117s37.667 68 69 92s70.666 36 117.999 36c36 0 68.5 -9.83301 97.5 -29.5s51.667 -45.167 68 -76.5s24.5 -64.333 24.5 -99
c0 -20.667 -3.33301 -35.334 -10 -44.001s-18.334 -13 -35.001 -13h-280c0.666992 -45.333 12.667 -83 36 -113s55.666 -45 96.999 -45c18.667 0 33.667 1.83301 45 5.5s21.166 7.66699 29.499 12s14.166 7.5 17.499 9.5c12 6 21.667 9 29 9c8 0 14.833 -3 20.5 -9
s8.5 -13.333 8.5 -22c0 -6.66699 -1.83301 -12.834 -5.5 -18.501s-9.5 -11.834 -17.5 -18.501c-13.333 -11.333 -31.666 -20.333 -54.999 -27s-46.333 -10 -69 -10c-48.667 0 -88.667 11.667 -120 35zM367.003 284.003c-2.66699 37.333 -14 68 -34 92s-47.667 36 -83 36
c-34.667 0 -63.167 -11.833 -85.5 -35.5s-36.833 -54.5 -43.5 -92.5h246z" />
    <glyph glyph-name="f" unicode="f" horiz-adv-x="298" 
d="M81 9.5c-6.66699 6.33301 -9.99902 15.5039 -9.99902 27.5039v451c0 46.667 7.16699 87.667 21.5 123s35 62.666 62 81.999s58.167 29 93.5 29c14 0 25.167 -3.33301 33.5 -10s12.5 -15.334 12.5 -26.001c0 -19.333 -12.333 -30 -37 -32
c-42.667 -4 -72.834 -20.167 -90.501 -48.5s-26.5 -63.5 -26.5 -105.5v-30h88c10.667 0 19.167 -2.83301 25.5 -8.5s9.5 -13.834 9.5 -24.501s-3.16699 -18.834 -9.5 -24.501s-14.833 -8.5 -25.5 -8.5h-88v-367c0 -12 -3.33301 -21.167 -10 -27.5s-14.667 -9.5 -24 -9.5
c-10 0 -18.333 3.16699 -25 9.5z" />
    <glyph glyph-name="g" unicode="g" horiz-adv-x="519" 
d="M236.5 -254.5c-7 6.33301 -10.5039 14.833 -10.5039 25.5s3.33301 19.167 10 25.5s15.334 10.166 26.001 11.499c22 2.66699 38.667 6.66699 50 12s22 13.666 32 24.999c14 16.667 23.333 37 28 61s7 51 7 81v71c-13.333 -16.667 -32 -30.5 -56 -41.5
s-49.667 -16.5 -77 -16.5c-46.667 0 -85.167 11.5 -115.5 34.5s-52.5 52.833 -66.5 89.5s-21 75.334 -21 116.001c0 41.333 6.5 80 19.5 116s34.333 65.5 64 88.5s67.834 34.5 114.501 34.5c18.667 0 34.334 -2.33301 47.001 -7s26 -13 40 -25l35 -30
c8 -7.33301 13.333 -12.666 16 -15.999v32c0 12 3.33301 21.167 10 27.5s14.667 9.5 24 9.5c10 0 18.333 -3.16699 25 -9.5s10 -15.5 10 -27.5v-444c0 -48 -5 -88.5 -15 -121.5s-28.333 -61.833 -55 -86.5c-31.333 -30 -68.666 -45 -111.999 -45
c-12.667 0 -22.5 3.16699 -29.5 9.5zM345.996 114c22 30.667 32.999 70.333 32.999 119v65c0 8 -1.33301 15 -4 21s-7.66699 12 -15 18l-67 59c-12.667 11.333 -30 17 -52 17c-42 0 -73.333 -16.333 -94 -49s-31 -74 -31 -124c0 -49.333 11.333 -90.333 34 -123
s55.334 -49 98.001 -49c43.333 0 76 15.333 98 46z" />
    <glyph glyph-name="h" unicode="h" horiz-adv-x="537" 
d="M81 9.5c-6.66699 6.33301 -10.001 15.502 -10.001 27.502v648c0 12 3.33301 21.167 10 27.5s15 9.5 25 9.5c9.33301 0 17.333 -3.16699 24 -9.5s10 -15.5 10 -27.5v-284c2.66699 3.33301 8 8.66602 16 15.999l33 29c14 12 28.667 20.5 44 25.5s32.666 7.5 51.999 7.5
c68 0 116 -22.5 144 -67.5s42 -101.167 42 -168.5v-206c0 -12 -3.33301 -21.167 -10 -27.5s-14.667 -9.5 -24 -9.5c-10 0 -18.333 3.16699 -25 9.5s-10 15.5 -10 27.5v206c0 52 -10 93.667 -30 125s-52 47 -96 47c-19.333 0 -36.666 -6.66699 -51.999 -20l-66 -58
c-7.33301 -6 -12.166 -11.833 -14.499 -17.5s-3.5 -12.834 -3.5 -21.501v-261c0 -12 -3.33301 -21.167 -10 -27.5s-14.667 -9.5 -24 -9.5c-10 0 -18.333 3.16699 -25 9.5z" />
    <glyph glyph-name="i" unicode="i" horiz-adv-x="212" 
d="M73 611.5c-8.66699 9.66699 -13 21.167 -13 34.5s4.33301 24.833 13 34.5s19.667 14.5 33 14.5s24.333 -4.83301 33 -14.5s13 -21.167 13 -34.5s-4.33301 -24.833 -13 -34.5s-19.667 -14.5 -33 -14.5s-24.333 4.83301 -33 14.5zM81 9.5
c-6.66699 6.33301 -10 15.5 -10 27.5v396c0 12 3.33301 21.167 10 27.5s14.667 9.5 24 9.5c10 0 18.333 -3.16699 25 -9.5s10 -15.5 10 -27.5v-396c0 -12 -3.33301 -21.167 -10 -27.5s-15 -9.5 -25 -9.5c-9.33301 0 -17.333 3.16699 -24 9.5z" />
    <glyph glyph-name="j" unicode="j" horiz-adv-x="299" 
d="M160 611.5c-8.66699 9.66699 -13 21.167 -13 34.5s4.33301 24.833 13 34.5s19.667 14.5 33 14.5s24.333 -4.83301 33 -14.5s13 -21.167 13 -34.5s-4.33301 -24.833 -13 -34.5s-19.667 -14.5 -33 -14.5s-24.333 4.83301 -33 14.5zM17 -254.5
c-8 6.33301 -12.001 14.834 -12.001 25.501c0 10 3.33301 18.167 10 24.5s15.334 10.166 26.001 11.499c37.333 4.66699 64 16 80 34c15.333 16.667 25.5 37.5 30.5 62.5s7.5 53.167 7.5 84.5v445c0 12 3.33301 21.167 10 27.5s15 9.5 25 9.5
c9.33301 0 17.333 -3.16699 24 -9.5s10 -15.5 10 -27.5v-443c0 -48 -5 -88.833 -15 -122.5s-28.333 -62.5 -55 -86.5c-32 -30 -68.667 -45 -110 -45c-12.667 0 -23 3.16699 -31 9.5z" />
    <glyph glyph-name="k" unicode="k" horiz-adv-x="419" 
d="M81 9.5c-6.66699 6.33301 -10 15.4971 -10 27.4971v648c0 12 3.33301 21.167 10 27.5s15 9.5 25 9.5c9.33301 0 17.333 -3.16699 24 -9.5s10 -15.5 10 -27.5v-363h32c9.33301 0 17 0.833008 23 2.5s12.333 5.83398 19 12.501l65 62c6.66699 6.66699 11.834 13 15.501 19
s6.5 13.667 8.5 23c2 8 5.66699 14.833 11 20.5s12.666 8.5 21.999 8.5c11.333 0 19.5 -3.66699 24.5 -11s7.5 -15.666 7.5 -24.999c0 -13.333 -3.5 -27.166 -10.5 -41.499s-16.5 -27.166 -28.5 -38.499l-54 -50l-20 -18l131 -224c6.66699 -10.667 10 -20.667 10 -30
c0 -10 -3 -17.833 -9 -23.5s-12.667 -8.5 -20 -8.5c-8 0 -14.667 1.66699 -20 5s-10.333 8.66602 -15 15.999l-137 235c-5.33301 -0.666992 -13.333 -1 -24 -1h-31v-218c0 -12 -3.33301 -21.167 -10 -27.5s-14.667 -9.5 -24 -9.5c-10 0 -18.333 3.16699 -25 9.5z" />
    <glyph glyph-name="l" unicode="l" horiz-adv-x="255" 
d="M103 35.5c-18.667 23.667 -28 59.832 -28 108.499v541c0 12 3.33301 21.167 10 27.5s15 9.5 25 9.5c9.33301 0 17.333 -3.16699 24 -9.5s10 -15.5 10 -27.5v-548c0 -22 3.5 -38 10.5 -48s22.167 -19.667 45.5 -29c13.333 -5.33301 20 -14.666 20 -27.999
c0 -10 -4.16699 -17.833 -12.5 -23.5s-19.833 -8.5 -34.5 -8.5c-28 -0 -51.333 11.833 -70 35.5z" />
    <glyph glyph-name="m" unicode="m" horiz-adv-x="870" 
d="M81 9.5c-6.66699 6.33301 -10.001 15.502 -10.001 27.502v396c0 12 3.33301 21.167 10 27.5s15 9.5 25 9.5c9.33301 0 17.333 -3.16699 24 -9.5s10 -15.5 10 -27.5v-32c2.66699 3.33301 8 8.66602 16 15.999l33 29c14 12 28.667 20.5 44 25.5s32.666 7.5 51.999 7.5
c77.333 0 131 -32.333 161 -97l74 64c14 12 28.667 20.5 44 25.5s32.666 7.5 51.999 7.5c68 0 116 -22.5 144 -67.5s42 -101.167 42 -168.5v-206c0 -12 -3.33301 -21.167 -10 -27.5s-14.667 -9.5 -24 -9.5c-10 0 -18.333 3.16699 -25 9.5s-10 15.5 -10 27.5v206
c0 52.667 -9.83301 94.5 -29.5 125.5s-51.5 46.5 -95.5 46.5c-19.333 0 -36.666 -6.66699 -51.999 -20l-91 -78c4 -24 6 -48.667 6 -74v-206c0 -12 -3.33301 -21.167 -10 -27.5s-14.667 -9.5 -24 -9.5c-10 0 -18.333 3.16699 -25 9.5s-10 15.5 -10 27.5v206
c0 52 -10 93.667 -30 125s-52 47 -96 47c-19.333 0 -36.666 -6.66699 -51.999 -20l-66 -58c-7.33301 -6 -12.166 -11.833 -14.499 -17.5s-3.5 -12.834 -3.5 -21.501v-261c0 -12 -3.33301 -21.167 -10 -27.5s-14.667 -9.5 -24 -9.5c-10 0 -18.333 3.16699 -25 9.5z" />
    <glyph glyph-name="n" unicode="n" horiz-adv-x="537" 
d="M81 9.5c-6.66699 6.33301 -10.001 15.502 -10.001 27.502v396c0 12 3.33301 21.167 10 27.5s15 9.5 25 9.5c9.33301 0 17.333 -3.16699 24 -9.5s10 -15.5 10 -27.5v-32c2.66699 3.33301 8 8.66602 16 15.999l33 29c14 12 28.667 20.5 44 25.5s32.666 7.5 51.999 7.5
c68 0 116 -22.5 144 -67.5s42 -101.167 42 -168.5v-206c0 -12 -3.33301 -21.167 -10 -27.5s-14.667 -9.5 -24 -9.5c-10 0 -18.333 3.16699 -25 9.5s-10 15.5 -10 27.5v206c0 52 -10 93.667 -30 125s-52 47 -96 47c-19.333 0 -36.666 -6.66699 -51.999 -20l-66 -58
c-7.33301 -6 -12.166 -11.833 -14.499 -17.5s-3.5 -12.834 -3.5 -21.501v-261c0 -12 -3.33301 -21.167 -10 -27.5s-14.667 -9.5 -24 -9.5c-10 0 -18.333 3.16699 -25 9.5z" />
    <glyph glyph-name="o" unicode="o" horiz-adv-x="495" 
d="M132 25.5c-30.667 23.667 -53.167 54.167 -67.5 91.5s-21.5 76.333 -21.5 117s7.16699 79.667 21.5 117s36.833 68 67.5 92s69.334 36 116.001 36s85.334 -11.833 116.001 -35.5s53 -54.167 67 -91.5s21 -76.333 21 -117s-7 -79.667 -21 -117s-36.333 -68 -67 -92
s-69.334 -36 -116.001 -36s-85.334 11.833 -116.001 35.5zM345.5 108.5c22.333 34.333 33.5 76.5 33.5 126.5s-11.167 92 -33.5 126s-54.833 51 -97.5 51s-75.334 -17.167 -98.001 -51.5s-34 -76.5 -34 -126.5s11.333 -92 34 -126s55.334 -51 98.001 -51
s75.167 17.167 97.5 51.5z" />
    <glyph glyph-name="p" unicode="p" horiz-adv-x="518" 
d="M81 -242.5c-6.66699 6.33301 -9.99805 15.501 -9.99805 27.501v648c0 12 3.33301 21.167 10 27.5s15 9.5 25 9.5c9.33301 0 17.333 -3.16699 24 -9.5s10 -15.5 10 -27.5v-32c2.66699 3.33301 8 8.66602 16 15.999l34 30c13.333 12 26.5 20.333 39.5 25s29.167 7 48.5 7
c46.667 0 84.667 -11.833 114 -35.5s50.5 -54 63.5 -91s19.5 -76.167 19.5 -117.5c0 -40.667 -7 -79.667 -21 -117s-36.333 -68 -67 -92s-69.334 -36 -116.001 -36c-27.333 0 -52.833 5.33301 -76.5 16s-41.834 25 -54.501 43v-264c0 -12 -3.33301 -21.167 -10 -27.5
s-14.667 -9.5 -24 -9.5c-10 0 -18.333 3.16699 -25 9.5zM368.502 108.501c22.333 33.667 33.499 75.5 33.499 125.5c0 50.667 -10.167 93.167 -30.5 127.5s-51.5 51.5 -93.5 51.5c-20.667 0 -38 -6 -52 -18l-68 -59c-7.33301 -6 -12.166 -11.833 -14.499 -17.5
s-3.5 -12.834 -3.5 -21.501v-74c0 -49.333 10.833 -89.166 32.5 -119.499s54.5 -45.5 98.5 -45.5c42.667 0 75.167 16.833 97.5 50.5z" />
    <glyph glyph-name="q" unicode="q" horiz-adv-x="519" 
d="M389 -242.5c-6.66699 6.33301 -9.99902 15.499 -9.99902 27.499v264c-12.667 -18 -30.834 -32.333 -54.501 -43s-49.167 -16 -76.5 -16c-46.667 0 -85.334 12 -116.001 36s-53.167 54.5 -67.5 91.5s-21.5 76.167 -21.5 117.5s6.5 80.5 19.5 117.5s34.333 67.333 64 91
s67.834 35.5 114.501 35.5c19.333 0 35.5 -2.33301 48.5 -7s26.167 -13 39.5 -25l34 -30c8 -7.33301 13.333 -12.666 16 -15.999v32c0 12 3.33301 21.167 10 27.5s14.667 9.5 24 9.5c10 0 18.333 -3.16699 25 -9.5s10 -15.5 10 -27.5v-648c0 -12 -3.33301 -21.167 -10 -27.5
s-15 -9.5 -25 -9.5c-9.33301 0 -17.333 3.16699 -24 9.5zM346.501 103.499c21.667 30.333 32.5 70.166 32.5 119.499v74c0 8.66699 -1.16699 15.834 -3.5 21.501s-7.16602 11.5 -14.499 17.5l-68 59c-14 12 -31.333 18 -52 18c-42.667 0 -74.167 -17 -94.5 -51
s-30.5 -76.667 -30.5 -128c0 -50 11.167 -91.833 33.5 -125.5s55.166 -50.5 98.499 -50.5c44 0 76.833 15.167 98.5 45.5z" />
    <glyph glyph-name="r" unicode="r" horiz-adv-x="305" 
d="M80.5 9.5c-6.33301 6.33301 -9.50195 14.502 -9.50195 24.502v400c0 10 3.33301 18.5 10 25.5s15 10.5 25 10.5s18.167 -3.5 24.5 -10.5s9.5 -15.5 9.5 -25.5v-33c2.66699 3.33301 8 8.66602 16 15.999l34 30c26 21.333 50.333 32 73 32c10 0 18.667 -3 26 -9
s11 -14 11 -24s-2.83301 -18.333 -8.5 -25s-13.5 -10 -23.5 -10c-17.333 0 -34.333 -7.33301 -51 -22l-59 -52c-7.33301 -6 -12.166 -11.833 -14.499 -17.5s-3.5 -12.834 -3.5 -21.501v-264c0 -10 -3.5 -18.167 -10.5 -24.5s-15.5 -9.5 -25.5 -9.5
c-9.33301 0 -17.166 3.16699 -23.499 9.5z" />
    <glyph glyph-name="s" unicode="s" horiz-adv-x="400" 
d="M120 4.5c-22.667 9.66699 -41.001 22.168 -55.001 37.501c-8.66699 9.33301 -13 19.333 -13 30c0 9.33301 3.16699 17.333 9.5 24s14.166 10 23.499 10c8 0 16.667 -4 26 -12c2 -1.33301 7.16699 -6 15.5 -14s18.833 -14.333 31.5 -19s26.667 -7 42 -7
c22 0 40.667 6.5 56 19.5s23 29.5 23 49.5c0 18.667 -4.33301 33.834 -13 45.501s-19.667 20.834 -33 27.501s-31.333 14 -54 22c-26.667 10 -48.167 19.5 -64.5 28.5s-30.166 22 -41.499 39s-17 39.5 -17 67.5c0 26 7.33301 48.667 22 68s33.334 33.833 56.001 43.5
s46 14.5 70 14.5c23.333 0 45.666 -3.5 66.999 -10.5s39 -16.5 53 -28.5c11.333 -9.33301 17 -20.333 17 -33c0 -10 -3.33301 -18.167 -10 -24.5s-14.667 -9.5 -24 -9.5c-7.33301 0 -16.333 3.66699 -27 11c-12.667 10 -25 17.833 -37 23.5s-26.667 8.5 -44 8.5
c-20 0 -36.833 -5.5 -50.5 -16.5s-20.5 -24.5 -20.5 -40.5c0 -20.667 7.33301 -36.334 22 -47.001s37.334 -21.334 68.001 -32.001c28 -10.667 50.833 -20.834 68.5 -30.501s32.667 -24 45 -43s18.5 -43.833 18.5 -74.5c0 -42.667 -15.167 -77 -45.5 -103
s-67.833 -39 -112.5 -39c-25.333 0 -49.333 4.83301 -72 14.5z" />
    <glyph glyph-name="t" unicode="t" horiz-adv-x="294" 
d="M123 54c-20.667 21.333 -35.334 48.1709 -44.001 80.5039s-13 72.166 -13 119.499v357c0 10 3.33301 18 10 24s15 9 25 9s18.167 -3 24.5 -9s9.5 -14 9.5 -24v-141h88c10.667 0 19.167 -2.83301 25.5 -8.5s9.5 -13.834 9.5 -24.501s-3.16699 -18.834 -9.5 -24.501
s-14.833 -8.5 -25.5 -8.5h-88v-152c0 -38 1.83301 -67.333 5.5 -88s13.834 -39.667 30.501 -57c10 -10.667 22.5 -19.5 37.5 -26.5s30.5 -11.167 46.5 -12.5c11.333 -0.666992 19.833 -4 25.5 -10s8.5 -13.333 8.5 -22c0 -10.667 -4.16699 -19.334 -12.5 -26.001
s-19.5 -10 -33.5 -10c-44.667 0 -84.667 18 -120 54z" />
    <glyph glyph-name="u" unicode="u" horiz-adv-x="533" 
d="M108.5 56c-28.333 44 -42.5 101 -42.5 171v207c0 10 3.33301 18.5 10 25.5s15 10.5 25 10.5s18.167 -3.5 24.5 -10.5s9.5 -15.5 9.5 -25.5v-207c0 -52.667 10.333 -94.5 31 -125.5s54 -46.5 100 -46.5s79.333 15.5 100 46.5s31 72.833 31 125.5v207
c0 10 3.33301 18.5 10 25.5s15 10.5 25 10.5s18.167 -3.5 24.5 -10.5s9.5 -15.5 9.5 -25.5v-207c0 -70 -14.167 -127 -42.5 -171s-80.833 -66 -157.5 -66s-129.167 22 -157.5 66z" />
    <glyph glyph-name="v" unicode="v" horiz-adv-x="438" 
d="M186 11l-161.001 399.001c-4.66699 11.333 -7 20.333 -7 27c0 10 3.16699 18 9.5 24s14.5 9 24.5 9c8 0 14.833 -2.16699 20.5 -6.5s10.834 -11.833 15.501 -22.5l133 -331l130 329c8 20.667 20.333 31 37 31c10 0 17.833 -2.83301 23.5 -8.5s8.5 -12.834 8.5 -21.501
c0 -6 -2.33301 -14.333 -7 -25l-165 -404c-6 -14 -16.333 -21 -31 -21s-25 7 -31 21z" />
    <glyph glyph-name="w" unicode="w" horiz-adv-x="710" 
d="M682 462c6 -5.33301 9.00098 -12.6689 9.00098 -22.002s-2 -19.666 -6 -30.999l-142 -395c-2.66699 -6.66699 -7.33398 -12.334 -14.001 -17.001s-13.667 -7 -21 -7s-14.166 2.16699 -20.499 6.5s-10.833 10.166 -13.5 17.499l-117 323l-117 -323
c-2.66699 -7.33301 -7.16699 -13.166 -13.5 -17.499s-13.166 -6.5 -20.499 -6.5s-14.333 2.33301 -21 7s-11.334 10.334 -14.001 17.001l-143 391c-4.66699 12.667 -7 23.334 -7 32.001c0 10 3.16699 18 9.5 24s14.166 9 23.499 9c17.333 0 29 -8 35 -24l119 -322l114 316
c7.33301 20 19 30 35 30c8 0 14.833 -2.5 20.5 -7.5s10.5 -12.5 14.5 -22.5l117 -312l114 318c6 16 17.667 24 35 24c10 0 18 -2.66699 24 -8z" />
    <glyph glyph-name="x" unicode="x" horiz-adv-x="427" 
d="M34.5 11c-5.66699 7.33301 -8.50098 15.332 -8.50098 23.999c0 36.667 18 73 54 109l87 90l-83 90c-15.333 17.333 -27.833 35 -37.5 53s-14.5 37 -14.5 57c0 8.66699 2.83301 16.834 8.5 24.501s14.167 11.5 25.5 11.5c8.66699 0 16.167 -2.83301 22.5 -8.5
s10.166 -12.5 11.499 -20.5c3.33301 -17.333 6.83301 -30 10.5 -38s11.167 -18.333 22.5 -31l81 -90l80 90c12 13.333 20 24 24 32s7.33301 20.333 10 37c1.33301 8 5.16602 14.833 11.499 20.5s13.833 8.5 22.5 8.5c11.333 0 19.833 -3.83301 25.5 -11.5
s8.5 -15.834 8.5 -24.501c0 -36 -17.333 -72.667 -52 -110l-84 -90l88 -90c35.333 -35.333 53 -71.666 53 -108.999c0 -8.66699 -2.66699 -16.667 -8 -24s-13.666 -11 -24.999 -11c-8.66699 0 -16.167 2.66699 -22.5 8s-10.166 12 -11.499 20
c-3.33301 17.333 -6.83301 30 -10.5 38s-11.5 18 -23.5 30l-86 89l-86 -89c-12 -12 -19.833 -22 -23.5 -30s-7.16699 -20.667 -10.5 -38c-1.33301 -8 -5.16602 -14.667 -11.499 -20s-13.833 -8 -22.5 -8c-11.333 0 -19.833 3.66699 -25.5 11z" />
    <glyph glyph-name="y" unicode="y" horiz-adv-x="537" 
d="M254.5 -254.5c-7 6.33301 -10.5 14.8359 -10.5 25.5029s3.33301 19.167 10 25.5s15.334 10.166 26.001 11.499c22 2.66699 38.833 6.66699 50.5 12s22.167 13.666 31.5 24.999c23.333 28.667 35 76 35 142v80c-3.33301 -4.66699 -9.33301 -10.334 -18 -17.001l-30 -26
c-26.667 -22.667 -59 -34 -97 -34c-68 0 -116 22.667 -144 68s-42 101.666 -42 168.999v207c0 10 3.33301 18.5 10 25.5s15 10.5 25 10.5s18.167 -3.5 24.5 -10.5s9.5 -15.5 9.5 -25.5v-207c0 -52 10 -93.667 30 -125s52 -47 96 -47c19.333 0 36.666 6.66699 51.999 20
l66 58c7.33301 6 12.166 11.833 14.499 17.5s3.5 12.834 3.5 21.501v262c0 10 3.33301 18.5 10 25.5s15 10.5 25 10.5s18.167 -3.5 24.5 -10.5s9.5 -15.5 9.5 -25.5v-445c0 -48 -5 -88.5 -15 -121.5s-28.333 -61.833 -55 -86.5c-31.333 -30 -68.666 -45 -111.999 -45
c-12.667 0 -22.5 3.16699 -29.5 9.5z" />
    <glyph glyph-name="z" unicode="z" horiz-adv-x="432" 
d="M384.5 58c6.33301 -6 9.5 -14.001 9.5 -24.001c0 -10.667 -3.16699 -19 -9.5 -25s-14.833 -9 -25.5 -9h-285c-9.33301 0 -17.333 2.83301 -24 8.5s-10 13.167 -10 22.5c0 10 4 20 12 30l248 342h-212c-10.667 0 -19.167 2.83301 -25.5 8.5s-9.5 13.834 -9.5 24.501
s3.16699 19 9.5 25s14.833 9 25.5 9h278c9.33301 0 17.333 -2.83301 24 -8.5s10 -13.167 10 -22.5c0 -8.66699 -3.66699 -18.667 -11 -30l-249 -342h219c10.667 0 19.167 -3 25.5 -9z" />
    <glyph glyph-name="braceleft" unicode="{" horiz-adv-x="464" 
d="M247 -102c-29.333 24.667 -50.5 56.332 -63.5 94.999s-19.5 79.667 -19.5 123v51c0 18 -4.83301 33 -14.5 45s-21.5 18 -35.5 18h-24c-9.33301 0 -17.333 3.66699 -24 11s-10 16 -10 26s3.33301 18.333 10 25s14.667 10 24 10h23c14 0 26 6 36 18s15 26.667 15 44v76
c0 43.333 6.5 84.333 19.5 123s34.167 70.334 63.5 95.001s67 37 113 37c9.33301 0 17.166 -3.5 23.499 -10.5s9.5 -15.5 9.5 -25.5s-3.16699 -18.5 -9.5 -25.5s-14.166 -10.5 -23.499 -10.5c-43.333 0 -75.833 -17 -97.5 -51s-32.5 -78 -32.5 -132v-76
c0 -20 -4.83301 -40.5 -14.5 -61.5s-21.5 -33.5 -35.5 -37.5c13.333 -6.66699 25 -20 35 -40s15 -39.333 15 -58v-51c0 -54 10.833 -98 32.5 -132s54.167 -51 97.5 -51c9.33301 0 17.166 -3.5 23.499 -10.5s9.5 -15.5 9.5 -25.5s-3.16699 -18.5 -9.5 -25.5
s-14.166 -10.5 -23.499 -10.5c-46 0 -83.667 12.333 -113 37z" />
    <glyph glyph-name="bar" unicode="|" horiz-adv-x="295" 
d="M123 9.5c-6.66699 6.33301 -10 14.5 -10 24.5v654c0 10 3.33301 18.167 10 24.5s14.667 9.5 24 9.5c10 0 18.333 -3.16699 25 -9.5s10 -14.5 10 -24.5v-654c0 -10 -3.33301 -18.167 -10 -24.5s-14.667 -9.5 -24 -9.5c-10 0 -18.333 3.16699 -25 9.5z" />
    <glyph glyph-name="braceright" unicode="}" horiz-adv-x="464" 
d="M80.5 -128.5c-6.33301 7 -9.5 15.502 -9.5 25.502s3.16699 18.5 9.5 25.5s14.166 10.5 23.499 10.5c43.333 0 75.833 17 97.5 51s32.5 78 32.5 132v51c0 18.667 4.83301 38 14.5 58s21.167 33.333 34.5 40c-14 4 -25.667 16.5 -35 37.5s-14 41.5 -14 61.5v76
c0 54 -10.833 98 -32.5 132s-54.167 51 -97.5 51c-9.33301 0 -17.166 3.5 -23.499 10.5s-9.5 15.5 -9.5 25.5s3.16699 18.5 9.5 25.5s14.166 10.5 23.499 10.5c46 0 83.667 -12.333 113 -37s50.5 -56.334 63.5 -95.001s19.5 -79.667 19.5 -123v-76c0 -17.333 5 -32 15 -44
s22 -18 36 -18h23c9.33301 0 17.166 -3.33301 23.499 -10s9.5 -15 9.5 -25s-3.16699 -18.667 -9.5 -26s-14.166 -11 -23.499 -11h-24c-14 0 -25.833 -6 -35.5 -18s-14.5 -27 -14.5 -45v-51c0 -43.333 -6.5 -84.333 -19.5 -123s-34.167 -70.334 -63.5 -95.001
s-67 -37 -113 -37c-9.33301 0 -17.166 3.5 -23.499 10.5z" />
    <glyph glyph-name="asciitilde" unicode="~" 
d="M307 569.5c-16 7.66699 -33.998 19.167 -53.998 34.5c-13.333 11.333 -25.166 19.666 -35.499 24.999s-21.833 8 -34.5 8c-19.333 0 -34.5 -4 -45.5 -12s-21.5 -19 -31.5 -33l-12 -16c-10.667 -10.667 -21.334 -16 -32.001 -16c-9.33301 0 -17 2.5 -23 7.5
s-9 11.167 -9 18.5c0 9.33301 2.66699 18.333 8 27c15.333 25.333 35.833 45.833 61.5 61.5s52.5 23.5 80.5 23.5c25.333 0 46 -3.83301 62 -11.5s34 -19.167 54 -34.5c13.333 -11.333 25.166 -19.666 35.499 -24.999s21.833 -8 34.5 -8c19.333 0 34.333 4 45 12
s21.667 19.667 33 35c5.33301 8 9.66602 13.667 12.999 17c9.33301 9.33301 19.333 14 30 14c8.66699 0 16.334 -2.66699 23.001 -8s10 -11.666 10 -18.999c0 -8.66699 -2.66699 -17.334 -8 -26.001c-15.333 -26 -35.833 -46.833 -61.5 -62.5s-52.834 -23.5 -81.501 -23.5
c-25.333 0 -46 3.83301 -62 11.5z" />
    <glyph glyph-name="uni00A0" unicode="&#xa0;" horiz-adv-x="212" 
 />
    <glyph glyph-name="exclamdown" unicode="&#xa1;" horiz-adv-x="276" 
d="M171 454.5c8.66699 -9.66699 13 -21.167 13 -34.5s-4.33301 -24.833 -13 -34.5s-19.667 -14.5 -33 -14.5s-24.333 4.83301 -33 14.5s-13 21.167 -13 34.5s4.33301 24.833 13 34.5s19.667 14.5 33 14.5s24.333 -4.83301 33 -14.5zM163 283.5
c6.66699 -6.33301 10 -14.5 10 -24.5v-441c0 -10 -3.33301 -18.167 -10 -24.5s-14.667 -9.5 -24 -9.5c-10 0 -18.333 3.16699 -25 9.5s-10 14.5 -10 24.5v441c0 10 3.33301 18.167 10 24.5s14.667 9.5 24 9.5c10 0 18.333 -3.16699 25 -9.5z" />
    <glyph glyph-name="cent" unicode="&#xa2;" horiz-adv-x="481" 
d="M232.5 -95c-7 6 -10.5049 14.001 -10.5049 24.001v67c-50.667 12.667 -88.667 41.667 -114 87s-38 95.666 -38 150.999c0 56 12.667 106.667 38 152s63.333 74.333 114 87v77c0 10 3.33301 18.167 10 24.5s14.667 9.5 24 9.5c10 0 18.5 -3.16699 25.5 -9.5
s10.5 -14.5 10.5 -24.5v-71c22.667 -1.33301 44.334 -6 65.001 -14s35.667 -18 45 -30c6 -8 9 -16.667 9 -26c0 -10 -3.16699 -18.167 -9.5 -24.5s-14.166 -9.5 -23.499 -9.5c-6 0 -11.667 1.66699 -17 5c-4 2 -9.5 5.5 -16.5 10.5s-14.667 9.16699 -23 12.5
s-18.166 5.66602 -29.499 6.99902v-351c12.667 1.33301 23.334 4 32.001 8s15.667 7.83301 21 11.5l11 7.5c8.66699 5.33301 16.334 8 23.001 8c9.33301 0 17 -3 23 -9s9 -14 9 -24c0 -4.66699 -1 -9.66699 -3 -15s-4.66699 -9.33301 -8 -12
c-27.333 -25.333 -63.333 -39.666 -108 -42.999v-62c0 -10 -3.16699 -18 -9.5 -24s-14.5 -9 -24.5 -9s-18.5 3 -25.5 9zM221.995 398.001c-25.333 -12.667 -44.833 -33.832 -58.5 -63.499s-20.5 -63.167 -20.5 -100.5c0 -38 6.66699 -71.833 20 -101.5
s33 -50.834 59 -63.501v329z" />
    <glyph glyph-name="sterling" unicode="&#xa3;" horiz-adv-x="523" 
d="M132 10c-6.66699 6.66699 -10 15 -10 25v274l-59 1c-8.66699 0 -16.334 3.33301 -23.001 10s-10 15 -10 25s3.33301 18.167 10 24.5s14.334 9.5 23.001 9.5h59v46c0 84 23.167 150 69.5 198s115.833 72 208.5 72c9.33301 0 17 -3.33301 23 -10s9 -15 9 -25
s-3 -18.333 -9 -25s-13.667 -10 -23 -10c-70 0 -122.333 -15.833 -157 -47.5s-52 -82.5 -52 -152.5v-46h145c8.66699 0 16.167 -3.33301 22.5 -10s9.5 -15 9.5 -25s-3.16699 -18.167 -9.5 -24.5s-13.833 -9.5 -22.5 -9.5h-145v-241h248c9.33301 0 17.333 -3.33301 24 -10
s10 -15 10 -25s-3.33301 -18.167 -10 -24.5s-14.667 -9.5 -24 -9.5h-283c-9.33301 -0 -17.333 3.33301 -24 10z" />
    <glyph glyph-name="currency" unicode="&#xa4;" horiz-adv-x="488" 
d="M79.5 106.5c-6.33301 5.66699 -9.5 13.167 -9.5 22.5c0 8 3.66699 18 11 30l50 77c-18.667 29.333 -28 64.666 -28 105.999s9.33301 76.666 28 105.999l-50 77c-7.33301 12 -11 22 -11 30c0 9.33301 3.16699 16.833 9.5 22.5s13.833 8.5 22.5 8.5
c12.667 0 23.667 -7.33301 33 -22l45 -69c20 10 41.333 15 64 15s44 -5 64 -15l45 69c9.33301 14.667 20.333 22 33 22c8.66699 0 16.167 -2.83301 22.5 -8.5s9.5 -13.167 9.5 -22.5c0 -8 -3.66699 -18 -11 -30l-50 -77c18.667 -29.333 28 -64.666 28 -105.999
s-9.33301 -76.666 -28 -105.999l50 -77c7.33301 -12 11 -22 11 -30c0 -9.33301 -3.16699 -16.833 -9.5 -22.5s-13.833 -8.5 -22.5 -8.5c-12.667 0 -23.667 7.33301 -33 22l-45 69c-20 -10 -41.333 -15 -64 -15s-44 5 -64 15l-45 -69c-9.33301 -14.667 -20.333 -22 -33 -22
c-8.66699 0 -16.167 2.83301 -22.5 8.5zM299 263.5c12.667 19 19 45.167 19 78.5s-6.33301 59.5 -19 78.5s-31 28.5 -55 28.5s-42.333 -9.5 -55 -28.5s-19 -45.167 -19 -78.5s6.33301 -59.5 19 -78.5s31 -28.5 55 -28.5s42.333 9.5 55 28.5z" />
    <glyph glyph-name="yen" unicode="&#xa5;" horiz-adv-x="576" 
d="M527 636l-139.002 -262h74c9.33301 0 17.5 -3.5 24.5 -10.5s10.5 -15.5 10.5 -25.5s-3.5 -18.333 -10.5 -25s-15.167 -10 -24.5 -10h-111l-27 -49v-36h113c9.33301 0 17.5 -3.33301 24.5 -10s10.5 -15 10.5 -25s-3.5 -18.333 -10.5 -25s-15.167 -10 -24.5 -10h-113v-113
c0 -10 -3.5 -18.333 -10.5 -25s-15.5 -10 -25.5 -10c-9.33301 -0 -17.166 3.33301 -23.499 10s-9.5 15 -9.5 25v113h-112c-9.33301 0 -17.5 3.33301 -24.5 10s-10.5 15 -10.5 25s3.5 18.333 10.5 25s15.167 10 24.5 10h112v32l-29 53h-108
c-9.33301 0 -17.5 3.33301 -24.5 10s-10.5 15 -10.5 25s3.5 18.5 10.5 25.5s15.167 10.5 24.5 10.5h70l-136 256c-4.66699 9.33301 -7 16.666 -7 21.999c0 10.667 3.33301 18.834 10 24.501s14 8.5 22 8.5c9.33301 0 16.833 -1.83301 22.5 -5.5s10.834 -10.167 15.501 -19.5
l173 -329l174 329c4.66699 8.66699 9.66699 15 15 19s12 6 20 6c10 0 18.167 -3.33301 24.5 -10s9.5 -14.667 9.5 -24c0 -4.66699 -1.33301 -9.66699 -4 -15z" />
    <glyph glyph-name="brokenbar" unicode="&#xa6;" horiz-adv-x="295" 
d="M123 449.5c-6.66699 6.33301 -10 14.5 -10 24.5v214c0 10 3.33301 18.167 10 24.5s14.667 9.5 24 9.5c10 0 18.333 -3.16699 25 -9.5s10 -14.5 10 -24.5v-214c0 -10 -3.33301 -18.167 -10 -24.5s-14.667 -9.5 -24 -9.5c-10 0 -18.333 3.16699 -25 9.5zM123 9.5
c-6.66699 6.33301 -10 14.5 -10 24.5v214c0 10 3.33301 18.167 10 24.5s14.667 9.5 24 9.5c10 0 18.333 -3.16699 25 -9.5s10 -14.5 10 -24.5v-214c0 -10 -3.33301 -18.167 -10 -24.5s-14.667 -9.5 -24 -9.5c-10 0 -18.333 3.16699 -25 9.5z" />
    <glyph glyph-name="section" unicode="&#xa7;" horiz-adv-x="479" 
d="M156.5 5.5c-23.667 9 -43.833 23.5029 -60.5 43.5029c-6 7.33301 -9 15.333 -9 24c0 10 3.33301 18.5 10 25.5s14.667 10.5 24 10.5c5.33301 0 9.83301 -1 13.5 -3s8.16699 -5 13.5 -9c12.667 -11.333 24.5 -19.833 35.5 -25.5s26.833 -8.5 47.5 -8.5
c21.333 0 39.666 6.83301 54.999 20.5s23 30.167 23 49.5c0 25.333 -7.5 43.833 -22.5 55.5s-31 20.5 -48 26.5l-34.5 12c-33.333 13.333 -60.666 34.666 -81.999 63.999s-32 61.666 -32 96.999c0 26 6.16699 48.5 18.5 67.5s28.5 34.5 48.5 46.5
c-35.333 24.667 -53 59 -53 103c0 28 7.16699 51.667 21.5 71s32.5 33.666 54.5 42.999s44.333 14 67 14c18 0 39.833 -4 65.5 -12s44.167 -19 55.5 -33c6.66699 -8.66699 10 -17.667 10 -27c0 -10 -3.16699 -18.5 -9.5 -25.5s-14.166 -10.5 -23.499 -10.5
c-4.66699 0 -9.16699 1.16699 -13.5 3.5s-8.5 4.83301 -12.5 7.5c-12.667 8.66699 -23.667 15 -33 19s-22.333 6 -39 6c-22 0 -40 -5.16699 -54 -15.5s-21 -23.833 -21 -40.5c0 -19.333 8.16699 -34.333 24.5 -45s32.833 -19 49.5 -25l33 -12
c36.667 -14.667 64.667 -33 84 -55s29 -53 29 -93c0 -28 -6.83301 -52.5 -20.5 -73.5s-31.834 -37.5 -54.501 -49.5c19.333 -13.333 34 -29.5 44 -48.5s15 -42.5 15 -70.5s-7 -52.667 -21 -74s-32.167 -37.833 -54.5 -49.5s-45.5 -17.5 -69.5 -17.5
c-26 0 -50.833 4.5 -74.5 13.5zM302.501 325.503c15.667 13.667 23.5 30.167 23.5 49.5c0 26.667 -8.66699 46 -26 58s-40.333 18 -69 18c-21.333 0 -39 -6 -53 -18s-21 -27 -21 -45c0 -26.667 8.5 -47.167 25.5 -61.5s38.5 -21.5 64.5 -21.5
c21.333 0 39.833 6.83301 55.5 20.5z" />
    <glyph glyph-name="dieresis" unicode="&#xa8;" horiz-adv-x="345" 
d="M64.5 559c-8.33301 9.33301 -12.5 20.333 -12.5 33s4.16699 23.667 12.5 33s18.833 14 31.5 14s23.167 -4.66699 31.5 -14s12.5 -20.333 12.5 -33s-4.16699 -23.667 -12.5 -33s-18.833 -14 -31.5 -14s-23.167 4.66699 -31.5 14zM217.5 559
c-8.33301 9.33301 -12.5 20.333 -12.5 33s4.16699 23.667 12.5 33s18.833 14 31.5 14s23.167 -4.66699 31.5 -14s12.5 -20.333 12.5 -33s-4.16699 -23.667 -12.5 -33s-18.833 -14 -31.5 -14s-23.167 4.66699 -31.5 14z" />
    <glyph glyph-name="copyright" unicode="&#xa9;" horiz-adv-x="578" 
d="M157.5 99.5c-37.667 22.333 -66.667 54 -87 95s-30.5 88.5 -30.5 142.5s10.167 101.5 30.5 142.5s49.333 72.667 87 95s81.5 33.5 131.5 33.5s93.833 -11.167 131.5 -33.5s66.667 -54 87 -95s30.5 -88.5 30.5 -142.5s-10.167 -101.5 -30.5 -142.5
s-49.333 -72.667 -87 -95s-81.5 -33.5 -131.5 -33.5s-93.833 11.167 -131.5 33.5zM428.5 178c33.667 38.667 50.5 91.667 50.5 159c0 68 -16.833 121.167 -50.5 159.5s-80.167 57.5 -139.5 57.5c-60 0 -106.833 -19.167 -140.5 -57.5s-50.5 -91.5 -50.5 -159.5
s16.833 -121.167 50.5 -159.5s80.5 -57.5 140.5 -57.5c59.333 0 105.833 19.333 139.5 58zM202.5 222.5c-23.667 29 -35.498 67.832 -35.498 116.499c0 48 12 86.667 36 116s55.667 44 95 44c15.333 0 30.333 -3 45 -9s27.667 -14.667 39 -26c5.33301 -5.33301 8 -12 8 -20
c0 -7.33301 -3 -14 -9 -20s-12.667 -9 -20 -9c-5.33301 0 -12.333 3 -21 9c-7.33301 6 -14 10.5 -20 13.5s-13.333 4.5 -22 4.5c-22 0 -39.667 -9.33301 -53 -28s-20 -43.667 -20 -75c0 -32 6.5 -57.167 19.5 -75.5s30.833 -27.5 53.5 -27.5
c9.33301 0 17.166 1.5 23.499 4.5s13.166 7.5 20.499 13.5c6 5.33301 12.333 8 19 8c7.33301 0 14 -3 20 -9s9 -13 9 -21c0 -7.33301 -2.66699 -13.666 -8 -18.999c-22.667 -22.667 -50.667 -34 -84 -34c-40 0 -71.833 14.5 -95.5 43.5z" />
    <glyph glyph-name="ordfeminine" unicode="&#xaa;" horiz-adv-x="362" 
d="M62.5 439c-22.333 33.333 -33.5 71.999 -33.5 115.999c0 27.333 5 53.833 15 79.5s26 46.667 48 63s49.667 24.5 83 24.5c48 0 83.667 -16.167 107 -48.5s35 -70.166 35 -113.499v-132c0 -10 -3 -17.833 -9 -23.5s-12.667 -8.5 -20 -8.5c-8.66699 0 -16 2.83301 -22 8.5
s-9 13.5 -9 23.5v3c-5.33301 -5.33301 -10 -9.33301 -14 -12l-12 -8c-10.667 -8 -20.667 -13.667 -30 -17s-20 -5 -32 -5c-48.667 0 -84.167 16.667 -106.5 50zM202 454.999l46 41.002c4 3.33301 6.5 6.16602 7.5 8.49902s1.5 6.16602 1.5 11.499v44
c0 30 -7.33301 54.833 -22 74.5s-34.667 29.5 -60 29.5c-26 0 -46.167 -10.333 -60.5 -31s-21.5 -46.667 -21.5 -78s6.33301 -57.333 19 -78s31.667 -31 57 -31c15.333 0 26.333 3 33 9z" />
    <glyph glyph-name="guillemotleft" unicode="&#xab;" 
d="M234 90l-179.999 123.998c-10 6.66699 -15 15.667 -15 27c0 5.33301 1.33301 10.5 4 15.5s6.33398 9.16699 11.001 12.5l177 123c7.33301 5.33301 16 8 26 8c8.66699 0 15.667 -2.83301 21 -8.5s8 -13.167 8 -22.5c0 -5.33301 -1.33301 -10.666 -4 -15.999
s-6.33398 -9.33301 -11.001 -12l-143 -100l143 -99c4 -2.66699 7.33301 -6.66699 10 -12s4 -10.666 4 -15.999c0 -8.66699 -2.83301 -16 -8.5 -22s-12.834 -9 -21.501 -9c-6.66699 0 -13.667 2.33301 -21 7zM444.001 89.998l-179.999 123.998c-10 6.66699 -15 15.667 -15 27
c0 5.33301 1.33301 10.5 4 15.5s6.33398 9.16699 11.001 12.5l177 123c7.33301 5.33301 16 8 26 8c8.66699 0 15.667 -2.83301 21 -8.5s8 -13.167 8 -22.5c0 -5.33301 -1.33301 -10.666 -4 -15.999s-6.33398 -9.33301 -11.001 -12l-143 -100l143 -99
c9.33301 -5.33301 14 -14.666 14 -27.999c0 -8.66699 -2.83301 -16 -8.5 -22s-12.834 -9 -21.501 -9c-6.66699 0 -13.667 2.33301 -21 7z" />
    <glyph glyph-name="logicalnot" unicode="&#xac;" 
d="M429.5 151c-7 6 -10.499 13.333 -10.499 22v124h-323c-8.66699 0 -16.167 3.33301 -22.5 10s-9.5 15 -9.5 25s3.16699 18.167 9.5 24.5s13.833 9.5 22.5 9.5h356c8.66699 0 16.5 -3 23.5 -9s10.5 -13.333 10.5 -22v-162c0 -8.66699 -3.33301 -16 -10 -22
s-14.334 -9 -23.001 -9s-16.5 3 -23.5 9z" />
    <glyph glyph-name="uni00AD" unicode="&#xad;" horiz-adv-x="430" 
d="M94.5 215.5c-6.33301 6.33301 -9.5 14.5 -9.5 24.5s3.16699 18 9.5 24s13.833 9 22.5 9h196c8.66699 0 16.167 -3.16699 22.5 -9.5s9.5 -14.5 9.5 -24.5s-3.16699 -18 -9.5 -24s-13.833 -9 -22.5 -9h-196c-8.66699 0 -16.167 3.16699 -22.5 9.5z" />
    <glyph glyph-name="registered" unicode="&#xae;" horiz-adv-x="578" 
d="M420.5 574.5c37.667 -22.333 66.667 -54 87 -95s30.5 -88.5 30.5 -142.5s-10.167 -101.5 -30.5 -142.5s-49.333 -72.667 -87 -95s-81.5 -33.5 -131.5 -33.5s-93.833 11.167 -131.5 33.5s-66.667 54 -87 95s-30.5 88.5 -30.5 142.5s10.167 101.5 30.5 142.5
s49.333 72.667 87 95s81.5 33.5 131.5 33.5s93.833 -11.167 131.5 -33.5zM428.5 178c33.667 38.667 50.5 91.667 50.5 159c0 68 -16.833 121.167 -50.5 159.5s-80.167 57.5 -139.5 57.5c-60 0 -106.833 -19.167 -140.5 -57.5s-50.5 -91.5 -50.5 -159.5
s16.833 -121.167 50.5 -159.5s80.5 -57.5 140.5 -57.5c59.333 0 105.833 19.333 139.5 58zM391 230c4.66699 -9.33301 7.00195 -16.668 7.00195 -22.001c0 -7.33301 -2.83301 -13.166 -8.5 -17.499s-11.834 -6.5 -18.501 -6.5c-12.667 0 -22.334 6.33301 -29.001 19l-48 97
h-10h-34v-89c0 -8 -2.83301 -14.667 -8.5 -20s-12.5 -8 -20.5 -8s-14.667 2.66699 -20 8s-8 12 -8 20v264c0 7.33301 2.5 13.166 7.5 17.499s11.833 6.5 20.5 6.5h73c30 0 53.5 -8.16699 70.5 -24.5s25.5 -39.166 25.5 -68.499v-13c0 -38.667 -14.333 -65.667 -43 -81z
M251.002 354.998l34 0.00195312c18.667 0 31.667 2.66699 39 8s11 15.666 11 30.999v11c0 13.333 -3.16699 23.166 -9.5 29.499s-16.5 9.5 -30.5 9.5h-44v-89z" />
    <glyph glyph-name="macron" unicode="&#xaf;" horiz-adv-x="396" 
d="M81 570c-6.66699 6 -10.001 13.333 -10.001 22s3.33301 15.834 10 21.501s15 8.5 25 8.5h184c10 0 18.5 -3 25.5 -9s10.5 -13.333 10.5 -22s-3.66699 -15.834 -11 -21.501s-15.666 -8.5 -24.999 -8.5h-184c-10 0 -18.333 3 -25 9z" />
    <glyph glyph-name="degree" unicode="&#xb0;" horiz-adv-x="341" 
d="M90 546.5c-22.667 21 -34 46.5 -34 76.5s11.333 55.667 34 77s50 32 82 32s59.333 -10.667 82 -32s34 -47 34 -77s-11.333 -55.5 -34 -76.5s-50 -31.5 -82 -31.5s-59.333 10.5 -82 31.5zM208.5 590.5c9.66699 9 14.498 19.833 14.498 32.5s-5 23.667 -15 33
s-22 14 -36 14s-26 -4.66699 -36 -14s-15 -20.333 -15 -33s4.83301 -23.5 14.5 -32.5s21.834 -13.5 36.501 -13.5s26.834 4.5 36.501 13.5z" />
    <glyph glyph-name="plusminus" unicode="&#xb1;" 
d="M250.5 140c-7 6.66699 -10.5 15 -10.5 25v141h-154c-9.33301 0 -17.5 3.33301 -24.5 10s-10.5 15 -10.5 25s3.5 18.333 10.5 25s15.167 10 24.5 10h154v138c0 10 3.5 18.333 10.5 25s15.167 10 24.5 10s17.5 -3.33301 24.5 -10s10.5 -15 10.5 -25v-138h154
c9.33301 0 17.5 -3.33301 24.5 -10s10.5 -15 10.5 -25s-3.5 -18.333 -10.5 -25s-15.167 -10 -24.5 -10h-154v-141c0 -10 -3.5 -18.333 -10.5 -25s-15.167 -10 -24.5 -10s-17.5 3.33301 -24.5 10zM74 10.5c-6.66699 6.33301 -10 14.5 -10 24.5s3.5 18.5 10.5 25.5
s15.167 10.5 24.5 10.5h352c9.33301 0 17.5 -3.5 24.5 -10.5s10.5 -15.5 10.5 -25.5s-3.33301 -18.167 -10 -24.5s-15 -9.5 -25 -9.5h-352c-10 0 -18.333 3.16699 -25 9.5z" />
    <glyph glyph-name="uni00B2" unicode="&#xb2;" horiz-adv-x="331" 
d="M49 383c-6 6 -8.99902 13.3281 -8.99902 21.9951v39c0 39.333 15.333 70 46 92c11.333 8 22.833 14 34.5 18s22.667 7.33301 33 10s17.166 4.33398 20.499 5.00098c20 5.33301 33.5 11.833 40.5 19.5s10.5 16.5 10.5 26.5c0 12.667 -5.16699 23.834 -15.5 33.501
s-25.166 14.5 -44.499 14.5c-9.33301 0 -18.666 -1.66699 -27.999 -5s-16.666 -7.66602 -21.999 -12.999l-7.5 -7.5c-3.66699 -3.66699 -7.33398 -6.16699 -11.001 -7.5s-7.83398 -2 -12.501 -2c-7.33301 0 -14.5 2.66699 -21.5 8s-10.5 13 -10.5 23
c0 5.33301 2 10.333 6 15c14 16.667 31.167 28.834 51.5 36.501s40.833 11.5 61.5 11.5c36 0 65 -9.66699 87 -29s33 -44.333 33 -75c0 -22 -7.83301 -42.167 -23.5 -60.5s-39.167 -32.166 -70.5 -41.499c-30.667 -9.33301 -54.334 -18.833 -71.001 -28.5
s-25 -24.5 -25 -44.5v-6h138c8.66699 0 15.834 -3.16699 21.501 -9.5s8.5 -13.833 8.5 -22.5s-2.83301 -16 -8.5 -22s-12.834 -9 -21.501 -9h-169c-8 0 -15 3 -21 9z" />
    <glyph glyph-name="uni00B3" unicode="&#xb3;" horiz-adv-x="302" 
d="M266 484l0.000976562 -6.00488c0 -66 -41.667 -99 -125 -99h-71c-8 0 -15 2.83301 -21 8.5s-9 12.834 -9 21.501s3 15.834 9 21.501s13 8.5 21 8.5h72c22 0 37.5 3 46.5 9s13.5 16.333 13.5 31v4c0 14.667 -4.5 25 -13.5 31s-24.5 9 -46.5 9h-47c-8 0 -15 3 -21 9
s-9 13 -9 21c0 8.66699 3 15.834 9 21.501s13 8.5 21 8.5h46c21.333 0 36 2.5 44 7.5s12 16.167 12 33.5c0 14.667 -4.16699 24.667 -12.5 30s-22.5 8 -42.5 8h-70c-8 0 -14.833 2.83301 -20.5 8.5s-8.5 12.834 -8.5 21.501s2.83301 15.834 8.5 21.501s12.5 8.5 20.5 8.5h69
c38.667 0 68.5 -8.5 89.5 -25.5s31.5 -41.833 31.5 -74.5c0 -14 -2.83301 -26.167 -8.5 -36.5s-14.834 -20.5 -27.501 -30.5c26.667 -15.333 40 -39 40 -71z" />
    <glyph glyph-name="acute" unicode="&#xb4;" horiz-adv-x="227" 
d="M32.5 546c-5 4.66699 -7.5 10.334 -7.5 17.001c0 10 4.66699 17.667 14 23l114 58c6.66699 3.33301 12.667 5 18 5c7.33301 0 13.5 -2.33301 18.5 -7s7.5 -10.334 7.5 -17.001c0 -10 -4.66699 -17.667 -14 -23l-114 -58c-6.66699 -3.33301 -12.667 -5 -18 -5
c-7.33301 0 -13.5 2.33301 -18.5 7z" />
    <glyph glyph-name="uni00B5" unicode="&#xb5;" horiz-adv-x="532" 
d="M76 -158.5c-6.66699 6.33301 -9.99707 14.499 -9.99707 24.499v570c0 10 3.33301 18.167 10 24.5s14.667 9.5 24 9.5c10 0 18.333 -3.16699 25 -9.5s10 -14.5 10 -24.5v-209c0 -52 10 -93.667 30 -125s52 -47 96 -47c19.333 0 36.666 6.66699 51.999 20l66 58
c7.33301 6 12.166 11.833 14.499 17.5s3.5 12.834 3.5 21.501v264c0 10 3.5 18.167 10.5 24.5s15.5 9.5 25.5 9.5c9.33301 0 17.166 -3.16699 23.499 -9.5s9.5 -14.5 9.5 -24.5v-251c0 -21.333 -3.16699 -39.5 -9.5 -54.5s-20.5 -31.833 -42.5 -50.5l-65 -56
c-26.667 -22.667 -59 -34 -97 -34c-48.667 0 -87.667 12.667 -117 38v-162c0 -10 -3.33301 -18.167 -10 -24.5s-14.667 -9.5 -24 -9.5c-10 0 -18.333 3.16699 -25 9.5z" />
    <glyph glyph-name="paragraph" unicode="&#xb6;" horiz-adv-x="648" 
d="M374 -243c-6.66699 6 -10.001 14 -10.001 24v267c-14 -18.667 -32.833 -33 -56.5 -43s-48.5 -15 -74.5 -15c-46.667 0 -85.334 12 -116.001 36s-53.167 54.667 -67.5 92s-21.5 76.333 -21.5 117c0 41.333 6.5 80.5 19.5 117.5s34.333 67.333 64 91
s67.834 35.5 114.501 35.5c18.667 0 34.334 -2.33301 47.001 -7s26 -13 40 -25l51 -44v31c0 10 3.5 18.5 10.5 25.5s15.167 10.5 24.5 10.5s17.333 -3.5 24 -10.5s10 -15.5 10 -25.5v-653c0 -10 -3.16699 -18 -9.5 -24s-14.5 -9 -24.5 -9s-18.333 3 -25 9zM490.999 -243
c-6.66699 6 -10 14 -10 24v655c0 10 3.33301 18.167 10 24.5s14.667 9.5 24 9.5c10 0 18.333 -3.16699 25 -9.5s10 -14.5 10 -24.5v-655c0 -10 -3.16699 -18 -9.5 -24s-14.5 -9 -24.5 -9s-18.333 3 -25 9zM331.499 104c21.667 30.667 32.5 70.667 32.5 120v74
c0 8 -1.33301 15 -4 21s-7.66699 12 -15 18l-67 59c-12.667 11.333 -30 17 -52 17c-42 0 -73.167 -17 -93.5 -51s-30.5 -76.333 -30.5 -127c0 -50 11.167 -92 33.5 -126s54.833 -51 97.5 -51c44 0 76.833 15.333 98.5 46z" />
    <glyph glyph-name="periodcentered" unicode="&#xb7;" horiz-adv-x="186" 
d="M63 249.5c-8.66699 9.66699 -13 21.167 -13 34.5s4.33301 24.833 13 34.5s19.667 14.5 33 14.5s24.333 -4.83301 33 -14.5s13 -21.167 13 -34.5s-4.33301 -24.833 -13 -34.5s-19.667 -14.5 -33 -14.5s-24.333 4.83301 -33 14.5z" />
    <glyph glyph-name="cedilla" unicode="&#xb8;" horiz-adv-x="269" 
d="M198 -94c0 -16.667 -5.99902 -31.5 -17.999 -44.5s-28 -19.5 -48 -19.5c-15.333 0 -29 4 -41 12s-18 16.667 -18 26c0 5.33301 1.33301 10 4 14s6.33398 6 11.001 6c3.33301 0 9.66602 -2.33301 18.999 -7s17.666 -7 24.999 -7c4 0 7.83301 1.5 11.5 4.5
s5.5 7.16699 5.5 12.5c0 4.66699 -1.5 8.5 -4.5 11.5s-8.16699 5.83301 -15.5 8.5c-4 1.33301 -9.33301 2.5 -16 3.5s-11.667 2.66699 -15 5s-5 6.5 -5 12.5c0 4 1 9.66699 3 17l14 39h49l-11 -34c33.333 -8.66699 50 -28.667 50 -60z" />
    <glyph glyph-name="uni00B9" unicode="&#xb9;" horiz-adv-x="142" 
d="M49.5 382.5c-6.33301 5.66699 -9.5 12.834 -9.5 21.501v287c0 9.33301 2.83301 16.833 8.5 22.5s12.834 8.5 21.501 8.5s16.167 -2.83301 22.5 -8.5s9.5 -13.167 9.5 -22.5v-287c0 -8.66699 -2.83301 -15.834 -8.5 -21.501s-12.834 -8.5 -21.501 -8.5
s-16.167 2.83301 -22.5 8.5z" />
    <glyph glyph-name="ordmasculine" unicode="&#xba;" horiz-adv-x="350" 
d="M93 413.5c-22 16.333 -38.167 37.166 -48.5 62.499s-15.5 51.666 -15.5 78.999s5 53.833 15 79.5s26 46.667 48 63s49.667 24.5 83 24.5s61 -8.16699 83 -24.5s38 -37.166 48 -62.499s15 -51.666 15 -78.999s-5 -53.833 -15 -79.5s-26 -46.667 -48 -63
s-49.667 -24.5 -83 -24.5c-32.667 0 -60 8.16699 -82 24.5zM235.5 478c14.333 20.667 21.5 46.668 21.5 78.001c0 30.667 -7.33301 56.5 -22 77.5s-34.667 31.5 -60 31.5c-26 0 -46.167 -10.5 -60.5 -31.5s-21.5 -47.167 -21.5 -78.5c0 -30.667 7.33301 -56.334 22 -77.001
s34.667 -31 60 -31c26 0 46.167 10.333 60.5 31z" />
    <glyph glyph-name="guillemotright" unicode="&#xbb;" 
d="M63.5 92c-5.66699 6 -8.49902 13.335 -8.49902 22.002c0 5.33301 1.33301 10.666 4 15.999s6 9.33301 10 12l143 99l-143 100c-4.66699 2.66699 -8.33398 6.66699 -11.001 12s-4 10.666 -4 15.999c0 9.33301 2.66699 16.833 8 22.5s12.333 8.5 21 8.5
c10 0 18.667 -2.66699 26 -8l177 -123c4.66699 -3.33301 8.33398 -7.5 11.001 -12.5s4 -10.167 4 -15.5c0 -11.333 -5 -20.333 -15 -27l-180 -124c-7.33301 -4.66699 -14.333 -7 -21 -7c-8.66699 0 -15.834 3 -21.501 9zM273.501 92.002
c-5.66699 6 -8.49805 13.335 -8.49805 22.002c0 5.33301 1.33301 10.666 4 15.999s6 9.33301 10 12l143 99l-143 100c-4.66699 2.66699 -8.33398 6.66699 -11.001 12s-4 10.666 -4 15.999c0 9.33301 2.66699 16.833 8 22.5s12.333 8.5 21 8.5c10 0 18.667 -2.66699 26 -8
l177 -123c10 -6 15 -15.333 15 -28c0 -12 -5 -21 -15 -27l-180 -124c-6 -4.66699 -13 -7 -21 -7c-8.66699 0 -15.834 3 -21.501 9z" />
    <glyph glyph-name="onequarter" unicode="&#xbc;" horiz-adv-x="650" 
d="M74.5 345.5c-6.33301 5.66699 -9.5 12.834 -9.5 21.501v287c0 9.33301 2.83301 16.833 8.5 22.5s12.834 8.5 21.501 8.5s16.167 -2.83301 22.5 -8.5s9.5 -13.167 9.5 -22.5v-287c0 -8.66699 -2.83301 -15.834 -8.5 -21.501s-12.834 -8.5 -21.501 -8.5
s-16.167 2.83301 -22.5 8.5zM113 9.5c-6.66699 6.33301 -9.99902 14.501 -9.99902 24.501v3c0 6 1.33301 11.667 4 17l280 606c7.33301 16.667 18 25 32 25c8.66699 0 16.167 -2.83301 22.5 -8.5s9.5 -13.5 9.5 -23.5v-4c0 -6.66699 -1.66699 -13.334 -5 -20.001l-278 -604
c-7.33301 -16.667 -18 -25 -32 -25c-8.66699 0 -16.334 3.16699 -23.001 9.5zM610.001 105.001l0.000976562 -6.00488c0 -66 -41.667 -99 -125 -99h-71c-8 0 -15 2.83301 -21 8.5s-9 12.834 -9 21.501s3 15.834 9 21.501s13 8.5 21 8.5h72c22 0 37.5 3 46.5 9
s13.5 16.333 13.5 31v4c0 14.667 -4.5 25 -13.5 31s-24.5 9 -46.5 9h-47c-8 0 -15 3 -21 9s-9 13 -9 21c0 8.66699 3 15.834 9 21.501s13 8.5 21 8.5h46c21.333 0 36 2.5 44 7.5s12 16.167 12 33.5c0 14.667 -4.16699 24.667 -12.5 30s-22.5 8 -42.5 8h-70
c-8 0 -14.833 2.83301 -20.5 8.5s-8.5 12.834 -8.5 21.501s2.83301 15.834 8.5 21.501s12.5 8.5 20.5 8.5h69c38.667 0 68.5 -8.5 89.5 -25.5s31.5 -41.833 31.5 -74.5c0 -14 -2.83301 -26.167 -8.5 -36.5s-14.834 -20.5 -27.501 -30.5c26.667 -15.333 40 -39 40 -71z" />
    <glyph glyph-name="onehalf" unicode="&#xbd;" horiz-adv-x="650" 
d="M74.5 345.5c-6.33301 5.66699 -9.5 12.834 -9.5 21.501v287c0 9.33301 2.83301 16.833 8.5 22.5s12.834 8.5 21.501 8.5s16.167 -2.83301 22.5 -8.5s9.5 -13.167 9.5 -22.5v-287c0 -8.66699 -2.83301 -15.834 -8.5 -21.501s-12.834 -8.5 -21.501 -8.5
s-16.167 2.83301 -22.5 8.5zM113 9.5c-6.66699 6.33301 -9.99902 14.501 -9.99902 24.501v3c0 6 1.33301 11.667 4 17l280 606c7.33301 16.667 18 25 32 25c8.66699 0 16.167 -2.83301 22.5 -8.5s9.5 -13.5 9.5 -23.5v-4c0 -6.66699 -1.66699 -13.334 -5 -20.001l-278 -604
c-7.33301 -16.667 -18 -25 -32 -25c-8.66699 0 -16.334 3.16699 -23.001 9.5zM363.001 9.00098c-6 6 -8.99902 13.3281 -8.99902 21.9951v39c0 39.333 15.333 70 46 92c11.333 8 22.833 14 34.5 18s22.667 7.33301 33 10s17.166 4.33398 20.499 5.00098
c20 5.33301 33.5 11.833 40.5 19.5s10.5 16.5 10.5 26.5c0 12.667 -5.16699 23.834 -15.5 33.501s-25.166 14.5 -44.499 14.5c-9.33301 0 -18.666 -1.66699 -27.999 -5s-16.666 -7.66602 -21.999 -12.999l-7.5 -7.5c-3.66699 -3.66699 -7.33398 -6.16699 -11.001 -7.5
s-7.83398 -2 -12.501 -2c-7.33301 0 -14.5 2.66699 -21.5 8s-10.5 13 -10.5 23c0 5.33301 2 10.333 6 15c14 16.667 31.167 28.834 51.5 36.501s40.833 11.5 61.5 11.5c36 0 65 -9.66699 87 -29s33 -44.333 33 -75c0 -22 -7.83301 -42.167 -23.5 -60.5
s-39.167 -32.166 -70.5 -41.499c-30.667 -9.33301 -54.334 -18.833 -71.001 -28.5s-25 -24.5 -25 -44.5v-6h138c8.66699 0 15.834 -3.16699 21.501 -9.5s8.5 -13.833 8.5 -22.5s-2.83301 -16 -8.5 -22s-12.834 -9 -21.501 -9h-169c-8 0 -15 3 -21 9z" />
    <glyph glyph-name="threequarters" unicode="&#xbe;" horiz-adv-x="650" 
d="M136 342l-70.999 -0.00488281c-8 0 -15 2.83301 -21 8.5s-9 12.834 -9 21.501s3 15.834 9 21.501s13 8.5 21 8.5h72c22 0 37.5 3 46.5 9s13.5 16.333 13.5 31v4c0 14.667 -4.5 25 -13.5 31s-24.5 9 -46.5 9h-47c-8 0 -15 3 -21 9s-9 13 -9 21
c0 8.66699 3 15.834 9 21.501s13 8.5 21 8.5h46c21.333 0 36 2.5 44 7.5s12 16.167 12 33.5c0 14.667 -4.16699 24.667 -12.5 30s-22.5 8 -42.5 8h-70c-8 0 -14.833 2.83301 -20.5 8.5s-8.5 12.834 -8.5 21.501s2.83301 15.834 8.5 21.501s12.5 8.5 20.5 8.5h69
c38.667 0 68.5 -8.5 89.5 -25.5s31.5 -41.833 31.5 -74.5c0 -14 -2.83301 -26.167 -8.5 -36.5s-14.834 -20.5 -27.501 -30.5c26.667 -15.333 40 -39 40 -71v-6c0 -66 -41.667 -99 -125 -99zM488.001 648.995c0 -6.66699 -1.66602 -13.333 -4.99902 -20l-278 -604
c-7.33301 -16.667 -18 -25 -32 -25c-8.66699 0 -16.334 3.16699 -23.001 9.5s-10 14.5 -10 24.5v3c0 6 1.33301 11.667 4 17l280 606c7.33301 16.667 18 25 32 25c8.66699 0 16.167 -2.83301 22.5 -8.5s9.5 -13.5 9.5 -23.5v-4zM571.502 205.996
c5.66699 -6 8.49902 -13.333 8.49902 -22v-153c0 -8.66699 -2.83301 -16 -8.5 -22s-12.834 -9 -21.501 -9c-8 0 -15.167 3 -21.5 9s-9.5 13.333 -9.5 22v28h-120c-26 0 -44.833 5.66699 -56.5 17s-17.5 25.333 -17.5 42c0 14.667 4.66699 27.834 14 39.501
s25.333 27.834 48 48.501l144 134c6.66699 5.33301 14 8 22 8c8.66699 0 15.834 -2.83301 21.501 -8.5s8.5 -12.834 8.5 -21.501s-3 -16 -9 -22l-140 -127c-2.66699 -2 -9.33398 -7.33301 -20.001 -16s-16 -15.334 -16 -20.001c0 -4 1.33301 -6.66699 4 -8
s8.33398 -2 17.001 -2h100v61c0 8.66699 3.16699 16 9.5 22s13.5 9 21.5 9c8.66699 0 15.834 -3 21.501 -9z" />
    <glyph glyph-name="questiondown" unicode="&#xbf;" horiz-adv-x="460" 
d="M364 454.5c8.66699 -9.66699 13 -21.167 13 -34.5s-4.33301 -24.833 -13 -34.5s-19.667 -14.5 -33 -14.5s-24.333 4.83301 -33 14.5s-13 21.167 -13 34.5s4.33301 24.833 13 34.5s19.667 14.5 33 14.5s24.333 -4.83301 33 -14.5zM356 282.5
c6.66699 -7 10.001 -15.498 10.001 -25.498v-32c0 -48 -13.833 -84 -41.5 -108s-71.167 -36 -130.5 -36c-35.333 0 -60.833 -8.83301 -76.5 -26.5s-23.5 -44.834 -23.5 -81.501v-13c0 -36.667 9.5 -63.834 28.5 -81.501s49.5 -26.5 91.5 -26.5h150
c9.33301 0 17.666 -3.5 24.999 -10.5s11 -15.167 11 -24.5s-3.5 -17.166 -10.5 -23.499s-15.5 -9.5 -25.5 -9.5h-150c-60 0 -106.5 14.167 -139.5 42.5s-49.5 72.166 -49.5 131.499v16c0 59.333 14.833 103.333 44.5 132s71.167 43 124.5 43c39.333 0 66.333 6 81 18
s22 32 22 60v30c0 10 3.5 18.5 10.5 25.5s15.167 10.5 24.5 10.5s17.333 -3.5 24 -10.5z" />
    <glyph glyph-name="Agrave" unicode="&#xc0;" horiz-adv-x="579" 
d="M545 34c0 -10 -3.50098 -18.1689 -10.501 -24.502s-15.5 -9.5 -25.5 -9.5c-7.33301 0 -14.166 2.16699 -20.499 6.5s-10.833 10.166 -13.5 17.499l-76 209h-223l-73 -209c-2.66699 -7.33301 -7.16699 -13.166 -13.5 -17.499s-13.166 -6.5 -20.499 -6.5
c-10.667 0 -19 2.83301 -25 8.5s-9 12.834 -9 21.501c0 6.66699 1 12.334 3 17.001l215 614c2.66699 7.33301 7 13.166 13 17.499s12.667 6.5 20 6.5s14.166 -2.16699 20.499 -6.5s10.833 -10.166 13.5 -17.499l221 -607c2.66699 -7.33301 4 -14 4 -20zM374.999 299.998
l-89 247l-86 -247h175zM311.999 752.998l-114 58c-9.33301 5.33301 -14 13 -14 23c0 6.66699 2.5 12.334 7.5 17.001s11.167 7 18.5 7c5.33301 0 11.333 -1.66699 18 -5l114 -58c9.33301 -5.33301 14 -13 14 -23c0 -6.66699 -2.5 -12.334 -7.5 -17.001s-11.167 -7 -18.5 -7
c-5.33301 0 -11.333 1.66699 -18 5z" />
    <glyph glyph-name="Aacute" unicode="&#xc1;" horiz-adv-x="579" 
d="M545 34c0 -10 -3.50098 -18.1689 -10.501 -24.502s-15.5 -9.5 -25.5 -9.5c-7.33301 0 -14.166 2.16699 -20.499 6.5s-10.833 10.166 -13.5 17.499l-76 209h-223l-73 -209c-2.66699 -7.33301 -7.16699 -13.166 -13.5 -17.499s-13.166 -6.5 -20.499 -6.5
c-10.667 0 -19 2.83301 -25 8.5s-9 12.834 -9 21.501c0 6.66699 1 12.334 3 17.001l215 614c2.66699 7.33301 7 13.166 13 17.499s12.667 6.5 20 6.5s14.166 -2.16699 20.499 -6.5s10.833 -10.166 13.5 -17.499l221 -607c2.66699 -7.33301 4 -14 4 -20zM374.999 299.998
l-89 247l-86 -247h175zM237.499 750.998c-5 4.66699 -7.5 10.334 -7.5 17.001c0 10 4.66699 17.667 14 23l114 58c6.66699 3.33301 12.667 5 18 5c7.33301 0 13.5 -2.33301 18.5 -7s7.5 -10.334 7.5 -17.001c0 -10 -4.66699 -17.667 -14 -23l-114 -58
c-6.66699 -3.33301 -12.667 -5 -18 -5c-7.33301 0 -13.5 2.33301 -18.5 7z" />
    <glyph glyph-name="Acircumflex" unicode="&#xc2;" horiz-adv-x="579" 
d="M545 34c0 -10 -3.50098 -18.1689 -10.501 -24.502s-15.5 -9.5 -25.5 -9.5c-7.33301 0 -14.166 2.16699 -20.499 6.5s-10.833 10.166 -13.5 17.499l-76 209h-223l-73 -209c-2.66699 -7.33301 -7.16699 -13.166 -13.5 -17.499s-13.166 -6.5 -20.499 -6.5
c-10.667 0 -19 2.83301 -25 8.5s-9 12.834 -9 21.501c0 6.66699 1 12.334 3 17.001l215 614c2.66699 7.33301 7 13.166 13 17.499s12.667 6.5 20 6.5s14.166 -2.16699 20.499 -6.5s10.833 -10.166 13.5 -17.499l221 -607c2.66699 -7.33301 4 -14 4 -20zM374.999 299.998
l-89 247l-86 -247h175zM188.999 749.998c-4.66699 4.66699 -6.99609 10.333 -6.99609 17c0 8 4 15 12 21l75 55c9.33301 6.66699 17 10 23 10c5.33301 0 12 -3.33301 20 -10l71 -55c9.33301 -7.33301 14 -14 14 -20c0 -6.66699 -2.33301 -12.5 -7 -17.5
s-10.334 -7.5 -17.001 -7.5s-14.334 3 -23.001 9l-60 45l-61 -45c-8.66699 -6 -16.334 -9 -23.001 -9s-12.334 2.33301 -17.001 7z" />
    <glyph glyph-name="Atilde" unicode="&#xc3;" horiz-adv-x="579" 
d="M545 34c0 -10 -3.50098 -18.1689 -10.501 -24.502s-15.5 -9.5 -25.5 -9.5c-7.33301 0 -14.166 2.16699 -20.499 6.5s-10.833 10.166 -13.5 17.499l-76 209h-223l-73 -209c-2.66699 -7.33301 -7.16699 -13.166 -13.5 -17.499s-13.166 -6.5 -20.499 -6.5
c-10.667 0 -19 2.83301 -25 8.5s-9 12.834 -9 21.501c0 6.66699 1 12.334 3 17.001l215 614c2.66699 7.33301 7 13.166 13 17.499s12.667 6.5 20 6.5s14.166 -2.16699 20.499 -6.5s10.833 -10.166 13.5 -17.499l221 -607c2.66699 -7.33301 4 -14 4 -20zM374.999 299.998
l-89 247l-86 -247h175zM168.999 750.498c-3.33301 4.33301 -5 9.83301 -5 16.5c0 18.667 7.33301 35.334 22 50.001s32 22 52 22c11.333 0 21.166 -2 29.499 -6s18.833 -10 31.5 -18c15.333 -12 28.333 -18 39 -18c6.66699 0 11.834 2 15.501 6s8.16699 10.667 13.5 20
c6.66699 12 15 18 25 18c14 0 21 -8.33301 21 -25c0 -18.667 -7.33301 -35 -22 -49s-31.667 -21 -51 -21c-12.667 0 -23 2 -31 6s-17.333 9.66699 -28 17c-14 11.333 -26 17 -36 17c-7.33301 0 -13.5 -1.83301 -18.5 -5.5s-10.167 -9.83398 -15.5 -18.501
c-3.33301 -6 -6.83301 -10.5 -10.5 -13.5s-9.5 -4.5 -17.5 -4.5c-6 0 -10.667 2.16699 -14 6.5z" />
    <glyph glyph-name="Adieresis" unicode="&#xc4;" horiz-adv-x="579" 
d="M545 34c0 -10 -3.50098 -18.1689 -10.501 -24.502s-15.5 -9.5 -25.5 -9.5c-7.33301 0 -14.166 2.16699 -20.499 6.5s-10.833 10.166 -13.5 17.499l-76 209h-223l-73 -209c-2.66699 -7.33301 -7.16699 -13.166 -13.5 -17.499s-13.166 -6.5 -20.499 -6.5
c-10.667 0 -19 2.83301 -25 8.5s-9 12.834 -9 21.501c0 6.66699 1 12.334 3 17.001l215 614c2.66699 7.33301 7 13.166 13 17.499s12.667 6.5 20 6.5s14.166 -2.16699 20.499 -6.5s10.833 -10.166 13.5 -17.499l221 -607c2.66699 -7.33301 4 -14 4 -20zM374.999 299.998
l-89 247l-86 -247h175zM181.499 763.998c-8.33301 9.33301 -12.5 20.333 -12.5 33s4.16699 23.667 12.5 33s18.833 14 31.5 14s23.167 -4.66699 31.5 -14s12.5 -20.333 12.5 -33s-4.16699 -23.667 -12.5 -33s-18.833 -14 -31.5 -14s-23.167 4.66699 -31.5 14z
M334.499 763.998c-8.33301 9.33301 -12.5 20.333 -12.5 33s4.16699 23.667 12.5 33s18.833 14 31.5 14s23.167 -4.66699 31.5 -14s12.5 -20.333 12.5 -33s-4.16699 -23.667 -12.5 -33s-18.833 -14 -31.5 -14s-23.167 4.66699 -31.5 14z" />
    <glyph glyph-name="Aring" unicode="&#xc5;" horiz-adv-x="579" 
d="M545 34c0 -10 -3.50098 -18.1689 -10.501 -24.502s-15.5 -9.5 -25.5 -9.5c-7.33301 0 -14.166 2.16699 -20.499 6.5s-10.833 10.166 -13.5 17.499l-76 209h-223l-73 -209c-2.66699 -7.33301 -7.16699 -13.166 -13.5 -17.499s-13.166 -6.5 -20.499 -6.5
c-10.667 0 -19 2.83301 -25 8.5s-9 12.834 -9 21.501c0 6.66699 1 12.334 3 17.001l215 614c2.66699 7.33301 7 13.166 13 17.499s12.667 6.5 20 6.5s14.166 -2.16699 20.499 -6.5s10.833 -10.166 13.5 -17.499l221 -607c2.66699 -7.33301 4 -14 4 -20zM374.999 299.998
l-89 247l-86 -247h175zM231.999 754.498c-16 15 -24 33.5 -24 55.5s8 40.667 24 56s35.333 23 58 23s41.834 -7.66699 57.501 -23s23.5 -34 23.5 -56s-7.83301 -40.5 -23.5 -55.5s-34.834 -22.5 -57.501 -22.5s-42 7.5 -58 22.5zM317.499 782.998
c7 7.33301 10.5 16.333 10.5 27c0 10 -3.5 18.667 -10.5 26s-16.167 11 -27.5 11s-20.666 -3.66699 -27.999 -11s-11 -16 -11 -26s3.66699 -18.833 11 -26.5s16.666 -11.5 27.999 -11.5s20.5 3.66699 27.5 11z" />
    <glyph glyph-name="AE" unicode="&#xc6;" horiz-adv-x="780" 
d="M730 58c6.66699 -6 10.001 -13.668 10.001 -23.001c0 -10 -3.33301 -18.333 -10 -25s-14.667 -10 -24 -10h-262c-9.33301 0 -17.333 3.33301 -24 10s-10 15 -10 25v217h-170l-145 -235c-6.66699 -11.333 -17.334 -17 -32.001 -17c-8 0 -15.167 2.83301 -21.5 8.5
s-9.5 12.167 -9.5 19.5c0 8.66699 3 18 9 28l380 612c6.66699 11.333 17 17 31 17h254c9.33301 0 17.333 -3.16699 24 -9.5s10 -14.5 10 -24.5s-3.33301 -18 -10 -24s-14.667 -9 -24 -9h-227v-224h190c9.33301 0 17.166 -3.33301 23.499 -10s9.5 -14.667 9.5 -24
s-3.16699 -17.166 -9.5 -23.499s-14.166 -9.5 -23.499 -9.5h-190v-260h227c9.33301 0 17.333 -3 24 -9zM410.001 318.999v208l-128 -208h128z" />
    <glyph glyph-name="Ccedilla" unicode="&#xc7;" horiz-adv-x="540" 
d="M478 105.5c6.66699 -7 9.99707 -14.832 9.99707 -23.499c0 -11.333 -5 -22 -15 -32c-17.333 -18 -38.833 -32.167 -64.5 -42.5s-52.5 -16.166 -80.5 -17.499l-8 -24c33.333 -8.66699 50 -28.667 50 -60c0 -16.667 -6 -31.5 -18 -44.5s-28 -19.5 -48 -19.5
c-15.333 0 -29 4 -41 12s-18 16.667 -18 26c0 5.33301 1.33301 10 4 14s6.33398 6 11.001 6c3.33301 0 9.66602 -2.33301 18.999 -7s17.666 -7 24.999 -7c4 0 7.83301 1.5 11.5 4.5s5.5 7.16699 5.5 12.5c0 4.66699 -1.5 8.5 -4.5 11.5s-8.16699 5.83301 -15.5 8.5
c-4 1.33301 -9.33301 2.5 -16 3.5s-11.667 2.66699 -15 5s-5 6.5 -5 12.5c0 4 1 9.66699 3 17l11 31c-47.333 6.66699 -87.666 26.167 -120.999 58.5s-58.333 74 -75 125s-25 106.833 -25 167.5c0 66 9.83301 125.5 29.5 178.5s49.334 95.167 89.001 126.5
s88.167 47 145.5 47c28.667 0 56.5 -5.16699 83.5 -15.5s51.167 -26.166 72.5 -47.499c6.66699 -6.66699 10 -15.334 10 -26.001c0 -10 -3.5 -18.333 -10.5 -25s-15.167 -10 -24.5 -10c-6 0 -12.667 2 -20 6c-4 2 -9.66699 6 -17 12c-14.667 11.333 -29 20.166 -43 26.499
s-31.667 9.5 -53 9.5c-39.333 0 -73 -12.5 -101 -37.5s-49.167 -58.833 -63.5 -101.5s-21.5 -90.334 -21.5 -143.001c0 -82 16 -149.667 48 -203s78 -80 138 -80c23.333 0 42.333 3.83301 57 11.5s29.334 17.5 44.001 29.5c12 10 23.333 15 34 15
c8.66699 0 16.334 -3.5 23.001 -10.5z" />
    <glyph glyph-name="Egrave" unicode="&#xc8;" horiz-adv-x="474" 
d="M114 10c-6.66699 6.66699 -10 15 -10 25v615c0 10 3.33301 18.333 10 25s14.667 10 24 10h260c10.667 0 19.334 -3 26.001 -9s10 -14 10 -24c0 -10.667 -3.33301 -19 -10 -25s-15.334 -9 -26.001 -9h-225v-224h187c10.667 0 19.334 -3 26.001 -9s10 -14 10 -24
c0 -10.667 -3.33301 -19 -10 -25s-15.334 -9 -26.001 -9h-187v-260h225c10.667 0 19.334 -3 26.001 -9s10 -14 10 -24c0 -10.667 -3.33301 -19 -10 -25s-15.334 -9 -26.001 -9h-260c-9.33301 -0 -17.333 3.33301 -24 10zM295 753l-114 58c-9.33301 5.33301 -14 13 -14 23
c0 6.66699 2.5 12.334 7.5 17.001s11.167 7 18.5 7c5.33301 0 11.333 -1.66699 18 -5l114 -58c9.33301 -5.33301 14 -13 14 -23c0 -6.66699 -2.5 -12.334 -7.5 -17.001s-11.167 -7 -18.5 -7c-5.33301 0 -11.333 1.66699 -18 5z" />
    <glyph glyph-name="Eacute" unicode="&#xc9;" horiz-adv-x="474" 
d="M114 10c-6.66699 6.66699 -10 15 -10 25v615c0 10 3.33301 18.333 10 25s14.667 10 24 10h260c10.667 0 19.334 -3 26.001 -9s10 -14 10 -24c0 -10.667 -3.33301 -19 -10 -25s-15.334 -9 -26.001 -9h-225v-224h187c10.667 0 19.334 -3 26.001 -9s10 -14 10 -24
c0 -10.667 -3.33301 -19 -10 -25s-15.334 -9 -26.001 -9h-187v-260h225c10.667 0 19.334 -3 26.001 -9s10 -14 10 -24c0 -10.667 -3.33301 -19 -10 -25s-15.334 -9 -26.001 -9h-260c-9.33301 -0 -17.333 3.33301 -24 10zM220.5 751c-5 4.66699 -7.5 10.334 -7.5 17.001
c0 10 4.66699 17.667 14 23l114 58c6.66699 3.33301 12.667 5 18 5c7.33301 0 13.5 -2.33301 18.5 -7s7.5 -10.334 7.5 -17.001c0 -10 -4.66699 -17.667 -14 -23l-114 -58c-6.66699 -3.33301 -12.667 -5 -18 -5c-7.33301 0 -13.5 2.33301 -18.5 7z" />
    <glyph glyph-name="Ecircumflex" unicode="&#xca;" horiz-adv-x="474" 
d="M114 10c-6.66699 6.66699 -10 15 -10 25v615c0 10 3.33301 18.333 10 25s14.667 10 24 10h260c10.667 0 19.334 -3 26.001 -9s10 -14 10 -24c0 -10.667 -3.33301 -19 -10 -25s-15.334 -9 -26.001 -9h-225v-224h187c10.667 0 19.334 -3 26.001 -9s10 -14 10 -24
c0 -10.667 -3.33301 -19 -10 -25s-15.334 -9 -26.001 -9h-187v-260h225c10.667 0 19.334 -3 26.001 -9s10 -14 10 -24c0 -10.667 -3.33301 -19 -10 -25s-15.334 -9 -26.001 -9h-260c-9.33301 -0 -17.333 3.33301 -24 10zM172 750
c-4.66699 4.66699 -6.99609 10.333 -6.99609 17c0 8 4 15 12 21l75 55c9.33301 6.66699 17 10 23 10c5.33301 0 12 -3.33301 20 -10l71 -55c9.33301 -7.33301 14 -14 14 -20c0 -6.66699 -2.33301 -12.5 -7 -17.5s-10.334 -7.5 -17.001 -7.5s-14.334 3 -23.001 9l-60 45
l-61 -45c-8.66699 -6 -16.334 -9 -23.001 -9s-12.334 2.33301 -17.001 7z" />
    <glyph glyph-name="Edieresis" unicode="&#xcb;" horiz-adv-x="474" 
d="M114 10c-6.66699 6.66699 -10 15 -10 25v615c0 10 3.33301 18.333 10 25s14.667 10 24 10h260c10.667 0 19.334 -3 26.001 -9s10 -14 10 -24c0 -10.667 -3.33301 -19 -10 -25s-15.334 -9 -26.001 -9h-225v-224h187c10.667 0 19.334 -3 26.001 -9s10 -14 10 -24
c0 -10.667 -3.33301 -19 -10 -25s-15.334 -9 -26.001 -9h-187v-260h225c10.667 0 19.334 -3 26.001 -9s10 -14 10 -24c0 -10.667 -3.33301 -19 -10 -25s-15.334 -9 -26.001 -9h-260c-9.33301 -0 -17.333 3.33301 -24 10zM164.5 764c-8.33301 9.33301 -12.5 20.333 -12.5 33
s4.16699 23.667 12.5 33s18.833 14 31.5 14s23.167 -4.66699 31.5 -14s12.5 -20.333 12.5 -33s-4.16699 -23.667 -12.5 -33s-18.833 -14 -31.5 -14s-23.167 4.66699 -31.5 14zM317.5 764c-8.33301 9.33301 -12.5 20.333 -12.5 33s4.16699 23.667 12.5 33s18.833 14 31.5 14
s23.167 -4.66699 31.5 -14s12.5 -20.333 12.5 -33s-4.16699 -23.667 -12.5 -33s-18.833 -14 -31.5 -14s-23.167 4.66699 -31.5 14z" />
    <glyph glyph-name="Igrave" unicode="&#xcc;" horiz-adv-x="277" 
d="M114 9.5c-6.66699 6.33301 -10 15.5 -10 27.5v611c0 12 3.33301 21.167 10 27.5s14.667 9.5 24 9.5c10 0 18.333 -3.16699 25 -9.5s10 -15.5 10 -27.5v-611c0 -12 -3.33301 -21.167 -10 -27.5s-14.667 -9.5 -24 -9.5c-10 0 -18.333 3.16699 -25 9.5zM161 753l-114 58
c-9.33301 5.33301 -14 13 -14 23c0 6.66699 2.5 12.334 7.5 17.001s11.167 7 18.5 7c5.33301 0 11.333 -1.66699 18 -5l114 -58c9.33301 -5.33301 14 -13 14 -23c0 -6.66699 -2.5 -12.334 -7.5 -17.001s-11.167 -7 -18.5 -7c-5.33301 0 -11.333 1.66699 -18 5z" />
    <glyph glyph-name="Iacute" unicode="&#xcd;" horiz-adv-x="277" 
d="M114 9.5c-6.66699 6.33301 -10 15.5 -10 27.5v611c0 12 3.33301 21.167 10 27.5s14.667 9.5 24 9.5c10 0 18.333 -3.16699 25 -9.5s10 -15.5 10 -27.5v-611c0 -12 -3.33301 -21.167 -10 -27.5s-14.667 -9.5 -24 -9.5c-10 0 -18.333 3.16699 -25 9.5zM86.5 751
c-5 4.66699 -7.5 10.334 -7.5 17.001c0 10 4.66699 17.667 14 23l114 58c6.66699 3.33301 12.667 5 18 5c7.33301 0 13.5 -2.33301 18.5 -7s7.5 -10.334 7.5 -17.001c0 -10 -4.66699 -17.667 -14 -23l-114 -58c-6.66699 -3.33301 -12.667 -5 -18 -5
c-7.33301 0 -13.5 2.33301 -18.5 7z" />
    <glyph glyph-name="Icircumflex" unicode="&#xce;" horiz-adv-x="277" 
d="M114 9.5c-6.66699 6.33301 -10 15.5 -10 27.5v611c0 12 3.33301 21.167 10 27.5s14.667 9.5 24 9.5c10 0 18.333 -3.16699 25 -9.5s10 -15.5 10 -27.5v-611c0 -12 -3.33301 -21.167 -10 -27.5s-14.667 -9.5 -24 -9.5c-10 0 -18.333 3.16699 -25 9.5zM38 750
c-4.66699 4.66699 -6.99609 10.333 -6.99609 17c0 8 4 15 12 21l75 55c9.33301 6.66699 17 10 23 10c5.33301 0 12 -3.33301 20 -10l71 -55c9.33301 -7.33301 14 -14 14 -20c0 -6.66699 -2.33301 -12.5 -7 -17.5s-10.334 -7.5 -17.001 -7.5s-14.334 3 -23.001 9l-60 45
l-61 -45c-8.66699 -6 -16.334 -9 -23.001 -9s-12.334 2.33301 -17.001 7z" />
    <glyph glyph-name="Idieresis" unicode="&#xcf;" horiz-adv-x="277" 
d="M114 9.5c-6.66699 6.33301 -10 15.5 -10 27.5v611c0 12 3.33301 21.167 10 27.5s14.667 9.5 24 9.5c10 0 18.333 -3.16699 25 -9.5s10 -15.5 10 -27.5v-611c0 -12 -3.33301 -21.167 -10 -27.5s-14.667 -9.5 -24 -9.5c-10 0 -18.333 3.16699 -25 9.5zM30.5 764
c-8.33301 9.33301 -12.5 20.333 -12.5 33s4.16699 23.667 12.5 33s18.833 14 31.5 14s23.167 -4.66699 31.5 -14s12.5 -20.333 12.5 -33s-4.16699 -23.667 -12.5 -33s-18.833 -14 -31.5 -14s-23.167 4.66699 -31.5 14zM183.5 764c-8.33301 9.33301 -12.5 20.333 -12.5 33
s4.16699 23.667 12.5 33s18.833 14 31.5 14s23.167 -4.66699 31.5 -14s12.5 -20.333 12.5 -33s-4.16699 -23.667 -12.5 -33s-18.833 -14 -31.5 -14s-23.167 4.66699 -31.5 14z" />
    <glyph glyph-name="Eth" unicode="&#xd0;" horiz-adv-x="630" 
d="M472 631c36.667 -36 62.5 -79.832 77.5 -131.499s22.5 -103.834 22.5 -156.501s-7.5 -105 -22.5 -157s-40.833 -96 -77.5 -132s-85 -54 -145 -54h-189c-9.33301 -0 -17.333 3.33301 -24 10s-10 15 -10 25v301h-36c-8.66699 0 -16.167 3.33301 -22.5 10s-9.5 15 -9.5 25
s3.16699 18.167 9.5 24.5s13.833 9.5 22.5 9.5h36v245c0 10 3.5 18.333 10.5 25s15.167 10 24.5 10h188c60 0 108.333 -18 145 -54zM456 147.501c26.667 53.667 40 118.833 40 195.5c0 76 -13.5 140.833 -40.5 194.5s-70.5 80.5 -130.5 80.5h-152v-213h91
c8.66699 0 16.167 -3.33301 22.5 -10s9.5 -15 9.5 -25s-3.16699 -18.167 -9.5 -24.5s-13.833 -9.5 -22.5 -9.5h-91v-269h154c59.333 0 102.333 26.833 129 80.5z" />
    <glyph glyph-name="Ntilde" unicode="&#xd1;" horiz-adv-x="654" 
d="M114 9.5c-6.66699 6.33301 -9.99902 15.499 -9.99902 27.499v612c0 10 3.16699 18.5 9.5 25.5s14.166 10.5 23.499 10.5c8 0 14.667 -1.66699 20 -5s10 -8.66602 14 -15.999l309 -503v487c0 12 3.33301 21.167 10 27.5s14.667 9.5 24 9.5c10 0 18.333 -3.16699 25 -9.5
s10 -15.5 10 -27.5v-617c0 -9.33301 -3.16699 -16.833 -9.5 -22.5s-13.833 -8.5 -22.5 -8.5c-14 -0 -25 6.33301 -33 19l-311 506v-488c0 -12 -3.33301 -21.167 -10 -27.5s-14.667 -9.5 -24 -9.5c-10 0 -18.333 3.16699 -25 9.5zM206.001 750.499
c-3.33301 4.33301 -5 9.83301 -5 16.5c0 18.667 7.33301 35.334 22 50.001s32 22 52 22c11.333 0 21.166 -2 29.499 -6s18.833 -10 31.5 -18c15.333 -12 28.333 -18 39 -18c6.66699 0 11.834 2 15.501 6s8.16699 10.667 13.5 20c6.66699 12 15 18 25 18
c14 0 21 -8.33301 21 -25c0 -18.667 -7.33301 -35 -22 -49s-31.667 -21 -51 -21c-12.667 0 -23 2 -31 6s-17.333 9.66699 -28 17c-14 11.333 -26 17 -36 17c-7.33301 0 -13.5 -1.83301 -18.5 -5.5s-10.167 -9.83398 -15.5 -18.501c-3.33301 -6 -6.83301 -10.5 -10.5 -13.5
s-9.5 -4.5 -17.5 -4.5c-6 0 -10.667 2.16699 -14 6.5z" />
    <glyph glyph-name="Ograve" unicode="&#xd2;" horiz-adv-x="644" 
d="M175.5 37c-39.667 31.333 -69.167 73.666 -88.5 126.999s-29 113 -29 179s9.66699 125.5 29 178.5s48.833 95.167 88.5 126.5s88.5 47 146.5 47s106.833 -15.667 146.5 -47s69.167 -73.5 88.5 -126.5s29 -112.5 29 -178.5s-9.66699 -125.667 -29 -179
s-48.833 -95.666 -88.5 -126.999s-88.5 -47 -146.5 -47s-106.833 15.667 -146.5 47zM462.5 138c33 54 49.5 122.333 49.5 205s-16.5 150.834 -49.5 204.501s-79.833 80.5 -140.5 80.5s-107.5 -26.833 -140.5 -80.5s-49.5 -121.834 -49.5 -204.501s16.5 -151 49.5 -205
s79.833 -81 140.5 -81s107.5 27 140.5 81zM344 753l-114 58c-9.33301 5.33301 -14 13 -14 23c0 6.66699 2.5 12.334 7.5 17.001s11.167 7 18.5 7c5.33301 0 11.333 -1.66699 18 -5l114 -58c9.33301 -5.33301 14 -13 14 -23c0 -6.66699 -2.5 -12.334 -7.5 -17.001
s-11.167 -7 -18.5 -7c-5.33301 0 -11.333 1.66699 -18 5z" />
    <glyph glyph-name="Oacute" unicode="&#xd3;" horiz-adv-x="644" 
d="M175.5 37c-39.667 31.333 -69.167 73.666 -88.5 126.999s-29 113 -29 179s9.66699 125.5 29 178.5s48.833 95.167 88.5 126.5s88.5 47 146.5 47s106.833 -15.667 146.5 -47s69.167 -73.5 88.5 -126.5s29 -112.5 29 -178.5s-9.66699 -125.667 -29 -179
s-48.833 -95.666 -88.5 -126.999s-88.5 -47 -146.5 -47s-106.833 15.667 -146.5 47zM462.5 138c33 54 49.5 122.333 49.5 205s-16.5 150.834 -49.5 204.501s-79.833 80.5 -140.5 80.5s-107.5 -26.833 -140.5 -80.5s-49.5 -121.834 -49.5 -204.501s16.5 -151 49.5 -205
s79.833 -81 140.5 -81s107.5 27 140.5 81zM269.5 751c-5 4.66699 -7.5 10.334 -7.5 17.001c0 10 4.66699 17.667 14 23l114 58c6.66699 3.33301 12.667 5 18 5c7.33301 0 13.5 -2.33301 18.5 -7s7.5 -10.334 7.5 -17.001c0 -10 -4.66699 -17.667 -14 -23l-114 -58
c-6.66699 -3.33301 -12.667 -5 -18 -5c-7.33301 0 -13.5 2.33301 -18.5 7z" />
    <glyph glyph-name="Ocircumflex" unicode="&#xd4;" horiz-adv-x="644" 
d="M175.5 37c-39.667 31.333 -69.167 73.666 -88.5 126.999s-29 113 -29 179s9.66699 125.5 29 178.5s48.833 95.167 88.5 126.5s88.5 47 146.5 47s106.833 -15.667 146.5 -47s69.167 -73.5 88.5 -126.5s29 -112.5 29 -178.5s-9.66699 -125.667 -29 -179
s-48.833 -95.666 -88.5 -126.999s-88.5 -47 -146.5 -47s-106.833 15.667 -146.5 47zM462.5 138c33 54 49.5 122.333 49.5 205s-16.5 150.834 -49.5 204.501s-79.833 80.5 -140.5 80.5s-107.5 -26.833 -140.5 -80.5s-49.5 -121.834 -49.5 -204.501s16.5 -151 49.5 -205
s79.833 -81 140.5 -81s107.5 27 140.5 81zM221 750c-4.66699 4.66699 -6.99609 10.333 -6.99609 17c0 8 4 15 12 21l75 55c9.33301 6.66699 17 10 23 10c5.33301 0 12 -3.33301 20 -10l71 -55c9.33301 -7.33301 14 -14 14 -20c0 -6.66699 -2.33301 -12.5 -7 -17.5
s-10.334 -7.5 -17.001 -7.5s-14.334 3 -23.001 9l-60 45l-61 -45c-8.66699 -6 -16.334 -9 -23.001 -9s-12.334 2.33301 -17.001 7z" />
    <glyph glyph-name="Otilde" unicode="&#xd5;" horiz-adv-x="644" 
d="M175.5 37c-39.667 31.333 -69.167 73.666 -88.5 126.999s-29 113 -29 179s9.66699 125.5 29 178.5s48.833 95.167 88.5 126.5s88.5 47 146.5 47s106.833 -15.667 146.5 -47s69.167 -73.5 88.5 -126.5s29 -112.5 29 -178.5s-9.66699 -125.667 -29 -179
s-48.833 -95.666 -88.5 -126.999s-88.5 -47 -146.5 -47s-106.833 15.667 -146.5 47zM462.5 138c33 54 49.5 122.333 49.5 205s-16.5 150.834 -49.5 204.501s-79.833 80.5 -140.5 80.5s-107.5 -26.833 -140.5 -80.5s-49.5 -121.834 -49.5 -204.501s16.5 -151 49.5 -205
s79.833 -81 140.5 -81s107.5 27 140.5 81zM201 750.5c-3.33301 4.33301 -5 9.83301 -5 16.5c0 18.667 7.33301 35.334 22 50.001s32 22 52 22c11.333 0 21.166 -2 29.499 -6s18.833 -10 31.5 -18c15.333 -12 28.333 -18 39 -18c6.66699 0 11.834 2 15.501 6
s8.16699 10.667 13.5 20c6.66699 12 15 18 25 18c14 0 21 -8.33301 21 -25c0 -18.667 -7.33301 -35 -22 -49s-31.667 -21 -51 -21c-12.667 0 -23 2 -31 6s-17.333 9.66699 -28 17c-14 11.333 -26 17 -36 17c-7.33301 0 -13.5 -1.83301 -18.5 -5.5
s-10.167 -9.83398 -15.5 -18.501c-3.33301 -6 -6.83301 -10.5 -10.5 -13.5s-9.5 -4.5 -17.5 -4.5c-6 0 -10.667 2.16699 -14 6.5z" />
    <glyph glyph-name="Odieresis" unicode="&#xd6;" horiz-adv-x="644" 
d="M175.5 37c-39.667 31.333 -69.167 73.666 -88.5 126.999s-29 113 -29 179s9.66699 125.5 29 178.5s48.833 95.167 88.5 126.5s88.5 47 146.5 47s106.833 -15.667 146.5 -47s69.167 -73.5 88.5 -126.5s29 -112.5 29 -178.5s-9.66699 -125.667 -29 -179
s-48.833 -95.666 -88.5 -126.999s-88.5 -47 -146.5 -47s-106.833 15.667 -146.5 47zM462.5 138c33 54 49.5 122.333 49.5 205s-16.5 150.834 -49.5 204.501s-79.833 80.5 -140.5 80.5s-107.5 -26.833 -140.5 -80.5s-49.5 -121.834 -49.5 -204.501s16.5 -151 49.5 -205
s79.833 -81 140.5 -81s107.5 27 140.5 81zM213.5 764c-8.33301 9.33301 -12.5 20.333 -12.5 33s4.16699 23.667 12.5 33s18.833 14 31.5 14s23.167 -4.66699 31.5 -14s12.5 -20.333 12.5 -33s-4.16699 -23.667 -12.5 -33s-18.833 -14 -31.5 -14s-23.167 4.66699 -31.5 14z
M366.5 764c-8.33301 9.33301 -12.5 20.333 -12.5 33s4.16699 23.667 12.5 33s18.833 14 31.5 14s23.167 -4.66699 31.5 -14s12.5 -20.333 12.5 -33s-4.16699 -23.667 -12.5 -33s-18.833 -14 -31.5 -14s-23.167 4.66699 -31.5 14z" />
    <glyph glyph-name="multiply" unicode="&#xd7;" 
d="M106 107c0 9.33301 3.66699 17.666 11 24.999l109 109l-109 109c-7.33301 7.33301 -11 15.666 -11 24.999c0 8.66699 3.66699 16.667 11 24s15.333 11 24 11c9.33301 0 17.666 -3.66699 24.999 -11l109 -109l109 109c7.33301 7.33301 15.666 11 24.999 11
c8.66699 0 16.667 -3.66699 24 -11s11 -15.333 11 -24c0 -9.33301 -3.66699 -17.666 -11 -24.999l-109 -109l109 -109c7.33301 -7.33301 11 -15.666 11 -24.999c0 -8.66699 -3.66699 -16.667 -11 -24s-15.333 -11 -24 -11c-9.33301 0 -17.666 3.66699 -24.999 11l-109 109
l-109 -109c-7.33301 -7.33301 -15.666 -11 -24.999 -11c-8.66699 0 -16.667 3.66699 -24 11s-11 15.333 -11 24z" />
    <glyph glyph-name="Oslash" unicode="&#xd8;" horiz-adv-x="646" 
d="M591 649l-56.999 -78.002c34.667 -61.333 52 -137.333 52 -228c0 -66 -9.66699 -125.667 -29 -179s-48.833 -95.666 -88.5 -126.999s-88.5 -47 -146.5 -47c-66.667 0 -122.334 21.667 -167.001 65l-39 -54c-5.33301 -6.66699 -10.5 -11.834 -15.5 -15.501
s-11.5 -5.5 -19.5 -5.5c-10.667 0 -18.834 3.16699 -24.501 9.5s-8.5 13.833 -8.5 22.5c0 9.33301 2.33301 17.333 7 24l56 77c-35.333 60.667 -53 137.334 -53 230.001c0 66 9.66699 125.5 29 178.5s48.833 95.167 88.5 126.5s88.5 47 146.5 47c68 0 124 -22 168 -66l40 55
c5.33301 6.66699 10.5 11.834 15.5 15.501s11.5 5.5 19.5 5.5c10.667 0 18.834 -3.16699 24.501 -9.5s8.5 -13.833 8.5 -22.5c0 -9.33301 -2.33301 -17.333 -7 -24zM157.001 175.998l292 397c-32.667 39.333 -75 59 -127 59c-62 0 -109.833 -27.167 -143.5 -81.5
s-50.5 -123.5 -50.5 -207.5c0 -63.333 9.66699 -119 29 -167zM488.001 507.998l-292 -397c33.333 -38.667 75.333 -58 126 -58c62 0 109.833 27.333 143.5 82s50.5 124 50.5 208c0 64 -9.33301 119 -28 165z" />
    <glyph glyph-name="Ugrave" unicode="&#xd9;" horiz-adv-x="672" 
d="M159 77.5c-36.667 58.333 -54.999 128.832 -54.999 211.499v359c0 12 3.33301 21.167 10 27.5s14.667 9.5 24 9.5c10 0 18.333 -3.16699 25 -9.5s10 -15.5 10 -27.5v-349c0 -68 13.167 -124.667 39.5 -170s67.5 -68 123.5 -68c54 0 94.667 23 122 69s41 102.333 41 169
v349c0 12 3.33301 21.167 10 27.5s14.667 9.5 24 9.5c10 0 18.333 -3.16699 25 -9.5s10 -15.5 10 -27.5v-359c0 -51.333 -7.66699 -99.666 -23 -144.999s-40.333 -82.333 -75 -111s-79.334 -43 -134.001 -43c-81.333 0 -140.333 29.167 -177 87.5zM358.001 752.999l-114 58
c-9.33301 5.33301 -14 13 -14 23c0 6.66699 2.5 12.334 7.5 17.001s11.167 7 18.5 7c5.33301 0 11.333 -1.66699 18 -5l114 -58c9.33301 -5.33301 14 -13 14 -23c0 -6.66699 -2.5 -12.334 -7.5 -17.001s-11.167 -7 -18.5 -7c-5.33301 0 -11.333 1.66699 -18 5z" />
    <glyph glyph-name="Uacute" unicode="&#xda;" horiz-adv-x="672" 
d="M159 77.5c-36.667 58.333 -54.999 128.832 -54.999 211.499v359c0 12 3.33301 21.167 10 27.5s14.667 9.5 24 9.5c10 0 18.333 -3.16699 25 -9.5s10 -15.5 10 -27.5v-349c0 -68 13.167 -124.667 39.5 -170s67.5 -68 123.5 -68c54 0 94.667 23 122 69s41 102.333 41 169
v349c0 12 3.33301 21.167 10 27.5s14.667 9.5 24 9.5c10 0 18.333 -3.16699 25 -9.5s10 -15.5 10 -27.5v-359c0 -51.333 -7.66699 -99.666 -23 -144.999s-40.333 -82.333 -75 -111s-79.334 -43 -134.001 -43c-81.333 0 -140.333 29.167 -177 87.5zM283.501 750.999
c-5 4.66699 -7.5 10.334 -7.5 17.001c0 10 4.66699 17.667 14 23l114 58c6.66699 3.33301 12.667 5 18 5c7.33301 0 13.5 -2.33301 18.5 -7s7.5 -10.334 7.5 -17.001c0 -10 -4.66699 -17.667 -14 -23l-114 -58c-6.66699 -3.33301 -12.667 -5 -18 -5
c-7.33301 0 -13.5 2.33301 -18.5 7z" />
    <glyph glyph-name="Ucircumflex" unicode="&#xdb;" horiz-adv-x="672" 
d="M159 77.5c-36.667 58.333 -54.999 128.832 -54.999 211.499v359c0 12 3.33301 21.167 10 27.5s14.667 9.5 24 9.5c10 0 18.333 -3.16699 25 -9.5s10 -15.5 10 -27.5v-349c0 -68 13.167 -124.667 39.5 -170s67.5 -68 123.5 -68c54 0 94.667 23 122 69s41 102.333 41 169
v349c0 12 3.33301 21.167 10 27.5s14.667 9.5 24 9.5c10 0 18.333 -3.16699 25 -9.5s10 -15.5 10 -27.5v-359c0 -51.333 -7.66699 -99.666 -23 -144.999s-40.333 -82.333 -75 -111s-79.334 -43 -134.001 -43c-81.333 0 -140.333 29.167 -177 87.5zM235.001 749.999
c-4.66699 4.66699 -6.99609 10.333 -6.99609 17c0 8 4 15 12 21l75 55c9.33301 6.66699 17 10 23 10c5.33301 0 12 -3.33301 20 -10l71 -55c9.33301 -7.33301 14 -14 14 -20c0 -6.66699 -2.33301 -12.5 -7 -17.5s-10.334 -7.5 -17.001 -7.5s-14.334 3 -23.001 9l-60 45
l-61 -45c-8.66699 -6 -16.334 -9 -23.001 -9s-12.334 2.33301 -17.001 7z" />
    <glyph glyph-name="Udieresis" unicode="&#xdc;" horiz-adv-x="672" 
d="M159 77.5c-36.667 58.333 -54.999 128.832 -54.999 211.499v359c0 12 3.33301 21.167 10 27.5s14.667 9.5 24 9.5c10 0 18.333 -3.16699 25 -9.5s10 -15.5 10 -27.5v-349c0 -68 13.167 -124.667 39.5 -170s67.5 -68 123.5 -68c54 0 94.667 23 122 69s41 102.333 41 169
v349c0 12 3.33301 21.167 10 27.5s14.667 9.5 24 9.5c10 0 18.333 -3.16699 25 -9.5s10 -15.5 10 -27.5v-359c0 -51.333 -7.66699 -99.666 -23 -144.999s-40.333 -82.333 -75 -111s-79.334 -43 -134.001 -43c-81.333 0 -140.333 29.167 -177 87.5zM227.501 763.999
c-8.33301 9.33301 -12.5 20.333 -12.5 33s4.16699 23.667 12.5 33s18.833 14 31.5 14s23.167 -4.66699 31.5 -14s12.5 -20.333 12.5 -33s-4.16699 -23.667 -12.5 -33s-18.833 -14 -31.5 -14s-23.167 4.66699 -31.5 14zM380.501 763.999
c-8.33301 9.33301 -12.5 20.333 -12.5 33s4.16699 23.667 12.5 33s18.833 14 31.5 14s23.167 -4.66699 31.5 -14s12.5 -20.333 12.5 -33s-4.16699 -23.667 -12.5 -33s-18.833 -14 -31.5 -14s-23.167 4.66699 -31.5 14z" />
    <glyph glyph-name="Yacute" unicode="&#xdd;" horiz-adv-x="559" 
d="M259 9.5c-6.66699 6.33301 -10.001 15.5 -10.001 27.5v213l-203 380c-4.66699 9.33301 -7 16.666 -7 21.999c0 10.667 3.33301 18.834 10 24.501s14 8.5 22 8.5c9.33301 0 16.833 -1.83301 22.5 -5.5s10.834 -10.167 15.501 -19.5l173 -329l174 329
c4.66699 8.66699 9.66699 15 15 19s12 6 20 6c10 0 18.167 -3.33301 24.5 -10s9.5 -14.667 9.5 -24c0 -4.66699 -1.33301 -9.66699 -4 -15l-203 -384v-215c0 -12 -3.33301 -21.167 -10 -27.5s-14.667 -9.5 -24 -9.5c-10 0 -18.333 3.16699 -25 9.5zM227.499 751
c-5 4.66699 -7.5 10.334 -7.5 17.001c0 10 4.66699 17.667 14 23l114 58c6.66699 3.33301 12.667 5 18 5c7.33301 0 13.5 -2.33301 18.5 -7s7.5 -10.334 7.5 -17.001c0 -10 -4.66699 -17.667 -14 -23l-114 -58c-6.66699 -3.33301 -12.667 -5 -18 -5
c-7.33301 0 -13.5 2.33301 -18.5 7z" />
    <glyph glyph-name="Thorn" unicode="&#xde;" horiz-adv-x="517" 
d="M114 10c-6.66699 6.66699 -9.99902 15 -9.99902 25v615c0 10 3.33301 18.333 10 25s14.667 10 24 10s17.5 -3.33301 24.5 -10s10.5 -15 10.5 -25v-112h126c53.333 0 95.666 -16.667 126.999 -50s47 -77.333 47 -132v-33c0 -54.667 -16.667 -98.667 -50 -132
s-78 -50 -134 -50h-116v-106c0 -10 -3.5 -18.333 -10.5 -25s-15.167 -10 -24.5 -10s-17.333 3.33301 -24 10zM289.001 208c37.333 0 66.167 9.83301 86.5 29.5s30.5 47.5 30.5 83.5v37c0 36 -9.33301 63.833 -28 83.5s-45 29.5 -79 29.5h-126v-263h116z" />
    <glyph glyph-name="germandbls" unicode="&#xdf;" horiz-adv-x="529" 
d="M490 189c0 -60.667 -18.3291 -108.83 -54.9961 -144.497s-85.334 -53.5 -146.001 -53.5c-38 0 -71.333 8.66699 -100 26c-17.333 10.667 -26 23.667 -26 39c0 8 3 15.5 9 22.5s14 10.5 24 10.5c5.33301 0 10.833 -1.66699 16.5 -5s9.16699 -5.33301 10.5 -6
c20 -13.333 42 -20 66 -20c41.333 0 73.166 11.5 95.499 34.5s33.5 55.167 33.5 96.5c0 44 -12.167 78.667 -36.5 104s-56.5 38 -96.5 38h-31c-9.33301 0 -17.333 3.16699 -24 9.5s-10 14.166 -10 23.499s3.33301 17.333 10 24s14.667 10 24 10h29
c37.333 0 65.166 12.5 83.499 37.5s27.5 56.5 27.5 94.5c0 36.667 -10.5 66.667 -31.5 90s-48.167 35 -81.5 35c-52.667 0 -89.334 -16.833 -110.001 -50.5s-31 -80.167 -31 -139.5v-431c0 -10 -3.33301 -18.167 -10 -24.5s-14.667 -9.5 -24 -9.5
c-10 0 -18.333 3.16699 -25 9.5s-10 14.5 -10 24.5v430c0 81.333 17.5 144.666 52.5 189.999s87.833 68 158.5 68c34 0 65 -8.16699 93 -24.5s50.167 -39 66.5 -68s24.5 -62.167 24.5 -99.5c0 -75.333 -25.667 -128.333 -77 -159c67.333 -28.667 101 -89.334 101 -182.001z
" />
    <glyph glyph-name="agrave" unicode="&#xe0;" horiz-adv-x="514" 
d="M126.5 25.5c-29.667 23.667 -50.999 54.001 -63.999 91.001s-19.5 76.167 -19.5 117.5c0 40.667 7.16699 79.667 21.5 117s36.833 68 67.5 92s69.334 36 116.001 36s85 -11.667 115 -35s51.667 -53.333 65 -90s20 -75.667 20 -117v-200c0 -12 -3.33301 -21.167 -10 -27.5
s-14.667 -9.5 -24 -9.5c-10 0 -18.333 3.16699 -25 9.5s-10 15.5 -10 27.5v30c-4 -4.66699 -10 -10.334 -18 -17.001l-33 -27c-14.667 -12 -28.334 -20.5 -41.001 -25.5s-28 -7.5 -46 -7.5c-46.667 0 -84.834 11.833 -114.501 35.5zM293.001 73.001l67.001 60
c7.33301 6 12.333 12 15 18s4 13 4 21v65c0 49.333 -11.167 90.833 -33.5 124.5s-54.833 50.5 -97.5 50.5s-75.334 -17.167 -98.001 -51.5s-34 -76.5 -34 -126.5c0 -50.667 10.333 -93 31 -127s52 -51 94 -51c22 0 39.333 5.66699 52 17zM273.002 544.001l-114 58
c-9.33301 5.33301 -14 13 -14 23c0 6.66699 2.5 12.334 7.5 17.001s11.167 7 18.5 7c5.33301 0 11.333 -1.66699 18 -5l114 -58c9.33301 -5.33301 14 -13 14 -23c0 -6.66699 -2.5 -12.334 -7.5 -17.001s-11.167 -7 -18.5 -7c-5.33301 0 -11.333 1.66699 -18 5z" />
    <glyph glyph-name="aacute" unicode="&#xe1;" horiz-adv-x="514" 
d="M126.5 25.5c-29.667 23.667 -50.999 54.001 -63.999 91.001s-19.5 76.167 -19.5 117.5c0 40.667 7.16699 79.667 21.5 117s36.833 68 67.5 92s69.334 36 116.001 36s85 -11.667 115 -35s51.667 -53.333 65 -90s20 -75.667 20 -117v-200c0 -12 -3.33301 -21.167 -10 -27.5
s-14.667 -9.5 -24 -9.5c-10 0 -18.333 3.16699 -25 9.5s-10 15.5 -10 27.5v30c-4 -4.66699 -10 -10.334 -18 -17.001l-33 -27c-14.667 -12 -28.334 -20.5 -41.001 -25.5s-28 -7.5 -46 -7.5c-46.667 0 -84.834 11.833 -114.501 35.5zM293.001 73.001l67.001 60
c7.33301 6 12.333 12 15 18s4 13 4 21v65c0 49.333 -11.167 90.833 -33.5 124.5s-54.833 50.5 -97.5 50.5s-75.334 -17.167 -98.001 -51.5s-34 -76.5 -34 -126.5c0 -50.667 10.333 -93 31 -127s52 -51 94 -51c22 0 39.333 5.66699 52 17zM182.502 546.001
c-5 4.66699 -7.5 10.334 -7.5 17.001c0 10 4.66699 17.667 14 23l114 58c6.66699 3.33301 12.667 5 18 5c7.33301 0 13.5 -2.33301 18.5 -7s7.5 -10.334 7.5 -17.001c0 -10 -4.66699 -17.667 -14 -23l-114 -58c-6.66699 -3.33301 -12.667 -5 -18 -5
c-7.33301 0 -13.5 2.33301 -18.5 7z" />
    <glyph glyph-name="acircumflex" unicode="&#xe2;" horiz-adv-x="514" 
d="M126.5 25.5c-29.667 23.667 -50.999 54.001 -63.999 91.001s-19.5 76.167 -19.5 117.5c0 40.667 7.16699 79.667 21.5 117s36.833 68 67.5 92s69.334 36 116.001 36s85 -11.667 115 -35s51.667 -53.333 65 -90s20 -75.667 20 -117v-200c0 -12 -3.33301 -21.167 -10 -27.5
s-14.667 -9.5 -24 -9.5c-10 0 -18.333 3.16699 -25 9.5s-10 15.5 -10 27.5v30c-4 -4.66699 -10 -10.334 -18 -17.001l-33 -27c-14.667 -12 -28.334 -20.5 -41.001 -25.5s-28 -7.5 -46 -7.5c-46.667 0 -84.834 11.833 -114.501 35.5zM293.001 73.001l67.001 60
c7.33301 6 12.333 12 15 18s4 13 4 21v65c0 49.333 -11.167 90.833 -33.5 124.5s-54.833 50.5 -97.5 50.5s-75.334 -17.167 -98.001 -51.5s-34 -76.5 -34 -126.5c0 -50.667 10.333 -93 31 -127s52 -51 94 -51c22 0 39.333 5.66699 52 17zM150.002 548.001
c-4.66699 4.66699 -6.99609 10.333 -6.99609 17c0 8 4 15 12 21l75 55c9.33301 6.66699 17 10 23 10c5.33301 0 12 -3.33301 20 -10l71 -55c9.33301 -7.33301 14 -14 14 -20c0 -6.66699 -2.33301 -12.5 -7 -17.5s-10.334 -7.5 -17.001 -7.5s-14.334 3 -23.001 9l-60 45
l-61 -45c-8.66699 -6 -16.334 -9 -23.001 -9s-12.334 2.33301 -17.001 7z" />
    <glyph glyph-name="atilde" unicode="&#xe3;" horiz-adv-x="514" 
d="M126.5 25.5c-29.667 23.667 -50.999 54.001 -63.999 91.001s-19.5 76.167 -19.5 117.5c0 40.667 7.16699 79.667 21.5 117s36.833 68 67.5 92s69.334 36 116.001 36s85 -11.667 115 -35s51.667 -53.333 65 -90s20 -75.667 20 -117v-200c0 -12 -3.33301 -21.167 -10 -27.5
s-14.667 -9.5 -24 -9.5c-10 0 -18.333 3.16699 -25 9.5s-10 15.5 -10 27.5v30c-4 -4.66699 -10 -10.334 -18 -17.001l-33 -27c-14.667 -12 -28.334 -20.5 -41.001 -25.5s-28 -7.5 -46 -7.5c-46.667 0 -84.834 11.833 -114.501 35.5zM293.001 73.001l67.001 60
c7.33301 6 12.333 12 15 18s4 13 4 21v65c0 49.333 -11.167 90.833 -33.5 124.5s-54.833 50.5 -97.5 50.5s-75.334 -17.167 -98.001 -51.5s-34 -76.5 -34 -126.5c0 -50.667 10.333 -93 31 -127s52 -51 94 -51c22 0 39.333 5.66699 52 17zM131.002 555.501
c-3.33301 4.33301 -5 9.83301 -5 16.5c0 18.667 7.33301 35.334 22 50.001s32 22 52 22c11.333 0 21.166 -2 29.499 -6s18.833 -10 31.5 -18c15.333 -12 28.333 -18 39 -18c6.66699 0 11.834 2 15.501 6s8.16699 10.667 13.5 20c6.66699 12 15 18 25 18
c14 0 21 -8.33301 21 -25c0 -18.667 -7.33301 -35 -22 -49s-31.667 -21 -51 -21c-12.667 0 -23 2 -31 6s-17.333 9.66699 -28 17c-14 11.333 -26 17 -36 17c-7.33301 0 -13.5 -1.83301 -18.5 -5.5s-10.167 -9.83398 -15.5 -18.501c-3.33301 -6 -6.83301 -10.5 -10.5 -13.5
s-9.5 -4.5 -17.5 -4.5c-6 0 -10.667 2.16699 -14 6.5z" />
    <glyph glyph-name="adieresis" unicode="&#xe4;" horiz-adv-x="514" 
d="M126.5 25.5c-29.667 23.667 -50.999 54.001 -63.999 91.001s-19.5 76.167 -19.5 117.5c0 40.667 7.16699 79.667 21.5 117s36.833 68 67.5 92s69.334 36 116.001 36s85 -11.667 115 -35s51.667 -53.333 65 -90s20 -75.667 20 -117v-200c0 -12 -3.33301 -21.167 -10 -27.5
s-14.667 -9.5 -24 -9.5c-10 0 -18.333 3.16699 -25 9.5s-10 15.5 -10 27.5v30c-4 -4.66699 -10 -10.334 -18 -17.001l-33 -27c-14.667 -12 -28.334 -20.5 -41.001 -25.5s-28 -7.5 -46 -7.5c-46.667 0 -84.834 11.833 -114.501 35.5zM293.001 73.001l67.001 60
c7.33301 6 12.333 12 15 18s4 13 4 21v65c0 49.333 -11.167 90.833 -33.5 124.5s-54.833 50.5 -97.5 50.5s-75.334 -17.167 -98.001 -51.5s-34 -76.5 -34 -126.5c0 -50.667 10.333 -93 31 -127s52 -51 94 -51c22 0 39.333 5.66699 52 17zM142.502 559.001
c-8.33301 9.33301 -12.5 20.333 -12.5 33s4.16699 23.667 12.5 33s18.833 14 31.5 14s23.167 -4.66699 31.5 -14s12.5 -20.333 12.5 -33s-4.16699 -23.667 -12.5 -33s-18.833 -14 -31.5 -14s-23.167 4.66699 -31.5 14zM295.502 559.001
c-8.33301 9.33301 -12.5 20.333 -12.5 33s4.16699 23.667 12.5 33s18.833 14 31.5 14s23.167 -4.66699 31.5 -14s12.5 -20.333 12.5 -33s-4.16699 -23.667 -12.5 -33s-18.833 -14 -31.5 -14s-23.167 4.66699 -31.5 14z" />
    <glyph glyph-name="aring" unicode="&#xe5;" horiz-adv-x="514" 
d="M126.5 25.5c-29.667 23.667 -50.999 54.001 -63.999 91.001s-19.5 76.167 -19.5 117.5c0 40.667 7.16699 79.667 21.5 117s36.833 68 67.5 92s69.334 36 116.001 36s85 -11.667 115 -35s51.667 -53.333 65 -90s20 -75.667 20 -117v-200c0 -12 -3.33301 -21.167 -10 -27.5
s-14.667 -9.5 -24 -9.5c-10 0 -18.333 3.16699 -25 9.5s-10 15.5 -10 27.5v30c-4 -4.66699 -10 -10.334 -18 -17.001l-33 -27c-14.667 -12 -28.334 -20.5 -41.001 -25.5s-28 -7.5 -46 -7.5c-46.667 0 -84.834 11.833 -114.501 35.5zM293.001 73.001l67.001 60
c7.33301 6 12.333 12 15 18s4 13 4 21v65c0 49.333 -11.167 90.833 -33.5 124.5s-54.833 50.5 -97.5 50.5s-75.334 -17.167 -98.001 -51.5s-34 -76.5 -34 -126.5c0 -50.667 10.333 -93 31 -127s52 -51 94 -51c22 0 39.333 5.66699 52 17zM193.002 553.501
c-16 15 -24 33.5 -24 55.5s8 40.667 24 56s35.333 23 58 23s41.834 -7.66699 57.501 -23s23.5 -34 23.5 -56s-7.83301 -40.5 -23.5 -55.5s-34.834 -22.5 -57.501 -22.5s-42 7.5 -58 22.5zM278.502 582.001c7 7.33301 10.5 16.333 10.5 27c0 10 -3.5 18.667 -10.5 26
s-16.167 11 -27.5 11s-20.666 -3.66699 -27.999 -11s-11 -16 -11 -26s3.66699 -18.833 11 -26.5s16.666 -11.5 27.999 -11.5s20.5 3.66699 27.5 11z" />
    <glyph glyph-name="ae" unicode="&#xe6;" horiz-adv-x="813" 
d="M765 230c-6.66699 -8.66699 -18.3291 -12.9961 -34.9961 -12.9961h-280c0.666992 -45.333 12.667 -83 36 -113s55.666 -45 96.999 -45c18.667 0 33.667 1.83301 45 5.5s21.166 7.66699 29.499 12s14.166 7.5 17.499 9.5c12 6 21.667 9 29 9c8 0 14.833 -3 20.5 -9
s8.5 -13.333 8.5 -22c0 -6.66699 -1.83301 -12.834 -5.5 -18.501s-9.5 -11.834 -17.5 -18.501c-13.333 -11.333 -31.666 -20.333 -54.999 -27s-46.333 -10 -69 -10c-56.667 0 -102.667 16.667 -138 50v-3c0 -12 -3.33301 -21.167 -10 -27.5s-14.667 -9.5 -24 -9.5
c-10 0 -18.333 3.16699 -25 9.5s-10 15.5 -10 27.5v30c-4 -4.66699 -10 -10.334 -18 -17.001l-33 -27c-14.667 -12 -28.334 -20.5 -41.001 -25.5s-28 -7.5 -46 -7.5c-46.667 0 -84.834 11.833 -114.501 35.5s-51 54 -64 91s-19.5 76.167 -19.5 117.5
c0 40.667 7.16699 79.667 21.5 117s36.833 68 67.5 92s69.334 36 116.001 36c75.333 0 130.666 -32 165.999 -96c17.333 30 40.333 53.5 69 70.5s62.667 25.5 102 25.5c36 0 68.5 -9.83301 97.5 -29.5s51.667 -45.167 68 -76.5s24.5 -64.333 24.5 -99
c0 -20.667 -3.33301 -35.334 -10 -44.001zM379.005 237.004c0 49.333 -11.166 90.833 -33.499 124.5s-54.833 50.5 -97.5 50.5s-75.334 -17.167 -98.001 -51.5s-34 -76.5 -34 -126.5c0 -50.667 10.333 -93 31 -127s52 -51 94 -51c22 0 39.333 5.66699 52 17l67 60
c7.33301 6 12.333 12 15 18s4 13 4 21v65zM700.006 284.004c-2.66699 37.333 -14 68 -34 92s-47.667 36 -83 36c-34.667 0 -63.167 -11.833 -85.5 -35.5s-36.833 -54.5 -43.5 -92.5h246z" />
    <glyph glyph-name="ccedilla" unicode="&#xe7;" horiz-adv-x="409" 
d="M375 85c6 -6 8.99707 -14.002 8.99707 -24.002c0 -4.66699 -1 -9.66699 -3 -15s-4.66699 -9.33301 -8 -12c-14 -12.667 -30.5 -22.667 -49.5 -30s-38.5 -11.666 -58.5 -12.999l-8 -25c33.333 -8.66699 50 -28.667 50 -60c0 -16.667 -6 -31.5 -18 -44.5
s-28 -19.5 -48 -19.5c-15.333 0 -29 4 -41 12s-18 16.667 -18 26c0 5.33301 1.33301 10 4 14s6.33398 6 11.001 6c3.33301 0 9.66602 -2.33301 18.999 -7s17.666 -7 24.999 -7c4 0 7.83301 1.5 11.5 4.5s5.5 7.16699 5.5 12.5c0 4.66699 -1.5 8.5 -4.5 11.5
s-8.16699 5.83301 -15.5 8.5c-4 1.33301 -9.33301 2.5 -16 3.5s-11.667 2.66699 -15 5s-5 6.5 -5 12.5c0 4 1 9.66699 3 17l11 31c-39.333 6 -72 21.167 -98 45.5s-45 53.833 -57 88.5s-18 70.667 -18 108c0 40.667 7.16699 79.667 21.5 117s36.833 68 67.5 92
s69.334 36 116.001 36c21.333 0 43.333 -3.16699 66 -9.5s40.334 -15.166 53.001 -26.499c11.333 -10 17 -21.333 17 -34c0 -10 -3.16699 -18.167 -9.5 -24.5s-14.166 -9.5 -23.499 -9.5c-6.66699 0 -13 2 -19 6c-4 2 -10 5.83301 -18 11.5s-17.333 10.167 -28 13.5
s-23 5 -37 5c-42.667 0 -75.5 -17 -98.5 -51s-34.5 -76 -34.5 -126c0 -49.333 11.333 -91 34 -125s55.334 -51 98.001 -51c17.333 0 31.5 2.16699 42.5 6.5s19.833 8.83301 26.5 13.5l13 9c8 4.66699 15.333 7 22 7c9.33301 0 17 -3 23 -9z" />
    <glyph glyph-name="egrave" unicode="&#xe8;" horiz-adv-x="480" 
d="M133 25c-31.333 23.333 -54.1631 53.5029 -68.4961 90.5029s-21.5 76.5 -21.5 118.5c0 40.667 7.33301 79.667 22 117s37.667 68 69 92s70.666 36 117.999 36c36 0 68.5 -9.83301 97.5 -29.5s51.667 -45.167 68 -76.5s24.5 -64.333 24.5 -99
c0 -20.667 -3.33301 -35.334 -10 -44.001s-18.334 -13 -35.001 -13h-280c0.666992 -45.333 12.667 -83 36 -113s55.666 -45 96.999 -45c18.667 0 33.667 1.83301 45 5.5s21.166 7.66699 29.499 12s14.166 7.5 17.499 9.5c12 6 21.667 9 29 9c8 0 14.833 -3 20.5 -9
s8.5 -13.333 8.5 -22c0 -6.66699 -1.83301 -12.834 -5.5 -18.501s-9.5 -11.834 -17.5 -18.501c-13.333 -11.333 -31.666 -20.333 -54.999 -27s-46.333 -10 -69 -10c-48.667 0 -88.667 11.667 -120 35zM367.003 284.003c-2.66699 37.333 -14 68 -34 92s-47.667 36 -83 36
c-34.667 0 -63.167 -11.833 -85.5 -35.5s-36.833 -54.5 -43.5 -92.5h246zM272.003 544.003l-114 58c-9.33301 5.33301 -14 13 -14 23c0 6.66699 2.5 12.334 7.5 17.001s11.167 7 18.5 7c5.33301 0 11.333 -1.66699 18 -5l114 -58c9.33301 -5.33301 14 -13 14 -23
c0 -6.66699 -2.5 -12.334 -7.5 -17.001s-11.167 -7 -18.5 -7c-5.33301 0 -11.333 1.66699 -18 5z" />
    <glyph glyph-name="eacute" unicode="&#xe9;" horiz-adv-x="480" 
d="M133 25c-31.333 23.333 -54.1631 53.5029 -68.4961 90.5029s-21.5 76.5 -21.5 118.5c0 40.667 7.33301 79.667 22 117s37.667 68 69 92s70.666 36 117.999 36c36 0 68.5 -9.83301 97.5 -29.5s51.667 -45.167 68 -76.5s24.5 -64.333 24.5 -99
c0 -20.667 -3.33301 -35.334 -10 -44.001s-18.334 -13 -35.001 -13h-280c0.666992 -45.333 12.667 -83 36 -113s55.666 -45 96.999 -45c18.667 0 33.667 1.83301 45 5.5s21.166 7.66699 29.499 12s14.166 7.5 17.499 9.5c12 6 21.667 9 29 9c8 0 14.833 -3 20.5 -9
s8.5 -13.333 8.5 -22c0 -6.66699 -1.83301 -12.834 -5.5 -18.501s-9.5 -11.834 -17.5 -18.501c-13.333 -11.333 -31.666 -20.333 -54.999 -27s-46.333 -10 -69 -10c-48.667 0 -88.667 11.667 -120 35zM367.003 284.003c-2.66699 37.333 -14 68 -34 92s-47.667 36 -83 36
c-34.667 0 -63.167 -11.833 -85.5 -35.5s-36.833 -54.5 -43.5 -92.5h246zM181.503 546.003c-5 4.66699 -7.5 10.334 -7.5 17.001c0 10 4.66699 17.667 14 23l114 58c6.66699 3.33301 12.667 5 18 5c7.33301 0 13.5 -2.33301 18.5 -7s7.5 -10.334 7.5 -17.001
c0 -10 -4.66699 -17.667 -14 -23l-114 -58c-6.66699 -3.33301 -12.667 -5 -18 -5c-7.33301 0 -13.5 2.33301 -18.5 7z" />
    <glyph glyph-name="ecircumflex" unicode="&#xea;" horiz-adv-x="480" 
d="M133 25c-31.333 23.333 -54.1631 53.5029 -68.4961 90.5029s-21.5 76.5 -21.5 118.5c0 40.667 7.33301 79.667 22 117s37.667 68 69 92s70.666 36 117.999 36c36 0 68.5 -9.83301 97.5 -29.5s51.667 -45.167 68 -76.5s24.5 -64.333 24.5 -99
c0 -20.667 -3.33301 -35.334 -10 -44.001s-18.334 -13 -35.001 -13h-280c0.666992 -45.333 12.667 -83 36 -113s55.666 -45 96.999 -45c18.667 0 33.667 1.83301 45 5.5s21.166 7.66699 29.499 12s14.166 7.5 17.499 9.5c12 6 21.667 9 29 9c8 0 14.833 -3 20.5 -9
s8.5 -13.333 8.5 -22c0 -6.66699 -1.83301 -12.834 -5.5 -18.501s-9.5 -11.834 -17.5 -18.501c-13.333 -11.333 -31.666 -20.333 -54.999 -27s-46.333 -10 -69 -10c-48.667 0 -88.667 11.667 -120 35zM367.003 284.003c-2.66699 37.333 -14 68 -34 92s-47.667 36 -83 36
c-34.667 0 -63.167 -11.833 -85.5 -35.5s-36.833 -54.5 -43.5 -92.5h246zM149.003 548.003c-4.66699 4.66699 -6.99609 10.333 -6.99609 17c0 8 4 15 12 21l75 55c9.33301 6.66699 17 10 23 10c5.33301 0 12 -3.33301 20 -10l71 -55c9.33301 -7.33301 14 -14 14 -20
c0 -6.66699 -2.33301 -12.5 -7 -17.5s-10.334 -7.5 -17.001 -7.5s-14.334 3 -23.001 9l-60 45l-61 -45c-8.66699 -6 -16.334 -9 -23.001 -9s-12.334 2.33301 -17.001 7z" />
    <glyph glyph-name="edieresis" unicode="&#xeb;" horiz-adv-x="480" 
d="M133 25c-31.333 23.333 -54.1631 53.5029 -68.4961 90.5029s-21.5 76.5 -21.5 118.5c0 40.667 7.33301 79.667 22 117s37.667 68 69 92s70.666 36 117.999 36c36 0 68.5 -9.83301 97.5 -29.5s51.667 -45.167 68 -76.5s24.5 -64.333 24.5 -99
c0 -20.667 -3.33301 -35.334 -10 -44.001s-18.334 -13 -35.001 -13h-280c0.666992 -45.333 12.667 -83 36 -113s55.666 -45 96.999 -45c18.667 0 33.667 1.83301 45 5.5s21.166 7.66699 29.499 12s14.166 7.5 17.499 9.5c12 6 21.667 9 29 9c8 0 14.833 -3 20.5 -9
s8.5 -13.333 8.5 -22c0 -6.66699 -1.83301 -12.834 -5.5 -18.501s-9.5 -11.834 -17.5 -18.501c-13.333 -11.333 -31.666 -20.333 -54.999 -27s-46.333 -10 -69 -10c-48.667 0 -88.667 11.667 -120 35zM367.003 284.003c-2.66699 37.333 -14 68 -34 92s-47.667 36 -83 36
c-34.667 0 -63.167 -11.833 -85.5 -35.5s-36.833 -54.5 -43.5 -92.5h246zM141.503 559.003c-8.33301 9.33301 -12.5 20.333 -12.5 33s4.16699 23.667 12.5 33s18.833 14 31.5 14s23.167 -4.66699 31.5 -14s12.5 -20.333 12.5 -33s-4.16699 -23.667 -12.5 -33
s-18.833 -14 -31.5 -14s-23.167 4.66699 -31.5 14zM294.503 559.003c-8.33301 9.33301 -12.5 20.333 -12.5 33s4.16699 23.667 12.5 33s18.833 14 31.5 14s23.167 -4.66699 31.5 -14s12.5 -20.333 12.5 -33s-4.16699 -23.667 -12.5 -33s-18.833 -14 -31.5 -14
s-23.167 4.66699 -31.5 14z" />
    <glyph glyph-name="igrave" unicode="&#xec;" horiz-adv-x="211" 
d="M81 9.5c-6.66699 6.33301 -10 15.5 -10 27.5v396c0 12 3.33301 21.167 10 27.5s15 9.5 25 9.5c9.33301 0 17.333 -3.16699 24 -9.5s10 -15.5 10 -27.5v-396c0 -12 -3.33301 -21.167 -10 -27.5s-14.667 -9.5 -24 -9.5c-10 0 -18.333 3.16699 -25 9.5zM128 544l-114 58
c-9.33301 5.33301 -14 13 -14 23c0 6.66699 2.5 12.334 7.5 17.001s11.167 7 18.5 7c5.33301 0 11.333 -1.66699 18 -5l114 -58c9.33301 -5.33301 14 -13 14 -23c0 -6.66699 -2.5 -12.334 -7.5 -17.001s-11.167 -7 -18.5 -7c-5.33301 0 -11.333 1.66699 -18 5z" />
    <glyph glyph-name="iacute" unicode="&#xed;" horiz-adv-x="211" 
d="M81 9.5c-6.66699 6.33301 -10 15.5 -10 27.5v396c0 12 3.33301 21.167 10 27.5s15 9.5 25 9.5c9.33301 0 17.333 -3.16699 24 -9.5s10 -15.5 10 -27.5v-396c0 -12 -3.33301 -21.167 -10 -27.5s-14.667 -9.5 -24 -9.5c-10 0 -18.333 3.16699 -25 9.5zM37.5 546
c-5 4.66699 -7.5 10.334 -7.5 17.001c0 10 4.66699 17.667 14 23l114 58c6.66699 3.33301 12.667 5 18 5c7.33301 0 13.5 -2.33301 18.5 -7s7.5 -10.334 7.5 -17.001c0 -10 -4.66699 -17.667 -14 -23l-114 -58c-6.66699 -3.33301 -12.667 -5 -18 -5
c-7.33301 0 -13.5 2.33301 -18.5 7z" />
    <glyph glyph-name="icircumflex" unicode="&#xee;" horiz-adv-x="211" 
d="M81 9.5c-6.66699 6.33301 -10 15.5 -10 27.5v396c0 12 3.33301 21.167 10 27.5s15 9.5 25 9.5c9.33301 0 17.333 -3.16699 24 -9.5s10 -15.5 10 -27.5v-396c0 -12 -3.33301 -21.167 -10 -27.5s-14.667 -9.5 -24 -9.5c-10 0 -18.333 3.16699 -25 9.5zM5 548
c-4.66699 4.66699 -6.99609 10.333 -6.99609 17c0 8 4 15 12 21l75 55c9.33301 6.66699 17 10 23 10c5.33301 0 12 -3.33301 20 -10l71 -55c9.33301 -7.33301 14 -14 14 -20c0 -6.66699 -2.33301 -12.5 -7 -17.5s-10.334 -7.5 -17.001 -7.5s-14.334 3 -23.001 9l-60 45
l-61 -45c-8.66699 -6 -16.334 -9 -23.001 -9s-12.334 2.33301 -17.001 7z" />
    <glyph glyph-name="idieresis" unicode="&#xef;" horiz-adv-x="211" 
d="M81 9.5c-6.66699 6.33301 -10 15.5 -10 27.5v396c0 12 3.33301 21.167 10 27.5s15 9.5 25 9.5c9.33301 0 17.333 -3.16699 24 -9.5s10 -15.5 10 -27.5v-396c0 -12 -3.33301 -21.167 -10 -27.5s-14.667 -9.5 -24 -9.5c-10 0 -18.333 3.16699 -25 9.5zM-2.5 559
c-8.33301 9.33301 -12.5 20.333 -12.5 33s4.16699 23.667 12.5 33s18.833 14 31.5 14s23.167 -4.66699 31.5 -14s12.5 -20.333 12.5 -33s-4.16699 -23.667 -12.5 -33s-18.833 -14 -31.5 -14s-23.167 4.66699 -31.5 14zM150.5 559c-8.33301 9.33301 -12.5 20.333 -12.5 33
s4.16699 23.667 12.5 33s18.833 14 31.5 14s23.167 -4.66699 31.5 -14s12.5 -20.333 12.5 -33s-4.16699 -23.667 -12.5 -33s-18.833 -14 -31.5 -14s-23.167 4.66699 -31.5 14z" />
    <glyph glyph-name="eth" unicode="&#xf0;" horiz-adv-x="495" 
d="M450 306c0 -64.667 -8.83789 -120.835 -26.5049 -168.502s-42.5 -84.167 -74.5 -109.5s-69 -38 -111 -38c-41.333 0 -76.666 10.5 -105.999 31.5s-51.5 49.333 -66.5 85s-22.5 75.5 -22.5 119.5c0 38 7.33301 74.5 22 109.5s36.667 63.5 66 85.5s65 33 107 33
c18.667 0 34.334 -2.5 47.001 -7.5s26 -13.5 40 -25.5l35 -30c8 -7.33301 13.333 -12.666 16 -15.999c-2 38.667 -10 75.667 -24 111s-33.333 67 -58 95l-73 -52c-8.66699 -6 -17 -9.33301 -25 -10c-10 -0.666992 -18.5 1.83301 -25.5 7.5s-10.5 13.167 -10.5 22.5
c0 12 5.33301 21.667 16 29l69 49c-25.333 18.667 -55.666 29.667 -90.999 33c-21.333 2 -32 12.667 -32 32c0 20 15.667 30 47 30c23.333 0 46.833 -4.5 70.5 -13.5s45.834 -21.5 66.501 -37.5l58 41c10 6.66699 18.333 10 25 10c10.667 0 19.334 -2.66699 26.001 -8
s10 -12.666 10 -21.999c0 -12 -5.33301 -21.667 -16 -29l-55 -39c64 -78 96 -184 96 -318zM314.995 89.499c20 21.667 35.166 48.999 45.499 81.999s15.5 66.167 15.5 99.5c0 8.66699 -1.16699 15.834 -3.5 21.501s-7.16602 11.5 -14.499 17.5l-68 59
c-14 12 -31.333 18 -52 18c-40 0 -70.167 -15.833 -90.5 -47.5s-30.5 -69.5 -30.5 -113.5c0 -52 10.5 -93.167 31.5 -123.5s52.833 -45.5 95.5 -45.5c27.333 0 51 10.833 71 32.5z" />
    <glyph glyph-name="ntilde" unicode="&#xf1;" horiz-adv-x="537" 
d="M81 9.5c-6.66699 6.33301 -10.001 15.502 -10.001 27.502v396c0 12 3.33301 21.167 10 27.5s15 9.5 25 9.5c9.33301 0 17.333 -3.16699 24 -9.5s10 -15.5 10 -27.5v-32c2.66699 3.33301 8 8.66602 16 15.999l33 29c14 12 28.667 20.5 44 25.5s32.666 7.5 51.999 7.5
c68 0 116 -22.5 144 -67.5s42 -101.167 42 -168.5v-206c0 -12 -3.33301 -21.167 -10 -27.5s-14.667 -9.5 -24 -9.5c-10 0 -18.333 3.16699 -25 9.5s-10 15.5 -10 27.5v206c0 52 -10 93.667 -30 125s-52 47 -96 47c-19.333 0 -36.666 -6.66699 -51.999 -20l-66 -58
c-7.33301 -6 -12.166 -11.833 -14.499 -17.5s-3.5 -12.834 -3.5 -21.501v-261c0 -12 -3.33301 -21.167 -10 -27.5s-14.667 -9.5 -24 -9.5c-10 0 -18.333 3.16699 -25 9.5zM155.999 555.502c-3.33301 4.33301 -5 9.83301 -5 16.5c0 18.667 7.33301 35.334 22 50.001
s32 22 52 22c11.333 0 21.166 -2 29.499 -6s18.833 -10 31.5 -18c15.333 -12 28.333 -18 39 -18c6.66699 0 11.834 2 15.501 6s8.16699 10.667 13.5 20c6.66699 12 15 18 25 18c14 0 21 -8.33301 21 -25c0 -18.667 -7.33301 -35 -22 -49s-31.667 -21 -51 -21
c-12.667 0 -23 2 -31 6s-17.333 9.66699 -28 17c-14 11.333 -26 17 -36 17c-7.33301 0 -13.5 -1.83301 -18.5 -5.5s-10.167 -9.83398 -15.5 -18.501c-3.33301 -6 -6.83301 -10.5 -10.5 -13.5s-9.5 -4.5 -17.5 -4.5c-6 0 -10.667 2.16699 -14 6.5z" />
    <glyph glyph-name="ograve" unicode="&#xf2;" horiz-adv-x="495" 
d="M132 25.5c-30.667 23.667 -53.167 54.167 -67.5 91.5s-21.5 76.333 -21.5 117s7.16699 79.667 21.5 117s36.833 68 67.5 92s69.334 36 116.001 36s85.334 -11.833 116.001 -35.5s53 -54.167 67 -91.5s21 -76.333 21 -117s-7 -79.667 -21 -117s-36.333 -68 -67 -92
s-69.334 -36 -116.001 -36s-85.334 11.833 -116.001 35.5zM345.5 108.5c22.333 34.333 33.5 76.5 33.5 126.5s-11.167 92 -33.5 126s-54.833 51 -97.5 51s-75.334 -17.167 -98.001 -51.5s-34 -76.5 -34 -126.5s11.333 -92 34 -126s55.334 -51 98.001 -51
s75.167 17.167 97.5 51.5zM270 544l-114 58c-9.33301 5.33301 -14 13 -14 23c0 6.66699 2.5 12.334 7.5 17.001s11.167 7 18.5 7c5.33301 0 11.333 -1.66699 18 -5l114 -58c9.33301 -5.33301 14 -13 14 -23c0 -6.66699 -2.5 -12.334 -7.5 -17.001s-11.167 -7 -18.5 -7
c-5.33301 0 -11.333 1.66699 -18 5z" />
    <glyph glyph-name="oacute" unicode="&#xf3;" horiz-adv-x="495" 
d="M132 25.5c-30.667 23.667 -53.167 54.167 -67.5 91.5s-21.5 76.333 -21.5 117s7.16699 79.667 21.5 117s36.833 68 67.5 92s69.334 36 116.001 36s85.334 -11.833 116.001 -35.5s53 -54.167 67 -91.5s21 -76.333 21 -117s-7 -79.667 -21 -117s-36.333 -68 -67 -92
s-69.334 -36 -116.001 -36s-85.334 11.833 -116.001 35.5zM345.5 108.5c22.333 34.333 33.5 76.5 33.5 126.5s-11.167 92 -33.5 126s-54.833 51 -97.5 51s-75.334 -17.167 -98.001 -51.5s-34 -76.5 -34 -126.5s11.333 -92 34 -126s55.334 -51 98.001 -51
s75.167 17.167 97.5 51.5zM179.5 546c-5 4.66699 -7.5 10.334 -7.5 17.001c0 10 4.66699 17.667 14 23l114 58c6.66699 3.33301 12.667 5 18 5c7.33301 0 13.5 -2.33301 18.5 -7s7.5 -10.334 7.5 -17.001c0 -10 -4.66699 -17.667 -14 -23l-114 -58
c-6.66699 -3.33301 -12.667 -5 -18 -5c-7.33301 0 -13.5 2.33301 -18.5 7z" />
    <glyph glyph-name="ocircumflex" unicode="&#xf4;" horiz-adv-x="495" 
d="M132 25.5c-30.667 23.667 -53.167 54.167 -67.5 91.5s-21.5 76.333 -21.5 117s7.16699 79.667 21.5 117s36.833 68 67.5 92s69.334 36 116.001 36s85.334 -11.833 116.001 -35.5s53 -54.167 67 -91.5s21 -76.333 21 -117s-7 -79.667 -21 -117s-36.333 -68 -67 -92
s-69.334 -36 -116.001 -36s-85.334 11.833 -116.001 35.5zM345.5 108.5c22.333 34.333 33.5 76.5 33.5 126.5s-11.167 92 -33.5 126s-54.833 51 -97.5 51s-75.334 -17.167 -98.001 -51.5s-34 -76.5 -34 -126.5s11.333 -92 34 -126s55.334 -51 98.001 -51
s75.167 17.167 97.5 51.5zM147 548c-4.66699 4.66699 -6.99609 10.333 -6.99609 17c0 8 4 15 12 21l75 55c9.33301 6.66699 17 10 23 10c5.33301 0 12 -3.33301 20 -10l71 -55c9.33301 -7.33301 14 -14 14 -20c0 -6.66699 -2.33301 -12.5 -7 -17.5
s-10.334 -7.5 -17.001 -7.5s-14.334 3 -23.001 9l-60 45l-61 -45c-8.66699 -6 -16.334 -9 -23.001 -9s-12.334 2.33301 -17.001 7z" />
    <glyph glyph-name="otilde" unicode="&#xf5;" horiz-adv-x="495" 
d="M132 25.5c-30.667 23.667 -53.167 54.167 -67.5 91.5s-21.5 76.333 -21.5 117s7.16699 79.667 21.5 117s36.833 68 67.5 92s69.334 36 116.001 36s85.334 -11.833 116.001 -35.5s53 -54.167 67 -91.5s21 -76.333 21 -117s-7 -79.667 -21 -117s-36.333 -68 -67 -92
s-69.334 -36 -116.001 -36s-85.334 11.833 -116.001 35.5zM345.5 108.5c22.333 34.333 33.5 76.5 33.5 126.5s-11.167 92 -33.5 126s-54.833 51 -97.5 51s-75.334 -17.167 -98.001 -51.5s-34 -76.5 -34 -126.5s11.333 -92 34 -126s55.334 -51 98.001 -51
s75.167 17.167 97.5 51.5zM128 555.5c-3.33301 4.33301 -5 9.83301 -5 16.5c0 18.667 7.33301 35.334 22 50.001s32 22 52 22c11.333 0 21.166 -2 29.499 -6s18.833 -10 31.5 -18c15.333 -12 28.333 -18 39 -18c6.66699 0 11.834 2 15.501 6s8.16699 10.667 13.5 20
c6.66699 12 15 18 25 18c14 0 21 -8.33301 21 -25c0 -18.667 -7.33301 -35 -22 -49s-31.667 -21 -51 -21c-12.667 0 -23 2 -31 6s-17.333 9.66699 -28 17c-14 11.333 -26 17 -36 17c-7.33301 0 -13.5 -1.83301 -18.5 -5.5s-10.167 -9.83398 -15.5 -18.501
c-3.33301 -6 -6.83301 -10.5 -10.5 -13.5s-9.5 -4.5 -17.5 -4.5c-6 0 -10.667 2.16699 -14 6.5z" />
    <glyph glyph-name="odieresis" unicode="&#xf6;" horiz-adv-x="495" 
d="M132 25.5c-30.667 23.667 -53.167 54.167 -67.5 91.5s-21.5 76.333 -21.5 117s7.16699 79.667 21.5 117s36.833 68 67.5 92s69.334 36 116.001 36s85.334 -11.833 116.001 -35.5s53 -54.167 67 -91.5s21 -76.333 21 -117s-7 -79.667 -21 -117s-36.333 -68 -67 -92
s-69.334 -36 -116.001 -36s-85.334 11.833 -116.001 35.5zM345.5 108.5c22.333 34.333 33.5 76.5 33.5 126.5s-11.167 92 -33.5 126s-54.833 51 -97.5 51s-75.334 -17.167 -98.001 -51.5s-34 -76.5 -34 -126.5s11.333 -92 34 -126s55.334 -51 98.001 -51
s75.167 17.167 97.5 51.5zM139.5 559c-8.33301 9.33301 -12.5 20.333 -12.5 33s4.16699 23.667 12.5 33s18.833 14 31.5 14s23.167 -4.66699 31.5 -14s12.5 -20.333 12.5 -33s-4.16699 -23.667 -12.5 -33s-18.833 -14 -31.5 -14s-23.167 4.66699 -31.5 14zM292.5 559
c-8.33301 9.33301 -12.5 20.333 -12.5 33s4.16699 23.667 12.5 33s18.833 14 31.5 14s23.167 -4.66699 31.5 -14s12.5 -20.333 12.5 -33s-4.16699 -23.667 -12.5 -33s-18.833 -14 -31.5 -14s-23.167 4.66699 -31.5 14z" />
    <glyph glyph-name="divide" unicode="&#xf7;" 
d="M74 216.5c-6.66699 6.33301 -10 14.5 -10 24.5s3.5 18.5 10.5 25.5s15.167 10.5 24.5 10.5h352c9.33301 0 17.5 -3.5 24.5 -10.5s10.5 -15.5 10.5 -25.5s-3.33301 -18.167 -10 -24.5s-15 -9.5 -25 -9.5h-352c-10 0 -18.333 3.16699 -25 9.5zM242 368.5
c-8.66699 9.66699 -13 21.167 -13 34.5s4.33301 24.833 13 34.5s19.667 14.5 33 14.5s24.333 -4.83301 33 -14.5s13 -21.167 13 -34.5s-4.33301 -24.833 -13 -34.5s-19.667 -14.5 -33 -14.5s-24.333 4.83301 -33 14.5zM242 44.5c-8.66699 9.66699 -13 21.167 -13 34.5
s4.33301 24.833 13 34.5s19.667 14.5 33 14.5s24.333 -4.83301 33 -14.5s13 -21.167 13 -34.5s-4.33301 -24.833 -13 -34.5s-19.667 -14.5 -33 -14.5s-24.333 4.83301 -33 14.5z" />
    <glyph glyph-name="oslash" unicode="&#xf8;" horiz-adv-x="495" 
d="M454 438l-41 -50c13.333 -22 23.166 -46.167 29.499 -72.5s9.5 -53.166 9.5 -80.499c0 -40.667 -7 -79.667 -21 -117s-36.333 -68 -67 -92s-69.334 -36 -116.001 -36c-50 0 -92.333 14.667 -127 44l-19 -23c-8.66699 -11.333 -15.834 -19.333 -21.501 -24
s-12.5 -7 -20.5 -7s-14.5 2.66699 -19.5 8s-7.5 11.666 -7.5 18.999c0 10 2.66699 18 8 24l41 50c-13.333 22 -23.166 46.167 -29.499 72.5s-9.5 53.166 -9.5 80.499c0 40.667 7.16699 79.667 21.5 117s36.833 68 67.5 92s69.334 36 116.001 36c50 0 92 -14.667 126 -44
l19 23c8.66699 11.333 15.834 19.333 21.501 24s12.5 7 20.5 7s14.5 -2.66699 19.5 -8s7.5 -11.666 7.5 -18.999c0 -10 -2.66699 -18 -8 -24zM129 138l203 246c-22.667 21.333 -50.667 32 -84 32c-44 0 -77.667 -17.667 -101 -53s-35 -78.333 -35 -129
c0 -35.333 5.66699 -67.333 17 -96zM366 331l-202 -245c22 -22 50 -33 84 -33c44 0 77.5 17.5 100.5 52.5s34.5 78.167 34.5 129.5c0 35.333 -5.66699 67.333 -17 96z" />
    <glyph glyph-name="ugrave" unicode="&#xf9;" horiz-adv-x="533" 
d="M108.5 56c-28.333 44 -42.5 101 -42.5 171v207c0 10 3.33301 18.5 10 25.5s15 10.5 25 10.5s18.167 -3.5 24.5 -10.5s9.5 -15.5 9.5 -25.5v-207c0 -52.667 10.333 -94.5 31 -125.5s54 -46.5 100 -46.5s79.333 15.5 100 46.5s31 72.833 31 125.5v207
c0 10 3.33301 18.5 10 25.5s15 10.5 25 10.5s18.167 -3.5 24.5 -10.5s9.5 -15.5 9.5 -25.5v-207c0 -70 -14.167 -127 -42.5 -171s-80.833 -66 -157.5 -66s-129.167 22 -157.5 66zM288 544l-114 58c-9.33301 5.33301 -14 13 -14 23c0 6.66699 2.5 12.334 7.5 17.001
s11.167 7 18.5 7c5.33301 0 11.333 -1.66699 18 -5l114 -58c9.33301 -5.33301 14 -13 14 -23c0 -6.66699 -2.5 -12.334 -7.5 -17.001s-11.167 -7 -18.5 -7c-5.33301 0 -11.333 1.66699 -18 5z" />
    <glyph glyph-name="uacute" unicode="&#xfa;" horiz-adv-x="533" 
d="M108.5 56c-28.333 44 -42.5 101 -42.5 171v207c0 10 3.33301 18.5 10 25.5s15 10.5 25 10.5s18.167 -3.5 24.5 -10.5s9.5 -15.5 9.5 -25.5v-207c0 -52.667 10.333 -94.5 31 -125.5s54 -46.5 100 -46.5s79.333 15.5 100 46.5s31 72.833 31 125.5v207
c0 10 3.33301 18.5 10 25.5s15 10.5 25 10.5s18.167 -3.5 24.5 -10.5s9.5 -15.5 9.5 -25.5v-207c0 -70 -14.167 -127 -42.5 -171s-80.833 -66 -157.5 -66s-129.167 22 -157.5 66zM197.5 546c-5 4.66699 -7.5 10.334 -7.5 17.001c0 10 4.66699 17.667 14 23l114 58
c6.66699 3.33301 12.667 5 18 5c7.33301 0 13.5 -2.33301 18.5 -7s7.5 -10.334 7.5 -17.001c0 -10 -4.66699 -17.667 -14 -23l-114 -58c-6.66699 -3.33301 -12.667 -5 -18 -5c-7.33301 0 -13.5 2.33301 -18.5 7z" />
    <glyph glyph-name="ucircumflex" unicode="&#xfb;" horiz-adv-x="533" 
d="M108.5 56c-28.333 44 -42.5 101 -42.5 171v207c0 10 3.33301 18.5 10 25.5s15 10.5 25 10.5s18.167 -3.5 24.5 -10.5s9.5 -15.5 9.5 -25.5v-207c0 -52.667 10.333 -94.5 31 -125.5s54 -46.5 100 -46.5s79.333 15.5 100 46.5s31 72.833 31 125.5v207
c0 10 3.33301 18.5 10 25.5s15 10.5 25 10.5s18.167 -3.5 24.5 -10.5s9.5 -15.5 9.5 -25.5v-207c0 -70 -14.167 -127 -42.5 -171s-80.833 -66 -157.5 -66s-129.167 22 -157.5 66zM165 548c-4.66699 4.66699 -6.99609 10.333 -6.99609 17c0 8 4 15 12 21l75 55
c9.33301 6.66699 17 10 23 10c5.33301 0 12 -3.33301 20 -10l71 -55c9.33301 -7.33301 14 -14 14 -20c0 -6.66699 -2.33301 -12.5 -7 -17.5s-10.334 -7.5 -17.001 -7.5s-14.334 3 -23.001 9l-60 45l-61 -45c-8.66699 -6 -16.334 -9 -23.001 -9s-12.334 2.33301 -17.001 7z
" />
    <glyph glyph-name="udieresis" unicode="&#xfc;" horiz-adv-x="533" 
d="M108.5 56c-28.333 44 -42.5 101 -42.5 171v207c0 10 3.33301 18.5 10 25.5s15 10.5 25 10.5s18.167 -3.5 24.5 -10.5s9.5 -15.5 9.5 -25.5v-207c0 -52.667 10.333 -94.5 31 -125.5s54 -46.5 100 -46.5s79.333 15.5 100 46.5s31 72.833 31 125.5v207
c0 10 3.33301 18.5 10 25.5s15 10.5 25 10.5s18.167 -3.5 24.5 -10.5s9.5 -15.5 9.5 -25.5v-207c0 -70 -14.167 -127 -42.5 -171s-80.833 -66 -157.5 -66s-129.167 22 -157.5 66zM157.5 559c-8.33301 9.33301 -12.5 20.333 -12.5 33s4.16699 23.667 12.5 33
s18.833 14 31.5 14s23.167 -4.66699 31.5 -14s12.5 -20.333 12.5 -33s-4.16699 -23.667 -12.5 -33s-18.833 -14 -31.5 -14s-23.167 4.66699 -31.5 14zM310.5 559c-8.33301 9.33301 -12.5 20.333 -12.5 33s4.16699 23.667 12.5 33s18.833 14 31.5 14
s23.167 -4.66699 31.5 -14s12.5 -20.333 12.5 -33s-4.16699 -23.667 -12.5 -33s-18.833 -14 -31.5 -14s-23.167 4.66699 -31.5 14z" />
    <glyph glyph-name="yacute" unicode="&#xfd;" horiz-adv-x="537" 
d="M254.5 -254.5c-7 6.33301 -10.5 14.8359 -10.5 25.5029s3.33301 19.167 10 25.5s15.334 10.166 26.001 11.499c22 2.66699 38.833 6.66699 50.5 12s22.167 13.666 31.5 24.999c23.333 28.667 35 76 35 142v80c-3.33301 -4.66699 -9.33301 -10.334 -18 -17.001l-30 -26
c-26.667 -22.667 -59 -34 -97 -34c-68 0 -116 22.667 -144 68s-42 101.666 -42 168.999v207c0 10 3.33301 18.5 10 25.5s15 10.5 25 10.5s18.167 -3.5 24.5 -10.5s9.5 -15.5 9.5 -25.5v-207c0 -52 10 -93.667 30 -125s52 -47 96 -47c19.333 0 36.666 6.66699 51.999 20
l66 58c7.33301 6 12.166 11.833 14.499 17.5s3.5 12.834 3.5 21.501v262c0 10 3.33301 18.5 10 25.5s15 10.5 25 10.5s18.167 -3.5 24.5 -10.5s9.5 -15.5 9.5 -25.5v-445c0 -48 -5 -88.5 -15 -121.5s-28.333 -61.833 -55 -86.5c-31.333 -30 -68.666 -45 -111.999 -45
c-12.667 0 -22.5 3.16699 -29.5 9.5zM200.5 546.003c-5 4.66699 -7.5 10.334 -7.5 17.001c0 10 4.66699 17.667 14 23l114 58c6.66699 3.33301 12.667 5 18 5c7.33301 0 13.5 -2.33301 18.5 -7s7.5 -10.334 7.5 -17.001c0 -10 -4.66699 -17.667 -14 -23l-114 -58
c-6.66699 -3.33301 -12.667 -5 -18 -5c-7.33301 0 -13.5 2.33301 -18.5 7z" />
    <glyph glyph-name="thorn" unicode="&#xfe;" horiz-adv-x="518" 
d="M81 -242.5c-6.66699 6.33301 -9.99805 15.501 -9.99805 27.501v863c0 12 3.33301 21.167 10 27.5s15 9.5 25 9.5c9.33301 0 17.333 -3.16699 24 -9.5s10 -15.5 10 -27.5v-247c2.66699 3.33301 8 8.66602 16 15.999l34 30c13.333 12 26.5 20.333 39.5 25s29.167 7 48.5 7
c46.667 0 84.667 -11.833 114 -35.5s50.5 -54 63.5 -91s19.5 -76.167 19.5 -117.5c0 -40.667 -7 -79.667 -21 -117s-36.333 -68 -67 -92s-69.334 -36 -116.001 -36c-27.333 0 -52.833 5.33301 -76.5 16s-41.834 25 -54.501 43v-264c0 -12 -3.33301 -21.167 -10 -27.5
s-14.667 -9.5 -24 -9.5c-10 0 -18.333 3.16699 -25 9.5zM368.502 108.501c22.333 33.667 33.499 75.5 33.499 125.5c0 50.667 -10.167 93.167 -30.5 127.5s-51.5 51.5 -93.5 51.5c-20.667 0 -38 -6 -52 -18l-68 -59c-7.33301 -6 -12.166 -11.833 -14.499 -17.5
s-3.5 -12.834 -3.5 -21.501v-74c0 -49.333 10.833 -89.166 32.5 -119.499s54.5 -45.5 98.5 -45.5c42.667 0 75.167 16.833 97.5 50.5z" />
    <glyph glyph-name="ydieresis" unicode="&#xff;" horiz-adv-x="537" 
d="M254.5 -254.5c-7 6.33301 -10.5 14.8359 -10.5 25.5029s3.33301 19.167 10 25.5s15.334 10.166 26.001 11.499c22 2.66699 38.833 6.66699 50.5 12s22.167 13.666 31.5 24.999c23.333 28.667 35 76 35 142v80c-3.33301 -4.66699 -9.33301 -10.334 -18 -17.001l-30 -26
c-26.667 -22.667 -59 -34 -97 -34c-68 0 -116 22.667 -144 68s-42 101.666 -42 168.999v207c0 10 3.33301 18.5 10 25.5s15 10.5 25 10.5s18.167 -3.5 24.5 -10.5s9.5 -15.5 9.5 -25.5v-207c0 -52 10 -93.667 30 -125s52 -47 96 -47c19.333 0 36.666 6.66699 51.999 20
l66 58c7.33301 6 12.166 11.833 14.499 17.5s3.5 12.834 3.5 21.501v262c0 10 3.33301 18.5 10 25.5s15 10.5 25 10.5s18.167 -3.5 24.5 -10.5s9.5 -15.5 9.5 -25.5v-445c0 -48 -5 -88.5 -15 -121.5s-28.333 -61.833 -55 -86.5c-31.333 -30 -68.666 -45 -111.999 -45
c-12.667 0 -22.5 3.16699 -29.5 9.5zM160.5 559.003c-8.33301 9.33301 -12.5 20.333 -12.5 33s4.16699 23.667 12.5 33s18.833 14 31.5 14s23.167 -4.66699 31.5 -14s12.5 -20.333 12.5 -33s-4.16699 -23.667 -12.5 -33s-18.833 -14 -31.5 -14s-23.167 4.66699 -31.5 14z
M313.5 559.003c-8.33301 9.33301 -12.5 20.333 -12.5 33s4.16699 23.667 12.5 33s18.833 14 31.5 14s23.167 -4.66699 31.5 -14s12.5 -20.333 12.5 -33s-4.16699 -23.667 -12.5 -33s-18.833 -14 -31.5 -14s-23.167 4.66699 -31.5 14z" />
    <glyph glyph-name="Amacron" unicode="&#x100;" horiz-adv-x="579" 
d="M545 34c0 -10 -3.50098 -18.1689 -10.501 -24.502s-15.5 -9.5 -25.5 -9.5c-7.33301 0 -14.166 2.16699 -20.499 6.5s-10.833 10.166 -13.5 17.499l-76 209h-223l-73 -209c-2.66699 -7.33301 -7.16699 -13.166 -13.5 -17.499s-13.166 -6.5 -20.499 -6.5
c-10.667 0 -19 2.83301 -25 8.5s-9 12.834 -9 21.501c0 6.66699 1 12.334 3 17.001l215 614c2.66699 7.33301 7 13.166 13 17.499s12.667 6.5 20 6.5s14.166 -2.16699 20.499 -6.5s10.833 -10.166 13.5 -17.499l221 -607c2.66699 -7.33301 4 -14 4 -20zM374.999 299.998
l-89 247l-86 -247h175zM171.999 771.998c-6.66699 6 -10.001 13.333 -10.001 22s3.33301 15.834 10 21.501s15 8.5 25 8.5h184c10 0 18.5 -3 25.5 -9s10.5 -13.333 10.5 -22s-3.66699 -15.834 -11 -21.501s-15.666 -8.5 -24.999 -8.5h-184c-10 0 -18.333 3 -25 9z" />
    <glyph glyph-name="amacron" unicode="&#x101;" horiz-adv-x="514" 
d="M126.5 25.5c-29.667 23.667 -50.999 54.001 -63.999 91.001s-19.5 76.167 -19.5 117.5c0 40.667 7.16699 79.667 21.5 117s36.833 68 67.5 92s69.334 36 116.001 36s85 -11.667 115 -35s51.667 -53.333 65 -90s20 -75.667 20 -117v-200c0 -12 -3.33301 -21.167 -10 -27.5
s-14.667 -9.5 -24 -9.5c-10 0 -18.333 3.16699 -25 9.5s-10 15.5 -10 27.5v30c-4 -4.66699 -10 -10.334 -18 -17.001l-33 -27c-14.667 -12 -28.334 -20.5 -41.001 -25.5s-28 -7.5 -46 -7.5c-46.667 0 -84.834 11.833 -114.501 35.5zM293.001 73.001l67.001 60
c7.33301 6 12.333 12 15 18s4 13 4 21v65c0 49.333 -11.167 90.833 -33.5 124.5s-54.833 50.5 -97.5 50.5s-75.334 -17.167 -98.001 -51.5s-34 -76.5 -34 -126.5c0 -50.667 10.333 -93 31 -127s52 -51 94 -51c22 0 39.333 5.66699 52 17zM133.002 570.001
c-6.66699 6 -10.001 13.333 -10.001 22s3.33301 15.834 10 21.501s15 8.5 25 8.5h184c10 0 18.5 -3 25.5 -9s10.5 -13.333 10.5 -22s-3.66699 -15.834 -11 -21.501s-15.666 -8.5 -24.999 -8.5h-184c-10 0 -18.333 3 -25 9z" />
    <glyph glyph-name="Abreve" unicode="&#x102;" horiz-adv-x="579" 
d="M545 34c0 -10 -3.50098 -18.1689 -10.501 -24.502s-15.5 -9.5 -25.5 -9.5c-7.33301 0 -14.166 2.16699 -20.499 6.5s-10.833 10.166 -13.5 17.499l-76 209h-223l-73 -209c-2.66699 -7.33301 -7.16699 -13.166 -13.5 -17.499s-13.166 -6.5 -20.499 -6.5
c-10.667 0 -19 2.83301 -25 8.5s-9 12.834 -9 21.501c0 6.66699 1 12.334 3 17.001l215 614c2.66699 7.33301 7 13.166 13 17.499s12.667 6.5 20 6.5s14.166 -2.16699 20.499 -6.5s10.833 -10.166 13.5 -17.499l221 -607c2.66699 -7.33301 4 -14 4 -20zM374.999 299.998
l-89 247l-86 -247h175zM225.999 767.998c-17.333 13.333 -27.666 30.666 -30.999 51.999c-1.33301 7.33301 -0.5 14 2.5 20s9.16699 9 18.5 9c7.33301 0 13.166 -2 17.499 -6s8.5 -9.66699 12.5 -17c11.333 -19.333 26.333 -29 45 -29c20 0 35 9.66699 45 29
c3.33301 8 7 13.833 11 17.5s9.66699 5.5 17 5.5c9.33301 0 15.5 -3 18.5 -9s3.83301 -12.667 2.5 -20c-3.33301 -21.333 -13.833 -38.666 -31.5 -51.999s-39.167 -20 -64.5 -20c-24.667 0 -45.667 6.66699 -63 20z" />
    <glyph glyph-name="abreve" unicode="&#x103;" horiz-adv-x="514" 
d="M126.5 25.5c-29.667 23.667 -50.999 54.001 -63.999 91.001s-19.5 76.167 -19.5 117.5c0 40.667 7.16699 79.667 21.5 117s36.833 68 67.5 92s69.334 36 116.001 36s85 -11.667 115 -35s51.667 -53.333 65 -90s20 -75.667 20 -117v-200c0 -12 -3.33301 -21.167 -10 -27.5
s-14.667 -9.5 -24 -9.5c-10 0 -18.333 3.16699 -25 9.5s-10 15.5 -10 27.5v30c-4 -4.66699 -10 -10.334 -18 -17.001l-33 -27c-14.667 -12 -28.334 -20.5 -41.001 -25.5s-28 -7.5 -46 -7.5c-46.667 0 -84.834 11.833 -114.501 35.5zM293.001 73.001l67.001 60
c7.33301 6 12.333 12 15 18s4 13 4 21v65c0 49.333 -11.167 90.833 -33.5 124.5s-54.833 50.5 -97.5 50.5s-75.334 -17.167 -98.001 -51.5s-34 -76.5 -34 -126.5c0 -50.667 10.333 -93 31 -127s52 -51 94 -51c22 0 39.333 5.66699 52 17zM187.002 565.001
c-17.333 13.333 -27.666 30.666 -30.999 51.999c-1.33301 7.33301 -0.5 14 2.5 20s9.16699 9 18.5 9c7.33301 0 13.166 -2 17.499 -6s8.5 -9.66699 12.5 -17c11.333 -19.333 26.333 -29 45 -29c20 0 35 9.66699 45 29c3.33301 8 7 13.833 11 17.5s9.66699 5.5 17 5.5
c9.33301 0 15.5 -3 18.5 -9s3.83301 -12.667 2.5 -20c-3.33301 -21.333 -13.833 -38.666 -31.5 -51.999s-39.167 -20 -64.5 -20c-24.667 0 -45.667 6.66699 -63 20z" />
    <glyph glyph-name="Aogonek" unicode="&#x104;" horiz-adv-x="579" 
d="M539.5 -106c3.66699 -4.66699 5.49805 -10.333 5.49805 -17c0 -8.66699 -6.33301 -16.834 -19 -24.501s-27.667 -11.5 -45 -11.5c-18 0 -34 5.66699 -48 17s-21 26.666 -21 45.999c0 18 8.33301 36.333 25 55l27 30c8.66699 9.33301 13 17.666 13 24.999
c0 3.33301 -2 10.333 -6 21l-72 198h-223l-73 -209c-2.66699 -7.33301 -7.16699 -13.166 -13.5 -17.499s-13.166 -6.5 -20.499 -6.5c-10.667 0 -19 2.83301 -25 8.5s-9 12.834 -9 21.501c0 6.66699 1 12.334 3 17.001l215 614c2.66699 7.33301 7 13.166 13 17.499
s12.667 6.5 20 6.5s14.166 -2.16699 20.499 -6.5s10.833 -10.166 13.5 -17.499l221 -607c2.66699 -7.33301 4 -14 4 -20c0 -7.33301 -1.33301 -14 -4 -20s-7.66699 -13.333 -15 -22l-45 -55c-9.33301 -11.333 -14 -21.333 -14 -30c0 -4.66699 1.83301 -8.66699 5.5 -12
s8.16699 -5 13.5 -5c4.66699 0 10.834 1.83301 18.501 5.5s13.167 5.5 16.5 5.5c8.66699 0 14.834 -2.33301 18.501 -7zM374.998 300.001l-89 247l-86 -247h175z" />
    <glyph glyph-name="aogonek" unicode="&#x105;" horiz-adv-x="514" 
d="M338 -142c-14 11.333 -20.999 26.6689 -20.999 46.002c0 17.333 8.33301 35.666 25 54.999l25 30c5.33301 6 8.66602 10.833 9.99902 14.5s2 8.83398 2 15.501v47l-8 -7l-43 -36c-14 -12 -27.333 -20.5 -40 -25.5s-28.334 -7.5 -47.001 -7.5
c-46.667 0 -84.834 11.833 -114.501 35.5s-51 54 -64 91s-19.5 76.167 -19.5 117.5c0 40.667 7.16699 79.667 21.5 117s36.833 68 67.5 92s69.334 36 116.001 36s85 -11.667 115 -35s51.667 -53.333 65 -90s20 -75.667 20 -117v-198c0 -8.66699 -1.5 -16.5 -4.5 -23.5
s-7.83301 -14.833 -14.5 -23.5l-43 -55c-9.33301 -12.667 -14 -22.667 -14 -30c0 -4.66699 1.83301 -8.66699 5.5 -12s8.16699 -5 13.5 -5c4.66699 0 10.834 1.83301 18.501 5.5s13.167 5.5 16.5 5.5c8 0 14 -2.33301 18 -7s6 -10.334 6 -17.001
c0 -8.66699 -6.33301 -16.834 -19 -24.501s-27.667 -11.5 -45 -11.5c-18 0 -34 5.66699 -48 17zM293.001 73.0029l67.001 60c7.33301 6 12.333 12 15 18s4 13 4 21v65c0 49.333 -11.167 90.833 -33.5 124.5s-54.833 50.5 -97.5 50.5s-75.334 -17.167 -98.001 -51.5
s-34 -76.5 -34 -126.5c0 -50.667 10.333 -93 31 -127s52 -51 94 -51c22 0 39.333 5.66699 52 17z" />
    <glyph glyph-name="Cacute" unicode="&#x106;" horiz-adv-x="540" 
d="M173 37c-38 31.333 -66.6689 73.835 -86.002 127.502s-29 113.167 -29 178.5c0 66 9.83301 125.5 29.5 178.5s49.334 95.167 89.001 126.5s88.167 47 145.5 47c28.667 0 56.5 -5.16699 83.5 -15.5s51.167 -26.166 72.5 -47.499c6.66699 -6.66699 10 -15.334 10 -26.001
c0 -10 -3.5 -18.333 -10.5 -25s-15.167 -10 -24.5 -10c-6 0 -12.667 2 -20 6c-4 2 -9.66699 6 -17 12c-14.667 11.333 -29 20.166 -43 26.499s-31.667 9.5 -53 9.5c-39.333 0 -73 -12.5 -101 -37.5s-49.167 -58.833 -63.5 -101.5s-21.5 -90.334 -21.5 -143.001
c0 -82 16 -149.667 48 -203s78 -80 138 -80c23.333 0 42.333 3.83301 57 11.5s29.334 17.5 44.001 29.5c12 10 23.333 15 34 15c8.66699 0 16.334 -3.5 23.001 -10.5s10 -14.833 10 -23.5c0 -11.333 -5 -22 -15 -32c-18.667 -20 -42.334 -35 -71.001 -45
s-58.667 -15 -90 -15c-54.667 0 -101 15.667 -139 47zM259.498 751.002c-5 4.66699 -7.5 10.334 -7.5 17.001c0 10 4.66699 17.667 14 23l114 58c6.66699 3.33301 12.667 5 18 5c7.33301 0 13.5 -2.33301 18.5 -7s7.5 -10.334 7.5 -17.001c0 -10 -4.66699 -17.667 -14 -23
l-114 -58c-6.66699 -3.33301 -12.667 -5 -18 -5c-7.33301 0 -13.5 2.33301 -18.5 7z" />
    <glyph glyph-name="cacute" unicode="&#x107;" horiz-adv-x="409" 
d="M132.5 25.5c-31 23.667 -53.6709 54.166 -68.0039 91.499s-21.5 76.333 -21.5 117s7.16699 79.667 21.5 117s36.833 68 67.5 92s69.334 36 116.001 36c21.333 0 43.333 -3.16699 66 -9.5s40.334 -15.166 53.001 -26.499c11.333 -10 17 -21.333 17 -34
c0 -10 -3.16699 -18.167 -9.5 -24.5s-14.166 -9.5 -23.499 -9.5c-6.66699 0 -13 2 -19 6c-4 2 -10 5.83301 -18 11.5s-17.333 10.167 -28 13.5s-23 5 -37 5c-42.667 0 -75.5 -17 -98.5 -51s-34.5 -76 -34.5 -126c0 -49.333 11.333 -91 34 -125s55.334 -51 98.001 -51
c17.333 0 31.5 2.16699 42.5 6.5s19.833 8.83301 26.5 13.5l13 9c8 4.66699 15.333 7 22 7c9.33301 0 17 -3 23 -9s9 -14 9 -24c0 -4.66699 -1 -9.66699 -3 -15s-4.66699 -9.33301 -8 -12c-16 -14.667 -35 -25.667 -57 -33s-44.333 -11 -67 -11
c-46.667 0 -85.5 11.833 -116.5 35.5zM176.496 545.999c-5 4.66699 -7.5 10.334 -7.5 17.001c0 10 4.66699 17.667 14 23l114 58c6.66699 3.33301 12.667 5 18 5c7.33301 0 13.5 -2.33301 18.5 -7s7.5 -10.334 7.5 -17.001c0 -10 -4.66699 -17.667 -14 -23l-114 -58
c-6.66699 -3.33301 -12.667 -5 -18 -5c-7.33301 0 -13.5 2.33301 -18.5 7z" />
    <glyph glyph-name="Ccircumflex" unicode="&#x108;" horiz-adv-x="540" 
d="M173 37c-38 31.333 -66.6689 73.835 -86.002 127.502s-29 113.167 -29 178.5c0 66 9.83301 125.5 29.5 178.5s49.334 95.167 89.001 126.5s88.167 47 145.5 47c28.667 0 56.5 -5.16699 83.5 -15.5s51.167 -26.166 72.5 -47.499c6.66699 -6.66699 10 -15.334 10 -26.001
c0 -10 -3.5 -18.333 -10.5 -25s-15.167 -10 -24.5 -10c-6 0 -12.667 2 -20 6c-4 2 -9.66699 6 -17 12c-14.667 11.333 -29 20.166 -43 26.499s-31.667 9.5 -53 9.5c-39.333 0 -73 -12.5 -101 -37.5s-49.167 -58.833 -63.5 -101.5s-21.5 -90.334 -21.5 -143.001
c0 -82 16 -149.667 48 -203s78 -80 138 -80c23.333 0 42.333 3.83301 57 11.5s29.334 17.5 44.001 29.5c12 10 23.333 15 34 15c8.66699 0 16.334 -3.5 23.001 -10.5s10 -14.833 10 -23.5c0 -11.333 -5 -22 -15 -32c-18.667 -20 -42.334 -35 -71.001 -45
s-58.667 -15 -90 -15c-54.667 0 -101 15.667 -139 47zM210.998 750.002c-4.66699 4.66699 -6.99609 10.333 -6.99609 17c0 8 4 15 12 21l75 55c9.33301 6.66699 17 10 23 10c5.33301 0 12 -3.33301 20 -10l71 -55c9.33301 -7.33301 14 -14 14 -20
c0 -6.66699 -2.33301 -12.5 -7 -17.5s-10.334 -7.5 -17.001 -7.5s-14.334 3 -23.001 9l-60 45l-61 -45c-8.66699 -6 -16.334 -9 -23.001 -9s-12.334 2.33301 -17.001 7z" />
    <glyph glyph-name="ccircumflex" unicode="&#x109;" horiz-adv-x="409" 
d="M132.5 25.5c-31 23.667 -53.6709 54.166 -68.0039 91.499s-21.5 76.333 -21.5 117s7.16699 79.667 21.5 117s36.833 68 67.5 92s69.334 36 116.001 36c21.333 0 43.333 -3.16699 66 -9.5s40.334 -15.166 53.001 -26.499c11.333 -10 17 -21.333 17 -34
c0 -10 -3.16699 -18.167 -9.5 -24.5s-14.166 -9.5 -23.499 -9.5c-6.66699 0 -13 2 -19 6c-4 2 -10 5.83301 -18 11.5s-17.333 10.167 -28 13.5s-23 5 -37 5c-42.667 0 -75.5 -17 -98.5 -51s-34.5 -76 -34.5 -126c0 -49.333 11.333 -91 34 -125s55.334 -51 98.001 -51
c17.333 0 31.5 2.16699 42.5 6.5s19.833 8.83301 26.5 13.5l13 9c8 4.66699 15.333 7 22 7c9.33301 0 17 -3 23 -9s9 -14 9 -24c0 -4.66699 -1 -9.66699 -3 -15s-4.66699 -9.33301 -8 -12c-16 -14.667 -35 -25.667 -57 -33s-44.333 -11 -67 -11
c-46.667 0 -85.5 11.833 -116.5 35.5zM143.996 547.999c-4.66699 4.66699 -6.99609 10.333 -6.99609 17c0 8 4 15 12 21l75 55c9.33301 6.66699 17 10 23 10c5.33301 0 12 -3.33301 20 -10l71 -55c9.33301 -7.33301 14 -14 14 -20c0 -6.66699 -2.33301 -12.5 -7 -17.5
s-10.334 -7.5 -17.001 -7.5s-14.334 3 -23.001 9l-60 45l-61 -45c-8.66699 -6 -16.334 -9 -23.001 -9s-12.334 2.33301 -17.001 7z" />
    <glyph glyph-name="Cdotaccent" unicode="&#x10a;" horiz-adv-x="540" 
d="M173 37c-38 31.333 -66.6689 73.835 -86.002 127.502s-29 113.167 -29 178.5c0 66 9.83301 125.5 29.5 178.5s49.334 95.167 89.001 126.5s88.167 47 145.5 47c28.667 0 56.5 -5.16699 83.5 -15.5s51.167 -26.166 72.5 -47.499c6.66699 -6.66699 10 -15.334 10 -26.001
c0 -10 -3.5 -18.333 -10.5 -25s-15.167 -10 -24.5 -10c-6 0 -12.667 2 -20 6c-4 2 -9.66699 6 -17 12c-14.667 11.333 -29 20.166 -43 26.499s-31.667 9.5 -53 9.5c-39.333 0 -73 -12.5 -101 -37.5s-49.167 -58.833 -63.5 -101.5s-21.5 -90.334 -21.5 -143.001
c0 -82 16 -149.667 48 -203s78 -80 138 -80c23.333 0 42.333 3.83301 57 11.5s29.334 17.5 44.001 29.5c12 10 23.333 15 34 15c8.66699 0 16.334 -3.5 23.001 -10.5s10 -14.833 10 -23.5c0 -11.333 -5 -22 -15 -32c-18.667 -20 -42.334 -35 -71.001 -45
s-58.667 -15 -90 -15c-54.667 0 -101 15.667 -139 47zM278.998 762.502c-8.66699 9.66699 -13 21.167 -13 34.5s4.33301 24.833 13 34.5s19.667 14.5 33 14.5s24.333 -4.83301 33 -14.5s13 -21.167 13 -34.5s-4.33301 -24.833 -13 -34.5s-19.667 -14.5 -33 -14.5
s-24.333 4.83301 -33 14.5z" />
    <glyph glyph-name="cdotaccent" unicode="&#x10b;" horiz-adv-x="409" 
d="M132.5 25.5c-31 23.667 -53.6709 54.166 -68.0039 91.499s-21.5 76.333 -21.5 117s7.16699 79.667 21.5 117s36.833 68 67.5 92s69.334 36 116.001 36c21.333 0 43.333 -3.16699 66 -9.5s40.334 -15.166 53.001 -26.499c11.333 -10 17 -21.333 17 -34
c0 -10 -3.16699 -18.167 -9.5 -24.5s-14.166 -9.5 -23.499 -9.5c-6.66699 0 -13 2 -19 6c-4 2 -10 5.83301 -18 11.5s-17.333 10.167 -28 13.5s-23 5 -37 5c-42.667 0 -75.5 -17 -98.5 -51s-34.5 -76 -34.5 -126c0 -49.333 11.333 -91 34 -125s55.334 -51 98.001 -51
c17.333 0 31.5 2.16699 42.5 6.5s19.833 8.83301 26.5 13.5l13 9c8 4.66699 15.333 7 22 7c9.33301 0 17 -3 23 -9s9 -14 9 -24c0 -4.66699 -1 -9.66699 -3 -15s-4.66699 -9.33301 -8 -12c-16 -14.667 -35 -25.667 -57 -33s-44.333 -11 -67 -11
c-46.667 0 -85.5 11.833 -116.5 35.5zM211.996 557.499c-8.66699 9.66699 -13 21.167 -13 34.5s4.33301 24.833 13 34.5s19.667 14.5 33 14.5s24.333 -4.83301 33 -14.5s13 -21.167 13 -34.5s-4.33301 -24.833 -13 -34.5s-19.667 -14.5 -33 -14.5s-24.333 4.83301 -33 14.5z
" />
    <glyph glyph-name="Ccaron" unicode="&#x10c;" horiz-adv-x="540" 
d="M173 37c-38 31.333 -66.6689 73.835 -86.002 127.502s-29 113.167 -29 178.5c0 66 9.83301 125.5 29.5 178.5s49.334 95.167 89.001 126.5s88.167 47 145.5 47c28.667 0 56.5 -5.16699 83.5 -15.5s51.167 -26.166 72.5 -47.499c6.66699 -6.66699 10 -15.334 10 -26.001
c0 -10 -3.5 -18.333 -10.5 -25s-15.167 -10 -24.5 -10c-6 0 -12.667 2 -20 6c-4 2 -9.66699 6 -17 12c-14.667 11.333 -29 20.166 -43 26.499s-31.667 9.5 -53 9.5c-39.333 0 -73 -12.5 -101 -37.5s-49.167 -58.833 -63.5 -101.5s-21.5 -90.334 -21.5 -143.001
c0 -82 16 -149.667 48 -203s78 -80 138 -80c23.333 0 42.333 3.83301 57 11.5s29.334 17.5 44.001 29.5c12 10 23.333 15 34 15c8.66699 0 16.334 -3.5 23.001 -10.5s10 -14.833 10 -23.5c0 -11.333 -5 -22 -15 -32c-18.667 -20 -42.334 -35 -71.001 -45
s-58.667 -15 -90 -15c-54.667 0 -101 15.667 -139 47zM290.998 753.002l-75.0049 56c-8 6 -12 13 -12 21c0 6.66699 2.33301 12.334 7 17.001s10.334 7 17.001 7s14.334 -3 23.001 -9l61 -45l60 45c8.66699 6 16.334 9 23.001 9s12.334 -2.5 17.001 -7.5s7 -10.833 7 -17.5
c0 -6 -4.66699 -12.667 -14 -20l-71 -56c-1.33301 -0.666992 -4.16602 -2.33398 -8.49902 -5.00098s-8.16602 -4 -11.499 -4c-6.66699 0 -14.334 3 -23.001 9z" />
    <glyph glyph-name="ccaron" unicode="&#x10d;" horiz-adv-x="409" 
d="M132.5 25.5c-31 23.667 -53.6709 54.166 -68.0039 91.499s-21.5 76.333 -21.5 117s7.16699 79.667 21.5 117s36.833 68 67.5 92s69.334 36 116.001 36c21.333 0 43.333 -3.16699 66 -9.5s40.334 -15.166 53.001 -26.499c11.333 -10 17 -21.333 17 -34
c0 -10 -3.16699 -18.167 -9.5 -24.5s-14.166 -9.5 -23.499 -9.5c-6.66699 0 -13 2 -19 6c-4 2 -10 5.83301 -18 11.5s-17.333 10.167 -28 13.5s-23 5 -37 5c-42.667 0 -75.5 -17 -98.5 -51s-34.5 -76 -34.5 -126c0 -49.333 11.333 -91 34 -125s55.334 -51 98.001 -51
c17.333 0 31.5 2.16699 42.5 6.5s19.833 8.83301 26.5 13.5l13 9c8 4.66699 15.333 7 22 7c9.33301 0 17 -3 23 -9s9 -14 9 -24c0 -4.66699 -1 -9.66699 -3 -15s-4.66699 -9.33301 -8 -12c-16 -14.667 -35 -25.667 -57 -33s-44.333 -11 -67 -11
c-46.667 0 -85.5 11.833 -116.5 35.5zM223.996 553.999l-75.0049 56c-8 6 -12 13 -12 21c0 6.66699 2.33301 12.334 7 17.001s10.334 7 17.001 7s14.334 -3 23.001 -9l61 -45l60 45c8.66699 6 16.334 9 23.001 9s12.334 -2.5 17.001 -7.5s7 -10.833 7 -17.5
c0 -6 -4.66699 -12.667 -14 -20l-71 -56c-1.33301 -0.666992 -4.16602 -2.33398 -8.49902 -5.00098s-8.16602 -4 -11.499 -4c-6.66699 0 -14.334 3 -23.001 9z" />
    <glyph glyph-name="Dcaron" unicode="&#x10e;" horiz-adv-x="630" 
d="M114 10c-6.66699 6.66699 -10 15.001 -10 25.001v615c0 10 3.5 18.333 10.5 25s15.167 10 24.5 10h188c60 0 108.333 -18 145 -54s62.5 -79.833 77.5 -131.5s22.5 -103.834 22.5 -156.501s-7.5 -105 -22.5 -157s-40.833 -96 -77.5 -132s-85 -54 -145 -54h-189
c-9.33301 -0 -17.333 3.33301 -24 10zM327 67.001c59.333 0 102.333 26.832 129 80.499s40 118.834 40 195.501c0 76 -13.5 140.833 -40.5 194.5s-70.5 80.5 -130.5 80.5h-152v-551h154zM274 753l-75.0049 56c-8 6 -12 13 -12 21c0 6.66699 2.33301 12.334 7 17.001
s10.334 7 17.001 7s14.334 -3 23.001 -9l61 -45l60 45c8.66699 6 16.334 9 23.001 9s12.334 -2.5 17.001 -7.5s7 -10.833 7 -17.5c0 -6 -4.66699 -12.667 -14 -20l-71 -56c-1.33301 -0.666992 -4.16602 -2.33398 -8.49902 -5.00098s-8.16602 -4 -11.499 -4
c-6.66699 0 -14.334 3 -23.001 9z" />
    <glyph glyph-name="dcaron" unicode="&#x10f;" horiz-adv-x="581" 
d="M126.5 25.5c-29.667 23.667 -50.999 54.001 -63.999 91.001s-19.5 76.167 -19.5 117.5s7.16699 80.5 21.5 117.5s36.833 67.5 67.5 91.5s69.334 36 116.001 36c27.333 0 52.666 -5 75.999 -15s41.666 -24 54.999 -42v263c0 12 3.33301 21.167 10 27.5s14.667 9.5 24 9.5
c10 0 18.333 -3.16699 25 -9.5s10 -15.5 10 -27.5v-648c0 -12 -3.33301 -21.167 -10 -27.5s-14.667 -9.5 -24 -9.5c-10 0 -18.333 3.16699 -25 9.5s-10 15.5 -10 27.5v31c-4 -4.66699 -10 -10.334 -18 -17.001l-32 -28c-13.333 -12 -26.666 -20.5 -39.999 -25.5
s-29.333 -7.5 -48 -7.5c-46.667 0 -84.834 11.833 -114.501 35.5zM293.001 73.001l68.002 60c7.33301 6 12.166 11.833 14.499 17.5s3.5 12.834 3.5 21.501v73c0 49.333 -10.833 89.666 -32.5 120.999s-54.5 47 -98.5 47c-42.667 0 -75.334 -17.333 -98.001 -52
s-34 -77 -34 -127c0 -50.667 10.167 -93 30.5 -127s51.833 -51 94.5 -51c22 0 39.333 5.66699 52 17zM507.003 569.501c-6.66699 5 -10 11.8311 -10 20.498c0 4.66699 1 10 3 16l33 95c2.66699 6.66699 6.66699 11.834 12 15.501s11.333 5.5 18 5.5
c9.33301 0 17.333 -2.66699 24 -8s10 -12.666 10 -21.999c0 -4.66699 -1 -9.66699 -3 -15l-33 -93c-2.66699 -6.66699 -6.66699 -12 -12 -16s-11.333 -6 -18 -6c-9.33301 0 -17.333 2.5 -24 7.5z" />
    <glyph glyph-name="Dcroat" unicode="&#x110;" horiz-adv-x="630" 
d="M472 631c36.667 -36 62.5 -79.832 77.5 -131.499s22.5 -103.834 22.5 -156.501s-7.5 -105 -22.5 -157s-40.833 -96 -77.5 -132s-85 -54 -145 -54h-189c-9.33301 -0 -17.333 3.33301 -24 10s-10 15 -10 25v301h-36c-8.66699 0 -16.167 3.33301 -22.5 10s-9.5 15 -9.5 25
s3.16699 18.167 9.5 24.5s13.833 9.5 22.5 9.5h36v245c0 10 3.5 18.333 10.5 25s15.167 10 24.5 10h188c60 0 108.333 -18 145 -54zM456 147.501c26.667 53.667 40 118.833 40 195.5c0 76 -13.5 140.833 -40.5 194.5s-70.5 80.5 -130.5 80.5h-152v-213h91
c8.66699 0 16.167 -3.33301 22.5 -10s9.5 -15 9.5 -25s-3.16699 -18.167 -9.5 -24.5s-13.833 -9.5 -22.5 -9.5h-91v-269h154c59.333 0 102.333 26.833 129 80.5z" />
    <glyph glyph-name="dcroat" unicode="&#x111;" horiz-adv-x="519" 
d="M500.5 613c6.33301 -6.66699 9.50098 -14.999 9.50098 -24.999s-3.16699 -18.167 -9.5 -24.5s-13.833 -9.5 -22.5 -9.5h-30v-517c0 -12 -3.33301 -21.167 -10 -27.5s-14.667 -9.5 -24 -9.5c-10 0 -18.333 3.16699 -25 9.5s-10 15.5 -10 27.5v31
c-4 -4.66699 -10 -10.334 -18 -17.001l-32 -28c-13.333 -12 -26.666 -20.5 -39.999 -25.5s-29.333 -7.5 -48 -7.5c-46.667 0 -84.834 11.833 -114.501 35.5s-51 54 -64 91s-19.5 76.167 -19.5 117.5s7.16699 80.5 21.5 117.5s36.833 67.5 67.5 91.5s69.334 36 116.001 36
c27.333 0 52.666 -5 75.999 -15s41.666 -24 54.999 -42v132h-97c-8.66699 0 -16.167 3.33301 -22.5 10s-9.5 15 -9.5 25s3.16699 18.167 9.5 24.5s13.833 9.5 22.5 9.5h97v62c0 12 3.33301 21.167 10 27.5s14.667 9.5 24 9.5c10 0 18.333 -3.16699 25 -9.5
s10 -15.5 10 -27.5v-62h30c8.66699 0 16.167 -3.33301 22.5 -10zM379.001 245.001c0 49.333 -10.8311 89.666 -32.498 120.999s-54.5 47 -98.5 47c-42.667 0 -75.334 -17.333 -98.001 -52s-34 -77 -34 -127c0 -50.667 10.167 -93 30.5 -127s51.833 -51 94.5 -51
c22 0 39.333 5.66699 52 17l68 60c7.33301 6 12.166 11.833 14.499 17.5s3.5 12.834 3.5 21.501v73z" />
    <glyph glyph-name="Emacron" unicode="&#x112;" horiz-adv-x="474" 
d="M114 10c-6.66699 6.66699 -10 15 -10 25v615c0 10 3.33301 18.333 10 25s14.667 10 24 10h260c10.667 0 19.334 -3 26.001 -9s10 -14 10 -24c0 -10.667 -3.33301 -19 -10 -25s-15.334 -9 -26.001 -9h-225v-224h187c10.667 0 19.334 -3 26.001 -9s10 -14 10 -24
c0 -10.667 -3.33301 -19 -10 -25s-15.334 -9 -26.001 -9h-187v-260h225c10.667 0 19.334 -3 26.001 -9s10 -14 10 -24c0 -10.667 -3.33301 -19 -10 -25s-15.334 -9 -26.001 -9h-260c-9.33301 -0 -17.333 3.33301 -24 10zM155 772c-6.66699 6 -10.001 13.333 -10.001 22
s3.33301 15.834 10 21.501s15 8.5 25 8.5h184c10 0 18.5 -3 25.5 -9s10.5 -13.333 10.5 -22s-3.66699 -15.834 -11 -21.501s-15.666 -8.5 -24.999 -8.5h-184c-10 0 -18.333 3 -25 9z" />
    <glyph glyph-name="emacron" unicode="&#x113;" horiz-adv-x="480" 
d="M133 25c-31.333 23.333 -54.1631 53.5029 -68.4961 90.5029s-21.5 76.5 -21.5 118.5c0 40.667 7.33301 79.667 22 117s37.667 68 69 92s70.666 36 117.999 36c36 0 68.5 -9.83301 97.5 -29.5s51.667 -45.167 68 -76.5s24.5 -64.333 24.5 -99
c0 -20.667 -3.33301 -35.334 -10 -44.001s-18.334 -13 -35.001 -13h-280c0.666992 -45.333 12.667 -83 36 -113s55.666 -45 96.999 -45c18.667 0 33.667 1.83301 45 5.5s21.166 7.66699 29.499 12s14.166 7.5 17.499 9.5c12 6 21.667 9 29 9c8 0 14.833 -3 20.5 -9
s8.5 -13.333 8.5 -22c0 -6.66699 -1.83301 -12.834 -5.5 -18.501s-9.5 -11.834 -17.5 -18.501c-13.333 -11.333 -31.666 -20.333 -54.999 -27s-46.333 -10 -69 -10c-48.667 0 -88.667 11.667 -120 35zM367.003 284.003c-2.66699 37.333 -14 68 -34 92s-47.667 36 -83 36
c-34.667 0 -63.167 -11.833 -85.5 -35.5s-36.833 -54.5 -43.5 -92.5h246zM132.003 570.003c-6.66699 6 -10.001 13.333 -10.001 22s3.33301 15.834 10 21.501s15 8.5 25 8.5h184c10 0 18.5 -3 25.5 -9s10.5 -13.333 10.5 -22s-3.66699 -15.834 -11 -21.501
s-15.666 -8.5 -24.999 -8.5h-184c-10 0 -18.333 3 -25 9z" />
    <glyph glyph-name="Ebreve" unicode="&#x114;" horiz-adv-x="474" 
d="M114 10c-6.66699 6.66699 -10 15 -10 25v615c0 10 3.33301 18.333 10 25s14.667 10 24 10h260c10.667 0 19.334 -3 26.001 -9s10 -14 10 -24c0 -10.667 -3.33301 -19 -10 -25s-15.334 -9 -26.001 -9h-225v-224h187c10.667 0 19.334 -3 26.001 -9s10 -14 10 -24
c0 -10.667 -3.33301 -19 -10 -25s-15.334 -9 -26.001 -9h-187v-260h225c10.667 0 19.334 -3 26.001 -9s10 -14 10 -24c0 -10.667 -3.33301 -19 -10 -25s-15.334 -9 -26.001 -9h-260c-9.33301 -0 -17.333 3.33301 -24 10zM209 768
c-17.333 13.333 -27.666 30.666 -30.999 51.999c-1.33301 7.33301 -0.5 14 2.5 20s9.16699 9 18.5 9c7.33301 0 13.166 -2 17.499 -6s8.5 -9.66699 12.5 -17c11.333 -19.333 26.333 -29 45 -29c20 0 35 9.66699 45 29c3.33301 8 7 13.833 11 17.5s9.66699 5.5 17 5.5
c9.33301 0 15.5 -3 18.5 -9s3.83301 -12.667 2.5 -20c-3.33301 -21.333 -13.833 -38.666 -31.5 -51.999s-39.167 -20 -64.5 -20c-24.667 0 -45.667 6.66699 -63 20z" />
    <glyph glyph-name="ebreve" unicode="&#x115;" horiz-adv-x="480" 
d="M133 25c-31.333 23.333 -54.1631 53.5029 -68.4961 90.5029s-21.5 76.5 -21.5 118.5c0 40.667 7.33301 79.667 22 117s37.667 68 69 92s70.666 36 117.999 36c36 0 68.5 -9.83301 97.5 -29.5s51.667 -45.167 68 -76.5s24.5 -64.333 24.5 -99
c0 -20.667 -3.33301 -35.334 -10 -44.001s-18.334 -13 -35.001 -13h-280c0.666992 -45.333 12.667 -83 36 -113s55.666 -45 96.999 -45c18.667 0 33.667 1.83301 45 5.5s21.166 7.66699 29.499 12s14.166 7.5 17.499 9.5c12 6 21.667 9 29 9c8 0 14.833 -3 20.5 -9
s8.5 -13.333 8.5 -22c0 -6.66699 -1.83301 -12.834 -5.5 -18.501s-9.5 -11.834 -17.5 -18.501c-13.333 -11.333 -31.666 -20.333 -54.999 -27s-46.333 -10 -69 -10c-48.667 0 -88.667 11.667 -120 35zM367.003 284.003c-2.66699 37.333 -14 68 -34 92s-47.667 36 -83 36
c-34.667 0 -63.167 -11.833 -85.5 -35.5s-36.833 -54.5 -43.5 -92.5h246zM186.003 565.003c-17.333 13.333 -27.666 30.666 -30.999 51.999c-1.33301 7.33301 -0.5 14 2.5 20s9.16699 9 18.5 9c7.33301 0 13.166 -2 17.499 -6s8.5 -9.66699 12.5 -17
c11.333 -19.333 26.333 -29 45 -29c20 0 35 9.66699 45 29c3.33301 8 7 13.833 11 17.5s9.66699 5.5 17 5.5c9.33301 0 15.5 -3 18.5 -9s3.83301 -12.667 2.5 -20c-3.33301 -21.333 -13.833 -38.666 -31.5 -51.999s-39.167 -20 -64.5 -20c-24.667 0 -45.667 6.66699 -63 20z
" />
    <glyph glyph-name="Edotaccent" unicode="&#x116;" horiz-adv-x="474" 
d="M114 10c-6.66699 6.66699 -10 15 -10 25v615c0 10 3.33301 18.333 10 25s14.667 10 24 10h260c10.667 0 19.334 -3 26.001 -9s10 -14 10 -24c0 -10.667 -3.33301 -19 -10 -25s-15.334 -9 -26.001 -9h-225v-224h187c10.667 0 19.334 -3 26.001 -9s10 -14 10 -24
c0 -10.667 -3.33301 -19 -10 -25s-15.334 -9 -26.001 -9h-187v-260h225c10.667 0 19.334 -3 26.001 -9s10 -14 10 -24c0 -10.667 -3.33301 -19 -10 -25s-15.334 -9 -26.001 -9h-260c-9.33301 -0 -17.333 3.33301 -24 10zM240 762.5c-8.66699 9.66699 -13 21.167 -13 34.5
s4.33301 24.833 13 34.5s19.667 14.5 33 14.5s24.333 -4.83301 33 -14.5s13 -21.167 13 -34.5s-4.33301 -24.833 -13 -34.5s-19.667 -14.5 -33 -14.5s-24.333 4.83301 -33 14.5z" />
    <glyph glyph-name="edotaccent" unicode="&#x117;" horiz-adv-x="480" 
d="M133 25c-31.333 23.333 -54.1631 53.5029 -68.4961 90.5029s-21.5 76.5 -21.5 118.5c0 40.667 7.33301 79.667 22 117s37.667 68 69 92s70.666 36 117.999 36c36 0 68.5 -9.83301 97.5 -29.5s51.667 -45.167 68 -76.5s24.5 -64.333 24.5 -99
c0 -20.667 -3.33301 -35.334 -10 -44.001s-18.334 -13 -35.001 -13h-280c0.666992 -45.333 12.667 -83 36 -113s55.666 -45 96.999 -45c18.667 0 33.667 1.83301 45 5.5s21.166 7.66699 29.499 12s14.166 7.5 17.499 9.5c12 6 21.667 9 29 9c8 0 14.833 -3 20.5 -9
s8.5 -13.333 8.5 -22c0 -6.66699 -1.83301 -12.834 -5.5 -18.501s-9.5 -11.834 -17.5 -18.501c-13.333 -11.333 -31.666 -20.333 -54.999 -27s-46.333 -10 -69 -10c-48.667 0 -88.667 11.667 -120 35zM367.003 284.003c-2.66699 37.333 -14 68 -34 92s-47.667 36 -83 36
c-34.667 0 -63.167 -11.833 -85.5 -35.5s-36.833 -54.5 -43.5 -92.5h246zM217.003 557.503c-8.66699 9.66699 -13 21.167 -13 34.5s4.33301 24.833 13 34.5s19.667 14.5 33 14.5s24.333 -4.83301 33 -14.5s13 -21.167 13 -34.5s-4.33301 -24.833 -13 -34.5
s-19.667 -14.5 -33 -14.5s-24.333 4.83301 -33 14.5z" />
    <glyph glyph-name="Eogonek" unicode="&#x118;" horiz-adv-x="474" 
d="M322 -142c-14 11.333 -21.0029 26.6689 -21.0029 46.002s9.66699 39 29 59l36 37h-228c-9.33301 0 -17.333 3.33301 -24 10s-10 15 -10 25v615c0 10 3.33301 18.333 10 25s14.667 10 24 10h260c10.667 0 19.334 -3 26.001 -9s10 -14 10 -24
c0 -10.667 -3.33301 -19 -10 -25s-15.334 -9 -26.001 -9h-225v-224h187c10.667 0 19.334 -3 26.001 -9s10 -14 10 -24c0 -10.667 -3.33301 -19 -10 -25s-15.334 -9 -26.001 -9h-187v-260h225c10.667 0 19.334 -2.83301 26.001 -8.5s10 -13.5 10 -23.5
c0 -8 -2 -14.667 -6 -20l-58 -78c-9.33301 -12.667 -14 -22.667 -14 -30c0 -4.66699 1.83301 -8.66699 5.5 -12s8.16699 -5 13.5 -5c4.66699 0 10.834 1.83301 18.501 5.5s13.167 5.5 16.5 5.5c8.66699 0 14.834 -2.33301 18.501 -7s5.5 -10.334 5.5 -17.001
c0 -8.66699 -6.33301 -16.834 -19 -24.501s-27.667 -11.5 -45 -11.5c-18 0 -34 5.66699 -48 17z" />
    <glyph glyph-name="eogonek" unicode="&#x119;" horiz-adv-x="480" 
d="M432 230c-6.66699 -8.66699 -18.3311 -13.001 -34.998 -13.001h-280c0.666992 -45.333 12.667 -83 36 -113s55.666 -45 96.999 -45c18.667 0 33.667 1.83301 45 5.5s21.166 7.66699 29.499 12s14.166 7.5 17.499 9.5c12 6 21.667 9 29 9c8 0 14.833 -3 20.5 -9
s8.5 -13.333 8.5 -22c0 -4.66699 -1.16699 -9.5 -3.5 -14.5s-5.5 -10.5 -9.5 -16.5l-69 -96c-9.33301 -12.667 -14 -22.667 -14 -30c0 -4.66699 1.83301 -8.66699 5.5 -12s8.16699 -5 13.5 -5c4.66699 0 11 1.83301 19 5.5s14 5.5 18 5.5c7.33301 0 12.833 -2 16.5 -6
s5.5 -9 5.5 -15c0 -9.33301 -6.33301 -18.166 -19 -26.499s-27.667 -12.5 -45 -12.5c-19.333 0 -35.666 4.66699 -48.999 14s-20 24 -20 44c0 11.333 2.5 21.833 7.5 31.5s12.833 20.834 23.5 33.501l31 35c-18.667 -6 -38 -9 -58 -9c-48.667 0 -88.667 11.667 -120 35
s-54.166 53.5 -68.499 90.5s-21.5 76.5 -21.5 118.5c0 40.667 7.33301 79.667 22 117s37.667 68 69 92s70.666 36 117.999 36c36 0 68.5 -9.83301 97.5 -29.5s51.667 -45.167 68 -76.5s24.5 -64.333 24.5 -99c0 -20.667 -3.33301 -35.334 -10 -44.001zM367.003 283.999
c-2.66699 37.333 -14 68 -34 92s-47.667 36 -83 36c-34.667 0 -63.167 -11.833 -85.5 -35.5s-36.833 -54.5 -43.5 -92.5h246z" />
    <glyph glyph-name="Ecaron" unicode="&#x11a;" horiz-adv-x="474" 
d="M114 10c-6.66699 6.66699 -10 15 -10 25v615c0 10 3.33301 18.333 10 25s14.667 10 24 10h260c10.667 0 19.334 -3 26.001 -9s10 -14 10 -24c0 -10.667 -3.33301 -19 -10 -25s-15.334 -9 -26.001 -9h-225v-224h187c10.667 0 19.334 -3 26.001 -9s10 -14 10 -24
c0 -10.667 -3.33301 -19 -10 -25s-15.334 -9 -26.001 -9h-187v-260h225c10.667 0 19.334 -3 26.001 -9s10 -14 10 -24c0 -10.667 -3.33301 -19 -10 -25s-15.334 -9 -26.001 -9h-260c-9.33301 -0 -17.333 3.33301 -24 10zM252 753l-75.0049 56c-8 6 -12 13 -12 21
c0 6.66699 2.33301 12.334 7 17.001s10.334 7 17.001 7s14.334 -3 23.001 -9l61 -45l60 45c8.66699 6 16.334 9 23.001 9s12.334 -2.5 17.001 -7.5s7 -10.833 7 -17.5c0 -6 -4.66699 -12.667 -14 -20l-71 -56c-1.33301 -0.666992 -4.16602 -2.33398 -8.49902 -5.00098
s-8.16602 -4 -11.499 -4c-6.66699 0 -14.334 3 -23.001 9z" />
    <glyph glyph-name="ecaron" unicode="&#x11b;" horiz-adv-x="480" 
d="M133 25c-31.333 23.333 -54.1631 53.5029 -68.4961 90.5029s-21.5 76.5 -21.5 118.5c0 40.667 7.33301 79.667 22 117s37.667 68 69 92s70.666 36 117.999 36c36 0 68.5 -9.83301 97.5 -29.5s51.667 -45.167 68 -76.5s24.5 -64.333 24.5 -99
c0 -20.667 -3.33301 -35.334 -10 -44.001s-18.334 -13 -35.001 -13h-280c0.666992 -45.333 12.667 -83 36 -113s55.666 -45 96.999 -45c18.667 0 33.667 1.83301 45 5.5s21.166 7.66699 29.499 12s14.166 7.5 17.499 9.5c12 6 21.667 9 29 9c8 0 14.833 -3 20.5 -9
s8.5 -13.333 8.5 -22c0 -6.66699 -1.83301 -12.834 -5.5 -18.501s-9.5 -11.834 -17.5 -18.501c-13.333 -11.333 -31.666 -20.333 -54.999 -27s-46.333 -10 -69 -10c-48.667 0 -88.667 11.667 -120 35zM367.003 284.003c-2.66699 37.333 -14 68 -34 92s-47.667 36 -83 36
c-34.667 0 -63.167 -11.833 -85.5 -35.5s-36.833 -54.5 -43.5 -92.5h246zM229.003 554.003l-75.0049 56c-8 6 -12 13 -12 21c0 6.66699 2.33301 12.334 7 17.001s10.334 7 17.001 7s14.334 -3 23.001 -9l61 -45l60 45c8.66699 6 16.334 9 23.001 9s12.334 -2.5 17.001 -7.5
s7 -10.833 7 -17.5c0 -6 -4.66699 -12.667 -14 -20l-71 -56c-1.33301 -0.666992 -4.16602 -2.33398 -8.49902 -5.00098s-8.16602 -4 -11.499 -4c-6.66699 0 -14.334 3 -23.001 9z" />
    <glyph glyph-name="Gcircumflex" unicode="&#x11c;" horiz-adv-x="600" 
d="M174.5 37c-38.333 31.333 -67.332 73.834 -86.999 127.501s-29.5 113.167 -29.5 178.5s9.83301 124.666 29.5 177.999s48.5 95.666 86.5 126.999s84 47 138 47c31.333 0 61.5 -5.16699 90.5 -15.5s54.167 -26.166 75.5 -47.499c6.66699 -6.66699 10 -15.334 10 -26.001
c0 -10 -3.5 -18.333 -10.5 -25s-15.167 -10 -24.5 -10c-8 0 -15.667 2.66699 -23 8c-4 2.66699 -11.833 8.33398 -23.5 17.001s-25.334 15.667 -41.001 21s-33.5 8 -53.5 8c-36.667 0 -68.5 -12.5 -95.5 -37.5s-47.5 -59 -61.5 -102s-21 -90.5 -21 -142.5
s7.16699 -99.5 21.5 -142.5s35 -77.167 62 -102.5s58.833 -38 95.5 -38c29.333 0 56.5 7.16699 81.5 21.5s45 35.333 60 63s22.5 60.167 22.5 97.5v69h-149c-10.667 0 -19.334 3 -26.001 9s-10 14 -10 24c0 10.667 3.33301 19 10 25s15.334 9 26.001 9h178
c13.333 0 23.333 -4 30 -12s10 -19 10 -33v-93c0 -48 -10 -91 -30 -129s-47.667 -67.667 -83 -89s-75.333 -32 -120 -32c-54 0 -100.167 15.667 -138.5 47zM214.001 750.001c-4.66699 4.66699 -6.99609 10.333 -6.99609 17c0 8 4 15 12 21l75 55
c9.33301 6.66699 17 10 23 10c5.33301 0 12 -3.33301 20 -10l71 -55c9.33301 -7.33301 14 -14 14 -20c0 -6.66699 -2.33301 -12.5 -7 -17.5s-10.334 -7.5 -17.001 -7.5s-14.334 3 -23.001 9l-60 45l-61 -45c-8.66699 -6 -16.334 -9 -23.001 -9s-12.334 2.33301 -17.001 7z
" />
    <glyph glyph-name="gcircumflex" unicode="&#x11d;" horiz-adv-x="519" 
d="M236.5 -254.5c-7 6.33301 -10.5039 14.833 -10.5039 25.5s3.33301 19.167 10 25.5s15.334 10.166 26.001 11.499c22 2.66699 38.667 6.66699 50 12s22 13.666 32 24.999c14 16.667 23.333 37 28 61s7 51 7 81v71c-13.333 -16.667 -32 -30.5 -56 -41.5
s-49.667 -16.5 -77 -16.5c-46.667 0 -85.167 11.5 -115.5 34.5s-52.5 52.833 -66.5 89.5s-21 75.334 -21 116.001c0 41.333 6.5 80 19.5 116s34.333 65.5 64 88.5s67.834 34.5 114.501 34.5c18.667 0 34.334 -2.33301 47.001 -7s26 -13 40 -25l35 -30
c8 -7.33301 13.333 -12.666 16 -15.999v32c0 12 3.33301 21.167 10 27.5s14.667 9.5 24 9.5c10 0 18.333 -3.16699 25 -9.5s10 -15.5 10 -27.5v-444c0 -48 -5 -88.5 -15 -121.5s-28.333 -61.833 -55 -86.5c-31.333 -30 -68.666 -45 -111.999 -45
c-12.667 0 -22.5 3.16699 -29.5 9.5zM345.996 114c22 30.667 32.999 70.333 32.999 119v65c0 8 -1.33301 15 -4 21s-7.66699 12 -15 18l-67 59c-12.667 11.333 -30 17 -52 17c-42 0 -73.333 -16.333 -94 -49s-31 -74 -31 -124c0 -49.333 11.333 -90.333 34 -123
s55.334 -49 98.001 -49c43.333 0 76 15.333 98 46zM158.995 547.999c-4.66699 4.66699 -6.99609 10.333 -6.99609 17c0 8 4 15 12 21l75 55c9.33301 6.66699 17 10 23 10c5.33301 0 12 -3.33301 20 -10l71 -55c9.33301 -7.33301 14 -14 14 -20
c0 -6.66699 -2.33301 -12.5 -7 -17.5s-10.334 -7.5 -17.001 -7.5s-14.334 3 -23.001 9l-60 45l-61 -45c-8.66699 -6 -16.334 -9 -23.001 -9s-12.334 2.33301 -17.001 7z" />
    <glyph glyph-name="Gbreve" unicode="&#x11e;" horiz-adv-x="600" 
d="M174.5 37c-38.333 31.333 -67.332 73.834 -86.999 127.501s-29.5 113.167 -29.5 178.5s9.83301 124.666 29.5 177.999s48.5 95.666 86.5 126.999s84 47 138 47c31.333 0 61.5 -5.16699 90.5 -15.5s54.167 -26.166 75.5 -47.499c6.66699 -6.66699 10 -15.334 10 -26.001
c0 -10 -3.5 -18.333 -10.5 -25s-15.167 -10 -24.5 -10c-8 0 -15.667 2.66699 -23 8c-4 2.66699 -11.833 8.33398 -23.5 17.001s-25.334 15.667 -41.001 21s-33.5 8 -53.5 8c-36.667 0 -68.5 -12.5 -95.5 -37.5s-47.5 -59 -61.5 -102s-21 -90.5 -21 -142.5
s7.16699 -99.5 21.5 -142.5s35 -77.167 62 -102.5s58.833 -38 95.5 -38c29.333 0 56.5 7.16699 81.5 21.5s45 35.333 60 63s22.5 60.167 22.5 97.5v69h-149c-10.667 0 -19.334 3 -26.001 9s-10 14 -10 24c0 10.667 3.33301 19 10 25s15.334 9 26.001 9h178
c13.333 0 23.333 -4 30 -12s10 -19 10 -33v-93c0 -48 -10 -91 -30 -129s-47.667 -67.667 -83 -89s-75.333 -32 -120 -32c-54 0 -100.167 15.667 -138.5 47zM251.001 768.001c-17.333 13.333 -27.666 30.666 -30.999 51.999c-1.33301 7.33301 -0.5 14 2.5 20
s9.16699 9 18.5 9c7.33301 0 13.166 -2 17.499 -6s8.5 -9.66699 12.5 -17c11.333 -19.333 26.333 -29 45 -29c20 0 35 9.66699 45 29c3.33301 8 7 13.833 11 17.5s9.66699 5.5 17 5.5c9.33301 0 15.5 -3 18.5 -9s3.83301 -12.667 2.5 -20
c-3.33301 -21.333 -13.833 -38.666 -31.5 -51.999s-39.167 -20 -64.5 -20c-24.667 0 -45.667 6.66699 -63 20z" />
    <glyph glyph-name="gbreve" unicode="&#x11f;" horiz-adv-x="519" 
d="M236.5 -254.5c-7 6.33301 -10.5039 14.833 -10.5039 25.5s3.33301 19.167 10 25.5s15.334 10.166 26.001 11.499c22 2.66699 38.667 6.66699 50 12s22 13.666 32 24.999c14 16.667 23.333 37 28 61s7 51 7 81v71c-13.333 -16.667 -32 -30.5 -56 -41.5
s-49.667 -16.5 -77 -16.5c-46.667 0 -85.167 11.5 -115.5 34.5s-52.5 52.833 -66.5 89.5s-21 75.334 -21 116.001c0 41.333 6.5 80 19.5 116s34.333 65.5 64 88.5s67.834 34.5 114.501 34.5c18.667 0 34.334 -2.33301 47.001 -7s26 -13 40 -25l35 -30
c8 -7.33301 13.333 -12.666 16 -15.999v32c0 12 3.33301 21.167 10 27.5s14.667 9.5 24 9.5c10 0 18.333 -3.16699 25 -9.5s10 -15.5 10 -27.5v-444c0 -48 -5 -88.5 -15 -121.5s-28.333 -61.833 -55 -86.5c-31.333 -30 -68.666 -45 -111.999 -45
c-12.667 0 -22.5 3.16699 -29.5 9.5zM345.996 114c22 30.667 32.999 70.333 32.999 119v65c0 8 -1.33301 15 -4 21s-7.66699 12 -15 18l-67 59c-12.667 11.333 -30 17 -52 17c-42 0 -73.333 -16.333 -94 -49s-31 -74 -31 -124c0 -49.333 11.333 -90.333 34 -123
s55.334 -49 98.001 -49c43.333 0 76 15.333 98 46zM195.995 564.999c-17.333 13.333 -27.666 30.666 -30.999 51.999c-1.33301 7.33301 -0.5 14 2.5 20s9.16699 9 18.5 9c7.33301 0 13.166 -2 17.499 -6s8.5 -9.66699 12.5 -17c11.333 -19.333 26.333 -29 45 -29
c20 0 35 9.66699 45 29c3.33301 8 7 13.833 11 17.5s9.66699 5.5 17 5.5c9.33301 0 15.5 -3 18.5 -9s3.83301 -12.667 2.5 -20c-3.33301 -21.333 -13.833 -38.666 -31.5 -51.999s-39.167 -20 -64.5 -20c-24.667 0 -45.667 6.66699 -63 20z" />
    <glyph glyph-name="Gdotaccent" unicode="&#x120;" horiz-adv-x="600" 
d="M174.5 37c-38.333 31.333 -67.332 73.834 -86.999 127.501s-29.5 113.167 -29.5 178.5s9.83301 124.666 29.5 177.999s48.5 95.666 86.5 126.999s84 47 138 47c31.333 0 61.5 -5.16699 90.5 -15.5s54.167 -26.166 75.5 -47.499c6.66699 -6.66699 10 -15.334 10 -26.001
c0 -10 -3.5 -18.333 -10.5 -25s-15.167 -10 -24.5 -10c-8 0 -15.667 2.66699 -23 8c-4 2.66699 -11.833 8.33398 -23.5 17.001s-25.334 15.667 -41.001 21s-33.5 8 -53.5 8c-36.667 0 -68.5 -12.5 -95.5 -37.5s-47.5 -59 -61.5 -102s-21 -90.5 -21 -142.5
s7.16699 -99.5 21.5 -142.5s35 -77.167 62 -102.5s58.833 -38 95.5 -38c29.333 0 56.5 7.16699 81.5 21.5s45 35.333 60 63s22.5 60.167 22.5 97.5v69h-149c-10.667 0 -19.334 3 -26.001 9s-10 14 -10 24c0 10.667 3.33301 19 10 25s15.334 9 26.001 9h178
c13.333 0 23.333 -4 30 -12s10 -19 10 -33v-93c0 -48 -10 -91 -30 -129s-47.667 -67.667 -83 -89s-75.333 -32 -120 -32c-54 0 -100.167 15.667 -138.5 47zM282.001 762.501c-8.66699 9.66699 -13 21.167 -13 34.5s4.33301 24.833 13 34.5s19.667 14.5 33 14.5
s24.333 -4.83301 33 -14.5s13 -21.167 13 -34.5s-4.33301 -24.833 -13 -34.5s-19.667 -14.5 -33 -14.5s-24.333 4.83301 -33 14.5z" />
    <glyph glyph-name="gdotaccent" unicode="&#x121;" horiz-adv-x="519" 
d="M236.5 -254.5c-7 6.33301 -10.5039 14.833 -10.5039 25.5s3.33301 19.167 10 25.5s15.334 10.166 26.001 11.499c22 2.66699 38.667 6.66699 50 12s22 13.666 32 24.999c14 16.667 23.333 37 28 61s7 51 7 81v71c-13.333 -16.667 -32 -30.5 -56 -41.5
s-49.667 -16.5 -77 -16.5c-46.667 0 -85.167 11.5 -115.5 34.5s-52.5 52.833 -66.5 89.5s-21 75.334 -21 116.001c0 41.333 6.5 80 19.5 116s34.333 65.5 64 88.5s67.834 34.5 114.501 34.5c18.667 0 34.334 -2.33301 47.001 -7s26 -13 40 -25l35 -30
c8 -7.33301 13.333 -12.666 16 -15.999v32c0 12 3.33301 21.167 10 27.5s14.667 9.5 24 9.5c10 0 18.333 -3.16699 25 -9.5s10 -15.5 10 -27.5v-444c0 -48 -5 -88.5 -15 -121.5s-28.333 -61.833 -55 -86.5c-31.333 -30 -68.666 -45 -111.999 -45
c-12.667 0 -22.5 3.16699 -29.5 9.5zM345.996 114c22 30.667 32.999 70.333 32.999 119v65c0 8 -1.33301 15 -4 21s-7.66699 12 -15 18l-67 59c-12.667 11.333 -30 17 -52 17c-42 0 -73.333 -16.333 -94 -49s-31 -74 -31 -124c0 -49.333 11.333 -90.333 34 -123
s55.334 -49 98.001 -49c43.333 0 76 15.333 98 46zM226.995 557.499c-8.66699 9.66699 -13 21.167 -13 34.5s4.33301 24.833 13 34.5s19.667 14.5 33 14.5s24.333 -4.83301 33 -14.5s13 -21.167 13 -34.5s-4.33301 -24.833 -13 -34.5s-19.667 -14.5 -33 -14.5
s-24.333 4.83301 -33 14.5z" />
    <glyph glyph-name="Gcommaaccent" unicode="&#x122;" horiz-adv-x="600" 
d="M174.5 37c-38.333 31.333 -67.332 73.834 -86.999 127.501s-29.5 113.167 -29.5 178.5s9.83301 124.666 29.5 177.999s48.5 95.666 86.5 126.999s84 47 138 47c31.333 0 61.5 -5.16699 90.5 -15.5s54.167 -26.166 75.5 -47.499c6.66699 -6.66699 10 -15.334 10 -26.001
c0 -10 -3.5 -18.333 -10.5 -25s-15.167 -10 -24.5 -10c-8 0 -15.667 2.66699 -23 8c-4 2.66699 -11.833 8.33398 -23.5 17.001s-25.334 15.667 -41.001 21s-33.5 8 -53.5 8c-36.667 0 -68.5 -12.5 -95.5 -37.5s-47.5 -59 -61.5 -102s-21 -90.5 -21 -142.5
s7.16699 -99.5 21.5 -142.5s35 -77.167 62 -102.5s58.833 -38 95.5 -38c29.333 0 56.5 7.16699 81.5 21.5s45 35.333 60 63s22.5 60.167 22.5 97.5v69h-149c-10.667 0 -19.334 3 -26.001 9s-10 14 -10 24c0 10.667 3.33301 19 10 25s15.334 9 26.001 9h178
c13.333 0 23.333 -4 30 -12s10 -19 10 -33v-93c0 -48 -10 -91 -30 -129s-47.667 -67.667 -83 -89s-75.333 -32 -120 -32c-54 0 -100.167 15.667 -138.5 47zM262.001 -214.499c-6.66699 5 -10 11.8311 -10 20.498c0 4.66699 1 10 3 16l33 95
c2.66699 6.66699 6.66699 11.834 12 15.501s11.333 5.5 18 5.5c9.33301 0 17.333 -2.66699 24 -8s10 -12.666 10 -21.999c0 -5.33301 -1 -10.333 -3 -15l-33 -93c-2.66699 -6.66699 -6.66699 -12 -12 -16s-11.333 -6 -18 -6c-9.33301 0 -17.333 2.5 -24 7.5z" />
    <glyph glyph-name="gcommaaccent" unicode="&#x123;" horiz-adv-x="519" 
d="M250 544c-13.333 4.66699 -23.665 16.334 -30.998 35.001s-11 36 -11 52v39c0 8.66699 3.16699 16.167 9.5 22.5s14.166 9.5 23.499 9.5c8.66699 0 16 -3 22 -9s9 -13.667 9 -23v-37c0 -7.33301 1.16699 -13.333 3.5 -18s5.5 -10.334 9.5 -17.001
c7.33301 -10 11 -18.333 11 -25c0 -8.66699 -3.33301 -16.167 -10 -22.5s-14.334 -9.5 -23.001 -9.5c-4.66699 0 -9 1 -13 3zM236.501 -254.5c-7 6.33301 -10.5039 14.833 -10.5039 25.5s3.33301 19.167 10 25.5s15.334 10.166 26.001 11.499
c22 2.66699 38.667 6.66699 50 12s22 13.666 32 24.999c14 16.667 23.333 37 28 61s7 51 7 81v71c-13.333 -16.667 -32 -30.5 -56 -41.5s-49.667 -16.5 -77 -16.5c-46.667 0 -85.167 11.5 -115.5 34.5s-52.5 52.833 -66.5 89.5s-21 75.334 -21 116.001
c0 41.333 6.5 80 19.5 116s34.333 65.5 64 88.5s67.834 34.5 114.501 34.5c18.667 0 34.334 -2.33301 47.001 -7s26 -13 40 -25l35 -30c8 -7.33301 13.333 -12.666 16 -15.999v32c0 12 3.33301 21.167 10 27.5s14.667 9.5 24 9.5c10 0 18.333 -3.16699 25 -9.5
s10 -15.5 10 -27.5v-444c0 -48 -5 -88.5 -15 -121.5s-28.333 -61.833 -55 -86.5c-31.333 -30 -68.666 -45 -111.999 -45c-12.667 0 -22.5 3.16699 -29.5 9.5zM345.997 114c22 30.667 32.999 70.333 32.999 119v65c0 8 -1.33301 15 -4 21s-7.66699 12 -15 18l-67 59
c-12.667 11.333 -30 17 -52 17c-42 0 -73.333 -16.333 -94 -49s-31 -74 -31 -124c0 -49.333 11.333 -90.333 34 -123s55.334 -49 98.001 -49c43.333 0 76 15.333 98 46z" />
    <glyph glyph-name="Hcircumflex" unicode="&#x124;" horiz-adv-x="643" 
d="M114 9.5c-6.66699 6.33301 -10 15.5 -10 27.5v611c0 12 3.33301 21.167 10 27.5s14.667 9.5 24 9.5c10 0 18.333 -3.16699 25 -9.5s10 -15.5 10 -27.5v-271h297v271c0 12 3.33301 21.167 10 27.5s14.667 9.5 24 9.5c10 0 18.333 -3.16699 25 -9.5s10 -15.5 10 -27.5v-611
c0 -12 -3.33301 -21.167 -10 -27.5s-14.667 -9.5 -24 -9.5c-10 0 -18.333 3.16699 -25 9.5s-10 15.5 -10 27.5v273h-297v-273c0 -12 -3.33301 -21.167 -10 -27.5s-14.667 -9.5 -24 -9.5c-10 0 -18.333 3.16699 -25 9.5zM221 750
c-4.66699 4.66699 -6.99609 10.333 -6.99609 17c0 8 4 15 12 21l75 55c9.33301 6.66699 17 10 23 10c5.33301 0 12 -3.33301 20 -10l71 -55c9.33301 -7.33301 14 -14 14 -20c0 -6.66699 -2.33301 -12.5 -7 -17.5s-10.334 -7.5 -17.001 -7.5s-14.334 3 -23.001 9l-60 45
l-61 -45c-8.66699 -6 -16.334 -9 -23.001 -9s-12.334 2.33301 -17.001 7z" />
    <glyph glyph-name="hcircumflex" unicode="&#x125;" horiz-adv-x="537" 
d="M81 9.5c-6.66699 6.33301 -10.001 15.502 -10.001 27.502v648c0 12 3.33301 21.167 10 27.5s15 9.5 25 9.5c9.33301 0 17.333 -3.16699 24 -9.5s10 -15.5 10 -27.5v-284c2.66699 3.33301 8 8.66602 16 15.999l33 29c14 12 28.667 20.5 44 25.5s32.666 7.5 51.999 7.5
c68 0 116 -22.5 144 -67.5s42 -101.167 42 -168.5v-206c0 -12 -3.33301 -21.167 -10 -27.5s-14.667 -9.5 -24 -9.5c-10 0 -18.333 3.16699 -25 9.5s-10 15.5 -10 27.5v206c0 52 -10 93.667 -30 125s-52 47 -96 47c-19.333 0 -36.666 -6.66699 -51.999 -20l-66 -58
c-7.33301 -6 -12.166 -11.833 -14.499 -17.5s-3.5 -12.834 -3.5 -21.501v-261c0 -12 -3.33301 -21.167 -10 -27.5s-14.667 -9.5 -24 -9.5c-10 0 -18.333 3.16699 -25 9.5zM2.99902 750.002c-4.66699 4.66699 -6.99609 10.333 -6.99609 17c0 8 4 15 12 21l75 55
c9.33301 6.66699 17 10 23 10c5.33301 0 12 -3.33301 20 -10l71 -55c9.33301 -7.33301 14 -14 14 -20c0 -6.66699 -2.33301 -12.5 -7 -17.5s-10.334 -7.5 -17.001 -7.5s-14.334 3 -23.001 9l-60 45l-61 -45c-8.66699 -6 -16.334 -9 -23.001 -9s-12.334 2.33301 -17.001 7z
" />
    <glyph glyph-name="Hbar" unicode="&#x126;" horiz-adv-x="642" 
d="M114.5 10c-7 6.66699 -10.5 15 -10.5 25v459h-45c-10 0 -18.333 3 -25 9s-10 13.667 -10 23c0 8.66699 3.5 16 10.5 22s15.167 9 24.5 9h45v93c0 10 3.5 18.333 10.5 25s15.167 10 24.5 10s17.333 -3.33301 24 -10s10 -15 10 -25v-93h297v93c0 10 3.33301 18.333 10 25
s14.667 10 24 10s17.5 -3.33301 24.5 -10s10.5 -15 10.5 -25v-93h43c10 0 18.5 -3.16699 25.5 -9.5s10.5 -13.833 10.5 -22.5s-3.5 -16 -10.5 -22s-15.5 -9 -25.5 -9h-43v-459c0 -10 -3.5 -18.333 -10.5 -25s-15.167 -10 -24.5 -10s-17.333 3.33301 -24 10s-10 15 -10 25
v274h-297v-274c0 -10 -3.33301 -18.333 -10 -25s-14.667 -10 -24 -10s-17.5 3.33301 -24.5 10zM470 378v116h-297v-116h297z" />
    <glyph glyph-name="hbar" unicode="&#x127;" horiz-adv-x="537" 
d="M429 411.5c28 -45 41.999 -101.165 41.999 -168.498v-206c0 -12 -3.33301 -21.167 -10 -27.5s-14.667 -9.5 -24 -9.5c-10 0 -18.333 3.16699 -25 9.5s-10 15.5 -10 27.5v206c0 52 -10 93.667 -30 125s-52 47 -96 47c-19.333 0 -36.666 -6.66699 -51.999 -20l-66 -58
c-7.33301 -6 -12.166 -11.833 -14.499 -17.5s-3.5 -12.834 -3.5 -21.501v-261c0 -12 -3.33301 -21.167 -10 -27.5s-14.667 -9.5 -24 -9.5c-10 0 -18.333 3.16699 -25 9.5s-10 15.5 -10 27.5v514h-35c-10 0 -18.333 3 -25 9s-10 13.667 -10 23c0 8.66699 3.5 16 10.5 22
s15.167 9 24.5 9h35v71c0 12 3.33301 21.167 10 27.5s15 9.5 25 9.5c9.33301 0 17.333 -3.16699 24 -9.5s10 -15.5 10 -27.5v-71h110c10 0 18.5 -3.16699 25.5 -9.5s10.5 -13.833 10.5 -22.5s-3.5 -16 -10.5 -22s-15.5 -9 -25.5 -9h-110v-150
c2.66699 3.33301 8 8.66602 16 15.999l33 29c14 12 28.667 20.5 44 25.5s32.666 7.5 51.999 7.5c68 0 116 -22.5 144 -67.5z" />
    <glyph glyph-name="Itilde" unicode="&#x128;" horiz-adv-x="277" 
d="M114 9.5c-6.66699 6.33301 -10 15.5 -10 27.5v611c0 12 3.33301 21.167 10 27.5s14.667 9.5 24 9.5c10 0 18.333 -3.16699 25 -9.5s10 -15.5 10 -27.5v-611c0 -12 -3.33301 -21.167 -10 -27.5s-14.667 -9.5 -24 -9.5c-10 0 -18.333 3.16699 -25 9.5zM18 750.5
c-3.33301 4.33301 -5 9.83301 -5 16.5c0 18.667 7.33301 35.334 22 50.001s32 22 52 22c11.333 0 21.166 -2 29.499 -6s18.833 -10 31.5 -18c15.333 -12 28.333 -18 39 -18c6.66699 0 11.834 2 15.501 6s8.16699 10.667 13.5 20c6.66699 12 15 18 25 18
c14 0 21 -8.33301 21 -25c0 -18.667 -7.33301 -35 -22 -49s-31.667 -21 -51 -21c-12.667 0 -23 2 -31 6s-17.333 9.66699 -28 17c-14 11.333 -26 17 -36 17c-7.33301 0 -13.5 -1.83301 -18.5 -5.5s-10.167 -9.83398 -15.5 -18.501c-3.33301 -6 -6.83301 -10.5 -10.5 -13.5
s-9.5 -4.5 -17.5 -4.5c-6 0 -10.667 2.16699 -14 6.5z" />
    <glyph glyph-name="itilde" unicode="&#x129;" horiz-adv-x="211" 
d="M81 9.5c-6.66699 6.33301 -10 15.5 -10 27.5v396c0 12 3.33301 21.167 10 27.5s15 9.5 25 9.5c9.33301 0 17.333 -3.16699 24 -9.5s10 -15.5 10 -27.5v-396c0 -12 -3.33301 -21.167 -10 -27.5s-14.667 -9.5 -24 -9.5c-10 0 -18.333 3.16699 -25 9.5zM-14 555.5
c-3.33301 4.33301 -5 9.83301 -5 16.5c0 18.667 7.33301 35.334 22 50.001s32 22 52 22c11.333 0 21.166 -2 29.499 -6s18.833 -10 31.5 -18c15.333 -12 28.333 -18 39 -18c6.66699 0 11.834 2 15.501 6s8.16699 10.667 13.5 20c6.66699 12 15 18 25 18
c14 0 21 -8.33301 21 -25c0 -18.667 -7.33301 -35 -22 -49s-31.667 -21 -51 -21c-12.667 0 -23 2 -31 6s-17.333 9.66699 -28 17c-14 11.333 -26 17 -36 17c-7.33301 0 -13.5 -1.83301 -18.5 -5.5s-10.167 -9.83398 -15.5 -18.501c-3.33301 -6 -6.83301 -10.5 -10.5 -13.5
s-9.5 -4.5 -17.5 -4.5c-6 0 -10.667 2.16699 -14 6.5z" />
    <glyph glyph-name="Imacron" unicode="&#x12a;" horiz-adv-x="277" 
d="M114 9.5c-6.66699 6.33301 -10 15.5 -10 27.5v611c0 12 3.33301 21.167 10 27.5s14.667 9.5 24 9.5c10 0 18.333 -3.16699 25 -9.5s10 -15.5 10 -27.5v-611c0 -12 -3.33301 -21.167 -10 -27.5s-14.667 -9.5 -24 -9.5c-10 0 -18.333 3.16699 -25 9.5zM21 772
c-6.66699 6 -10.001 13.333 -10.001 22s3.33301 15.834 10 21.501s15 8.5 25 8.5h184c10 0 18.5 -3 25.5 -9s10.5 -13.333 10.5 -22s-3.66699 -15.834 -11 -21.501s-15.666 -8.5 -24.999 -8.5h-184c-10 0 -18.333 3 -25 9z" />
    <glyph glyph-name="imacron" unicode="&#x12b;" horiz-adv-x="211" 
d="M81 9.5c-6.66699 6.33301 -10 15.5 -10 27.5v396c0 12 3.33301 21.167 10 27.5s15 9.5 25 9.5c9.33301 0 17.333 -3.16699 24 -9.5s10 -15.5 10 -27.5v-396c0 -12 -3.33301 -21.167 -10 -27.5s-14.667 -9.5 -24 -9.5c-10 0 -18.333 3.16699 -25 9.5zM-12 570
c-6.66699 6 -10.001 13.333 -10.001 22s3.33301 15.834 10 21.501s15 8.5 25 8.5h184c10 0 18.5 -3 25.5 -9s10.5 -13.333 10.5 -22s-3.66699 -15.834 -11 -21.501s-15.666 -8.5 -24.999 -8.5h-184c-10 0 -18.333 3 -25 9z" />
    <glyph glyph-name="Ibreve" unicode="&#x12c;" horiz-adv-x="277" 
d="M114 9.5c-6.66699 6.33301 -10 15.5 -10 27.5v611c0 12 3.33301 21.167 10 27.5s14.667 9.5 24 9.5c10 0 18.333 -3.16699 25 -9.5s10 -15.5 10 -27.5v-611c0 -12 -3.33301 -21.167 -10 -27.5s-14.667 -9.5 -24 -9.5c-10 0 -18.333 3.16699 -25 9.5zM75 768
c-17.333 13.333 -27.666 30.666 -30.999 51.999c-1.33301 7.33301 -0.5 14 2.5 20s9.16699 9 18.5 9c7.33301 0 13.166 -2 17.499 -6s8.5 -9.66699 12.5 -17c11.333 -19.333 26.333 -29 45 -29c20 0 35 9.66699 45 29c3.33301 8 7 13.833 11 17.5s9.66699 5.5 17 5.5
c9.33301 0 15.5 -3 18.5 -9s3.83301 -12.667 2.5 -20c-3.33301 -21.333 -13.833 -38.666 -31.5 -51.999s-39.167 -20 -64.5 -20c-24.667 0 -45.667 6.66699 -63 20z" />
    <glyph glyph-name="ibreve" unicode="&#x12d;" horiz-adv-x="211" 
d="M81 9.5c-6.66699 6.33301 -10 15.5 -10 27.5v396c0 12 3.33301 21.167 10 27.5s15 9.5 25 9.5c9.33301 0 17.333 -3.16699 24 -9.5s10 -15.5 10 -27.5v-396c0 -12 -3.33301 -21.167 -10 -27.5s-14.667 -9.5 -24 -9.5c-10 0 -18.333 3.16699 -25 9.5zM42 565
c-17.333 13.333 -27.666 30.666 -30.999 51.999c-1.33301 7.33301 -0.5 14 2.5 20s9.16699 9 18.5 9c7.33301 0 13.166 -2 17.499 -6s8.5 -9.66699 12.5 -17c11.333 -19.333 26.333 -29 45 -29c20 0 35 9.66699 45 29c3.33301 8 7 13.833 11 17.5s9.66699 5.5 17 5.5
c9.33301 0 15.5 -3 18.5 -9s3.83301 -12.667 2.5 -20c-3.33301 -21.333 -13.833 -38.666 -31.5 -51.999s-39.167 -20 -64.5 -20c-24.667 0 -45.667 6.66699 -63 20z" />
    <glyph glyph-name="Iogonek" unicode="&#x12e;" horiz-adv-x="277" 
d="M63 -142c-14 11.333 -21 26.6689 -21 46.002c0 17.333 8.33301 35.666 25 54.999l25 30c5.33301 6 8.66602 10.833 9.99902 14.5s2 8.83398 2 15.501v632c0 10 3.16699 18.167 9.5 24.5s14.166 9.5 23.499 9.5c10 0 18.5 -3.16699 25.5 -9.5s10.5 -14.5 10.5 -24.5v-612
c0 -8.66699 -1.5 -16.5 -4.5 -23.5s-7.83301 -14.833 -14.5 -23.5l-43 -55c-9.33301 -12.667 -14 -22.667 -14 -30c0 -4.66699 1.83301 -8.66699 5.5 -12s8.16699 -5 13.5 -5c4.66699 0 10.834 1.83301 18.501 5.5s13.167 5.5 16.5 5.5c8.66699 0 14.834 -2.33301 18.501 -7
s5.5 -10.334 5.5 -17.001c0 -8.66699 -6.33301 -16.834 -19 -24.501s-27.667 -11.5 -45 -11.5c-18 0 -34 5.66699 -48 17z" />
    </font>
</defs>
</svg>
