<?xml version="1.0" standalone="no"?>
<!DOCTYPE svg PUBLIC "-//W3C//DTD SVG 1.1//EN" "http://www.w3.org/Graphics/SVG/1.1/DTD/svg11.dtd" >
<svg>
<metadata>
Created by FontForge 20090914 at Thu Feb 16 04:09:54 2017
 By www-data
Copyright (c) 2016 by Fontsmith Ltd. All rights reserved. This font may not be altered in any way without prior permission of Fontsmith Ltd.
</metadata>
<defs>
<font id="BAESystems-Light" horiz-adv-x="550" >
  <font-face 
    font-family="BAE Systems Light"
    font-weight="300"
    font-stretch="normal"
    units-per-em="1000"
    panose-1="0 0 4 0 0 0 0 0 0 0"
    ascent="733"
    descent="-267"
    x-height="467"
    cap-height="685"
    bbox="-310.249 -265.005 1000 969.998"
    underline-thickness="20"
    underline-position="-80"
    unicode-range="U+000D-U+FB02"
  />
<missing-glyph horiz-adv-x="709" 
d="M110 685h489v-685h-489v685zM520 636h-333l170 -250zM325 342l-165 250v-499zM550 592l-165 -250l165 -249v499zM520 50l-163 250l-170 -250h333z" />
    <glyph glyph-name="fi" unicode="fi" horiz-adv-x="414" 
d="M73 10l-0.000976562 464.999c0 72.667 16.5 131.834 49.5 177.501s80.833 68.5 143.5 68.5c6.66699 0 10 -3.33301 10 -10s-3.33301 -10 -10 -10c-57.333 0 -100.666 -21 -129.999 -63s-44 -95 -44 -159v-12h129c6.66699 0 10 -3.33301 10 -10s-3.33301 -10 -10 -10h-129
v-437c0 -6.66699 -3.33301 -10 -10 -10c-6 -0 -9 3.33301 -9 10zM315.499 655.999c-4.33301 4.66699 -6.5 10 -6.5 16s2.16699 11.333 6.5 16s9.5 7 15.5 7s11.167 -2.33301 15.5 -7s6.5 -10 6.5 -16s-2.16699 -11.333 -6.5 -16s-9.5 -7 -15.5 -7s-11.167 2.33301 -15.5 7z
M324.499 2.99902c-1.66699 2 -2.5 4.33301 -2.5 7v447c0 2.66699 1 5 3 7s4.33301 3 7 3s4.83398 -1 6.50098 -3s2.5 -4.33301 2.5 -7v-447c0 -2.66699 -1 -5 -3 -7s-4.33301 -3 -7 -3s-4.83398 1 -6.50098 3z" />
    <glyph glyph-name="fl" unicode="fl" horiz-adv-x="444" 
d="M73 10l-0.000976562 464.999c0 72.667 16.5 131.834 49.5 177.501s80.833 68.5 143.5 68.5c6.66699 0 10 -3.33301 10 -10s-3.33301 -10 -10 -10c-57.333 0 -100.666 -21 -129.999 -63s-44 -95 -44 -159v-12h129c6.66699 0 10 -3.33301 10 -10s-3.33301 -10 -10 -10h-129
v-437c0 -6.66699 -3.33301 -10 -10 -10c-6 -0 -9 3.33301 -9 10zM333.499 33.499c-13 22.333 -19.502 54.5 -19.502 96.5v581c0 2.66699 1 5 3 7s4.33301 3 7 3s4.83398 -1 6.50098 -3s2.5 -4.33301 2.5 -7v-570c0 -41.333 4.33301 -72 13 -92s24.334 -30 47.001 -30
c7.33301 0 11 -3 11 -9c0 -6.66699 -4 -10 -12 -10c-26 0 -45.5 11.167 -58.5 33.5z" />
    <glyph glyph-name=".notdef" horiz-adv-x="709" 
d="M110 685h489v-685h-489v685zM520 636h-333l170 -250zM325 342l-165 250v-499zM550 592l-165 -250l165 -249v499zM520 50l-163 250l-170 -250h333z" />
    <glyph glyph-name="nonmarkingreturn" unicode="&#xd;" horiz-adv-x="205" 
 />
    <glyph glyph-name="space" unicode=" " horiz-adv-x="205" 
 />
    <glyph glyph-name="exclam" unicode="!" horiz-adv-x="236" 
d="M108 183v492c0 6.66699 3.33301 10 10 10s10 -3.33301 10 -10v-492c0 -6.66699 -3.33301 -10 -10 -10s-10 3.33301 -10 10zM102.5 7c-4.33301 4.66699 -6.5 10 -6.5 16s2.16699 11.333 6.5 16s9.5 7 15.5 7s11.167 -2.33301 15.5 -7s6.5 -10 6.5 -16
s-2.16699 -11.333 -6.5 -16s-9.5 -7 -15.5 -7s-11.167 2.33301 -15.5 7z" />
    <glyph glyph-name="quotedbl" unicode="&#x22;" horiz-adv-x="222" 
d="M67.5 524c-1.66699 2 -2.5 4.33301 -2.5 7v144c0 2.66699 1 5 3 7s4.33301 3 7 3s4.83398 -1 6.50098 -3s2.5 -4.33301 2.5 -7v-144c0 -2.66699 -1 -5 -3 -7s-4.33301 -3 -7 -3s-4.83398 1 -6.50098 3zM140.5 524c-1.66699 2 -2.5 4.33301 -2.5 7v144c0 2.66699 1 5 3 7
s4.33301 3 7 3s4.83398 -1 6.50098 -3s2.5 -4.33301 2.5 -7v-144c0 -2.66699 -1 -5 -3 -7s-4.33301 -3 -7 -3s-4.83398 1 -6.50098 3z" />
    <glyph glyph-name="numbersign" unicode="#" horiz-adv-x="534" 
d="M192 164c-2 2 -3 4.33301 -3 7v150h-129c-2.66699 0 -5 1 -7 3s-3 4.33301 -3 7s1 5 3 7s4.33301 3 7 3h129v143h-129c-2.66699 0 -5 1 -7 3s-3 4.33301 -3 7s1 4.83398 3 6.50098s4.33301 2.5 7 2.5h129v163c0 2.66699 1 4.83398 3 6.50098s4.33301 2.5 7 2.5
s5 -0.833008 7 -2.5s3 -3.83398 3 -6.50098v-163h116v163c0 2.66699 1 4.83398 3 6.50098s4.33301 2.5 7 2.5s5 -0.833008 7 -2.5s3 -3.83398 3 -6.50098v-163h129c2.66699 0 5 -0.833008 7 -2.5s3 -3.83398 3 -6.50098s-1 -5 -3 -7s-4.33301 -3 -7 -3h-129v-143h129
c2.66699 0 5 -1 7 -3s3 -4.33301 3 -7s-1 -5 -3 -7s-4.33301 -3 -7 -3h-129v-150c0 -2.66699 -1 -5 -3 -7s-4.33301 -3 -7 -3s-5 1 -7 3s-3 4.33301 -3 7v150h-116v-150c0 -2.66699 -1 -5 -3 -7s-4.33301 -3 -7 -3s-5 1 -7 3zM325 341v143h-116v-143h116z" />
    <glyph glyph-name="dollar" unicode="$" horiz-adv-x="518" 
d="M246 -107l-0.000976562 94.9971c-32 1.33301 -62.333 9 -91 23s-52.667 33 -72 57c-2 2 -3 4.33301 -3 7s1 4.66699 3 6s4.33301 2 7 2c2 0 4.33301 -1.33301 7 -4c21.333 -23.333 43.833 -40.833 67.5 -52.5s50.834 -18.167 81.501 -19.5v352
c-37.333 14.667 -66.666 28.334 -87.999 41.001s-39 29.667 -53 51s-21 49 -21 83c0 45.333 15.5 82.333 46.5 111s69.5 44.334 115.5 47.001v74c0 6.66699 3.33301 10 10 10s10 -3.33301 10 -10v-74c28 -0.666992 55.333 -6 82 -16s49 -24.667 67 -44c2 -2 3 -4.33301 3 -7
s-1 -5 -3 -7s-4.33301 -3 -7 -3s-5 1 -7 3c-22.667 18.667 -43.834 32.167 -63.501 40.5s-43.5 12.833 -71.5 13.5v-300c38.667 -15.333 70 -30.833 94 -46.5s43 -36.167 57 -61.5s21 -57.333 21 -96c0 -31.333 -7.66699 -60.666 -23 -87.999s-36 -49.333 -62 -66
s-55 -25.667 -87 -27v-94c0 -6.66699 -3.33301 -10 -10 -10s-10 3.33301 -10 10zM245.999 671.997c-40.667 -2.66699 -74.501 -16.334 -101.501 -41.001s-40.5 -57 -40.5 -97c0 -29.333 6.16699 -53.666 18.5 -72.999s28.333 -34.833 48 -46.5s44.834 -23.5 75.501 -35.5
v293zM342.998 31.4971c23.333 15 41.667 34.5 55 58.5s20 50 20 78c0 48.667 -12.667 86.167 -38 112.5s-63.333 49.833 -114 70.5v-344c28 1.33301 53.667 9.5 77 24.5z" />
    <glyph glyph-name="percent" unicode="%" horiz-adv-x="508" 
d="M69 446.5c-12.667 31 -18.998 64.5 -18.998 100.5c0 37.333 6.16699 71.333 18.5 102s34.166 46 65.499 46s53.333 -15.5 66 -46.5s19 -64.833 19 -101.5c0 -36 -6.5 -69.5 -19.5 -100.5s-34.833 -46.5 -65.5 -46.5s-52.334 15.5 -65.001 46.5zM139.002 10l1.99902 9
l210 655c2.66699 7.33301 6.33398 11 11.001 11c6.66699 0 10 -3.33301 10 -10l-2 -9l-210 -655c-2 -7.33301 -5.66699 -11 -11 -11c-6.66699 -0 -10 3.33301 -10 10zM184.501 461c9.66699 27.333 14.5 55.666 14.5 84.999v2c0 30.667 -4.66699 59.5 -14 86.5
s-26.333 40.5 -51 40.5s-41.667 -13.5 -51 -40.5s-14 -55.833 -14 -86.5v-2c0 -29.333 4.83301 -57.666 14.5 -84.999s26.5 -41 50.5 -41s40.833 13.667 50.5 41zM308.001 35.5c-12.667 31 -18.998 64.5 -18.998 100.5c0 37.333 6.16699 71.333 18.5 102
s34.166 46 65.499 46s53.333 -15.5 66 -46.5s19 -64.833 19 -101.5c0 -36 -6.5 -69.5 -19.5 -100.5s-34.833 -46.5 -65.5 -46.5s-52.334 15.5 -65.001 46.5zM423.503 50c9.66699 27.333 14.5 55.666 14.5 84.999v2c0 30.667 -4.66699 59.5 -14 86.5s-26.333 40.5 -51 40.5
s-41.667 -13.5 -51 -40.5s-14 -55.833 -14 -86.5v-2c0 -29.333 4.83301 -57.666 14.5 -84.999s26.5 -41 50.5 -41s40.833 13.667 50.5 41z" />
    <glyph glyph-name="ampersand" unicode="&#x26;" horiz-adv-x="555" 
d="M114 31.5c-34.667 28.333 -51.999 68.833 -51.999 121.5c0 39.333 10.833 72.833 32.5 100.5s51.5 46.5 89.5 56.5c-28 11.333 -49.667 27.833 -65 49.5s-23 47.5 -23 77.5c0 46.667 15.667 82.167 47 106.5s71 36.5 119 36.5h141c6.66699 0 10 -3.33301 10 -10
c0 -2.66699 -1 -4.83398 -3 -6.50098s-4.33301 -2.5 -7 -2.5h-141c-42.667 0 -77.667 -10.333 -105 -31s-41 -51.667 -41 -93c0 -35.333 12.333 -64.166 37 -86.499s54 -33.5 88 -33.5h166v90c0 6.66699 3.33301 10 10 10s10 -3.33301 10 -10v-90h110
c6.66699 0 10 -3.33301 10 -10c0 -6 -3.33301 -9 -10 -9h-110v-156c0 -54 -16.5 -93 -49.5 -117s-76.167 -36 -129.5 -36c-54.667 0 -99.334 14.167 -134.001 42.5zM407.001 142l0.000976562 156h-171c-28 0 -53.833 -6 -77.5 -18s-42.334 -29.167 -56.001 -51.5
s-20.5 -47.5 -20.5 -75.5c0 -47.333 15.333 -83.333 46 -108s70.667 -37 120 -37c106 0 159 44.667 159 134z" />
    <glyph glyph-name="quotesingle" unicode="'" horiz-adv-x="149" 
d="M67.5 524c-1.66699 2 -2.5 4.33301 -2.5 7v144c0 2.66699 1 5 3 7s4.33301 3 7 3s4.83398 -1 6.50098 -3s2.5 -4.33301 2.5 -7v-144c0 -2.66699 -1 -5 -3 -7s-4.33301 -3 -7 -3s-4.83398 1 -6.50098 3z" />
    <glyph glyph-name="parenleft" unicode="(" horiz-adv-x="338" 
d="M252 -134c-48 46.667 -83.1689 107.333 -105.502 182s-33.5 151.667 -33.5 231s11.167 156.333 33.5 231s57.5 135.334 105.5 182.001c2 2 4.33301 3 7 3s4.83398 -0.833008 6.50098 -2.5s2.5 -3.83398 2.5 -6.50098s-1 -5 -3 -7
c-13.333 -14.667 -25.666 -30 -36.999 -46c-34.667 -49.333 -59.167 -103.166 -73.5 -161.499s-21.5 -122.5 -21.5 -192.5c0 -74.667 8.16699 -142.5 24.5 -203.5s44.5 -117.167 84.5 -168.5c4.66699 -6.66699 12.334 -16 23.001 -28c2 -2 3 -4.33301 3 -7
s-0.833008 -4.83398 -2.5 -6.50098s-3.83398 -2.5 -6.50098 -2.5s-5 1 -7 3z" />
    <glyph glyph-name="parenright" unicode=")" horiz-adv-x="338" 
d="M72.5 -134.5c-1.66699 1.66699 -2.50195 3.83496 -2.50195 6.50195s1 5 3 7c10.667 12 18.334 21.333 23.001 28c40 51.333 68.167 107.5 84.5 168.5s24.5 128.833 24.5 203.5c0 70 -7.16699 134.167 -21.5 192.5s-38.833 112.166 -73.5 161.499
c-11.333 16 -23.666 31.333 -36.999 46c-2 2 -3 4.33301 -3 7s0.833008 4.83398 2.5 6.50098s3.83398 2.5 6.50098 2.5s5 -1 7 -3c48 -46.667 83.167 -107.334 105.5 -182.001s33.5 -151.667 33.5 -231s-11.167 -156.333 -33.5 -231s-57.5 -135.334 -105.5 -182.001
c-2 -2 -4.33301 -3 -7 -3s-4.83398 0.833008 -6.50098 2.5z" />
    <glyph glyph-name="asterisk" unicode="*" horiz-adv-x="347" 
d="M166 481c-2 2 -3 4.33203 -3 6.99902v110l-69 -78c-2 -2 -4.33301 -3 -7 -3s-5 1 -7 3s-3 4.33301 -3 7c0 3.33301 2.66699 8 8 14l67 74h-102c-2.66699 0 -5 0.833008 -7 2.5s-3 3.83398 -3 6.50098s1 5 3 7s4.33301 3 7 3h102l-69 76c-4 5.33301 -6 9.33301 -6 12
s1 5 3 7s4.33301 3 7 3s5 -1 7 -3l69 -78v110c0 2.66699 1 5 3 7s4.33301 3 7 3s5 -1 7 -3s3 -4.33301 3 -7v-111l70 79c2 2 4.33301 3 7 3s5 -1 7 -3s3 -4.33301 3 -7c0 -3.33301 -1.66699 -6.66602 -5 -9.99902l-69 -78h101c2.66699 0 5 -1 7 -3s3 -4.33301 3 -7
s-1 -4.83398 -3 -6.50098s-4.33301 -2.5 -7 -2.5h-101l66 -74c5.33301 -5.33301 8 -10 8 -14c0 -2.66699 -1 -5 -3 -7s-4.33301 -3 -7 -3s-5 1 -7 3l-70 79v-111c0 -2.66699 -1 -5 -3 -7s-4.33301 -3 -7 -3s-5 1 -7 3z" />
    <glyph glyph-name="plus" unicode="+" 
d="M268 3c-2 2 -3 4.33301 -3 7v220h-187c-2.66699 0 -5 0.833008 -7 2.5s-3 3.83398 -3 6.50098s1 5 3 7s4.33301 3 7 3h187v208c0 2.66699 1 5 3 7s4.33301 3 7 3s5 -1 7 -3s3 -4.33301 3 -7v-208h187c2.66699 0 5 -1 7 -3s3 -4.33301 3 -7s-1 -4.83398 -3 -6.50098
s-4.33301 -2.5 -7 -2.5h-187v-220c0 -2.66699 -1 -5 -3 -7s-4.33301 -3 -7 -3s-5 1 -7 3z" />
    <glyph glyph-name="comma" unicode="," horiz-adv-x="149" 
d="M40 -50c0 4 0.332031 6.99902 0.999023 8.99902l35 90c2.66699 6.66699 6.66699 10 12 10c4.66699 0 7.83398 -1.66699 9.50098 -5s1.5 -7.66602 -0.5 -12.999l-35 -91c-2.66699 -6.66699 -6.66699 -10 -12 -10c-6.66699 0 -10 3.33301 -10 10z" />
    <glyph glyph-name="hyphen" unicode="-" horiz-adv-x="443" 
d="M72.5 233c-1.66699 2 -2.5 4.33301 -2.5 7s0.833008 5 2.5 7s3.83398 3 6.50098 3h284c2.66699 0 5 -1 7 -3s3 -4.33301 3 -7s-1 -5 -3 -7s-4.33301 -3 -7 -3h-284c-2.66699 0 -4.83398 1 -6.50098 3z" />
    <glyph glyph-name="period" unicode="." horiz-adv-x="148" 
d="M58.5 7c-4.33301 4.66699 -6.5 10 -6.5 16s2.16699 11.333 6.5 16s9.5 7 15.5 7s11.167 -2.33301 15.5 -7s6.5 -10 6.5 -16s-2.16699 -11.333 -6.5 -16s-9.5 -7 -15.5 -7s-11.167 2.33301 -15.5 7z" />
    <glyph glyph-name="slash" unicode="/" horiz-adv-x="359" 
d="M60 -1l1.99902 9l216 676c2.66699 7.33301 6.33398 11 11.001 11c6.66699 0 10 -3.33301 10 -10l-2 -9l-216 -676c-2 -7.33301 -5.66699 -11 -11 -11c-6.66699 0 -10 3.33301 -10 10z" />
    <glyph glyph-name="zero" unicode="0" horiz-adv-x="524" 
d="M142 46.5c-29.333 38.333 -49.5 84.166 -60.5 137.499s-16.5 106 -16.5 158s5.5 104.667 16.5 158s31.167 99.166 60.5 137.499s69.333 57.5 120 57.5s90.667 -19.167 120 -57.5s49.5 -84.166 60.5 -137.499s16.5 -106 16.5 -158s-5.5 -104.667 -16.5 -158
s-31.167 -99.166 -60.5 -137.499s-69.333 -57.5 -120 -57.5s-90.667 19.167 -120 57.5zM371 63.5c26.667 37 44.834 80.667 54.501 131s14.5 99.5 14.5 147.5s-4.83301 97.167 -14.5 147.5s-27.834 94 -54.501 131s-63 55.5 -109 55.5s-82.333 -18.5 -109 -55.5
s-44.834 -80.667 -54.501 -131s-14.5 -99.5 -14.5 -147.5s4.83301 -97.167 14.5 -147.5s27.834 -94 54.501 -131s63 -55.5 109 -55.5s82.333 18.5 109 55.5z" />
    <glyph glyph-name="one" unicode="1" horiz-adv-x="235" 
d="M111 3c-2 2 -3 4.33301 -3 7v675c0 2.66699 1 5 3 7s4.33301 3 7 3s4.83398 -1 6.50098 -3s2.5 -4.33301 2.5 -7v-675c0 -2.66699 -0.833008 -5 -2.5 -7s-3.83398 -3 -6.50098 -3s-5 1 -7 3z" />
    <glyph glyph-name="two" unicode="2" horiz-adv-x="489" 
d="M55 10l0.00292969 93.001c0 63.333 16.667 111.666 50 144.999c16.667 16.667 36.334 30.167 59.001 40.5s51.667 21.166 87 32.499c38.667 12 69.5 23.833 92.5 35.5s42.167 29 57.5 52s23 53.5 23 91.5c0 56 -14.5 99.333 -43.5 130s-71.167 46 -126.5 46
c-30.667 0 -57.834 -5 -81.501 -15s-45.834 -26.667 -66.501 -50c-6 -7.33301 -10.667 -11 -14 -11c-2.66699 0 -5 0.833008 -7 2.5s-3 3.83398 -3 6.50098s1.66699 6.33398 5 11.001c38 50 93.667 75 167 75c60.667 0 107.5 -17.167 140.5 -51.5
s49.5 -82.166 49.5 -143.499c0 -42.667 -8.83301 -76.834 -26.5 -102.501s-39.334 -44.834 -65.001 -57.501s-59.834 -25.667 -102.501 -39c-32 -10 -58.5 -20 -79.5 -30s-38.833 -23.333 -53.5 -40c-28 -30 -42 -72.667 -42 -128v-84h324c6.66699 0 10 -3 10 -9
c0 -6.66699 -3.33301 -10 -10 -10h-334c-6.66699 -0 -10 3.33301 -10 10z" />
    <glyph glyph-name="three" unicode="3" horiz-adv-x="434" 
d="M379 197l0.000976562 -24c0 -60.667 -16 -104.667 -48 -132s-79 -41 -141 -41h-145c-6.66699 -0 -10 3.33301 -10 10c0 6 3.33301 9 10 9h143c58 0 101 12.333 129 37s42 63.667 42 117v24c0 53.333 -13.833 92.333 -41.5 117s-70.834 37 -129.501 37h-91
c-6 0 -9 3.33301 -9 10c0 6 3 9 9 9h93c56.667 0 98.167 12.5 124.5 37.5s39.5 61.833 39.5 110.5c0 48 -13.667 84.667 -41 110s-69 38 -125 38h-137c-6.66699 0 -10 3 -10 9c0 6.66699 3.33301 10 10 10h139c60 0 105.667 -14.167 137 -42.5s47 -70.5 47 -126.5
c0 -38.667 -8.16699 -71.667 -24.5 -99s-42.5 -46.333 -78.5 -57c72 -20 108 -74.333 108 -163z" />
    <glyph glyph-name="four" unicode="4" horiz-adv-x="479" 
d="M384 10v132h-294c-23.333 0 -40.833 2.66699 -52.5 8s-17.5 16 -17.5 32c0 9.33301 3.16699 19.5 9.5 30.5s15.166 24.167 26.499 39.5l330 442c2 2 4.33301 3 7 3s5 -1 7 -3s3 -4.33301 3 -7s-1.66699 -5.66699 -5 -9l-339 -454c-6 -8 -10.333 -15.167 -13 -21.5
s-4 -13.166 -4 -20.499c0 -8.66699 3.83301 -14.334 11.5 -17.001s18.834 -4 33.501 -4h297v208c0 6.66699 3.33301 10 10 10s10 -3.33301 10 -10v-359c0 -6.66699 -3.33301 -10 -10 -10s-10 3.33301 -10 10z" />
    <glyph glyph-name="five" unicode="5" horiz-adv-x="487" 
d="M137.5 8c-32.333 12.667 -58.1689 31.665 -77.502 56.998c-3.33301 4.66699 -5 8.33398 -5 11.001c0 2 0.833008 3.83301 2.5 5.5s3.83398 2.5 6.50098 2.5c4 0 7 -1.66699 9 -5c38 -47.333 93.667 -71 167 -71c55.333 0 97.833 18.5 127.5 55.5s44.5 83.833 44.5 140.5
s-15 103.334 -45 140.001s-73 55 -129 55h-64c-40.667 0 -68 6.5 -82 19.5s-21 35.167 -21 66.5v190c0 2.66699 0.833008 5 2.5 7s3.83398 3 6.50098 3h329c6.66699 0 10 -3.33301 10 -10c0 -6 -3.33301 -9 -10 -9h-319v-181c0 -24 5.83301 -40.833 17.5 -50.5
s33.167 -14.5 64.5 -14.5h66c40.667 0 75.667 -9.66699 105 -29s51.5 -45.333 66.5 -78s22.5 -69 22.5 -109s-7.33301 -76.333 -22 -109s-36.5 -58.5 -65.5 -77.5s-63.833 -28.5 -104.5 -28.5c-36 0 -70.167 6.33301 -102.5 19z" />
    <glyph glyph-name="six" unicode="6" horiz-adv-x="492" 
d="M146.5 30.5c-27 27.667 -46.502 62 -58.502 103s-18 82.167 -18 123.5c0 86.667 6.33301 161.167 19 223.5s38.334 112.166 77.001 149.499c46.667 43.333 110 65 190 65c6.66699 0 10 -3.33301 10 -10s-3.33301 -10 -10 -10c-75.333 0 -134.666 -21 -177.999 -63
c-32 -31.333 -54.167 -72.666 -66.5 -123.999s-19.5 -112 -21.5 -182c5.33301 8 11.333 14.667 18 20l69 62c12 10.667 23.5 18.667 34.5 24s23.833 8 38.5 8c40.667 0 75.5 -9.66699 104.5 -29s50.833 -45.333 65.5 -78s22 -69 22 -109s-7.33301 -76.333 -22 -109
s-36.5 -58.5 -65.5 -77.5s-63.833 -28.5 -104.5 -28.5c-42 0 -76.5 13.833 -103.5 41.5zM377.498 63.5c29.667 37 44.5 83.833 44.5 140.5s-14.833 103.5 -44.5 140.5s-72.167 55.5 -127.5 55.5c-12 0 -22.333 -2.16699 -31 -6.5s-18 -10.833 -28 -19.5l-69 -62
c-22 -20.667 -33 -40.667 -33 -60c0 -36.667 5.5 -73.667 16.5 -111s28.5 -68.833 52.5 -94.5s54.667 -38.5 92 -38.5c55.333 0 97.833 18.5 127.5 55.5z" />
    <glyph glyph-name="seven" unicode="7" horiz-adv-x="404" 
d="M88.5 3c-1.66699 2 -2.49902 3.99902 -2.49902 5.99902l2 8l281 649h-340c-6 0 -9 3 -9 9c0 6.66699 3 10 9 10h356c6 0 9 -2.33301 9 -7c0 -1.33301 -1 -4.66602 -3 -9.99902l-287 -662c-2 -4 -5 -6 -9 -6c-2.66699 0 -4.83398 1 -6.50098 3z" />
    <glyph glyph-name="eight" unicode="8" horiz-adv-x="502" 
d="M158 14.5c-27.333 17 -48.833 39.998 -64.5 68.998s-23.5 60.833 -23.5 95.5c0 40.667 11.833 77.834 35.5 111.501s54.5 56.834 92.5 69.501c-34.667 12 -62.5 33 -83.5 63s-31.5 63.333 -31.5 100c0 30 7.5 58.167 22.5 84.5s35.167 47.5 60.5 63.5s53.333 24 84 24
s58.667 -8 84 -24s45.5 -37.167 60.5 -63.5s22.5 -54.5 22.5 -84.5c0 -36.667 -10.5 -70 -31.5 -100s-48.833 -51 -83.5 -63c39.333 -12 70.833 -34.833 94.5 -68.5s35.5 -71.167 35.5 -112.5c0 -34 -8 -65.667 -24 -95s-38 -52.5 -66 -69.5s-58.667 -25.5 -92 -25.5
c-34 0 -64.667 8.5 -92 25.5zM325 389.998c22.667 14 40.502 32.833 53.502 56.5s19.5 49.167 19.5 76.5c0 26.667 -6.66699 51.667 -20 75s-31.333 42.166 -54 56.499s-47.334 21.5 -74.001 21.5s-51.334 -7.16699 -74.001 -21.5s-40.667 -33.166 -54 -56.499
s-20 -48.333 -20 -75c0 -27.333 6.5 -52.833 19.5 -76.5s30.833 -42.5 53.5 -56.5s47.667 -21 75 -21s52.333 7 75 21zM331.502 31.498c25 15.667 44.833 36.501 59.5 62.501s22 54.333 22 85s-7.16699 59.167 -21.5 85.5s-34 47.166 -59 62.499s-52.5 23 -82.5 23
c-29.333 0 -56.333 -8 -81 -24s-44.167 -37 -58.5 -63s-21.5 -54 -21.5 -84c0 -31.333 7 -60 21 -86s33.167 -46.667 57.5 -62s51.833 -23 82.5 -23c29.333 0 56.5 7.83301 81.5 23.5z" />
    <glyph glyph-name="nine" unicode="9" horiz-adv-x="467" 
d="M111 -1c0 6 3.33398 9.00195 10.001 9.00195c82.667 0 145 24.333 187 73c28.667 32.667 48.667 74 60 124s17.666 108 18.999 174c-1.33301 -2 -7.33301 -8.33301 -18 -19l-69 -64c-12 -10.667 -23.5 -18.667 -34.5 -24s-23.833 -8 -38.5 -8
c-40.667 0 -75.5 9.5 -104.5 28.5s-50.833 44.833 -65.5 77.5s-22 69 -22 109s7.33301 76.333 22 109s36.5 58.667 65.5 78s63.833 29 104.5 29c42 0 76.5 -13.833 103.5 -41.5s46.5 -62 58.5 -103s18 -82.167 18 -123.5c0 -82.667 -5.66699 -153.834 -17 -213.501
s-34 -108.834 -68 -147.501c-46 -51.333 -113 -77 -201 -77c-6.66699 0 -10 3.33301 -10 10zM258.501 290.002c9 4.66699 18.167 11.332 27.5 19.999l69 64c21.333 18.667 32 38.334 32 59.001c0 36.667 -5.33301 73.5 -16 110.5s-28 68.167 -52 93.5s-54.667 38 -92 38
c-55.333 0 -97.833 -18.5 -127.5 -55.5s-44.5 -83.833 -44.5 -140.5s14.833 -103.5 44.5 -140.5s72.167 -55.5 127.5 -55.5c12 0 22.5 2.33301 31.5 7z" />
    <glyph glyph-name="colon" unicode=":" horiz-adv-x="149" 
d="M58.5 7c-4.33301 4.66699 -6.5 10 -6.5 16s2.16699 11.333 6.5 16s9.5 7 15.5 7s11.167 -2.33301 15.5 -7s6.5 -10 6.5 -16s-2.16699 -11.333 -6.5 -16s-9.5 -7 -15.5 -7s-11.167 2.33301 -15.5 7zM58.5 347c-4.33301 4.66699 -6.5 10 -6.5 16s2.16699 11.333 6.5 16
s9.5 7 15.5 7s11.167 -2.33301 15.5 -7s6.5 -10 6.5 -16s-2.16699 -11.333 -6.5 -16s-9.5 -7 -15.5 -7s-11.167 2.33301 -15.5 7z" />
    <glyph glyph-name="semicolon" unicode=";" horiz-adv-x="149" 
d="M37 -50c0 4 0.332031 6.99902 0.999023 8.99902l35 90c2.66699 6.66699 6.66699 10 12 10c4.66699 0 7.83398 -1.66699 9.50098 -5s1.5 -7.66602 -0.5 -12.999l-35 -91c-2.66699 -6.66699 -6.66699 -10 -12 -10c-6.66699 0 -10 3.33301 -10 10zM66.499 346.999
c-4.33301 4.66699 -6.5 10 -6.5 16s2.16699 11.333 6.5 16s9.5 7 15.5 7s11.167 -2.33301 15.5 -7s6.5 -10 6.5 -16s-2.16699 -11.333 -6.5 -16s-9.5 -7 -15.5 -7s-11.167 2.33301 -15.5 7z" />
    <glyph glyph-name="less" unicode="&#x3c;" 
d="M461 68l-383 163c-3.33301 1.33301 -5 4 -5 8c0 4.66699 1.66699 7.66699 5 9l383 164c2.66699 1.33301 5 2 7 2c2.66699 0 4.66699 -1 6 -3s2 -4.33301 2 -7c0 -4 -2 -6.66699 -6 -8l-368 -157l368 -155c4 -2 6 -4.66699 6 -8c0 -2.66699 -0.666992 -5 -2 -7
s-3.33301 -3 -6 -3c-2 0 -4.33301 0.666992 -7 2z" />
    <glyph glyph-name="equal" unicode="=" 
d="M76 143c-2 2 -3 4.33301 -3 7s1 5 3 7s4.33301 3 7 3h383c2.66699 0 5 -1 7 -3s3 -4.33301 3 -7s-1 -5 -3 -7s-4.33301 -3 -7 -3h-383c-2.66699 0 -5 1 -7 3zM76 323c-2 2 -3 4.33301 -3 7s1 5 3 7s4.33301 3 7 3h383c2.66699 0 5 -1 7 -3s3 -4.33301 3 -7s-1 -5 -3 -7
s-4.33301 -3 -7 -3h-383c-2.66699 0 -5 1 -7 3z" />
    <glyph glyph-name="greater" unicode="&#x3e;" 
d="M89 416l383 -163c3.33301 -1.33301 5 -4 5 -8c0 -4.66699 -1.66699 -7.66699 -5 -9l-383 -164c-2.66699 -1.33301 -5 -2 -7 -2c-2.66699 0 -4.66699 1 -6 3s-2 4.33301 -2 7c0 4 2 6.66699 6 8l368 157l-368 155c-4 2 -6 4.66699 -6 8c0 2.66699 0.666992 5 2 7
s3.33301 3 6 3c2 0 4.33301 -0.666992 7 -2z" />
    <glyph glyph-name="question" unicode="?" horiz-adv-x="470" 
d="M91 183l-0.00195312 21.999c0 51.333 12.333 89.333 37 114s67.334 37 128.001 37c40 0 70.833 4.33301 92.5 13s37.334 23.834 47.001 45.501s14.5 52.834 14.5 93.501v5c0 40.667 -4.66699 71.834 -14 93.501s-25 37 -47 46s-53 13.5 -93 13.5h-177
c-6 0 -9 3.33301 -9 10c0 6 3 9 9 9h177c42.667 0 76.334 -4.83301 101.001 -14.5s43 -26.334 55 -50.001s18 -57.167 18 -100.5v-18c0 -43.333 -6 -76.833 -18 -100.5s-30.333 -40.334 -55 -50.001s-58.334 -14.5 -101.001 -14.5c-54.667 0 -92.667 -10.5 -114 -31.5
s-32 -54.167 -32 -99.5v-23c0 -6.66699 -3 -10 -9 -10c-6.66699 0 -10 3.33301 -10 10zM84.498 6.99902c-4.33301 4.66699 -6.5 10 -6.5 16s2.16699 11.333 6.5 16s9.5 7 15.5 7s11.167 -2.33301 15.5 -7s6.5 -10 6.5 -16s-2.16699 -11.333 -6.5 -16s-9.5 -7 -15.5 -7
s-11.167 2.33301 -15.5 7z" />
    <glyph glyph-name="at" unicode="@" horiz-adv-x="616" 
d="M513.5 511c45 -53.333 67.5 -124.667 67.5 -214c0 -44 -7 -80.167 -21 -108.5s-35.667 -42.5 -65 -42.5c-16.667 0 -30 3.5 -40 10.5s-17.333 19.167 -22 36.5c-2.66699 -4.66699 -7 -10 -13 -16l-42 -39c-9.33301 -9.33301 -19 -15.5 -29 -18.5s-23 -4.5 -39 -4.5
c-46 0 -80.667 17.5 -104 52.5s-35 77.5 -35 127.5c0 30.667 5.5 59.167 16.5 85.5s27.5 47.833 49.5 64.5s49 25 81 25c46.667 0 80.5 -16.667 101.5 -50s31.5 -75 31.5 -125v-69c0 -26 4.33301 -42.833 13 -50.5s19.667 -11.5 33 -11.5c21.333 0 37.333 12.667 48 38
s16 56.333 16 93c0 84.667 -20.167 152 -60.5 202s-102.5 75 -186.5 75c-57.333 0 -104.666 -13.833 -141.999 -41.5s-64.5 -62.667 -81.5 -105s-25.5 -85.833 -25.5 -130.5c0 -45.333 8.5 -90 25.5 -134s44 -80.667 81 -110s83.833 -44 140.5 -44
c33.333 0 62.333 4.33301 87 13s49.334 22.334 74.001 41.001c3.33301 3.33301 6.66602 5 9.99902 5s6 -0.833008 8 -2.5s3 -3.83398 3 -6.50098c0 -3.33301 -1.33301 -6.33301 -4 -9c-22 -20 -48.5 -35 -79.5 -45s-63.833 -15 -98.5 -15c-62 0 -113 15.5 -153 46.5
s-69 69.833 -87 116.5s-27 94.667 -27 144c0 48.667 9.33301 95.5 28 140.5s48.167 82.167 88.5 111.5s91.166 44 152.499 44c88 0 154.5 -26.667 199.5 -80zM431 294.999c0 44 -8.83301 80.832 -26.5 110.499s-46.5 44.5 -86.5 44.5c-42 0 -73.667 -15.333 -95 -46
s-32 -67 -32 -109c0 -45.333 9.66699 -83.333 29 -114s49.333 -46 90 -46c14.667 0 25.5 0.833008 32.5 2.5s14.167 6.16699 21.5 13.5l48 46c8 8 13.167 14.833 15.5 20.5s3.5 13.834 3.5 24.501v53z" />
    <glyph glyph-name="A" unicode="A" horiz-adv-x="549" 
d="M523 8c0 -2.66699 -1 -4.66895 -3 -6.00195s-4.33301 -2 -7 -2c-4.66699 0 -8 2.33301 -10 7l-97 267h-266l-94 -267c-2 -4.66699 -5.33301 -7 -10 -7c-2.66699 0 -4.83398 0.833008 -6.50098 2.5s-2.5 3.83398 -2.5 6.50098l2 9l229 650
c2.66699 7.33301 4.83398 12 6.50098 14s4.16699 3 7.5 3c2.66699 0 5 -1.16699 7 -3.5s4 -6.16602 6 -11.499l236 -654zM400 292.998l-128 353l-125 -353h253z" />
    <glyph glyph-name="B" unicode="B" horiz-adv-x="539" 
d="M111 3c-2 2 -2.99805 4.33496 -2.99805 7.00195v665c0 2.66699 1 5 3 7s4.33301 3 7 3h159c51.333 0 92.166 -14.833 122.499 -44.5s45.5 -70.167 45.5 -121.5c0 -26 -4.5 -50 -13.5 -72s-22.5 -40.667 -40.5 -56c-5.33301 -4.66699 -12.5 -9.33398 -21.5 -14.001
s-17.5 -8 -25.5 -10c41.333 -6.66699 74.166 -26.834 98.499 -60.501s36.5 -73.167 36.5 -118.5c0 -56.667 -16.5 -102.167 -49.5 -136.5s-79.167 -51.5 -138.5 -51.5h-173c-2.66699 0 -5 1 -7 3zM280.002 374.002c44.667 0 80 13 106 39s39 61.333 39 106
c0 46 -13.167 82 -39.5 108s-62.5 39 -108.5 39h-149v-292h152zM291.002 19.002c53.333 0 94.668 15.5 124.001 46.5s44 71.833 44 122.5c0 49.333 -14.333 89.333 -43 120s-68.334 46 -119.001 46h-169v-335h163z" />
    <glyph glyph-name="C" unicode="C" horiz-adv-x="500" 
d="M166 41.5c-37.333 35 -64.001 79.334 -80.001 133.001s-24 110.167 -24 169.5c0 57.333 8.5 112.666 25.5 165.999s44.333 97.5 82 132.5s85.5 52.5 143.5 52.5c64.667 0 117.334 -20 158.001 -60c2 -2 3 -4.66699 3 -8c0 -2.66699 -1 -4.83398 -3 -6.50098
s-4.33301 -2.5 -7 -2.5s-6 1.66699 -10 5c-23.333 18.667 -45.333 32 -66 40s-45.667 12 -75 12c-54 0 -98.333 -16.667 -133 -50s-59.667 -75.166 -75 -125.499s-23 -102.166 -23 -155.499c0 -55.333 7.16699 -108.333 21.5 -159s38.833 -92.834 73.5 -126.501
s80 -50.5 136 -50.5c29.333 0 54.5 4.5 75.5 13.5s43.833 23.5 68.5 43.5c2 2 4.33301 3 7 3s5 -1 7 -3s3 -4.33301 3 -7s-1 -5 -3 -7c-20.667 -20.667 -44.667 -36.167 -72 -46.5s-56 -15.5 -86 -15.5c-60.667 0 -109.667 17.5 -147 52.5z" />
    <glyph glyph-name="D" unicode="D" horiz-adv-x="617" 
d="M111 3c-2 2 -3 4.33301 -3 7v665c0 2.66699 1 5 3 7s4.33301 3 7 3h206c57.333 0 103.166 -17.167 137.499 -51.5s58.5 -77.166 72.5 -128.499s21 -105.333 21 -162s-7 -110.834 -21 -162.501s-38.167 -94.667 -72.5 -129s-80.166 -51.5 -137.499 -51.5h-206
c-2.66699 0 -5 1 -7 3zM324 19c52.667 0 94.667 16.499 126 49.499s53.333 73.833 66 122.5s19 99.334 19 152.001c0 86.667 -16 162.167 -48 226.5s-87 96.5 -165 96.5h-194v-647h196z" />
    <glyph glyph-name="E" unicode="E" horiz-adv-x="473" 
d="M111 3c-2 2 -3 4.33594 -3 7.00293v665c0 2.66699 1 5 3 7s4.33301 3 7 3h295c2.66699 0 5 -1 7 -3s3 -4.33301 3 -7s-1 -4.83398 -3 -6.50098s-4.33301 -2.5 -7 -2.5h-285v-295h242c2.66699 0 5 -0.833008 7 -2.5s3 -3.83398 3 -6.50098s-1 -5 -3 -7s-4.33301 -3 -7 -3
h-242v-333h285c2.66699 0 5 -1 7 -3s3 -4.33301 3 -7s-1 -4.83398 -3 -6.50098s-4.33301 -2.5 -7 -2.5h-295c-2.66699 0 -5 1 -7 3z" />
    <glyph glyph-name="F" unicode="F" horiz-adv-x="449" 
d="M111 3c-2 2 -3 4.33496 -3 7.00195v665c0 2.66699 1 5 3 7s4.33301 3 7 3h296c2.66699 0 5 -1 7 -3s3 -4.33301 3 -7s-1 -4.83398 -3 -6.50098s-4.33301 -2.5 -7 -2.5h-286v-295h244c2.66699 0 5 -0.833008 7 -2.5s3 -3.83398 3 -6.50098s-1 -5 -3 -7s-4.33301 -3 -7 -3
h-244v-342c0 -2.66699 -1 -5 -3 -7s-4.33301 -3 -7 -3s-5 1 -7 3z" />
    <glyph glyph-name="G" unicode="G" horiz-adv-x="593" 
d="M166 41.5c-37.333 35 -63.999 79.166 -79.999 132.499s-24 109.666 -24 168.999c0 56.667 8.5 111.834 25.5 165.501s44.333 98.167 82 133.5s85.5 53 143.5 53c30 0 58.667 -5.16699 86 -15.5s51.333 -25.833 72 -46.5c2 -2 3 -4.33301 3 -7s-1 -5 -3 -7
s-4.33301 -3 -7 -3s-5 1 -7 3c-23.333 20 -45.833 34.333 -67.5 43s-47.167 13 -76.5 13c-54 0 -98.333 -16.833 -133 -50.5s-59.667 -75.667 -75 -126s-23 -102.166 -23 -155.499c0 -55.333 7.16699 -108.333 21.5 -159s38.833 -92.667 73.5 -126s80 -50 136 -50
c39.333 0 74.333 10.5 105 31.5s54.5 50.167 71.5 87.5s25.5 80 25.5 128v78h-192c-6.66699 0 -10 3.33301 -10 10s3.33301 10 10 10h202c6.66699 0 10 -5.33301 10 -16v-83c0 -50 -9.5 -95.167 -28.5 -135.5s-45.333 -72 -79 -95s-71.834 -34.5 -114.501 -34.5
c-60.667 0 -109.667 17.5 -147 52.5z" />
    <glyph glyph-name="H" unicode="H" horiz-adv-x="638" 
d="M111 3c-2 2 -3 4.33301 -3 7v665c0 2.66699 1 5 3 7s4.33301 3 7 3s5 -1 7 -3s3 -4.33301 3 -7v-324h382v324c0 2.66699 1 5 3 7s4.33301 3 7 3s5 -1 7 -3s3 -4.33301 3 -7v-665c0 -2.66699 -1 -5 -3 -7s-4.33301 -3 -7 -3s-5 1 -7 3s-3 4.33301 -3 7v322h-382v-322
c0 -2.66699 -1 -5 -3 -7s-4.33301 -3 -7 -3s-5 1 -7 3z" />
    <glyph glyph-name="I" unicode="I" horiz-adv-x="236" 
d="M111 3c-2 2 -3 4.33301 -3 7v665c0 2.66699 1 5 3 7s4.33301 3 7 3s5 -1 7 -3s3 -4.33301 3 -7v-665c0 -2.66699 -1 -5 -3 -7s-4.33301 -3 -7 -3s-5 1 -7 3z" />
    <glyph glyph-name="J" unicode="J" horiz-adv-x="308" 
d="M5 -1c0 6 3.33398 9 10.001 9c57.333 0 100.666 23.667 129.999 71c23.333 38 35 87 35 147v449c0 6.66699 3.33301 10 10 10s10 -3.33301 10 -10v-449c0 -63.333 -12.667 -115.333 -38 -156c-32.667 -54 -81.667 -81 -147 -81c-6.66699 0 -10 3.33301 -10 10z" />
    <glyph glyph-name="K" unicode="K" horiz-adv-x="554" 
d="M108 10v665.002c0 6.66699 3.33301 10 10 10s10 -3.33301 10 -10v-301h110c28 0 47.333 8 58 24l188 280c3.33301 4.66699 6.66602 7 9.99902 7c2.66699 0 4.83398 -0.833008 6.50098 -2.5s2.5 -3.83398 2.5 -6.50098c0 -2 -1 -4.66699 -3 -8l-188 -282
c-4.66699 -6.66699 -11 -12.667 -19 -18l197 -349c2.66699 -4.66699 4 -8.33398 4 -11.001s-1 -4.66699 -3 -6s-4.33301 -2 -7 -2c-3.33301 0 -6 2 -8 6l-199 354c-12 -4 -25 -6 -39 -6h-110v-344c0 -6.66699 -3.33301 -10 -10 -10s-10 3.33301 -10 10z" />
    <glyph glyph-name="L" unicode="L" horiz-adv-x="429" 
d="M111 3c-2 2 -3 4.33301 -3 7v665c0 6.66699 3.33301 10 10 10s10 -3.33301 10 -10v-655h286c6.66699 0 10 -3.33301 10 -10s-3.33301 -10 -10 -10h-296c-2.66699 0 -5 1 -7 3z" />
    <glyph glyph-name="M" unicode="M" horiz-adv-x="717" 
d="M606.5 682c1.66699 -2 2.49805 -4.33301 2.49805 -7v-665c0 -6.66699 -3.33301 -10 -10 -10s-10 3.33301 -10 10v624l-220 -461c-2.66699 -5.33301 -6 -8 -10 -8s-7.33301 2.66699 -10 8l-221 459v-622c0 -6.66699 -3.33301 -10 -10 -10s-10 3.33301 -10 10v665
c0 6.66699 3 10 9 10c4.66699 0 8.33398 -2.66699 11.001 -8l231 -481l229 481c2.66699 5.33301 6.66699 8 12 8c2.66699 0 4.83398 -1 6.50098 -3z" />
    <glyph glyph-name="N" unicode="N" horiz-adv-x="647" 
d="M519 7l-391 633v-630c0 -6.66699 -3.33301 -10 -10 -10s-10 3.33301 -10 10v665c0 3.33301 1 6 3 8s4.33301 3 7 3c4 0 7.66699 -2.66699 11 -8l391 -633v630c0 6.66699 3.33301 10 10 10c6 0 9 -3.33301 9 -10v-665c0 -7.33301 -3 -11 -9 -11
c-4 0 -7.66699 2.66699 -11 8z" />
    <glyph glyph-name="O" unicode="O" horiz-adv-x="620" 
d="M163.5 43.5c-37 36.333 -63.167 81.166 -78.5 134.499s-23 108.333 -23 165s7.66699 111.5 23 164.5s41.5 97.5 78.5 133.5s86.167 54 147.5 54s110.333 -18 147 -54s62.5 -80.5 77.5 -133.5s22.5 -107.833 22.5 -164.5s-7.5 -111.667 -22.5 -165
s-40.833 -98.166 -77.5 -134.499s-85.667 -54.5 -147 -54.5s-110.5 18.167 -147.5 54.5zM447 60c34 34.667 57.667 77.335 71 128.002s20 102.334 20 155.001s-6.66699 104.167 -20 154.5s-37 92.666 -71 126.999s-79.333 51.5 -136 51.5s-102.167 -17.333 -136.5 -52
s-58.333 -77 -72 -127s-20.5 -101.333 -20.5 -154s6.83301 -104.334 20.5 -155.001s37.667 -93.334 72 -128.001s79.833 -52 136.5 -52s102 17.333 136 52z" />
    <glyph glyph-name="P" unicode="P" horiz-adv-x="503" 
d="M108 10v665c0 2.66699 1 5 3 7s4.33301 3 7 3h179c51.333 0 91.833 -15 121.5 -45s44.5 -70.667 44.5 -122v-41c0 -51.333 -15.833 -92 -47.5 -122s-74.5 -45 -128.5 -45h-159v-300c0 -6.66699 -3.33301 -10 -10 -10s-10 3.33301 -10 10zM287 329
c49.333 0 87.833 13.499 115.5 40.499s41.5 63.5 41.5 109.5v37c0 46.667 -13 83.334 -39 110.001s-62 40 -108 40h-169v-337h159z" />
    <glyph glyph-name="Q" unicode="Q" horiz-adv-x="635" 
d="M615 10c0 -6.66699 -3.33203 -9.99902 -9.99902 -9.99902c-30 0 -56.667 12.333 -80 37l-39 39c-42.667 -58 -101 -87 -175 -87c-61.333 0 -110.5 18.167 -147.5 54.5s-63.167 81.166 -78.5 134.499s-23 108.333 -23 165s7.66699 111.5 23 164.5s41.5 97.5 78.5 133.5
s86.167 54 147.5 54s110.333 -18 147 -54s62.5 -80.5 77.5 -133.5s22.5 -107.833 22.5 -164.5c0 -44.667 -4.83301 -89.167 -14.5 -133.5s-24.834 -83.166 -45.501 -116.499l49 -49c8.66699 -8.66699 17.5 -14.834 26.5 -18.501s19.5 -5.5 31.5 -5.5
c6.66699 0 10 -3.33301 10 -10zM473.001 90.001l-61.999 62.002c-4.66699 4.66699 -7 8.66699 -7 12c0 2.66699 0.833008 4.83398 2.5 6.50098s3.83398 2.5 6.50098 2.5c3.33301 0 7.66602 -2.66699 12.999 -8l58 -58c19.333 32.667 33.166 69.667 41.499 111
s12.5 83 12.5 125c0 52.667 -6.66699 104.167 -20 154.5s-37 92.666 -71 126.999s-79.333 51.5 -136 51.5s-102.167 -17.333 -136.5 -52s-58.333 -77 -72 -127s-20.5 -101.333 -20.5 -154s6.83301 -104.334 20.5 -155.001s37.667 -93.334 72 -128.001s79.833 -52 136.5 -52
c68.667 0 122.667 27.333 162 82z" />
    <glyph glyph-name="R" unicode="R" horiz-adv-x="537" 
d="M507 8c0 -2 -1 -3.83301 -3 -5.5s-4.33301 -2.5 -7 -2.5c-3.33301 -0 -6.33301 2.33301 -9 7l-160 305c-13.333 -1.33301 -24 -2 -32 -2h-168v-300c0 -6.66699 -3.33301 -10 -10 -10s-10 3.33301 -10 10v665c0 2.66699 1 5 3 7s4.33301 3 7 3h188
c51.333 0 91.833 -15 121.5 -45s44.5 -70.667 44.5 -122v-41c0 -42.667 -11 -78 -33 -106s-52.667 -46.667 -92 -56l157 -298c2 -4 3 -7 3 -9zM296 329c49.333 0 87.833 13.499 115.5 40.499s41.5 63.5 41.5 109.5v37c0 46.667 -13 83.334 -39 110.001s-62 40 -108 40h-178
v-337h168z" />
    <glyph glyph-name="S" unicode="S" horiz-adv-x="472" 
d="M141 9c-30.667 13.333 -56.3301 31.9961 -76.9971 55.9961c-4 4 -6 7.66699 -6 11c0 2.66699 0.833008 4.83398 2.5 6.50098s3.83398 2.5 6.50098 2.5c2 0 4.66699 -1.66699 8 -5c24 -24.667 48.667 -42.834 74 -54.501s54.666 -17.5 87.999 -17.5
c29.333 0 56.166 7.33301 80.499 22s43.5 34.334 57.5 59.001s21 51.334 21 80.001c0 38 -7.83301 69 -23.5 93s-34.834 42.5 -57.501 55.5s-52.667 27.167 -90 42.5c-36 14.667 -64.833 28.167 -86.5 40.5s-39.834 29.5 -54.501 51.5s-22 50.333 -22 85c0 32 8 60 24 84
s37.333 42.333 64 55s55.667 19 87 19c58.667 0 108.667 -18.667 150 -56c6 -5.33301 9 -9.66602 9 -12.999c0 -2.66699 -0.833008 -5 -2.5 -7s-3.83398 -3 -6.50098 -3c-3.33301 0 -6 1 -8 3c-24.667 20 -47.167 34.333 -67.5 43s-45.166 13 -74.499 13
c-43.333 0 -80 -12.5 -110 -37.5s-45 -58.5 -45 -100.5c0 -30.667 6.83301 -56 20.5 -76s30.667 -35.667 51 -47s47.833 -23.666 82.5 -36.999c40 -16.667 71.667 -31.834 95 -45.501s43.333 -33.667 60 -60s25 -60.5 25 -102.5c0 -32.667 -8 -62.667 -24 -90
s-37.667 -49.166 -65 -65.499s-57.333 -24.5 -90 -24.5c-33.333 0 -65.333 6.66699 -96 20z" />
    <glyph glyph-name="T" unicode="T" horiz-adv-x="532" 
d="M524 682c2 -2 3 -4.33301 3 -7s-1 -4.83398 -3 -6.50098s-4.33301 -2.5 -7 -2.5h-241v-658c0 -2.66699 -1 -4.83398 -3 -6.50098s-4.33301 -2.5 -7 -2.5s-5 0.833008 -7 2.5s-3 3.83398 -3 6.50098v658h-241c-2.66699 0 -5 0.833008 -7 2.5s-3 3.83398 -3 6.50098
s1 5 3 7s4.33301 3 7 3h502c2.66699 0 5 -1 7 -3z" />
    <glyph glyph-name="U" unicode="U" horiz-adv-x="669" 
d="M163 74c-36.667 56.667 -54.999 126.333 -54.999 209v392c0 6.66699 3.33301 10 10 10s10 -3.33301 10 -10v-392c0 -77.333 16.5 -142.5 49.5 -195.5s85.5 -79.5 157.5 -79.5c70.667 0 122.667 26.5 156 79.5s50 117.833 50 194.5v393c0 6.66699 3.33301 10 10 10
s10 -3.33301 10 -10v-392c0 -52 -7.83301 -100.333 -23.5 -145s-40.334 -80.667 -74.001 -108s-76.5 -41 -128.5 -41c-78 0 -135.333 28.333 -172 85z" />
    <glyph glyph-name="V" unicode="V" horiz-adv-x="574" 
d="M277 -4l-235.002 671c-1.33301 3.33301 -2 6.33301 -2 9c0 2 1 4 3 6s4.33301 3 7 3c4.66699 0 8 -2.33301 10 -7l227 -650l226 647c2 6.66699 5.66699 10 11 10c6 0 9 -3 9 -9l-2 -9l-234 -671c-1.33301 -4.66699 -4.66602 -7 -9.99902 -7s-8.66602 2.33301 -9.99902 7z
" />
    <glyph glyph-name="W" unicode="W" horiz-adv-x="926" 
d="M886 676l-2.00293 -9.00098l-199 -670c-1.33301 -3.33301 -2.66602 -5.5 -3.99902 -6.5s-3.33301 -1.5 -6 -1.5c-5.33301 0 -8.66602 2.66699 -9.99902 8l-202 644l-200 -644c-1.33301 -5.33301 -4.66602 -8 -9.99902 -8c-2.66699 0 -4.66699 0.5 -6 1.5
s-2.66602 3.16699 -3.99902 6.5l-201 671l-2 8c0 2.66699 1 4.83398 3 6.50098s4.33301 2.5 7 2.5c5.33301 0 8.66602 -2.33301 9.99902 -7l193 -643l200 642c2 5.33301 5.33301 8 10 8s8 -2.66699 10 -8l202 -642l191 640c2 6.66699 5.66699 10 11 10c6 0 9 -3 9 -9z" />
    <glyph glyph-name="X" unicode="X" horiz-adv-x="614" 
d="M60 10c0 50 22.667 100 68 150l165 182l-165 181c-45.333 50 -68 100.333 -68 151c0 7.33301 3.33301 11 10 11c7.33301 0 11 -4.66699 11 -14c2.66699 -46.667 23 -91.334 61 -134.001l165 -182l165 182c38 42.667 58.333 87.334 61 134.001c0 9.33301 3.66699 14 11 14
c6.66699 0 10 -3.66699 10 -11c0 -50.667 -22.667 -101 -68 -151l-165 -181l165 -182c45.333 -50 68 -100 68 -150c0 -8 -3.33301 -12 -10 -12c-7.33301 0 -11 4.66699 -11 14c-2.66699 46.667 -23 91.334 -61 134.001l-165 182l-165 -182
c-38 -42.667 -58.333 -87.334 -61 -134.001c0 -9.33301 -3.66699 -14 -11 -14c-6.66699 0 -10 4 -10 12z" />
    <glyph glyph-name="Y" unicode="Y" horiz-adv-x="555" 
d="M269 10l-0.00195312 240l-225 419c-2 4 -3 7 -3 9s0.833008 3.66699 2.5 5s3.83398 2 6.50098 2c4 0 7 -2 9 -6l220 -409l217 408c2.66699 4.66699 6 7 10 7c2.66699 0 4.83398 -0.666992 6.50098 -2s2.5 -3 2.5 -5c0 -2.66699 -1.66699 -6.66699 -5 -12l-222 -416v-240
c0 -6.66699 -3 -10 -9 -10c-6.66699 -0 -10 3.33301 -10 10z" />
    <glyph glyph-name="Z" unicode="Z" horiz-adv-x="477" 
d="M442 665l-383 -644.999h368c6.66699 0 10 -3.33301 10 -10s-3.33301 -10 -10 -10h-386c-6.66699 0 -10 3 -10 9c0 3.33301 1.33301 7 4 11l383 646h-358c-6.66699 0 -10 3 -10 9c0 6.66699 3.33301 10 10 10h376c6.66699 0 10 -3 10 -9
c0 -2.66699 -1.33301 -6.33398 -4 -11.001z" />
    <glyph glyph-name="bracketleft" unicode="[" horiz-adv-x="437" 
d="M207 -66.5c-32 47 -48 104.833 -48 173.5v344c0 68.667 16 126.5 48 173.5s80.667 70.5 146 70.5c6 0 9 -3.33301 9 -10s-3 -10 -9 -10c-59.333 0 -103.166 -21.667 -131.499 -65s-42.5 -96.333 -42.5 -159v-344c0 -62.667 14.167 -115.667 42.5 -159
s72.166 -65 131.499 -65c6 0 9 -3.33301 9 -10s-3 -10 -9 -10c-65.333 0 -114 23.5 -146 70.5z" />
    <glyph glyph-name="backslash" unicode="\" horiz-adv-x="359" 
d="M278 0l-216.001 676l-2 9c0 6.66699 3.33301 10 10 10c4.66699 0 8.33398 -3.66699 11.001 -11l216 -676l2 -9c0 -6.66699 -3.33301 -10 -10 -10c-5.33301 0 -9 3.66699 -11 11z" />
    <glyph glyph-name="bracketright" unicode="]" horiz-adv-x="437" 
d="M75 -127c0 6.66699 3.33301 10 10 10c59.333 0 103 21.667 131 65s42 96.333 42 159v344c0 62.667 -14 115.667 -42 159s-71.667 65 -131 65c-6.66699 0 -10 3.33301 -10 10s3.33301 10 10 10c65.333 0 113.833 -23.5 145.5 -70.5s47.5 -104.833 47.5 -173.5v-344
c0 -68.667 -15.833 -126.5 -47.5 -173.5s-80.167 -70.5 -145.5 -70.5c-6.66699 0 -10 3.33301 -10 10z" />
    <glyph glyph-name="asciicircum" unicode="^" 
d="M85 442.5c-2 1.66699 -2.99805 3.83398 -2.99805 6.50098s1.33301 5.66699 4 9l178 229c4 5.33301 7.66699 8 11 8s7 -2.66699 11 -8l178 -229c2.66699 -3.33301 4 -6.33301 4 -9s-1 -4.83398 -3 -6.50098s-4.33301 -2.5 -7 -2.5s-5.33398 1.33301 -8.00098 4l-175 226
l-175 -226c-2.66699 -2.66699 -5.33398 -4 -8.00098 -4s-5 0.833008 -7 2.5z" />
    <glyph glyph-name="underscore" unicode="_" horiz-adv-x="463" 
d="M43 -67c-2 2 -3 4.33301 -3 7s1 5 3 7s4.33301 3 7 3h363c2.66699 0 5 -1 7 -3s3 -4.33301 3 -7s-1 -5 -3 -7s-4.33301 -3 -7 -3h-363c-2.66699 0 -5 1 -7 3z" />
    <glyph glyph-name="grave" unicode="`" horiz-adv-x="250" 
d="M169 529l-103 70c-3.33301 2 -5 4.66699 -5 8c0 2.66699 1 5 3 7s4.33301 3 7 3s6.33398 -1.66699 11.001 -5l103 -70c3.33301 -2 5 -4.66699 5 -8c0 -2.66699 -1 -5 -3 -7s-4.33301 -3 -7 -3s-6.33398 1.66699 -11.001 5z" />
    <glyph glyph-name="a" unicode="a" horiz-adv-x="503" 
d="M95.5 60c-31.667 47.333 -47.502 105.333 -47.502 174c0 42 7 81.5 21 118.5s35.333 67.167 64 90.5s64.667 35 108 35c66.667 0 115.5 -24 146.5 -72s46.5 -107.333 46.5 -178v-218c0 -6.66699 -3.33301 -10 -10 -10c-6 -0 -9 3.33301 -9 10v98
c-5.33301 -7.33301 -12.666 -15 -21.999 -23l-74 -64c-13.333 -11.333 -25.666 -19.5 -36.999 -24.5s-25 -7.5 -41 -7.5c-65.333 0 -113.833 23.667 -145.5 71zM274.498 14c9.66699 4 19.832 10.998 30.499 20.998l74 64c12.667 10.667 21.834 20.834 27.501 30.501
s8.5 20.167 8.5 31.5v67c0 64.667 -13.833 119.334 -41.5 164.001s-71.834 67 -132.501 67c-39.333 0 -72 -10.833 -98 -32.5s-45 -49.5 -57 -83.5s-18 -70.333 -18 -109c0 -63.333 14 -116.833 42 -160.5s71.667 -65.5 131 -65.5c12.667 0 23.834 2 33.501 6z" />
    <glyph glyph-name="b" unicode="b" horiz-adv-x="507" 
d="M225.5 -3.5c-11.667 5 -24.168 13.167 -37.501 24.5l-75 64c-9.33301 8 -16.333 15.667 -21 23v-98c0 -6.66699 -3.33301 -10 -10 -10c-6 -0 -9 3.33301 -9 10v701c0 6.66699 3 10 9 10c6.66699 0 10 -3.33301 10 -10v-357c14.667 40 36.834 70.667 66.501 92
s65.5 32 107.5 32c43.333 0 79.333 -11.667 108 -35s50 -53.5 64 -90.5s21 -76.5 21 -118.5c0 -68.667 -15.833 -126.667 -47.5 -174s-80.167 -71 -145.5 -71c-15.333 0 -28.833 2.5 -40.5 7.5zM396.999 73.5c28 43.667 41.999 97.167 41.999 160.5c0 38.667 -6 75 -18 109
s-31 61.667 -57 83s-58.667 32 -98 32c-59.333 0 -103.166 -21.667 -131.499 -65s-42.5 -96.333 -42.5 -159v-73c0 -20 11.667 -40.333 35 -61l75 -65c11.333 -10 21.5 -17 30.5 -21s20.167 -6 33.5 -6c59.333 0 103 21.833 131 65.5z" />
    <glyph glyph-name="c" unicode="c" horiz-adv-x="399" 
d="M95.5 59.5c-31.667 47 -47.4971 104.838 -47.4971 173.505c0 42 7 81.667 21 119s35.333 67.666 64 90.999s64.667 35 108 35c22.667 0 44.5 -3.5 65.5 -10.5s39.167 -17.833 54.5 -32.5c2 -2 3 -4.33301 3 -7s-0.833008 -4.83398 -2.5 -6.50098s-3.5 -2.5 -5.5 -2.5
s-4.66699 1 -8 3c-18.667 13.333 -35.834 22.666 -51.501 27.999s-34.167 8 -55.5 8c-39.333 0 -72 -10.833 -98 -32.5s-45 -49.667 -57 -84s-18 -70.5 -18 -108.5c0 -62.667 14 -115.834 42 -159.501s71.667 -65.5 131 -65.5c21.333 0 39.666 2.83301 54.999 8.5
s32.666 15.167 51.999 28.5c3.33301 2 6 3 8 3s3.83301 -0.833008 5.5 -2.5s2.5 -3.83398 2.5 -6.50098s-1 -5 -3 -7c-15.333 -14.667 -33.5 -25.5 -54.5 -32.5s-42.833 -10.5 -65.5 -10.5c-65.333 0 -113.833 23.5 -145.5 70.5z" />
    <glyph glyph-name="d" unicode="d" horiz-adv-x="507" 
d="M95.5 60c-31.667 47.333 -47.502 105.333 -47.502 174c0 42 7 81.5 21 118.5s35.333 67.167 64 90.5s64.667 35 108 35c42 0 77.833 -10.667 107.5 -32s51.834 -52 66.501 -92v357c0 6.66699 3 10 9 10c6.66699 0 10 -3.33301 10 -10v-701
c0 -6.66699 -3.33301 -10 -10 -10c-6 -0 -9 3.33301 -9 10v100c-2.66699 -4 -10 -12 -22 -24l-74 -65c-13.333 -11.333 -25.666 -19.5 -36.999 -24.5s-25 -7.5 -41 -7.5c-65.333 0 -113.833 23.667 -145.5 71zM274.498 14c9 4 19.167 11 30.5 21l74 65
c13.333 12 22.666 22.167 27.999 30.5s8 18.5 8 30.5v73c0 62.667 -14.167 115.667 -42.5 159s-72.166 65 -131.499 65c-39.333 0 -72 -10.667 -98 -32s-45 -49 -57 -83s-18 -70.333 -18 -109c0 -63.333 14 -116.833 42 -160.5s71.667 -65.5 131 -65.5
c13.333 0 24.5 2 33.5 6z" />
    <glyph glyph-name="e" unicode="e" horiz-adv-x="462" 
d="M95.5 59.5c-31.667 47 -47.5 104.833 -47.5 173.5c0 42 7 81.667 21 119s35.333 67.666 64 90.999s64.667 35 108 35c38.667 0 71.667 -10.333 99 -31s47.833 -47.667 61.5 -81s20.5 -69.333 20.5 -108c0 -10 -4.33301 -15 -13 -15h-341c0 -77.333 15 -135.833 45 -175.5
s72.667 -59.5 128 -59.5c22 0 42.833 3.66699 62.5 11s40.167 18.333 61.5 33c3.33301 2 6 3 8 3s3.83301 -0.666992 5.5 -2s2.5 -3.33301 2.5 -6s-1 -5 -3 -7c-16 -15.333 -37 -27.666 -63 -36.999s-50.667 -14 -74 -14c-65.333 0 -113.833 23.5 -145.5 70.5zM400 262
c0 31.333 -5.5 62 -16.5 92s-28.5 54.833 -52.5 74.5s-54 29.5 -90 29.5c-52 0 -92.5 -19 -121.5 -57s-45.833 -84.333 -50.5 -139h331z" />
    <glyph glyph-name="f" unicode="f" horiz-adv-x="281" 
d="M73 10l-0.000976562 464.999c0 72.667 16.5 131.834 49.5 177.501s80.833 68.5 143.5 68.5c6.66699 0 10 -3.33301 10 -10s-3.33301 -10 -10 -10c-57.333 0 -100.666 -21 -129.999 -63s-44 -95 -44 -159v-12h129c6.66699 0 10 -3.33301 10 -10s-3.33301 -10 -10 -10h-129
v-437c0 -6.66699 -3.33301 -10 -10 -10c-6 -0 -9 3.33301 -9 10z" />
    <glyph glyph-name="g" unicode="g" horiz-adv-x="507" 
d="M231 -255c0 6.66699 3.33398 10.001 10.001 10.001c54.667 0 96.667 19 126 57c16.667 21.333 28.834 47.166 36.501 77.499s11.5 62.833 11.5 97.5v134c-14.667 -39.333 -36.834 -69.333 -66.501 -90s-65.5 -31 -107.5 -31c-42.667 0 -78.5 11 -107.5 33
s-50.5 51 -64.5 87s-21 75 -21 117c0 68 15.833 125.167 47.5 171.5s80.167 69.5 145.5 69.5c16 0 29.667 -2.5 41 -7.5s23.666 -13.167 36.999 -24.5l74 -64c8 -6.66699 15.333 -14.667 22 -24v99c0 6.66699 3 10 9 10c6.66699 0 10 -3.33301 10 -10v-470
c0 -37.333 -4.33301 -72.5 -13 -105.5s-22 -60.833 -40 -83.5c-33.333 -42 -80 -63 -140 -63c-6.66699 0 -10 3.33301 -10 10zM372.501 83.001c28.333 42 42.501 94.333 42.501 157v66c0 10.667 -3.5 21.5 -10.5 32.5s-15.5 20.5 -25.5 28.5l-74 64
c-11.333 10 -21.5 17 -30.5 21s-20.167 6 -33.5 6c-59.333 0 -103 -21.167 -131 -63.5s-42 -94.833 -42 -157.5c0 -60 14.333 -111.167 43 -153.5s72 -63.5 130 -63.5c59.333 0 103.166 21 131.499 63z" />
    <glyph glyph-name="h" unicode="h" horiz-adv-x="528" 
d="M73 10l-0.00195312 700.999c0 6.66699 3 10 9 10c6.66699 0 10 -3.33301 10 -10v-352c6.66699 8 15.667 17.333 27 28l69 59c12.667 11.333 24.834 19.5 36.501 24.5s25.5 7.5 41.5 7.5c65.333 0 113.833 -23.5 145.5 -70.5s47.5 -104.833 47.5 -173.5v-224
c0 -6.66699 -3.33301 -10 -10 -10c-6 0 -9 3.33301 -9 10v224c0 62.667 -14.167 115.667 -42.5 159s-72.166 65 -131.499 65c-13.333 0 -24.5 -2.16699 -33.5 -6.5s-19.167 -11.166 -30.5 -20.499l-75 -64c-12.667 -10.667 -21.667 -20.5 -27 -29.5s-8 -19.167 -8 -30.5
v-297c0 -6.66699 -3.33301 -10 -10 -10c-6 -0 -9 3.33301 -9 10z" />
    <glyph glyph-name="i" unicode="i" horiz-adv-x="166" 
d="M67.5 656c-4.33301 4.66699 -6.5 10 -6.5 16s2.16699 11.333 6.5 16s9.5 7 15.5 7s11.167 -2.33301 15.5 -7s6.5 -10 6.5 -16s-2.16699 -11.333 -6.5 -16s-9.5 -7 -15.5 -7s-11.167 2.33301 -15.5 7zM76.5 3c-1.66699 2 -2.5 4.33301 -2.5 7v447c0 2.66699 1 5 3 7
s4.33301 3 7 3s4.83398 -1 6.50098 -3s2.5 -4.33301 2.5 -7v-447c0 -2.66699 -1 -5 -3 -7s-4.33301 -3 -7 -3s-4.83398 1 -6.50098 3z" />
    <glyph glyph-name="j" unicode="j" horiz-adv-x="279" 
d="M181.5 656c-4.33301 4.66699 -6.5 10 -6.5 16s2.16699 11.333 6.5 16s9.5 7 15.5 7s11.167 -2.33301 15.5 -7s6.5 -10 6.5 -16s-2.16699 -11.333 -6.5 -16s-9.5 -7 -15.5 -7s-11.167 2.33301 -15.5 7zM5 -255c0 6.66699 3.33203 10 9.99902 10
c57.333 0 101.333 22 132 66c14 20.667 24.333 45 31 73s10 57.667 10 89v474c0 6.66699 3.33301 10 10 10c2.66699 0 4.83398 -1 6.50098 -3s2.5 -4.33301 2.5 -7v-474c0 -72 -15 -130 -45 -174c-33.333 -49.333 -82.333 -74 -147 -74c-6.66699 0 -10 3.33301 -10 10z" />
    <glyph glyph-name="k" unicode="k" horiz-adv-x="392" 
d="M73 10l0.00390625 701.001c0 6.66699 3 10 9 10c6.66699 0 10 -3.33301 10 -10v-404h65c13.333 0 24.666 2.16699 33.999 6.5s19.333 11.166 30 20.499l74 65c11.333 10 19.666 19.333 24.999 28s9 18.667 11 30c1.33301 6.66699 4.66602 10 9.99902 10
c6 0 9 -3.66699 9 -11c0 -23.333 -13.667 -47 -41 -71l-62 -56c-10 -9.33301 -21 -17.666 -33 -24.999l167 -282c3.33301 -6 5 -10.333 5 -13s-1 -4.83398 -3 -6.50098s-4.33301 -2.5 -7 -2.5c-4 0 -7.66699 3 -11 9l-168 285c-10.667 -4.66699 -26.334 -7 -47.001 -7h-58
v-277c0 -6.66699 -3.33301 -10 -10 -10c-6 -0 -9 3.33301 -9 10z" />
    <glyph glyph-name="l" unicode="l" horiz-adv-x="210" 
d="M99.5 33.5c-13 22.333 -19.502 54.5 -19.502 96.5v581c0 2.66699 1 5 3 7s4.33301 3 7 3s4.83398 -1 6.50098 -3s2.5 -4.33301 2.5 -7v-570c0 -41.333 4.33301 -72 13 -92s24.334 -30 47.001 -30c7.33301 0 11 -3 11 -9c0 -6.66699 -4 -10 -12 -10
c-26 0 -45.5 11.167 -58.5 33.5z" />
    <glyph glyph-name="m" unicode="m" horiz-adv-x="876" 
d="M73 10l-0.00292969 446.996c0 6.66699 3 10 9 10c6.66699 0 10 -3.33301 10 -10v-98c6.66699 8.66699 16 18.334 28 29.001l68 58c12.667 11.333 24.834 19.5 36.501 24.5s25.5 7.5 41.5 7.5c42.667 0 78.5 -11 107.5 -33s50.5 -53.667 64.5 -95l104 96
c12 11.333 24 19.5 36 24.5s26 7.5 42 7.5c65.333 0 112.833 -23.5 142.5 -70.5s44.5 -104.833 44.5 -173.5v-224c0 -6.66699 -3.33301 -10 -10 -10c-6 0 -9 3.33301 -9 10v224c0 63.333 -13.167 116.5 -39.5 159.5s-69.166 64.5 -128.499 64.5
c-13.333 0 -24.666 -2.16699 -33.999 -6.5s-19.333 -11.166 -30 -20.499l-113 -101c8 -30.667 12 -62.667 12 -96v-224c0 -6.66699 -3.33301 -10 -10 -10c-6 0 -9 3.33301 -9 10v224c0 63.333 -13.5 116.5 -40.5 159.5s-70.167 64.5 -129.5 64.5
c-13.333 0 -24.5 -2.16699 -33.5 -6.5s-19.167 -11.166 -30.5 -20.499l-75 -64c-13.333 -11.333 -22.5 -21.666 -27.5 -30.999s-7.5 -19 -7.5 -29v-297c0 -6.66699 -3.33301 -10 -10 -10c-6 -0 -9 3.33301 -9 10z" />
    <glyph glyph-name="n" unicode="n" horiz-adv-x="528" 
d="M73 10l-0.00195312 446.999c0 6.66699 3 10 9 10c6.66699 0 10 -3.33301 10 -10v-98c8 10 19 21 33 33l63 54c12.667 11.333 24.834 19.5 36.501 24.5s25.5 7.5 41.5 7.5c65.333 0 113.833 -23.5 145.5 -70.5s47.5 -104.833 47.5 -173.5v-224
c0 -6.66699 -3.33301 -10 -10 -10c-6 0 -9 3.33301 -9 10v224c0 62.667 -14.167 115.667 -42.5 159s-72.166 65 -131.499 65c-13.333 0 -24.5 -2.16699 -33.5 -6.5s-19.167 -11.166 -30.5 -20.499l-75 -64c-13.333 -11.333 -22.5 -21.333 -27.5 -30s-7.5 -19 -7.5 -31v-296
c0 -6.66699 -3.33301 -10 -10 -10c-6 -0 -9 3.33301 -9 10z" />
    <glyph glyph-name="o" unicode="o" horiz-adv-x="482" 
d="M95.5 59.5c-31.667 47 -47.5 104.834 -47.5 173.501c0 42 7 81.667 21 119s35.333 67.666 64 90.999s64.667 35 108 35c65.333 0 113.833 -23.667 145.5 -71s47.5 -105.333 47.5 -174c0 -42 -7 -81.5 -21 -118.5s-35.333 -67.167 -64 -90.5s-64.667 -35 -108 -35
c-65.333 0 -113.833 23.5 -145.5 70.5zM339 40.501c26 21.667 45.167 49.5 57.5 83.5s18.5 70.333 18.5 109c0 62.667 -14 115.834 -42 159.501s-72 65.5 -132 65.5c-39.333 0 -72 -10.833 -98 -32.5s-45 -49.667 -57 -84s-18 -70.5 -18 -108.5
c0 -62.667 14 -115.834 42 -159.501s71.667 -65.5 131 -65.5c39.333 0 72 10.833 98 32.5z" />
    <glyph glyph-name="p" unicode="p" horiz-adv-x="507" 
d="M73 -244l0.000976562 701c0 6.66699 3 10 9 10c6.66699 0 10 -3.33301 10 -10v-99c4.66699 6.66699 13.667 16 27 28l69 60c13.333 11.333 25.833 19.5 37.5 24.5s25.167 7.5 40.5 7.5c65.333 0 113.833 -23.667 145.5 -71s47.5 -105.333 47.5 -174
c0 -42 -7 -81.5 -21 -118.5s-35.333 -67.167 -64 -90.5s-64.667 -35 -108 -35c-42 0 -77.833 10.5 -107.5 31.5s-51.834 51.5 -66.501 91.5v-356c0 -6.66699 -3.33301 -10 -10 -10c-6 0 -9 3.33301 -9 10zM364.001 40.5c26 21.667 45.001 49.502 57.001 83.502
s18 70.333 18 109c0 63.333 -13.833 116.666 -41.5 159.999s-71.5 65 -131.5 65c-13.333 0 -24.5 -2 -33.5 -6s-19.167 -11 -30.5 -21l-75 -64c-13.333 -11.333 -22.5 -21.5 -27.5 -30.5s-7.5 -19.167 -7.5 -30.5v-73c0 -62.667 14.167 -115.834 42.5 -159.501
s72.166 -65.5 131.499 -65.5c39.333 0 72 10.833 98 32.5z" />
    <glyph glyph-name="q" unicode="q" horiz-adv-x="507" 
d="M415 -244l0.00195312 356c-14.667 -40 -36.834 -70.5 -66.501 -91.5s-65.5 -31.5 -107.5 -31.5c-43.333 0 -79.333 11.667 -108 35s-50 53.5 -64 90.5s-21 76.5 -21 118.5c0 68.667 15.833 126.667 47.5 174s80.167 71 145.5 71c16 0 29.667 -2.5 41 -7.5
s23.666 -13.167 36.999 -24.5l74 -64c8 -6.66699 15.333 -14.667 22 -24v99c0 6.66699 3 10 9 10c6.66699 0 10 -3.33301 10 -10v-701c0 -6.66699 -3.33301 -10 -10 -10c-6 0 -9 3.33301 -9 10zM372.502 73.5c28.333 43.667 42.5 96.832 42.5 159.499v73
c0 12 -2.66699 22.167 -8 30.5s-14.666 18.5 -27.999 30.5l-74 64c-11.333 10 -21.5 17 -30.5 21s-20.167 6 -33.5 6c-60 0 -103.833 -21.667 -131.5 -65s-41.5 -96.666 -41.5 -159.999c0 -38.667 6 -75 18 -109s31 -61.833 57 -83.5s58.667 -32.5 98 -32.5
c59.333 0 103.166 21.833 131.499 65.5z" />
    <glyph glyph-name="r" unicode="r" horiz-adv-x="281" 
d="M73 10l-0.000976562 446.999c0 2.66699 0.833008 5 2.5 7s3.83398 3 6.50098 3c6.66699 0 10 -3.33301 10 -10v-98c8 10 19 21 33 33l63 54c13.333 10.667 25.833 18.667 37.5 24s25.167 8 40.5 8c6.66699 0 10 -3.33301 10 -10s-3.33301 -10 -10 -10
c-13.333 0 -24.5 -2.16699 -33.5 -6.5s-19.167 -11.166 -30.5 -20.499l-75 -64c-13.333 -11.333 -22.5 -21 -27.5 -29s-7.5 -18.667 -7.5 -32v-296c0 -6.66699 -3.33301 -10 -10 -10c-6 -0 -9 3.33301 -9 10z" />
    <glyph glyph-name="s" unicode="s" horiz-adv-x="376" 
d="M117.5 1.5c-24.333 8.33301 -43.8301 21.1602 -58.4971 38.4932c-2 2 -3 4.66699 -3 8c0 2.66699 0.833008 4.83398 2.5 6.50098s3.83398 2.5 6.50098 2.5c3.33301 0 6 -1 8 -3c29.333 -30 68.666 -45 117.999 -45c31.333 0 59.166 9.83301 83.499 29.5
s36.5 44.834 36.5 75.501c0 26 -5.83301 47 -17.5 63s-26 28.5 -43 37.5s-39.833 18.5 -68.5 28.5c-28 10 -50.333 19.333 -67 28s-30.667 20.834 -42 36.501s-17 35.5 -17 59.5c0 34.667 13.5 61.834 40.5 81.501s58.5 29.5 94.5 29.5c22.667 0 44.667 -3.5 66 -10.5
s39.666 -17.5 54.999 -31.5c2 -2 3 -4.33301 3 -7s-1 -5 -3 -7s-4 -3 -6 -3c-2.66699 0 -5.33398 1 -8.00098 3c-19.333 12.667 -36.833 21.834 -52.5 27.501s-33.834 8.5 -54.501 8.5c-30.667 0 -57.5 -8 -80.5 -24s-34.5 -38.333 -34.5 -67
c0 -20 5.16699 -36.667 15.5 -50s23 -23.666 38 -30.999s35.5 -15.666 61.5 -24.999c30.667 -11.333 55.167 -22 73.5 -32s34 -24.167 47 -42.5s19.5 -42.5 19.5 -72.5c0 -24 -6.66699 -45.5 -20 -64.5s-30.666 -33.833 -51.999 -44.5s-44 -16 -68 -16
c-24.667 0 -49.167 4.16699 -73.5 12.5z" />
    <glyph glyph-name="t" unicode="t" horiz-adv-x="278" 
d="M115 75c-29.333 43.333 -44 99.667 -44 169v389c0 6.66699 3.33301 10 10 10c6 0 9 -3.33301 9 -10v-166h129c6.66699 0 10 -3.33301 10 -10s-3.33301 -10 -10 -10h-129v-203c0 -30 3.33301 -58.667 10 -86s17 -51 31 -71c30 -44.667 74 -67 132 -67
c6.66699 0 10 -3.33301 10 -10s-3.33301 -10 -10 -10c-64 0 -113.333 25 -148 75z" />
    <glyph glyph-name="u" unicode="u" horiz-adv-x="516" 
d="M115.5 59.5c-31 47 -46.501 104.835 -46.501 173.502v224c0 6.66699 3 10 9 10c6.66699 0 10 -3.33301 10 -10v-224c0 -62.667 13.833 -115.834 41.5 -159.501s70.5 -65.5 128.5 -65.5c59.333 0 102.5 21.667 129.5 65s40.5 96.666 40.5 159.999v224c0 6.66699 3 10 9 10
c6.66699 0 10 -3.33301 10 -10v-224c0 -69.333 -15.167 -127.333 -45.5 -174s-78.166 -70 -143.499 -70c-64 0 -111.5 23.5 -142.5 70.5z" />
    <glyph glyph-name="v" unicode="v" horiz-adv-x="427" 
d="M208.5 -9c-1.66699 1.33301 -2.83398 2.66797 -3.50098 4.00098l-184 453c-2 5.33301 -3 8.66602 -3 9.99902c0 2.66699 1 4.83398 3 6.50098s4.33301 2.5 7 2.5c4 0 7 -2.33301 9 -7l177 -436l177 436c2 4.66699 5 7 9 7c2.66699 0 4.83398 -0.833008 6.50098 -2.5
s2.5 -3.83398 2.5 -6.50098c0 -3.33301 -1.33301 -8 -4 -14l-183 -449c-1.33301 -4 -4 -6 -8 -6c-2 0 -3.83301 0.666992 -5.5 2z" />
    <glyph glyph-name="w" unicode="w" horiz-adv-x="703" 
d="M681 459c0 -2.66699 -1.00195 -7 -3.00195 -13l-155 -450c-0.666992 -2 -2 -3.66699 -4 -5s-4 -2 -6 -2s-4 0.666992 -6 2s-3.33301 3 -4 5l-151 430l-150 -430c-0.666992 -2 -2 -3.66699 -4 -5s-4 -2 -6 -2c-5.33301 0 -8.66602 2.33301 -9.99902 7l-158 451
c-2 5.33301 -3 9.33301 -3 12s1 4.66699 3 6s4.33301 2 7 2c4 0 7 -2.33301 9 -7l152 -430l149 425c3.33301 8 7.33301 12 12 12s8.33398 -4 11.001 -12l149 -426l147 424c2 5.33301 3.83301 9 5.5 11s4.16699 3 7.5 3c5.33301 0 8 -2.66699 8 -8z" />
    <glyph glyph-name="x" unicode="x" horiz-adv-x="431" 
d="M35 11c0 32.667 17.0039 66.667 51.0039 102l117 120l-111 120c-14.667 16 -26.834 33 -36.501 51s-14.5 35 -14.5 51c0 8 3.33301 12 10 12c5.33301 0 8.66602 -3 9.99902 -9c2 -15.333 6.16699 -30.166 12.5 -44.499s17.166 -29.833 32.499 -46.5l111 -120l110 120
c15.333 16.667 26.166 32.167 32.499 46.5s10.5 29.166 12.5 44.499c1.33301 6 4.66602 9 9.99902 9c6.66699 0 10 -4 10 -12c0 -16 -4.83301 -33 -14.5 -51s-21.834 -35 -36.501 -51l-113 -120l117 -120c34 -35.333 51 -69.333 51 -102c0 -7.33301 -3.33301 -11 -10 -11
c-5.33301 0 -8.66602 2.66699 -9.99902 8c-1.33301 17.333 -5.33301 32.833 -12 46.5s-17.667 28.5 -33 44.5l-115 120l-116 -120c-15.333 -16 -26.333 -30.833 -33 -44.5s-10.667 -29.167 -12 -46.5c-1.33301 -5.33301 -4.66602 -8 -9.99902 -8
c-6.66699 0 -10 3.66699 -10 11z" />
    <glyph glyph-name="y" unicode="y" horiz-adv-x="515" 
d="M238 -255c0 6.66699 3.33301 10.001 10 10.001c51.333 0 92 17.333 122 52c18 20.667 31.333 46.5 40 77.5s13 63.833 13 98.5v114c-6 -7.33301 -14.333 -16 -25 -26l-58 -50c-12.667 -11.333 -24.834 -19.5 -36.501 -24.5s-25.5 -7.5 -41.5 -7.5
c-65.333 0 -113.833 23.5 -145.5 70.5s-47.5 104.833 -47.5 173.5v224c0 6.66699 3.33301 10 10 10c6 0 9 -3.33301 9 -10v-224c0 -62.667 14.167 -115.834 42.5 -159.501s72.166 -65.5 131.499 -65.5c13.333 0 24.5 2.16699 33.5 6.5s19.167 11.166 30.5 20.499l61 52
c12.667 11.333 21.834 21.5 27.501 30.5s8.5 18.833 8.5 29.5v310c0 6.66699 3 10 9 10c6.66699 0 10 -3.33301 10 -10v-474c0 -37.333 -4.83301 -72.666 -14.5 -105.999s-24.167 -61.333 -43.5 -84c-33.333 -38.667 -78.666 -58 -135.999 -58
c-6.66699 0 -10 3.33301 -10 10z" />
    <glyph glyph-name="z" unicode="z" horiz-adv-x="426" 
d="M379 444l-309 -424h299c6.66699 0 10 -3.33301 10 -10s-3.33301 -10 -10 -10h-319c-6 0 -9 3 -9 9c0 2.66699 2 6.66699 6 12l309 426h-292c-6.66699 0 -10 3.33301 -10 10s3.33301 10 10 10h312c6 0 9 -3 9 -9c0 -4 -2 -8.66699 -6 -14z" />
    <glyph glyph-name="braceleft" unicode="{" horiz-adv-x="437" 
d="M207 -66.5c-32 47 -48.001 104.832 -48.001 173.499v53c0 26.667 -7.5 49.334 -22.5 68.001s-35.167 28 -60.5 28h-14c-7.33301 0 -13 0.5 -17 1.5s-6 3.83301 -6 8.5s2 7.5 6 8.5s9.66699 1.5 17 1.5h14c25.333 0 45.5 9 60.5 27s22.5 40.333 22.5 67v81
c0 68.667 16 126.5 48 173.5s80.667 70.5 146 70.5c6 0 9 -3.33301 9 -10s-3 -10 -9 -10c-59.333 0 -103.5 -21.833 -132.5 -65.5s-42.833 -96.5 -41.5 -158.5l1 -49c0.666992 -32.667 -3.16602 -60.5 -11.499 -83.5s-24.833 -40.5 -49.5 -52.5
c22.667 -10.667 38.334 -26.5 47.001 -47.5s13 -45.167 13 -72.5v-39c0 -62.667 14.167 -115.667 42.5 -159s72.166 -65 131.499 -65c6 0 9 -3.33301 9 -10s-3 -10 -9 -10c-65.333 0 -114 23.5 -146 70.5z" />
    <glyph glyph-name="bar" unicode="|" horiz-adv-x="254" 
d="M120 3c-2 2 -3 4.33301 -3 7v701c0 2.66699 1 5 3 7s4.33301 3 7 3s5 -1 7 -3s3 -4.33301 3 -7v-701c0 -2.66699 -1 -5 -3 -7s-4.33301 -3 -7 -3s-5 1 -7 3z" />
    <glyph glyph-name="braceright" unicode="}" horiz-adv-x="437" 
d="M75 -127c0 6.66699 2.99902 10.001 8.99902 10.001c59.333 0 103.166 21.667 131.499 65s42.5 96.333 42.5 159v39c0 27.333 4.33301 51.5 13 72.5s24.334 36.833 47.001 47.5c-24.667 12 -41.167 29.5 -49.5 52.5s-12.166 50.833 -11.499 83.5l1 49
c1.33301 62 -12.5 114.833 -41.5 158.5s-73.167 65.5 -132.5 65.5c-6 0 -9 3.33301 -9 10s3 10 9 10c65.333 0 114 -23.5 146 -70.5s48 -104.833 48 -173.5v-81c0 -26.667 7.5 -49 22.5 -67s35.167 -27 60.5 -27h14c7.33301 0 13 -0.5 17 -1.5s6 -3.83301 6 -8.5
s-2 -7.5 -6 -8.5s-9.66699 -1.5 -17 -1.5h-14c-25.333 0 -45.5 -9.33301 -60.5 -28s-22.5 -41.334 -22.5 -68.001v-53c0 -68.667 -16 -126.5 -48 -173.5s-80.667 -70.5 -146 -70.5c-6 0 -9 3.33301 -9 10z" />
    <glyph glyph-name="asciitilde" unicode="~" 
d="M37 560.5c-1.33301 1.66699 -2 3.5 -2 5.5c0 3.33301 1.33301 8.33301 4 15c12.667 32 30.667 59 54 81s50.666 33 81.999 33c23.333 0 42.5 -5.16699 57.5 -15.5s31.167 -25.5 48.5 -45.5c16 -18.667 30.667 -32.667 44 -42s29.666 -14 48.999 -14
c22 0 40.833 5.83301 56.5 17.5s27.334 23.834 35.001 36.501s16.834 29.334 27.501 50.001c4.66699 8.66699 9 13 13 13c2.66699 0 4.66699 -0.833008 6 -2.5s2 -3.5 2 -5.5c0 -3.33301 -1.33301 -8.33301 -4 -15c-12.667 -32 -30.667 -59 -54 -81s-50.666 -33 -81.999 -33
c-23.333 0 -42.5 5.16699 -57.5 15.5s-31.167 25.5 -48.5 45.5c-16 18.667 -30.667 32.667 -44 42s-29.666 14 -48.999 14c-22 0 -40.833 -5.83301 -56.5 -17.5s-27.334 -23.834 -35.001 -36.501s-16.834 -29.334 -27.501 -50.001c-4 -8.66699 -8.33301 -13 -13 -13
c-2.66699 0 -4.66699 0.833008 -6 2.5z" />
    <glyph glyph-name="uni00A0" unicode="&#xa0;" horiz-adv-x="205" 
 />
    <glyph glyph-name="exclamdown" unicode="&#xa1;" horiz-adv-x="236" 
d="M133.5 460c4.33301 -4.66699 6.5 -10 6.5 -16s-2.16699 -11.333 -6.5 -16s-9.5 -7 -15.5 -7s-11.167 2.33301 -15.5 7s-6.5 10 -6.5 16s2.16699 11.333 6.5 16s9.5 7 15.5 7s11.167 -2.33301 15.5 -7zM128 284v-492c0 -6.66699 -3.33301 -10 -10 -10s-10 3.33301 -10 10
v492c0 6.66699 3.33301 10 10 10s10 -3.33301 10 -10z" />
    <glyph glyph-name="cent" unicode="&#xa2;" horiz-adv-x="496" 
d="M263 -102l0.00292969 92.002c-58.667 5.33301 -102.167 31 -130.5 77s-42.5 101.333 -42.5 166c0 40 6.16699 77.833 18.5 113.5s31.5 65.334 57.5 89.001s58.333 37.5 97 41.5v98c0 6.66699 3.33301 10 10 10s10 -3.33301 10 -10v-97c22.667 0 44.5 -3.5 65.5 -10.5
s39.167 -17.833 54.5 -32.5c2 -2 3 -4.33301 3 -7s-0.833008 -4.83398 -2.5 -6.50098s-3.5 -2.5 -5.5 -2.5s-4.66699 1 -8 3c-18.667 13.333 -35.834 22.666 -51.501 27.999s-34.167 8 -55.5 8v-450c21.333 0 39.666 2.83301 54.999 8.5s32.666 15.167 51.999 28.5
c3.33301 2 6 3 8 3s3.83301 -0.833008 5.5 -2.5s2.5 -3.83398 2.5 -6.50098s-1 -5 -3 -7c-15.333 -14.667 -33.5 -25.5 -54.5 -32.5s-42.833 -10.5 -65.5 -10.5v-91c0 -6 -3.33301 -9 -10 -9s-10 3 -10 9zM263.003 457.002
c-51.333 -5.33301 -89.668 -29.834 -115.001 -73.501s-38 -93.834 -38 -150.501c0 -59.333 12.333 -110.166 37 -152.499s63.334 -66.166 116.001 -71.499v448z" />
    <glyph glyph-name="sterling" unicode="&#xa3;" horiz-adv-x="474" 
d="M127 10l0.000976562 323h-77c-6.66699 0 -10 3.33301 -10 10s3.33301 10 10 10h77v69c0 84 21.333 150.667 64 200s109 74 199 74c6.66699 0 10 -3.33301 10 -10s-3.33301 -10 -10 -10c-84.667 0 -146.334 -22.833 -185.001 -68.5s-58 -107.5 -58 -185.5v-69h181
c6.66699 0 10 -3.33301 10 -10s-3.33301 -10 -10 -10h-181v-313h257c6.66699 0 10 -3.33301 10 -10s-3.33301 -10 -10 -10h-267c-6.66699 -0 -10 3.33301 -10 10z" />
    <glyph glyph-name="currency" unicode="&#xa4;" horiz-adv-x="516" 
d="M93 112.5c-2 1.66699 -3 3.83398 -3 6.50098s1.66699 6.66699 5 12l62 95c-20.667 30 -31 68.667 -31 116s10.333 86 31 116l-62 95c-3.33301 5.33301 -5 9.33301 -5 12s1 4.83398 3 6.50098s4.33301 2.5 7 2.5c4 0 7.66699 -2.66699 11 -8l59 -92c22.667 24 52 36 88 36
s65.333 -12 88 -36l59 92c3.33301 5.33301 7 8 11 8c2.66699 0 5 -0.833008 7 -2.5s3 -3.83398 3 -6.50098s-1.66699 -6.66699 -5 -12l-62 -95c20.667 -30 31 -68.667 31 -116s-10.333 -86 -31 -116l62 -95c3.33301 -5.33301 5 -9.33301 5 -12s-1 -4.83398 -3 -6.50098
s-4.33301 -2.5 -7 -2.5c-4 0 -7.66699 2.66699 -11 8l-59 92c-22.667 -24 -52 -36 -88 -36s-65.333 12 -88 36l-59 -92c-3.33301 -5.33301 -7 -8 -11 -8c-2.66699 0 -5 0.833008 -7 2.5zM344 236.5c18.667 29 28 64.167 28 105.5s-9.33301 76.5 -28 105.5
s-47.334 43.5 -86.001 43.5s-67.334 -14.5 -86.001 -43.5s-28 -64.167 -28 -105.5s9.33301 -76.5 28 -105.5s47.334 -43.5 86.001 -43.5s67.334 14.5 86.001 43.5z" />
    <glyph glyph-name="yen" unicode="&#xa5;" horiz-adv-x="574" 
d="M519 666l-170.002 -318h125c6.66699 0 10 -3.33301 10 -10c0 -6 -3.33301 -9 -10 -9h-135l-42 -79v-52h149c6.66699 0 10 -3.33301 10 -10c0 -6 -3.33301 -9 -10 -9h-149v-169c0 -6.66699 -3 -10 -9 -10c-6.66699 -0 -10 3.33301 -10 10v169h-150c-6.66699 0 -10 3 -10 9
c0 6.66699 3.33301 10 10 10h150v52l-43 79h-136c-6 0 -9 3 -9 9c0 6.66699 3 10 9 10h126l-172 321c-2 4 -3 7 -3 9s0.833008 3.66699 2.5 5s3.83398 2 6.50098 2c4 0 7 -2 9 -6l220 -409l217 408c2.66699 4.66699 6 7 10 7c2.66699 0 4.83398 -0.666992 6.50098 -2
s2.5 -3 2.5 -5c0 -2.66699 -1.66699 -6.66699 -5 -12z" />
    <glyph glyph-name="brokenbar" unicode="&#xa6;" horiz-adv-x="254" 
d="M120 453c-2 2 -3 4.33301 -3 7v251c0 2.66699 1 5 3 7s4.33301 3 7 3s5 -1 7 -3s3 -4.33301 3 -7v-251c0 -2.66699 -1 -5 -3 -7s-4.33301 -3 -7 -3s-5 1 -7 3zM120 3c-2 2 -3 4.33301 -3 7v251c0 2.66699 1 5 3 7s4.33301 3 7 3s5 -1 7 -3s3 -4.33301 3 -7v-251
c0 -2.66699 -1 -5 -3 -7s-4.33301 -3 -7 -3s-5 1 -7 3z" />
    <glyph glyph-name="section" unicode="&#xa7;" horiz-adv-x="387" 
d="M98.5 1.5c-24.333 8.33301 -43.834 21.1631 -58.501 38.4961c-2 2 -3 4.66699 -3 8c0 2.66699 0.833008 4.83398 2.5 6.50098s3.83398 2.5 6.50098 2.5c3.33301 0 6 -1 8 -3c29.333 -30 68.666 -45 117.999 -45c30.667 0 57.834 9.5 81.501 28.5s35.5 43.5 35.5 73.5
c0 23.333 -5.16699 42.666 -15.5 57.999s-23.166 27.5 -38.499 36.5s-36.333 19.167 -63 30.5c-13.333 5.33301 -23.333 9.66602 -30 12.999c-33.333 15.333 -58.833 33 -76.5 53s-26.5 48 -26.5 84c0 34 13 61.833 39 83.5s56.333 32.834 91 33.501
c-36.667 13.333 -64.667 28 -84 44s-29 40.333 -29 73c0 34.667 13.5 61.667 40.5 81s58.167 29 93.5 29c22.667 0 44.667 -3.5 66 -10.5s39.666 -17.5 54.999 -31.5c2 -2 3 -4.33301 3 -7s-1 -5 -3 -7s-4 -3 -6 -3s-4.66699 1 -8 3
c-19.333 12.667 -36.833 21.834 -52.5 27.501s-33.834 8.5 -54.501 8.5c-30 0 -56.5 -7.83301 -79.5 -23.5s-34.5 -37.834 -34.5 -66.501c0 -21.333 5.66699 -38.5 17 -51.5s24 -22.667 38 -29s37.667 -15.5 71 -27.5c40 -14 70.833 -30.667 92.5 -50
s32.5 -48.666 32.5 -87.999c0 -24 -6.66699 -45.667 -20 -65s-30.666 -34.166 -51.999 -44.499s-44 -15.166 -68 -14.499c40 -15.333 70.333 -33 91 -53s31 -48.667 31 -86c0 -24 -6.5 -45.167 -19.5 -63.5s-30 -32.666 -51 -42.999s-43.167 -15.5 -66.5 -15.5
c-24.667 0 -49.167 4.16699 -73.5 12.5zM271.499 298.997c23.667 20 35.5 45 35.5 75c0 32.667 -12.833 59.167 -38.5 79.5s-57.834 30.5 -96.501 30.5c-30 0 -56.333 -9 -79 -27s-34 -41.667 -34 -71c0 -36 12.667 -64.5 38 -85.5s56.333 -31.5 93 -31.5
c30.667 0 57.834 10 81.501 30z" />
    <glyph glyph-name="dieresis" unicode="&#xa8;" horiz-adv-x="345" 
d="M83.5 562c-4.33301 4.66699 -6.5 10 -6.5 16s2.16699 11.333 6.5 16s9.5 7 15.5 7s11.167 -2.33301 15.5 -7s6.5 -10 6.5 -16s-2.16699 -11.333 -6.5 -16s-9.5 -7 -15.5 -7s-11.167 2.33301 -15.5 7zM230.5 562c-4.33301 4.66699 -6.5 10 -6.5 16s2.16699 11.333 6.5 16
s9.5 7 15.5 7s11.167 -2.33301 15.5 -7s6.5 -10 6.5 -16s-2.16699 -11.333 -6.5 -16s-9.5 -7 -15.5 -7s-11.167 2.33301 -15.5 7z" />
    <glyph glyph-name="copyright" unicode="&#xa9;" horiz-adv-x="663" 
d="M203.5 102.5c-35 24.333 -61.001 56.8311 -78.001 97.498s-25.5 86.334 -25.5 137.001s8.5 96.334 25.5 137.001s43 72.834 78 96.501s78.167 35.5 129.5 35.5c76 0 133.333 -25.333 172 -76s58 -115 58 -193c0 -50.667 -8.33301 -96.334 -25 -137.001
s-42.167 -73.167 -76.5 -97.5s-77.166 -36.5 -128.499 -36.5s-94.5 12.167 -129.5 36.5zM490.999 155.998c34.667 47.333 51.999 107.666 51.999 180.999c0 72.667 -17.333 132.5 -52 179.5s-87.334 70.5 -158.001 70.5c-70 0 -123 -23.5 -159 -70.5
s-54 -106.833 -54 -179.5c0 -73.333 17.833 -133.666 53.5 -180.999s88.834 -71 159.501 -71s123.334 23.667 158.001 71zM240.998 212.998c-20.667 36 -31 78.334 -31 127.001c0 47.333 10.667 89.166 32 125.499s54 54.5 98 54.5c13.333 0 27.333 -2.66699 42 -8
s27.334 -12.333 38.001 -21c4.66699 -4 7 -7.33301 7 -10c0 -2 -0.666992 -3.83301 -2 -5.5s-3.33301 -2.5 -6 -2.5s-7.66699 2.33301 -15 7c-21.333 13.333 -42.666 20 -63.999 20c-38 0 -65.833 -16.167 -83.5 -48.5s-26.5 -69.5 -26.5 -111.5
c0 -43.333 8.5 -81 25.5 -113s45.167 -48 84.5 -48c21.333 0 42.666 6.66699 63.999 20c7.33301 4.66699 12.333 7 15 7s4.66699 -0.833008 6 -2.5s2 -3.5 2 -5.5c0 -2.66699 -2.33301 -6 -7 -10c-10.667 -8.66699 -23.334 -15.667 -38.001 -21s-28.667 -8 -42 -8
c-45.333 0 -78.333 18 -99 54z" />
    <glyph glyph-name="ordfeminine" unicode="&#xaa;" horiz-adv-x="354" 
d="M66.5 437.5c-22.333 32.333 -33.5 71.499 -33.5 117.499c0 44.667 11.5 83.5 34.5 116.5s57.167 49.5 102.5 49.5c46.667 0 81 -16.167 103 -48.5s33 -72.166 33 -119.499v-146c0 -2.66699 -1 -5.16699 -3 -7.5s-4.33301 -3.5 -7 -3.5s-5 1 -7 3s-3 4.66699 -3 8v57
c-4.66699 -6 -10.667 -12 -18 -18l-45 -37c-8.66699 -7.33301 -17.167 -12.5 -25.5 -15.5s-17.833 -4.5 -28.5 -4.5c-46 0 -80.167 16.167 -102.5 48.5zM212 424.999l51.001 42.999c8.66699 7.33301 14.667 13.833 18 19.5s5 12.167 5 19.5v46
c0 41.333 -9.33301 76.333 -28 105s-48 43 -88 43c-38 0 -66.833 -14.5 -86.5 -43.5s-29.5 -63.167 -29.5 -102.5c0 -41.333 9.33301 -76.166 28 -104.499s47.667 -42.5 87 -42.5c15.333 0 29.666 5.66699 42.999 17z" />
    <glyph glyph-name="guillemotleft" unicode="&#xab;" horiz-adv-x="509" 
d="M260 85l-209 146c-2.66699 2 -4 4.66699 -4 8s1.33301 6 4 8l209 146c3.33301 2 6 3 8 3s4 -0.833008 6 -2.5s3 -3.83398 3 -6.50098c0 -3.33301 -2 -6.66602 -6 -9.99902l-198 -138l198 -138c4 -3.33301 6 -6.66602 6 -9.99902c0 -2.66699 -1 -4.83398 -3 -6.50098
s-4 -2.5 -6 -2.5s-4.66699 1 -8 3zM430 85l-209 146c-2.66699 2 -4 4.66699 -4 8s1.33301 6 4 8l209 146c2.66699 2 5.33398 3 8.00098 3c2 0 4 -0.833008 6 -2.5s3 -3.83398 3 -6.50098c0 -3.33301 -2 -6.66602 -6 -9.99902l-198 -138l198 -138
c4 -3.33301 6 -6.66602 6 -9.99902c0 -2.66699 -1 -4.83398 -3 -6.50098s-4 -2.5 -6 -2.5c-2.66699 0 -5.33398 1 -8.00098 3z" />
    <glyph glyph-name="logicalnot" unicode="&#xac;" 
d="M459.5 186c-1.66699 2 -2.49902 4.33301 -2.49902 7v127h-375c-2.66699 0 -4.83398 1 -6.50098 3s-2.5 4.33301 -2.5 7s0.833008 5 2.5 7s3.83398 3 6.50098 3h384c2.66699 0 5 -1 7 -3s3 -4.33301 3 -7v-137c0 -2.66699 -1 -5 -3 -7s-4.33301 -3 -7 -3
s-4.83398 1 -6.50098 3z" />
    <glyph glyph-name="uni00AD" unicode="&#xad;" horiz-adv-x="444" 
d="M72.5 233c-1.66699 2 -2.5 4.33301 -2.5 7s0.833008 5 2.5 7s3.83398 3 6.50098 3h284c2.66699 0 5 -1 7 -3s3 -4.33301 3 -7s-1 -5 -3 -7s-4.33301 -3 -7 -3h-284c-2.66699 0 -4.83398 1 -6.50098 3z" />
    <glyph glyph-name="registered" unicode="&#xae;" horiz-adv-x="663" 
d="M505 530c38.667 -50.667 57.999 -115.002 57.999 -193.002c0 -50.667 -8.33301 -96.334 -25 -137.001s-42.167 -73.167 -76.5 -97.5s-77.166 -36.5 -128.499 -36.5s-94.5 12.167 -129.5 36.5s-61 56.833 -78 97.5s-25.5 86.334 -25.5 137.001s8.5 96.334 25.5 137.001
s43 72.834 78 96.501s78.167 35.5 129.5 35.5c76 0 133.333 -25.333 172 -76zM490.999 155.998c34.667 47.333 51.999 107.666 51.999 180.999c0 72.667 -17.333 132.5 -52 179.5s-87.334 70.5 -158.001 70.5c-70 0 -123 -23.5 -159 -70.5s-54 -106.833 -54 -179.5
c0 -73.333 17.833 -133.666 53.5 -180.999s88.834 -71 159.501 -71s123.334 23.667 158.001 71zM448.998 173.998c1.33301 -2.66699 2 -4.99902 2 -6.99902c0 -2.66699 -1 -4.83398 -3 -6.50098s-4.33301 -2.5 -7 -2.5c-3.33301 0 -6 2 -8 6l-77 149
c-4 -0.666992 -10.667 -1 -20 -1h-69v-143c0 -6.66699 -3.33301 -10 -10 -10s-10 3.33301 -10 10v333c0 2.66699 1 5 3 7s4.33301 3 7 3h89c58 0 87 -32.333 87 -97v-6c0 -50 -19.333 -80.667 -58 -92zM335.998 329.999c29.333 0 49.5 6.83203 60.5 20.499
s16.5 32.834 16.5 57.501v6c0 24.667 -4.83301 44.167 -14.5 58.5s-27.167 21.5 -52.5 21.5h-79v-164h69z" />
    <glyph glyph-name="macron" unicode="&#xaf;" horiz-adv-x="302" 
d="M59 560c-2 2 -3 4.33301 -3 7s1 5 3 7s4.33301 3 7 3h169c2.66699 0 5 -1 7 -3s3 -4.33301 3 -7s-1 -5 -3 -7s-4.33301 -3 -7 -3h-169c-2.66699 0 -5 1 -7 3z" />
    <glyph glyph-name="degree" unicode="&#xb0;" horiz-adv-x="340" 
d="M92.5 535c-21 21.333 -31.5 47 -31.5 77s10.5 55.667 31.5 77s46.5 32 76.5 32s55.667 -10.667 77 -32s32 -47 32 -77s-10.667 -55.667 -32 -77s-47 -32 -77 -32s-55.5 10.667 -76.5 32zM232 549c17.333 17.333 26 38.333 26 63s-8.66699 45.667 -26 63
s-38.333 26 -63 26s-45.667 -8.66699 -63 -26s-26 -38.333 -26 -63s8.66699 -45.667 26 -63s38.333 -26 63 -26s45.667 8.66699 63 26z" />
    <glyph glyph-name="plusminus" unicode="&#xb1;" 
d="M268 108c-2 2 -3 4.33301 -3 7v200h-187c-2.66699 0 -5 0.833008 -7 2.5s-3 3.83398 -3 6.50098s1 5 3 7s4.33301 3 7 3h187v188c0 2.66699 1 5 3 7s4.33301 3 7 3s5 -1 7 -3s3 -4.33301 3 -7v-188h187c2.66699 0 5 -1 7 -3s3 -4.33301 3 -7s-1 -4.83398 -3 -6.50098
s-4.33301 -2.5 -7 -2.5h-187v-200c0 -2.66699 -1 -5 -3 -7s-4.33301 -3 -7 -3s-5 1 -7 3zM76 3c-2 2 -3 4.33301 -3 7s1 5 3 7s4.33301 3 7 3h383c2.66699 0 5 -1 7 -3s3 -4.33301 3 -7s-1 -5 -3 -7s-4.33301 -3 -7 -3h-383c-2.66699 0 -5 1 -7 3z" />
    <glyph glyph-name="uni00B2" unicode="&#xb2;" horiz-adv-x="354" 
d="M63 376c-2 2 -3 4.66797 -3 8.00098v41c0 32 11 57.667 33 77c10 8.66699 21.667 16 35 22s31 12.667 53 20c30 10 52.833 20.333 68.5 31s23.5 26 23.5 46c0 25.333 -8 44.833 -24 58.5s-39.667 20.5 -71 20.5c-19.333 0 -35.5 -2.83301 -48.5 -8.5
s-25.167 -13.5 -36.5 -23.5c-3.33301 -3.33301 -6.33301 -5 -9 -5s-5 1 -7 3s-3 4.33301 -3 7c0 3.33301 1.66699 6.66602 5 9.99902c10.667 12 25 21.333 43 28s36.667 10 56 10c36.667 0 65.167 -9 85.5 -27s30.5 -42.333 30.5 -73c0 -18 -4.83301 -32.667 -14.5 -44
s-21 -20 -34 -26s-32.5 -14 -58.5 -24c-35.333 -13.333 -61.833 -27 -79.5 -41s-26.5 -33.333 -26.5 -58v-34h184c2.66699 0 5.16699 -1 7.5 -3s3.5 -4.33301 3.5 -7c0 -3.33301 -1 -6 -3 -8s-4.66699 -3 -8 -3h-195c-2.66699 0 -5 1 -7 3z" />
    <glyph glyph-name="uni00B3" unicode="&#xb3;" horiz-adv-x="327" 
d="M267 473v-5.00098c0 -31.333 -9.5 -54.166 -28.5 -68.499s-47.167 -21.5 -84.5 -21.5h-83c-2.66699 0 -5.16699 1.16699 -7.5 3.5s-3.5 4.83301 -3.5 7.5s1.16699 5 3.5 7s4.83301 3 7.5 3h83c32.667 0 56 5 70 15s21 27.667 21 53v7c0 25.333 -7 43 -21 53
s-37.333 15 -70 15h-54c-2.66699 0 -5 1 -7 3s-3 4.33301 -3 7s1 5.16699 3 7.5s4.33301 3.5 7 3.5h54c32.667 0 56 5.16699 70 15.5s21 28.166 21 53.499c0 23.333 -7.16699 40.5 -21.5 51.5s-37.5 16.5 -69.5 16.5h-80c-6.66699 0 -10 3.33301 -10 10c0 3.33301 1 6 3 8
s4.33301 3 7 3h80c37.333 0 65.5 -7 84.5 -21s28.5 -36.667 28.5 -68c0 -39.333 -16.333 -65.666 -49 -78.999c32.667 -12 49 -38.667 49 -80z" />
    <glyph glyph-name="acute" unicode="&#xb4;" horiz-adv-x="250" 
d="M64 527c-2 2 -3 4.33301 -3 7c0 3.33301 1.66699 6 5 8l103 70c4.66699 3.33301 8.33398 5 11.001 5s5 -1 7 -3s3 -4.33301 3 -7c0 -3.33301 -1.66699 -6 -5 -8l-103 -70c-4.66699 -3.33301 -8.33398 -5 -11.001 -5s-5 1 -7 3z" />
    <glyph glyph-name="uni00B5" unicode="&#xb5;" horiz-adv-x="516" 
d="M72 -138c-2 2 -3 4.33398 -3 7.00098v588c0 6.66699 3.33301 10 10 10c6 0 9 -3.33301 9 -10v-224c0 -62.667 14.167 -115.834 42.5 -159.501s72.166 -65.5 131.499 -65.5c13.333 0 24.5 2 33.5 6s19.167 11 30.5 21l70 59c21.333 18 32 36.333 32 55v308
c0 6.66699 3 10 9 10c6.66699 0 10 -3.33301 10 -10v-309c0 -24.667 -13 -48 -39 -70l-68 -57c-13.333 -11.333 -25.666 -19.5 -36.999 -24.5s-25 -7.5 -41 -7.5c-44 0 -80.333 11 -109 33s-50 52 -64 90v-243c0 -2.66699 -1 -5 -3 -7s-4.33301 -3 -7 -3s-5 1 -7 3z" />
    <glyph glyph-name="paragraph" unicode="&#xb6;" horiz-adv-x="522" 
d="M345 -244v258.001c-26.667 -16.667 -59 -25 -97 -25c-43.333 0 -79.333 11.667 -108 35s-50 53.5 -64 90.5s-21 76.5 -21 118.5c0 68.667 15.833 126.667 47.5 174s80.167 71 145.5 71c18 0 32.833 -3.16699 44.5 -9.5s22.5 -13.833 32.5 -22.5
s16.667 -14.334 20 -17.001v28c0 6.66699 3 10 9 10c6.66699 0 10 -3.33301 10 -10v-45c30 -24.667 49.333 -42.667 58 -54v99c0 6.66699 3 10 9 10c6.66699 0 10 -3.33301 10 -10v-701c0 -6.66699 -3.33301 -10 -10 -10c-6 0 -9 3.33301 -9 10v356
c-12.667 -34 -32 -62 -58 -84v-272c0 -6.66699 -3.33301 -10 -10 -10c-6 0 -9 3.33301 -9 10zM345 38.001v364.998c-4 4 -12 11.333 -24 22s-24 18.834 -36 24.501s-24.333 8.5 -37 8.5c-60 0 -103.833 -21.667 -131.5 -65s-41.5 -96.666 -41.5 -159.999
c0 -38.667 6 -75 18 -109s31 -61.833 57 -83.5s58.667 -32.5 98 -32.5c38 0 70.333 10 97 30zM408 134.999c9.33301 31.333 14 64.002 14 98.002v73c0 19.333 -12 39.666 -36 60.999l-22 18v-329c20 21.333 34.667 47.666 44 78.999z" />
    <glyph glyph-name="periodcentered" unicode="&#xb7;" horiz-adv-x="169" 
d="M68.5 215c-4.33301 4.66699 -6.5 10 -6.5 16s2.16699 11.333 6.5 16s9.5 7 15.5 7s11.167 -2.33301 15.5 -7s6.5 -10 6.5 -16s-2.16699 -11.333 -6.5 -16s-9.5 -7 -15.5 -7s-11.167 2.33301 -15.5 7z" />
    <glyph glyph-name="cedilla" unicode="&#xb8;" horiz-adv-x="252" 
d="M170 -94c0 -13.333 -4.33203 -24.833 -12.999 -34.5s-20.334 -14.5 -35.001 -14.5c-10.667 0 -21.167 2.83301 -31.5 8.5s-15.5 11.5 -15.5 17.5c0 2 0.666992 3.83301 2 5.5s3 2.5 5 2.5s7.16699 -2.83301 15.5 -8.5s16.5 -8.5 24.5 -8.5s14.833 3 20.5 9
s8.5 13.667 8.5 23c0 17.333 -9.66699 27.333 -29 30c-3.33301 0.666992 -7.5 1.16699 -12.5 1.5s-8.66699 1 -11 2s-3.5 2.83301 -3.5 5.5c0 3.33301 0.666992 6.33301 2 9l18 46h19l-17 -45c35.333 -2 53 -18.333 53 -49z" />
    <glyph glyph-name="uni00B9" unicode="&#xb9;" horiz-adv-x="141" 
d="M63 376c-2 2 -3 4.66699 -3 8v326c0 3.33301 1.16699 6 3.5 8s4.83301 3 7.5 3s5 -1.16699 7 -3.5s3 -4.83301 3 -7.5v-326c0 -7.33301 -3.33301 -11 -10 -11c-3.33301 0 -6 1 -8 3z" />
    <glyph glyph-name="ordmasculine" unicode="&#xba;" horiz-adv-x="340" 
d="M66.5 437c-22.333 32 -33.5 71 -33.5 117c0 45.333 11.5 84.5 34.5 117.5s57.167 49.5 102.5 49.5c46 0 80.333 -16.167 103 -48.5s34 -71.5 34 -117.5c0 -44.667 -11.5 -83.5 -34.5 -116.5s-57.167 -49.5 -102.5 -49.5c-46.667 0 -81.167 16 -103.5 48zM256 451.5
c20 29 30 63.499 30 103.499c0 40.667 -9.66699 75.334 -29 104.001s-48.333 43 -87 43c-38 0 -66.833 -14.667 -86.5 -44s-29.5 -64 -29.5 -104s9.66699 -74.333 29 -103s48.333 -43 87 -43c37.333 0 66 14.5 86 43.5z" />
    <glyph glyph-name="guillemotright" unicode="&#xbb;" horiz-adv-x="509" 
d="M65 84.5c-2 1.66699 -3 3.83398 -3 6.50098c0 3.33301 2 6.66602 6 9.99902l198 138l-198 138c-4 3.33301 -6 6.66602 -6 9.99902c0 2.66699 1 4.83398 3 6.50098s4 2.5 6 2.5c2.66699 0 5.33398 -1 8.00098 -3l209 -146c2.66699 -2 4 -4.66699 4 -8s-1.33301 -6 -4 -8
l-209 -146c-2.66699 -2 -5.33398 -3 -8.00098 -3c-2 0 -4 0.833008 -6 2.5zM235 84.5c-2 1.66699 -3 3.83398 -3 6.50098c0 3.33301 2 6.66602 6 9.99902l198 138l-198 138c-4 3.33301 -6 6.66602 -6 9.99902c0 2.66699 1 4.83398 3 6.50098s4 2.5 6 2.5
c2.66699 0 5.33398 -1 8.00098 -3l209 -146c2.66699 -2 4 -4.66699 4 -8s-1.33301 -6 -4 -8l-209 -146c-2.66699 -2 -5.33398 -3 -8.00098 -3c-2 0 -4 0.833008 -6 2.5z" />
    <glyph glyph-name="onequarter" unicode="&#xbc;" horiz-adv-x="600" 
d="M98 339c-2 2 -3 4.66699 -3 8v326c0 3.33301 1.16699 6 3.5 8s4.83301 3 7.5 3s5 -1.16699 7 -3.5s3 -4.83301 3 -7.5v-326c0 -7.33301 -3.33301 -11 -10 -11c-3.33301 0 -6 1 -8 3zM88 10l1.99902 9l320 655c1.33301 3.33301 2.83301 6 4.5 8s3.83398 3 6.50098 3
c6.66699 0 10 -3.33301 10 -10l-2 -9l-320 -655c-3.33301 -7.33301 -7 -11 -11 -11c-6.66699 -0 -10 3.33301 -10 10zM547.999 94v-5.00098c0 -31.333 -9.5 -54.166 -28.5 -68.499s-47.167 -21.5 -84.5 -21.5h-83c-2.66699 0 -5.16699 1.16699 -7.5 3.5
s-3.5 4.83301 -3.5 7.5s1.16699 5 3.5 7s4.83301 3 7.5 3h83c32.667 0 56 5 70 15s21 27.667 21 53v7c0 25.333 -7 43 -21 53s-37.333 15 -70 15h-54c-2.66699 0 -5 1 -7 3s-3 4.33301 -3 7s1 5.16699 3 7.5s4.33301 3.5 7 3.5h54c32.667 0 56 5.16699 70 15.5
s21 28.166 21 53.499c0 23.333 -7.16699 40.5 -21.5 51.5s-37.5 16.5 -69.5 16.5h-80c-6.66699 0 -10 3.33301 -10 10c0 3.33301 1 6 3 8s4.33301 3 7 3h80c37.333 0 65.5 -7 84.5 -21s28.5 -36.667 28.5 -68c0 -39.333 -16.333 -65.666 -49 -78.999
c32.667 -12 49 -38.667 49 -80z" />
    <glyph glyph-name="onehalf" unicode="&#xbd;" horiz-adv-x="600" 
d="M98 339c-2 2 -3 4.66699 -3 8v326c0 3.33301 1.16699 6 3.5 8s4.83301 3 7.5 3s5 -1.16699 7 -3.5s3 -4.83301 3 -7.5v-326c0 -7.33301 -3.33301 -11 -10 -11c-3.33301 0 -6 1 -8 3zM88 10l1.99902 9l320 655c1.33301 3.33301 2.83301 6 4.5 8s3.83398 3 6.50098 3
c6.66699 0 10 -3.33301 10 -10l-2 -9l-320 -655c-3.33301 -7.33301 -7 -11 -11 -11c-6.66699 -0 -10 3.33301 -10 10zM326.999 2c-2 2 -3 4.66797 -3 8.00098v41c0 32 11 57.667 33 77c10 8.66699 21.667 16 35 22s31 12.667 53 20c30 10 52.833 20.333 68.5 31
s23.5 26 23.5 46c0 25.333 -8 44.833 -24 58.5s-39.667 20.5 -71 20.5c-19.333 0 -35.5 -2.83301 -48.5 -8.5s-25.167 -13.5 -36.5 -23.5c-3.33301 -3.33301 -6.33301 -5 -9 -5s-5 1 -7 3s-3 4.33301 -3 7c0 3.33301 1.66699 6.66602 5 9.99902c10.667 12 25 21.333 43 28
s36.667 10 56 10c36.667 0 65.167 -9 85.5 -27s30.5 -42.333 30.5 -73c0 -18 -4.83301 -32.667 -14.5 -44s-21 -20 -34 -26s-32.5 -14 -58.5 -24c-35.333 -13.333 -61.833 -27 -79.5 -41s-26.5 -33.333 -26.5 -58v-34h184c2.66699 0 5.16699 -1 7.5 -3s3.5 -4.33301 3.5 -7
c0 -3.33301 -1 -6 -3 -8s-4.66699 -3 -8 -3h-195c-2.66699 0 -5 1 -7 3z" />
    <glyph glyph-name="threequarters" unicode="&#xbe;" horiz-adv-x="600" 
d="M461 666l-320.001 -655c-3.33301 -7.33301 -7 -11 -11 -11c-6.66699 -0 -10 3.33301 -10 10l2 9l320 655c1.33301 3.33301 2.83301 6 4.5 8s3.83398 3 6.50098 3c6.66699 0 10 -3.33301 10 -10zM187.499 362.5c-19 -14.333 -47.167 -21.501 -84.5 -21.501h-83
c-2.66699 0 -5.16699 1.16699 -7.5 3.5s-3.5 4.83301 -3.5 7.5s1.16699 5 3.5 7s4.83301 3 7.5 3h83c32.667 0 56 5 70 15s21 27.667 21 53v7c0 25.333 -7 43 -21 53s-37.333 15 -70 15h-54c-2.66699 0 -5 1 -7 3s-3 4.33301 -3 7s1 5.16699 3 7.5s4.33301 3.5 7 3.5h54
c32.667 0 56 5.16699 70 15.5s21 28.166 21 53.499c0 23.333 -7.16699 40.5 -21.5 51.5s-37.5 16.5 -69.5 16.5h-80c-6.66699 0 -10 3.33301 -10 10c0 3.33301 1 6 3 8s4.33301 3 7 3h80c37.333 0 65.5 -7 84.5 -21s28.5 -36.667 28.5 -68
c0 -39.333 -16.333 -65.666 -49 -78.999c32.667 -12 49 -38.667 49 -80v-5c0 -31.333 -9.5 -54.166 -28.5 -68.499zM350.999 131.999c-14 -14 -21 -24.667 -21 -32c0 -5.33301 2 -8.5 6 -9.5s11 -1.5 21 -1.5l161 1v95c0 2.66699 1.16699 5 3.5 7s4.83301 3 7.5 3s5 -1 7 -3
s3 -4.33301 3 -7v-174c0 -3.33301 -1 -6 -3 -8s-4.33301 -3 -7 -3s-5.16699 1.16699 -7.5 3.5s-3.5 4.83301 -3.5 7.5v57h-168c-14 0 -24.667 2.83301 -32 8.5s-11 12.834 -11 21.501c0 7.33301 2.83301 15 8.5 23s11.167 14.833 16.5 20.5l10 10.5l184 192
c2 2 4.66699 3 8 3c2.66699 0 5 -1 7 -3s3 -4.33301 3 -7s-1.33301 -5.33398 -4 -8.00098z" />
    <glyph glyph-name="questiondown" unicode="&#xbf;" horiz-adv-x="475" 
d="M390.5 460c4.33301 -4.66699 6.5 -10 6.5 -16s-2.16699 -11.333 -6.5 -16s-9.5 -7 -15.5 -7s-11.167 2.33301 -15.5 7s-6.5 10 -6.5 16s2.16699 11.333 6.5 16s9.5 7 15.5 7s11.167 -2.33301 15.5 -7zM384 284l0.00195312 -21.999c0 -51.333 -12.333 -89.333 -37 -114
s-67.334 -37 -128.001 -37c-40 0 -70.833 -4.33301 -92.5 -13s-37.334 -23.834 -47.001 -45.501s-14.5 -52.834 -14.5 -93.501v-5c0 -40.667 4.66699 -71.834 14 -93.501s25 -37 47 -46s53 -13.5 93 -13.5h177c6 0 9 -3.33301 9 -10c0 -6 -3 -9 -9 -9h-177
c-42.667 0 -76.334 4.83301 -101.001 14.5s-43 26.334 -55 50.001s-18 57.167 -18 100.5v18c0 43.333 6 76.833 18 100.5s30.333 40.334 55 50.001s58.334 14.5 101.001 14.5c54.667 0 92.667 10.5 114 31.5s32 54.167 32 99.5v23c0 6.66699 3 10 9 10
c6.66699 0 10 -3.33301 10 -10z" />
    <glyph glyph-name="Agrave" unicode="&#xc0;" horiz-adv-x="549" 
d="M523 8c0 -2.66699 -1 -4.66895 -3 -6.00195s-4.33301 -2 -7 -2c-4.66699 0 -8 2.33301 -10 7l-97 267h-266l-94 -267c-2 -4.66699 -5.33301 -7 -10 -7c-2.66699 0 -4.83398 0.833008 -6.50098 2.5s-2.5 3.83398 -2.5 6.50098l2 9l229 650
c2.66699 7.33301 4.83398 12 6.50098 14s4.16699 3 7.5 3c2.66699 0 5 -1.16699 7 -3.5s4 -6.16602 6 -11.499l236 -654zM400 292.998l-128 353l-125 -353h253zM308 752.998l-103 70c-3.33301 2 -5 4.66699 -5 8c0 2.66699 1 5 3 7s4.33301 3 7 3
s6.33398 -1.66699 11.001 -5l103 -70c3.33301 -2 5 -4.66699 5 -8c0 -2.66699 -1 -5 -3 -7s-4.33301 -3 -7 -3s-6.33398 1.66699 -11.001 5z" />
    <glyph glyph-name="Aacute" unicode="&#xc1;" horiz-adv-x="549" 
d="M523 8c0 -2.66699 -1 -4.66895 -3 -6.00195s-4.33301 -2 -7 -2c-4.66699 0 -8 2.33301 -10 7l-97 267h-266l-94 -267c-2 -4.66699 -5.33301 -7 -10 -7c-2.66699 0 -4.83398 0.833008 -6.50098 2.5s-2.5 3.83398 -2.5 6.50098l2 9l229 650
c2.66699 7.33301 4.83398 12 6.50098 14s4.16699 3 7.5 3c2.66699 0 5 -1.16699 7 -3.5s4 -6.16602 6 -11.499l236 -654zM400 292.998l-128 353l-125 -353h253zM223 749.998c-2 2 -3 4.33301 -3 7c0 3.33301 1.66699 6 5 8l103 70c4.66699 3.33301 8.33398 5 11.001 5
s5 -1 7 -3s3 -4.33301 3 -7c0 -3.33301 -1.66699 -6 -5 -8l-103 -70c-4.66699 -3.33301 -8.33398 -5 -11.001 -5s-5 1 -7 3z" />
    <glyph glyph-name="Acircumflex" unicode="&#xc2;" horiz-adv-x="549" 
d="M523 8c0 -2.66699 -1 -4.66895 -3 -6.00195s-4.33301 -2 -7 -2c-4.66699 0 -8 2.33301 -10 7l-97 267h-266l-94 -267c-2 -4.66699 -5.33301 -7 -10 -7c-2.66699 0 -4.83398 0.833008 -6.50098 2.5s-2.5 3.83398 -2.5 6.50098l2 9l229 650
c2.66699 7.33301 4.83398 12 6.50098 14s4.16699 3 7.5 3c2.66699 0 5 -1.16699 7 -3.5s4 -6.16602 6 -11.499l236 -654zM400 292.998l-128 353l-125 -353h253zM189 749.998c-2 2 -2.99805 4.33301 -2.99805 7s1.33301 5.33398 4 8.00098l76 79
c2.66699 2.66699 5.66699 4 9 4s6.33301 -1.33301 9 -4l76 -79c2.66699 -2.66699 4 -5.33398 4 -8.00098s-1 -5 -3 -7s-4.33301 -3 -7 -3s-5.33398 1.33301 -8.00098 4l-71 72l-71 -72c-2.66699 -2.66699 -5.33398 -4 -8.00098 -4s-5 1 -7 3z" />
    <glyph glyph-name="Atilde" unicode="&#xc3;" horiz-adv-x="549" 
d="M523 8c0 -2.66699 -1 -4.66895 -3 -6.00195s-4.33301 -2 -7 -2c-4.66699 0 -8 2.33301 -10 7l-97 267h-266l-94 -267c-2 -4.66699 -5.33301 -7 -10 -7c-2.66699 0 -4.83398 0.833008 -6.50098 2.5s-2.5 3.83398 -2.5 6.50098l2 9l229 650
c2.66699 7.33301 4.83398 12 6.50098 14s4.16699 3 7.5 3c2.66699 0 5 -1.16699 7 -3.5s4 -6.16602 6 -11.499l236 -654zM400 292.998l-128 353l-125 -353h253zM164 760.998c-2 2 -2.66602 4.33301 -1.99902 7c2 18 9 33.5 21 46.5s26.667 19.5 44 19.5
c11.333 0 20.666 -2.5 27.999 -7.5s16 -12.833 26 -23.5c7.33301 -8.66699 14 -15.167 20 -19.5s12.667 -6.5 20 -6.5c12 0 22.5 4.16699 31.5 12.5s14.833 20.5 17.5 36.5c0.666992 6 3.66699 9 9 9c2.66699 0 5 -1 7 -3s2.66699 -4.33301 2 -7c-2 -18 -9 -33.5 -21 -46.5
s-27 -19.5 -45 -19.5c-11.333 0 -20.5 2.5 -27.5 7.5s-15.5 12.833 -25.5 23.5c-7.33301 8 -14 14.333 -20 19s-12.667 7 -20 7c-24.667 0 -41 -16.333 -49 -49c-2 -6 -5 -9 -9 -9c-2.66699 0 -5 1 -7 3z" />
    <glyph glyph-name="Adieresis" unicode="&#xc4;" horiz-adv-x="549" 
d="M523 8c0 -2.66699 -1 -4.66895 -3 -6.00195s-4.33301 -2 -7 -2c-4.66699 0 -8 2.33301 -10 7l-97 267h-266l-94 -267c-2 -4.66699 -5.33301 -7 -10 -7c-2.66699 0 -4.83398 0.833008 -6.50098 2.5s-2.5 3.83398 -2.5 6.50098l2 9l229 650
c2.66699 7.33301 4.83398 12 6.50098 14s4.16699 3 7.5 3c2.66699 0 5 -1.16699 7 -3.5s4 -6.16602 6 -11.499l236 -654zM400 292.998l-128 353l-125 -353h253zM185.5 784.998c-4.33301 4.66699 -6.5 10 -6.5 16s2.16699 11.333 6.5 16s9.5 7 15.5 7
s11.167 -2.33301 15.5 -7s6.5 -10 6.5 -16s-2.16699 -11.333 -6.5 -16s-9.5 -7 -15.5 -7s-11.167 2.33301 -15.5 7zM332.5 784.998c-4.33301 4.66699 -6.5 10 -6.5 16s2.16699 11.333 6.5 16s9.5 7 15.5 7s11.167 -2.33301 15.5 -7s6.5 -10 6.5 -16
s-2.16699 -11.333 -6.5 -16s-9.5 -7 -15.5 -7s-11.167 2.33301 -15.5 7z" />
    <glyph glyph-name="Aring" unicode="&#xc5;" horiz-adv-x="549" 
d="M523 8c0 -2.66699 -1 -4.66895 -3 -6.00195s-4.33301 -2 -7 -2c-4.66699 0 -8 2.33301 -10 7l-97 267h-266l-94 -267c-2 -4.66699 -5.33301 -7 -10 -7c-2.66699 0 -4.83398 0.833008 -6.50098 2.5s-2.5 3.83398 -2.5 6.50098l2 9l229 650
c2.66699 7.33301 4.83398 12 6.50098 14s4.16699 3 7.5 3c2.66699 0 5 -1.16699 7 -3.5s4 -6.16602 6 -11.499l236 -654zM400 292.998l-128 353l-125 -353h253zM229 753.998c-12.667 12.667 -19 28 -19 46s6.33301 33.333 19 46s28 19 46 19s33.333 -6.33301 46 -19
s19 -28 19 -46s-6.33301 -33.333 -19 -46s-28 -19 -46 -19s-33.333 6.33301 -46 19zM307.5 766.998c9 9.33301 13.5 20.333 13.5 33s-4.5 23.5 -13.5 32.5s-19.833 13.5 -32.5 13.5s-23.667 -4.5 -33 -13.5s-14 -19.833 -14 -32.5s4.66699 -23.667 14 -33s20.333 -14 33 -14
s23.5 4.66699 32.5 14z" />
    <glyph glyph-name="AE" unicode="&#xc6;" horiz-adv-x="799" 
d="M746 16.5c2 -1.66699 3 -3.83398 3 -6.50098s-1 -5 -3 -7s-4.33301 -3 -7 -3h-295c-2.66699 0 -5 1 -7 3s-3 4.33301 -3 7v264h-223l-164 -268c-2 -4 -5 -6 -9 -6c-2.66699 0 -5 0.833008 -7 2.5s-3 3.83398 -3 6.50098c0 2 1.33301 5.33301 4 10l401 657
c4 6 8.33301 9 13 9h292c6.66699 0 10 -3.33301 10 -10c0 -6 -3.33301 -9 -10 -9h-284v-295h242c6.66699 0 10 -3.33301 10 -10c0 -6 -3.33301 -9 -10 -9h-242v-333h285c2.66699 0 5 -0.833008 7 -2.5zM434 293v347l-212 -347h212z" />
    <glyph glyph-name="Ccedilla" unicode="&#xc7;" horiz-adv-x="500" 
d="M471 65c2 -2 3.00098 -4.33203 3.00098 -6.99902s-1 -5 -3 -7c-20.667 -20.667 -44.667 -36.167 -72 -46.5s-56 -15.5 -86 -15.5h-6l-13 -34c35.333 -2 53 -18.333 53 -49c0 -13.333 -4.33301 -24.833 -13 -34.5s-20.334 -14.5 -35.001 -14.5
c-10.667 0 -21.167 2.83301 -31.5 8.5s-15.5 11.5 -15.5 17.5c0 2 0.666992 3.83301 2 5.5s3 2.5 5 2.5s7.16699 -2.83301 15.5 -8.5s16.5 -8.5 24.5 -8.5s14.833 3 20.5 9s8.5 13.667 8.5 23c0 17.333 -9.66699 27.333 -29 30c-3.33301 0.666992 -7.5 1.16699 -12.5 1.5
s-8.66699 1 -11 2s-3.5 2.83301 -3.5 5.5c0 3.33301 0.666992 6.33301 2 9l14 36c-54 5.33301 -97.833 25.833 -131.5 61.5s-57.834 79.167 -72.501 130.5s-22 105.333 -22 162c0 57.333 8.5 112.666 25.5 165.999s44.333 97.5 82 132.5s85.5 52.5 143.5 52.5
c64.667 0 117.334 -20 158.001 -60c2 -2 3 -4.66699 3 -8c0 -2.66699 -1 -4.83398 -3 -6.50098s-4.33301 -2.5 -7 -2.5s-6 1.66699 -10 5c-23.333 18.667 -45.333 32 -66 40s-45.667 12 -75 12c-54 0 -98.333 -16.667 -133 -50s-59.667 -75.166 -75 -125.499
s-23 -102.166 -23 -155.499c0 -55.333 7.16699 -108.333 21.5 -159s38.833 -92.834 73.5 -126.501s80 -50.5 136 -50.5c29.333 0 54.5 4.5 75.5 13.5s43.833 23.5 68.5 43.5c2 2 4.33301 3 7 3s5 -1 7 -3z" />
    <glyph glyph-name="Egrave" unicode="&#xc8;" horiz-adv-x="473" 
d="M111 3c-2 2 -3 4.33594 -3 7.00293v665c0 2.66699 1 5 3 7s4.33301 3 7 3h295c2.66699 0 5 -1 7 -3s3 -4.33301 3 -7s-1 -4.83398 -3 -6.50098s-4.33301 -2.5 -7 -2.5h-285v-295h242c2.66699 0 5 -0.833008 7 -2.5s3 -3.83398 3 -6.50098s-1 -5 -3 -7s-4.33301 -3 -7 -3
h-242v-333h285c2.66699 0 5 -1 7 -3s3 -4.33301 3 -7s-1 -4.83398 -3 -6.50098s-4.33301 -2.5 -7 -2.5h-295c-2.66699 0 -5 1 -7 3zM300 753.003l-103 70c-3.33301 2 -5 4.66699 -5 8c0 2.66699 1 5 3 7s4.33301 3 7 3s6.33398 -1.66699 11.001 -5l103 -70
c3.33301 -2 5 -4.66699 5 -8c0 -2.66699 -1 -5 -3 -7s-4.33301 -3 -7 -3s-6.33398 1.66699 -11.001 5z" />
    <glyph glyph-name="Eacute" unicode="&#xc9;" horiz-adv-x="473" 
d="M111 3c-2 2 -3 4.33594 -3 7.00293v665c0 2.66699 1 5 3 7s4.33301 3 7 3h295c2.66699 0 5 -1 7 -3s3 -4.33301 3 -7s-1 -4.83398 -3 -6.50098s-4.33301 -2.5 -7 -2.5h-285v-295h242c2.66699 0 5 -0.833008 7 -2.5s3 -3.83398 3 -6.50098s-1 -5 -3 -7s-4.33301 -3 -7 -3
h-242v-333h285c2.66699 0 5 -1 7 -3s3 -4.33301 3 -7s-1 -4.83398 -3 -6.50098s-4.33301 -2.5 -7 -2.5h-295c-2.66699 0 -5 1 -7 3zM215 750.003c-2 2 -3 4.33301 -3 7c0 3.33301 1.66699 6 5 8l103 70c4.66699 3.33301 8.33398 5 11.001 5s5 -1 7 -3s3 -4.33301 3 -7
c0 -3.33301 -1.66699 -6 -5 -8l-103 -70c-4.66699 -3.33301 -8.33398 -5 -11.001 -5s-5 1 -7 3z" />
    <glyph glyph-name="Ecircumflex" unicode="&#xca;" horiz-adv-x="473" 
d="M111 3c-2 2 -3 4.33594 -3 7.00293v665c0 2.66699 1 5 3 7s4.33301 3 7 3h295c2.66699 0 5 -1 7 -3s3 -4.33301 3 -7s-1 -4.83398 -3 -6.50098s-4.33301 -2.5 -7 -2.5h-285v-295h242c2.66699 0 5 -0.833008 7 -2.5s3 -3.83398 3 -6.50098s-1 -5 -3 -7s-4.33301 -3 -7 -3
h-242v-333h285c2.66699 0 5 -1 7 -3s3 -4.33301 3 -7s-1 -4.83398 -3 -6.50098s-4.33301 -2.5 -7 -2.5h-295c-2.66699 0 -5 1 -7 3zM181 750.003c-2 2 -2.99805 4.33301 -2.99805 7s1.33301 5.33398 4 8.00098l76 79c2.66699 2.66699 5.66699 4 9 4s6.33301 -1.33301 9 -4
l76 -79c2.66699 -2.66699 4 -5.33398 4 -8.00098s-1 -5 -3 -7s-4.33301 -3 -7 -3s-5.33398 1.33301 -8.00098 4l-71 72l-71 -72c-2.66699 -2.66699 -5.33398 -4 -8.00098 -4s-5 1 -7 3z" />
    <glyph glyph-name="Edieresis" unicode="&#xcb;" horiz-adv-x="473" 
d="M111 3c-2 2 -3 4.33594 -3 7.00293v665c0 2.66699 1 5 3 7s4.33301 3 7 3h295c2.66699 0 5 -1 7 -3s3 -4.33301 3 -7s-1 -4.83398 -3 -6.50098s-4.33301 -2.5 -7 -2.5h-285v-295h242c2.66699 0 5 -0.833008 7 -2.5s3 -3.83398 3 -6.50098s-1 -5 -3 -7s-4.33301 -3 -7 -3
h-242v-333h285c2.66699 0 5 -1 7 -3s3 -4.33301 3 -7s-1 -4.83398 -3 -6.50098s-4.33301 -2.5 -7 -2.5h-295c-2.66699 0 -5 1 -7 3zM177.5 785.003c-4.33301 4.66699 -6.5 10 -6.5 16s2.16699 11.333 6.5 16s9.5 7 15.5 7s11.167 -2.33301 15.5 -7s6.5 -10 6.5 -16
s-2.16699 -11.333 -6.5 -16s-9.5 -7 -15.5 -7s-11.167 2.33301 -15.5 7zM324.5 785.003c-4.33301 4.66699 -6.5 10 -6.5 16s2.16699 11.333 6.5 16s9.5 7 15.5 7s11.167 -2.33301 15.5 -7s6.5 -10 6.5 -16s-2.16699 -11.333 -6.5 -16s-9.5 -7 -15.5 -7
s-11.167 2.33301 -15.5 7z" />
    <glyph glyph-name="Igrave" unicode="&#xcc;" horiz-adv-x="236" 
d="M111 3c-2 2 -3 4.33301 -3 7v665c0 2.66699 1 5 3 7s4.33301 3 7 3s5 -1 7 -3s3 -4.33301 3 -7v-665c0 -2.66699 -1 -5 -3 -7s-4.33301 -3 -7 -3s-5 1 -7 3zM151 753l-103 70c-3.33301 2 -5 4.66699 -5 8c0 2.66699 1 5 3 7s4.33301 3 7 3s6.33398 -1.66699 11.001 -5
l103 -70c3.33301 -2 5 -4.66699 5 -8c0 -2.66699 -1 -5 -3 -7s-4.33301 -3 -7 -3s-6.33398 1.66699 -11.001 5z" />
    <glyph glyph-name="Iacute" unicode="&#xcd;" horiz-adv-x="236" 
d="M111 3c-2 2 -3 4.33301 -3 7v665c0 2.66699 1 5 3 7s4.33301 3 7 3s5 -1 7 -3s3 -4.33301 3 -7v-665c0 -2.66699 -1 -5 -3 -7s-4.33301 -3 -7 -3s-5 1 -7 3zM66 750c-2 2 -3 4.33301 -3 7c0 3.33301 1.66699 6 5 8l103 70c4.66699 3.33301 8.33398 5 11.001 5s5 -1 7 -3
s3 -4.33301 3 -7c0 -3.33301 -1.66699 -6 -5 -8l-103 -70c-4.66699 -3.33301 -8.33398 -5 -11.001 -5s-5 1 -7 3z" />
    <glyph glyph-name="Icircumflex" unicode="&#xce;" horiz-adv-x="236" 
d="M111 3c-2 2 -3 4.33301 -3 7v665c0 2.66699 1 5 3 7s4.33301 3 7 3s5 -1 7 -3s3 -4.33301 3 -7v-665c0 -2.66699 -1 -5 -3 -7s-4.33301 -3 -7 -3s-5 1 -7 3zM32 750c-2 2 -2.99805 4.33301 -2.99805 7s1.33301 5.33398 4 8.00098l76 79c2.66699 2.66699 5.66699 4 9 4
s6.33301 -1.33301 9 -4l76 -79c2.66699 -2.66699 4 -5.33398 4 -8.00098s-1 -5 -3 -7s-4.33301 -3 -7 -3s-5.33398 1.33301 -8.00098 4l-71 72l-71 -72c-2.66699 -2.66699 -5.33398 -4 -8.00098 -4s-5 1 -7 3z" />
    <glyph glyph-name="Idieresis" unicode="&#xcf;" horiz-adv-x="236" 
d="M111 3c-2 2 -3 4.33301 -3 7v665c0 2.66699 1 5 3 7s4.33301 3 7 3s5 -1 7 -3s3 -4.33301 3 -7v-665c0 -2.66699 -1 -5 -3 -7s-4.33301 -3 -7 -3s-5 1 -7 3zM28.5 785c-4.33301 4.66699 -6.5 10 -6.5 16s2.16699 11.333 6.5 16s9.5 7 15.5 7s11.167 -2.33301 15.5 -7
s6.5 -10 6.5 -16s-2.16699 -11.333 -6.5 -16s-9.5 -7 -15.5 -7s-11.167 2.33301 -15.5 7zM175.5 785c-4.33301 4.66699 -6.5 10 -6.5 16s2.16699 11.333 6.5 16s9.5 7 15.5 7s11.167 -2.33301 15.5 -7s6.5 -10 6.5 -16s-2.16699 -11.333 -6.5 -16s-9.5 -7 -15.5 -7
s-11.167 2.33301 -15.5 7z" />
    <glyph glyph-name="Eth" unicode="&#xd0;" horiz-adv-x="617" 
d="M461.5 633.5c34.333 -34.333 58.5 -77.166 72.5 -128.499s21 -105.333 21 -162s-7 -110.834 -21 -162.501s-38.167 -94.667 -72.5 -129s-80.166 -51.5 -137.499 -51.5h-206c-2.66699 0 -5 1 -7 3s-3 4.33301 -3 7v357h-59c-2.66699 0 -4.83398 1 -6.50098 3
s-2.5 4.33301 -2.5 7s0.833008 5 2.5 7s3.83398 3 6.50098 3h59v288c0 2.66699 1 5 3 7s4.33301 3 7 3h206c57.333 0 103.166 -17.167 137.499 -51.5zM450 68.5c31.333 33 53.333 73.832 66 122.499s19 99.334 19 152.001c0 86.667 -16 162.167 -48 226.5
s-87 96.5 -165 96.5h-194v-279h152c2.66699 0 5 -1 7 -3s3 -4.33301 3 -7s-1 -5 -3 -7s-4.33301 -3 -7 -3h-152v-348h196c52.667 0 94.667 16.5 126 49.5z" />
    <glyph glyph-name="Ntilde" unicode="&#xd1;" horiz-adv-x="647" 
d="M519 7l-391 633v-630c0 -6.66699 -3.33301 -10 -10 -10s-10 3.33301 -10 10v665c0 3.33301 1 6 3 8s4.33301 3 7 3c4 0 7.66699 -2.66699 11 -8l391 -633v630c0 6.66699 3.33301 10 10 10c6 0 9 -3.33301 9 -10v-665c0 -7.33301 -3 -11 -9 -11
c-4 0 -7.66699 2.66699 -11 8zM223 761c-2 2 -2.66602 4.33301 -1.99902 7c2 18 9 33.5 21 46.5s26.667 19.5 44 19.5c11.333 0 20.666 -2.5 27.999 -7.5s16 -12.833 26 -23.5c7.33301 -8.66699 14 -15.167 20 -19.5s12.667 -6.5 20 -6.5c12 0 22.5 4.16699 31.5 12.5
s14.833 20.5 17.5 36.5c0.666992 6 3.66699 9 9 9c2.66699 0 5 -1 7 -3s2.66699 -4.33301 2 -7c-2 -18 -9 -33.5 -21 -46.5s-27 -19.5 -45 -19.5c-11.333 0 -20.5 2.5 -27.5 7.5s-15.5 12.833 -25.5 23.5c-7.33301 8 -14 14.333 -20 19s-12.667 7 -20 7
c-24.667 0 -41 -16.333 -49 -49c-2 -6 -5 -9 -9 -9c-2.66699 0 -5 1 -7 3z" />
    <glyph glyph-name="Ograve" unicode="&#xd2;" horiz-adv-x="620" 
d="M163.5 43.5c-37 36.333 -63.167 81.166 -78.5 134.499s-23 108.333 -23 165s7.66699 111.5 23 164.5s41.5 97.5 78.5 133.5s86.167 54 147.5 54s110.333 -18 147 -54s62.5 -80.5 77.5 -133.5s22.5 -107.833 22.5 -164.5s-7.5 -111.667 -22.5 -165
s-40.833 -98.166 -77.5 -134.499s-85.667 -54.5 -147 -54.5s-110.5 18.167 -147.5 54.5zM447 60c34 34.667 57.667 77.335 71 128.002s20 102.334 20 155.001s-6.66699 104.167 -20 154.5s-37 92.666 -71 126.999s-79.333 51.5 -136 51.5s-102.167 -17.333 -136.5 -52
s-58.333 -77 -72 -127s-20.5 -101.333 -20.5 -154s6.83301 -104.334 20.5 -155.001s37.667 -93.334 72 -128.001s79.833 -52 136.5 -52s102 17.333 136 52zM343 753.001l-103 70c-3.33301 2 -5 4.66699 -5 8c0 2.66699 1 5 3 7s4.33301 3 7 3s6.33398 -1.66699 11.001 -5
l103 -70c3.33301 -2 5 -4.66699 5 -8c0 -2.66699 -1 -5 -3 -7s-4.33301 -3 -7 -3s-6.33398 1.66699 -11.001 5z" />
    <glyph glyph-name="Oacute" unicode="&#xd3;" horiz-adv-x="620" 
d="M163.5 43.5c-37 36.333 -63.167 81.166 -78.5 134.499s-23 108.333 -23 165s7.66699 111.5 23 164.5s41.5 97.5 78.5 133.5s86.167 54 147.5 54s110.333 -18 147 -54s62.5 -80.5 77.5 -133.5s22.5 -107.833 22.5 -164.5s-7.5 -111.667 -22.5 -165
s-40.833 -98.166 -77.5 -134.499s-85.667 -54.5 -147 -54.5s-110.5 18.167 -147.5 54.5zM447 60c34 34.667 57.667 77.335 71 128.002s20 102.334 20 155.001s-6.66699 104.167 -20 154.5s-37 92.666 -71 126.999s-79.333 51.5 -136 51.5s-102.167 -17.333 -136.5 -52
s-58.333 -77 -72 -127s-20.5 -101.333 -20.5 -154s6.83301 -104.334 20.5 -155.001s37.667 -93.334 72 -128.001s79.833 -52 136.5 -52s102 17.333 136 52zM258 750.001c-2 2 -3 4.33301 -3 7c0 3.33301 1.66699 6 5 8l103 70c4.66699 3.33301 8.33398 5 11.001 5s5 -1 7 -3
s3 -4.33301 3 -7c0 -3.33301 -1.66699 -6 -5 -8l-103 -70c-4.66699 -3.33301 -8.33398 -5 -11.001 -5s-5 1 -7 3z" />
    <glyph glyph-name="Ocircumflex" unicode="&#xd4;" horiz-adv-x="620" 
d="M163.5 43.5c-37 36.333 -63.167 81.166 -78.5 134.499s-23 108.333 -23 165s7.66699 111.5 23 164.5s41.5 97.5 78.5 133.5s86.167 54 147.5 54s110.333 -18 147 -54s62.5 -80.5 77.5 -133.5s22.5 -107.833 22.5 -164.5s-7.5 -111.667 -22.5 -165
s-40.833 -98.166 -77.5 -134.499s-85.667 -54.5 -147 -54.5s-110.5 18.167 -147.5 54.5zM447 60c34 34.667 57.667 77.335 71 128.002s20 102.334 20 155.001s-6.66699 104.167 -20 154.5s-37 92.666 -71 126.999s-79.333 51.5 -136 51.5s-102.167 -17.333 -136.5 -52
s-58.333 -77 -72 -127s-20.5 -101.333 -20.5 -154s6.83301 -104.334 20.5 -155.001s37.667 -93.334 72 -128.001s79.833 -52 136.5 -52s102 17.333 136 52zM224 750.001c-2 2 -2.99805 4.33301 -2.99805 7s1.33301 5.33398 4 8.00098l76 79c2.66699 2.66699 5.66699 4 9 4
s6.33301 -1.33301 9 -4l76 -79c2.66699 -2.66699 4 -5.33398 4 -8.00098s-1 -5 -3 -7s-4.33301 -3 -7 -3s-5.33398 1.33301 -8.00098 4l-71 72l-71 -72c-2.66699 -2.66699 -5.33398 -4 -8.00098 -4s-5 1 -7 3z" />
    <glyph glyph-name="Otilde" unicode="&#xd5;" horiz-adv-x="620" 
d="M163.5 43.5c-37 36.333 -63.167 81.166 -78.5 134.499s-23 108.333 -23 165s7.66699 111.5 23 164.5s41.5 97.5 78.5 133.5s86.167 54 147.5 54s110.333 -18 147 -54s62.5 -80.5 77.5 -133.5s22.5 -107.833 22.5 -164.5s-7.5 -111.667 -22.5 -165
s-40.833 -98.166 -77.5 -134.499s-85.667 -54.5 -147 -54.5s-110.5 18.167 -147.5 54.5zM447 60c34 34.667 57.667 77.335 71 128.002s20 102.334 20 155.001s-6.66699 104.167 -20 154.5s-37 92.666 -71 126.999s-79.333 51.5 -136 51.5s-102.167 -17.333 -136.5 -52
s-58.333 -77 -72 -127s-20.5 -101.333 -20.5 -154s6.83301 -104.334 20.5 -155.001s37.667 -93.334 72 -128.001s79.833 -52 136.5 -52s102 17.333 136 52zM199 761.001c-2 2 -2.66602 4.33301 -1.99902 7c2 18 9 33.5 21 46.5s26.667 19.5 44 19.5
c11.333 0 20.666 -2.5 27.999 -7.5s16 -12.833 26 -23.5c7.33301 -8.66699 14 -15.167 20 -19.5s12.667 -6.5 20 -6.5c12 0 22.5 4.16699 31.5 12.5s14.833 20.5 17.5 36.5c0.666992 6 3.66699 9 9 9c2.66699 0 5 -1 7 -3s2.66699 -4.33301 2 -7c-2 -18 -9 -33.5 -21 -46.5
s-27 -19.5 -45 -19.5c-11.333 0 -20.5 2.5 -27.5 7.5s-15.5 12.833 -25.5 23.5c-7.33301 8 -14 14.333 -20 19s-12.667 7 -20 7c-24.667 0 -41 -16.333 -49 -49c-2 -6 -5 -9 -9 -9c-2.66699 0 -5 1 -7 3z" />
    <glyph glyph-name="Odieresis" unicode="&#xd6;" horiz-adv-x="620" 
d="M163.5 43.5c-37 36.333 -63.167 81.166 -78.5 134.499s-23 108.333 -23 165s7.66699 111.5 23 164.5s41.5 97.5 78.5 133.5s86.167 54 147.5 54s110.333 -18 147 -54s62.5 -80.5 77.5 -133.5s22.5 -107.833 22.5 -164.5s-7.5 -111.667 -22.5 -165
s-40.833 -98.166 -77.5 -134.499s-85.667 -54.5 -147 -54.5s-110.5 18.167 -147.5 54.5zM447 60c34 34.667 57.667 77.335 71 128.002s20 102.334 20 155.001s-6.66699 104.167 -20 154.5s-37 92.666 -71 126.999s-79.333 51.5 -136 51.5s-102.167 -17.333 -136.5 -52
s-58.333 -77 -72 -127s-20.5 -101.333 -20.5 -154s6.83301 -104.334 20.5 -155.001s37.667 -93.334 72 -128.001s79.833 -52 136.5 -52s102 17.333 136 52zM220.5 785.001c-4.33301 4.66699 -6.5 10 -6.5 16s2.16699 11.333 6.5 16s9.5 7 15.5 7s11.167 -2.33301 15.5 -7
s6.5 -10 6.5 -16s-2.16699 -11.333 -6.5 -16s-9.5 -7 -15.5 -7s-11.167 2.33301 -15.5 7zM367.5 785.001c-4.33301 4.66699 -6.5 10 -6.5 16s2.16699 11.333 6.5 16s9.5 7 15.5 7s11.167 -2.33301 15.5 -7s6.5 -10 6.5 -16s-2.16699 -11.333 -6.5 -16s-9.5 -7 -15.5 -7
s-11.167 2.33301 -15.5 7z" />
    <glyph glyph-name="multiply" unicode="&#xd7;" 
d="M119 92.5c0 3 0.999023 5.49902 2.99902 7.49902l139 139l-139 139c-2 2 -3 4.5 -3 7.5s1 5.16699 3 6.5c1.33301 2 3.5 3 6.5 3s5.5 -1 7.5 -3l139 -139l139 139c2 2 4.5 3 7.5 3s5.16699 -1 6.5 -3c2 -1.33301 2.83301 -3.33301 2.5 -6s-1.16602 -5 -2.49902 -7
l-140 -139l140 -140c2 -2 3 -4.5 3 -7.5s-1 -5.16699 -3 -6.5c-1.33301 -2 -3.5 -3 -6.5 -3s-5.5 1 -7.5 3l-140 140l-139 -140c-2 -1.33301 -4.33301 -2.16602 -7 -2.49902s-4.66699 0.5 -6 2.5c-2 1.33301 -3 3.5 -3 6.5z" />
    <glyph glyph-name="Oslash" unicode="&#xd8;" horiz-adv-x="620" 
d="M495 596c22 -33.333 38.001 -72.334 48.001 -117.001s15 -90 15 -136c0 -56.667 -7.5 -111.667 -22.5 -165s-40.833 -98.166 -77.5 -134.499s-85.667 -54.5 -147 -54.5c-72.667 0 -130.334 27.333 -173.001 82l-55 -81
c-0.666992 -0.666992 -1.83398 -2.16699 -3.50098 -4.5s-3.16699 -4 -4.5 -5s-3 -1.5 -5 -1.5c-6 0 -9 2.66699 -9 8c0 4 1 7.66699 3 11l62 91c-22.667 33.333 -39 72.5 -49 117.5s-15 90.5 -15 136.5c0 56.667 7.66699 111.5 23 164.5s41.5 97.5 78.5 133.5
s86.167 54 147.5 54c72 0 129.333 -27 172 -81l54 80c0.666992 0.666992 1.83398 2.16699 3.50098 4.5s3.16699 4 4.5 5s3 1.5 5 1.5c6 0 9 -2.66699 9 -8c0 -4 -1 -7.66699 -3 -11zM94.501 217.499c9 -42.333 23.166 -79.501 42.499 -111.501l335 492
c-39.333 52.667 -93 79 -161 79c-57.333 0 -103.166 -17.333 -137.499 -52s-58.333 -77.167 -72 -127.5s-20.5 -101.833 -20.5 -154.5c0 -41.333 4.5 -83.166 13.5 -125.499zM526 468.998c-8.66699 42 -22.667 78.999 -42 110.999l-335 -492c40.667 -54 94.667 -81 162 -81
c57.333 0 103 17.5 137 52.5s57.667 77.833 71 128.5s20 102.334 20 155.001c0 42 -4.33301 84 -13 126z" />
    <glyph glyph-name="Ugrave" unicode="&#xd9;" horiz-adv-x="669" 
d="M163 74c-36.667 56.667 -54.999 126.333 -54.999 209v392c0 6.66699 3.33301 10 10 10s10 -3.33301 10 -10v-392c0 -77.333 16.5 -142.5 49.5 -195.5s85.5 -79.5 157.5 -79.5c70.667 0 122.667 26.5 156 79.5s50 117.833 50 194.5v393c0 6.66699 3.33301 10 10 10
s10 -3.33301 10 -10v-392c0 -52 -7.83301 -100.333 -23.5 -145s-40.334 -80.667 -74.001 -108s-76.5 -41 -128.5 -41c-78 0 -135.333 28.333 -172 85zM368.001 752.999l-103 70c-3.33301 2 -5 4.66699 -5 8c0 2.66699 1 5 3 7s4.33301 3 7 3s6.33398 -1.66699 11.001 -5
l103 -70c3.33301 -2 5 -4.66699 5 -8c0 -2.66699 -1 -5 -3 -7s-4.33301 -3 -7 -3s-6.33398 1.66699 -11.001 5z" />
    <glyph glyph-name="Uacute" unicode="&#xda;" horiz-adv-x="669" 
d="M163 74c-36.667 56.667 -54.999 126.333 -54.999 209v392c0 6.66699 3.33301 10 10 10s10 -3.33301 10 -10v-392c0 -77.333 16.5 -142.5 49.5 -195.5s85.5 -79.5 157.5 -79.5c70.667 0 122.667 26.5 156 79.5s50 117.833 50 194.5v393c0 6.66699 3.33301 10 10 10
s10 -3.33301 10 -10v-392c0 -52 -7.83301 -100.333 -23.5 -145s-40.334 -80.667 -74.001 -108s-76.5 -41 -128.5 -41c-78 0 -135.333 28.333 -172 85zM283.001 749.999c-2 2 -3 4.33301 -3 7c0 3.33301 1.66699 6 5 8l103 70c4.66699 3.33301 8.33398 5 11.001 5s5 -1 7 -3
s3 -4.33301 3 -7c0 -3.33301 -1.66699 -6 -5 -8l-103 -70c-4.66699 -3.33301 -8.33398 -5 -11.001 -5s-5 1 -7 3z" />
    <glyph glyph-name="Ucircumflex" unicode="&#xdb;" horiz-adv-x="669" 
d="M163 74c-36.667 56.667 -54.999 126.333 -54.999 209v392c0 6.66699 3.33301 10 10 10s10 -3.33301 10 -10v-392c0 -77.333 16.5 -142.5 49.5 -195.5s85.5 -79.5 157.5 -79.5c70.667 0 122.667 26.5 156 79.5s50 117.833 50 194.5v393c0 6.66699 3.33301 10 10 10
s10 -3.33301 10 -10v-392c0 -52 -7.83301 -100.333 -23.5 -145s-40.334 -80.667 -74.001 -108s-76.5 -41 -128.5 -41c-78 0 -135.333 28.333 -172 85zM249.001 749.999c-2 2 -2.99805 4.33301 -2.99805 7s1.33301 5.33398 4 8.00098l76 79c2.66699 2.66699 5.66699 4 9 4
s6.33301 -1.33301 9 -4l76 -79c2.66699 -2.66699 4 -5.33398 4 -8.00098s-1 -5 -3 -7s-4.33301 -3 -7 -3s-5.33398 1.33301 -8.00098 4l-71 72l-71 -72c-2.66699 -2.66699 -5.33398 -4 -8.00098 -4s-5 1 -7 3z" />
    <glyph glyph-name="Udieresis" unicode="&#xdc;" horiz-adv-x="669" 
d="M163 74c-36.667 56.667 -54.999 126.333 -54.999 209v392c0 6.66699 3.33301 10 10 10s10 -3.33301 10 -10v-392c0 -77.333 16.5 -142.5 49.5 -195.5s85.5 -79.5 157.5 -79.5c70.667 0 122.667 26.5 156 79.5s50 117.833 50 194.5v393c0 6.66699 3.33301 10 10 10
s10 -3.33301 10 -10v-392c0 -52 -7.83301 -100.333 -23.5 -145s-40.334 -80.667 -74.001 -108s-76.5 -41 -128.5 -41c-78 0 -135.333 28.333 -172 85zM245.501 784.999c-4.33301 4.66699 -6.5 10 -6.5 16s2.16699 11.333 6.5 16s9.5 7 15.5 7s11.167 -2.33301 15.5 -7
s6.5 -10 6.5 -16s-2.16699 -11.333 -6.5 -16s-9.5 -7 -15.5 -7s-11.167 2.33301 -15.5 7zM392.501 784.999c-4.33301 4.66699 -6.5 10 -6.5 16s2.16699 11.333 6.5 16s9.5 7 15.5 7s11.167 -2.33301 15.5 -7s6.5 -10 6.5 -16s-2.16699 -11.333 -6.5 -16s-9.5 -7 -15.5 -7
s-11.167 2.33301 -15.5 7z" />
    <glyph glyph-name="Yacute" unicode="&#xdd;" horiz-adv-x="555" 
d="M269 10l-0.00195312 240l-225 419c-2 4 -3 7 -3 9s0.833008 3.66699 2.5 5s3.83398 2 6.50098 2c4 0 7 -2 9 -6l220 -409l217 408c2.66699 4.66699 6 7 10 7c2.66699 0 4.83398 -0.666992 6.50098 -2s2.5 -3 2.5 -5c0 -2.66699 -1.66699 -6.66699 -5 -12l-222 -416v-240
c0 -6.66699 -3 -10 -9 -10c-6.66699 -0 -10 3.33301 -10 10zM225.998 750c-2 2 -3 4.33301 -3 7c0 3.33301 1.66699 6 5 8l103 70c4.66699 3.33301 8.33398 5 11.001 5s5 -1 7 -3s3 -4.33301 3 -7c0 -3.33301 -1.66699 -6 -5 -8l-103 -70
c-4.66699 -3.33301 -8.33398 -5 -11.001 -5s-5 1 -7 3z" />
    <glyph glyph-name="Thorn" unicode="&#xde;" horiz-adv-x="503" 
d="M108 10v665c0 2.66699 1 5 3 7s4.33301 3 7 3s5 -1 7 -3s3 -4.33301 3 -7v-140h169c51.333 0 91.833 -15 121.5 -45s44.5 -70.667 44.5 -122v-41c0 -51.333 -15.833 -92 -47.5 -122s-74.5 -45 -128.5 -45h-159v-150c0 -6.66699 -3.33301 -10 -10 -10s-10 3.33301 -10 10z
M287 179c49.333 0 87.833 13.499 115.5 40.499s41.5 63.5 41.5 109.5v37c0 46.667 -13 83.334 -39 110.001s-62 40 -108 40h-169v-337h159z" />
    <glyph glyph-name="germandbls" unicode="&#xdf;" horiz-adv-x="490" 
d="M406.5 309.5c25.667 -35.667 38.4971 -77.835 38.4971 -126.502c0 -56 -15.167 -102.333 -45.5 -139s-71.166 -55 -122.499 -55c-56.667 0 -103.334 22 -140.001 66c-2.66699 2.66699 -4 5.33398 -4 8.00098s0.833008 4.83398 2.5 6.50098s3.83398 2.5 6.50098 2.5
c3.33301 0 6.66602 -2 9.99902 -6c33.333 -39.333 75 -59 125 -59c46 0 82.167 16.667 108.5 50s39.5 75.333 39.5 126c0 56 -16.167 99.833 -48.5 131.5s-74.166 47.5 -125.499 47.5h-33c-2.66699 0 -5 0.833008 -7 2.5s-3 3.83398 -3 6.50098c0 6.66699 3.33301 10 10 10
h32c25.333 0 48.833 7 70.5 21s38.834 33.667 51.501 59s19 54 19 86c0 48.667 -11.667 86.667 -35 114s-57 41 -101 41c-53.333 0 -93.833 -20.833 -121.5 -62.5s-41.5 -96.167 -41.5 -163.5v-466c0 -6.66699 -3.33301 -10 -10 -10c-6 0 -9 3.33301 -9 10v476
c0 69.333 15.833 125.833 47.5 169.5s76.5 65.5 134.5 65.5c50 0 88.5 -15.5 115.5 -46.5s40.5 -73.5 40.5 -127.5c0 -39.333 -9.16699 -74.833 -27.5 -106.5s-45.833 -53.834 -82.5 -66.501c44.667 -7.33301 79.834 -28.833 105.501 -64.5z" />
    <glyph glyph-name="agrave" unicode="&#xe0;" horiz-adv-x="503" 
d="M95.5 60c-31.667 47.333 -47.502 105.333 -47.502 174c0 42 7 81.5 21 118.5s35.333 67.167 64 90.5s64.667 35 108 35c66.667 0 115.5 -24 146.5 -72s46.5 -107.333 46.5 -178v-218c0 -6.66699 -3.33301 -10 -10 -10c-6 -0 -9 3.33301 -9 10v98
c-5.33301 -7.33301 -12.666 -15 -21.999 -23l-74 -64c-13.333 -11.333 -25.666 -19.5 -36.999 -24.5s-25 -7.5 -41 -7.5c-65.333 0 -113.833 23.667 -145.5 71zM274.498 14c9.66699 4 19.832 10.998 30.499 20.998l74 64c12.667 10.667 21.834 20.834 27.501 30.501
s8.5 20.167 8.5 31.5v67c0 64.667 -13.833 119.334 -41.5 164.001s-71.834 67 -132.501 67c-39.333 0 -72 -10.833 -98 -32.5s-45 -49.5 -57 -83.5s-18 -70.333 -18 -109c0 -63.333 14 -116.833 42 -160.5s71.667 -65.5 131 -65.5c12.667 0 23.834 2 33.501 6z
M279.996 528.998l-103 70c-3.33301 2 -5 4.66699 -5 8c0 2.66699 1 5 3 7s4.33301 3 7 3s6.33398 -1.66699 11.001 -5l103 -70c3.33301 -2 5 -4.66699 5 -8c0 -2.66699 -1 -5 -3 -7s-4.33301 -3 -7 -3s-6.33398 1.66699 -11.001 5z" />
    <glyph glyph-name="aacute" unicode="&#xe1;" horiz-adv-x="503" 
d="M95.5 60c-31.667 47.333 -47.502 105.333 -47.502 174c0 42 7 81.5 21 118.5s35.333 67.167 64 90.5s64.667 35 108 35c66.667 0 115.5 -24 146.5 -72s46.5 -107.333 46.5 -178v-218c0 -6.66699 -3.33301 -10 -10 -10c-6 -0 -9 3.33301 -9 10v98
c-5.33301 -7.33301 -12.666 -15 -21.999 -23l-74 -64c-13.333 -11.333 -25.666 -19.5 -36.999 -24.5s-25 -7.5 -41 -7.5c-65.333 0 -113.833 23.667 -145.5 71zM274.498 14c9.66699 4 19.832 10.998 30.499 20.998l74 64c12.667 10.667 21.834 20.834 27.501 30.501
s8.5 20.167 8.5 31.5v67c0 64.667 -13.833 119.334 -41.5 164.001s-71.834 67 -132.501 67c-39.333 0 -72 -10.833 -98 -32.5s-45 -49.5 -57 -83.5s-18 -70.333 -18 -109c0 -63.333 14 -116.833 42 -160.5s71.667 -65.5 131 -65.5c12.667 0 23.834 2 33.501 6z
M194.996 526.998c-2 2 -3 4.33301 -3 7c0 3.33301 1.66699 6 5 8l103 70c4.66699 3.33301 8.33398 5 11.001 5s5 -1 7 -3s3 -4.33301 3 -7c0 -3.33301 -1.66699 -6 -5 -8l-103 -70c-4.66699 -3.33301 -8.33398 -5 -11.001 -5s-5 1 -7 3z" />
    <glyph glyph-name="acircumflex" unicode="&#xe2;" horiz-adv-x="503" 
d="M95.5 60c-31.667 47.333 -47.502 105.333 -47.502 174c0 42 7 81.5 21 118.5s35.333 67.167 64 90.5s64.667 35 108 35c66.667 0 115.5 -24 146.5 -72s46.5 -107.333 46.5 -178v-218c0 -6.66699 -3.33301 -10 -10 -10c-6 -0 -9 3.33301 -9 10v98
c-5.33301 -7.33301 -12.666 -15 -21.999 -23l-74 -64c-13.333 -11.333 -25.666 -19.5 -36.999 -24.5s-25 -7.5 -41 -7.5c-65.333 0 -113.833 23.667 -145.5 71zM274.498 14c9.66699 4 19.832 10.998 30.499 20.998l74 64c12.667 10.667 21.834 20.834 27.501 30.501
s8.5 20.167 8.5 31.5v67c0 64.667 -13.833 119.334 -41.5 164.001s-71.834 67 -132.501 67c-39.333 0 -72 -10.833 -98 -32.5s-45 -49.5 -57 -83.5s-18 -70.333 -18 -109c0 -63.333 14 -116.833 42 -160.5s71.667 -65.5 131 -65.5c12.667 0 23.834 2 33.501 6z
M160.996 526.998c-2 2 -2.99805 4.33301 -2.99805 7s1.33301 5.33398 4 8.00098l76 79c2.66699 2.66699 5.66699 4 9 4s6.33301 -1.33301 9 -4l76 -79c2.66699 -2.66699 4 -5.33398 4 -8.00098s-1 -5 -3 -7s-4.33301 -3 -7 -3s-5.33398 1.33301 -8.00098 4l-71 72l-71 -72
c-2.66699 -2.66699 -5.33398 -4 -8.00098 -4s-5 1 -7 3z" />
    <glyph glyph-name="atilde" unicode="&#xe3;" horiz-adv-x="503" 
d="M95.5 60c-31.667 47.333 -47.502 105.333 -47.502 174c0 42 7 81.5 21 118.5s35.333 67.167 64 90.5s64.667 35 108 35c66.667 0 115.5 -24 146.5 -72s46.5 -107.333 46.5 -178v-218c0 -6.66699 -3.33301 -10 -10 -10c-6 -0 -9 3.33301 -9 10v98
c-5.33301 -7.33301 -12.666 -15 -21.999 -23l-74 -64c-13.333 -11.333 -25.666 -19.5 -36.999 -24.5s-25 -7.5 -41 -7.5c-65.333 0 -113.833 23.667 -145.5 71zM274.498 14c9.66699 4 19.832 10.998 30.499 20.998l74 64c12.667 10.667 21.834 20.834 27.501 30.501
s8.5 20.167 8.5 31.5v67c0 64.667 -13.833 119.334 -41.5 164.001s-71.834 67 -132.501 67c-39.333 0 -72 -10.833 -98 -32.5s-45 -49.5 -57 -83.5s-18 -70.333 -18 -109c0 -63.333 14 -116.833 42 -160.5s71.667 -65.5 131 -65.5c12.667 0 23.834 2 33.501 6z
M136.996 544.998c-2 2 -2.66602 4.33301 -1.99902 7c2 18 9 33.5 21 46.5s26.667 19.5 44 19.5c11.333 0 20.666 -2.5 27.999 -7.5s16 -12.833 26 -23.5c7.33301 -8.66699 14 -15.167 20 -19.5s12.667 -6.5 20 -6.5c12 0 22.5 4.16699 31.5 12.5s14.833 20.5 17.5 36.5
c0.666992 6 3.66699 9 9 9c2.66699 0 5 -1 7 -3s2.66699 -4.33301 2 -7c-2 -18 -9 -33.5 -21 -46.5s-27 -19.5 -45 -19.5c-11.333 0 -20.5 2.5 -27.5 7.5s-15.5 12.833 -25.5 23.5c-7.33301 8 -14 14.333 -20 19s-12.667 7 -20 7c-24.667 0 -41 -16.333 -49 -49
c-2 -6 -5 -9 -9 -9c-2.66699 0 -5 1 -7 3z" />
    <glyph glyph-name="adieresis" unicode="&#xe4;" horiz-adv-x="503" 
d="M95.5 60c-31.667 47.333 -47.502 105.333 -47.502 174c0 42 7 81.5 21 118.5s35.333 67.167 64 90.5s64.667 35 108 35c66.667 0 115.5 -24 146.5 -72s46.5 -107.333 46.5 -178v-218c0 -6.66699 -3.33301 -10 -10 -10c-6 -0 -9 3.33301 -9 10v98
c-5.33301 -7.33301 -12.666 -15 -21.999 -23l-74 -64c-13.333 -11.333 -25.666 -19.5 -36.999 -24.5s-25 -7.5 -41 -7.5c-65.333 0 -113.833 23.667 -145.5 71zM274.498 14c9.66699 4 19.832 10.998 30.499 20.998l74 64c12.667 10.667 21.834 20.834 27.501 30.501
s8.5 20.167 8.5 31.5v67c0 64.667 -13.833 119.334 -41.5 164.001s-71.834 67 -132.501 67c-39.333 0 -72 -10.833 -98 -32.5s-45 -49.5 -57 -83.5s-18 -70.333 -18 -109c0 -63.333 14 -116.833 42 -160.5s71.667 -65.5 131 -65.5c12.667 0 23.834 2 33.501 6z
M157.496 561.998c-4.33301 4.66699 -6.5 10 -6.5 16s2.16699 11.333 6.5 16s9.5 7 15.5 7s11.167 -2.33301 15.5 -7s6.5 -10 6.5 -16s-2.16699 -11.333 -6.5 -16s-9.5 -7 -15.5 -7s-11.167 2.33301 -15.5 7zM304.496 561.998c-4.33301 4.66699 -6.5 10 -6.5 16
s2.16699 11.333 6.5 16s9.5 7 15.5 7s11.167 -2.33301 15.5 -7s6.5 -10 6.5 -16s-2.16699 -11.333 -6.5 -16s-9.5 -7 -15.5 -7s-11.167 2.33301 -15.5 7z" />
    <glyph glyph-name="aring" unicode="&#xe5;" horiz-adv-x="503" 
d="M95.5 60c-31.667 47.333 -47.502 105.333 -47.502 174c0 42 7 81.5 21 118.5s35.333 67.167 64 90.5s64.667 35 108 35c66.667 0 115.5 -24 146.5 -72s46.5 -107.333 46.5 -178v-218c0 -6.66699 -3.33301 -10 -10 -10c-6 -0 -9 3.33301 -9 10v98
c-5.33301 -7.33301 -12.666 -15 -21.999 -23l-74 -64c-13.333 -11.333 -25.666 -19.5 -36.999 -24.5s-25 -7.5 -41 -7.5c-65.333 0 -113.833 23.667 -145.5 71zM274.498 14c9.66699 4 19.832 10.998 30.499 20.998l74 64c12.667 10.667 21.834 20.834 27.501 30.501
s8.5 20.167 8.5 31.5v67c0 64.667 -13.833 119.334 -41.5 164.001s-71.834 67 -132.501 67c-39.333 0 -72 -10.833 -98 -32.5s-45 -49.5 -57 -83.5s-18 -70.333 -18 -109c0 -63.333 14 -116.833 42 -160.5s71.667 -65.5 131 -65.5c12.667 0 23.834 2 33.501 6z
M200.996 537.998c-12.667 12.667 -19 28 -19 46s6.33301 33.333 19 46s28 19 46 19s33.333 -6.33301 46 -19s19 -28 19 -46s-6.33301 -33.333 -19 -46s-28 -19 -46 -19s-33.333 6.33301 -46 19zM279.496 550.998c9 9.33301 13.5 20.333 13.5 33s-4.5 23.5 -13.5 32.5
s-19.833 13.5 -32.5 13.5s-23.667 -4.5 -33 -13.5s-14 -19.833 -14 -32.5s4.66699 -23.667 14 -33s20.333 -14 33 -14s23.5 4.66699 32.5 14z" />
    <glyph glyph-name="ae" unicode="&#xe6;" horiz-adv-x="828" 
d="M706 447c27.333 -20.667 47.8301 -47.666 61.4971 -80.999s20.5 -69.333 20.5 -108c0 -10 -4.33301 -15 -13 -15h-341c0 -77.333 15 -135.833 45 -175.5s72.667 -59.5 128 -59.5c22 0 42.833 3.66699 62.5 11s40.167 18.333 61.5 33c3.33301 2 6 3 8 3
s3.83301 -0.666992 5.5 -2s2.5 -3.33301 2.5 -6s-1 -5 -3 -7c-16 -15.333 -37 -27.666 -63 -36.999s-50.667 -14 -74 -14c-44 0 -80.333 11.167 -109 33.5s-50 52.5 -64 90.5v-103c0 -6.66699 -3.33301 -10 -10 -10c-6 0 -9 3.33301 -9 10v98
c-5.33301 -7.33301 -12.666 -15 -21.999 -23l-74 -64c-13.333 -11.333 -25.666 -19.5 -36.999 -24.5s-25 -7.5 -41 -7.5c-65.333 0 -113.833 23.667 -145.5 71s-47.5 105.333 -47.5 174c0 42 7 81.5 21 118.5s35.333 67.167 64 90.5s64.667 35 108 35
c50.667 0 91 -14.333 121 -43s50.667 -67.334 62 -116.001c12 47.333 33.333 85.666 64 114.999s70.334 44 119.001 44c38.667 0 71.667 -10.333 99 -31zM414.997 228.001c0 64.667 -13.835 119.332 -41.502 163.999s-71.834 67 -132.501 67
c-39.333 0 -72 -10.833 -98 -32.5s-45 -49.5 -57 -83.5s-18 -70.333 -18 -109c0 -63.333 14 -116.833 42 -160.5s71.667 -65.5 131 -65.5c12.667 0 23.834 2 33.501 6s19.834 11 30.501 21l74 64c12.667 10.667 21.834 20.834 27.501 30.501s8.5 20.167 8.5 31.5v67z
M765.995 261.999c0 31.333 -5.5 62 -16.5 92s-28.5 54.833 -52.5 74.5s-54 29.5 -90 29.5c-52 0 -92.5 -19 -121.5 -57s-45.833 -84.333 -50.5 -139h331z" />
    <glyph glyph-name="ccedilla" unicode="&#xe7;" horiz-adv-x="399" 
d="M361.5 45.5c1.66699 -1.66699 2.50391 -3.82812 2.50391 -6.49512s-1 -5 -3 -7c-15.333 -14.667 -33.5 -25.5 -54.5 -32.5s-42.833 -10.5 -65.5 -10.5h-3l-13 -34c35.333 -2 53 -18.333 53 -49c0 -13.333 -4.33301 -24.833 -13 -34.5s-20.334 -14.5 -35.001 -14.5
c-10.667 0 -21.167 2.83301 -31.5 8.5s-15.5 11.5 -15.5 17.5c0 2 0.666992 3.83301 2 5.5s3 2.5 5 2.5s7.16699 -2.83301 15.5 -8.5s16.5 -8.5 24.5 -8.5s14.833 3 20.5 9s8.5 13.667 8.5 23c0 17.333 -9.66699 27.333 -29 30c-3.33301 0.666992 -7.5 1.16699 -12.5 1.5
s-8.66699 1 -11 2s-3.5 2.83301 -3.5 5.5c0 3.33301 0.666992 6.33301 2 9l14 36c-58 5.33301 -101 31.166 -129 77.499s-42 101.5 -42 165.5c0 42 7 81.667 21 119s35.333 67.666 64 90.999s64.667 35 108 35c22.667 0 44.5 -3.5 65.5 -10.5s39.167 -17.833 54.5 -32.5
c2 -2 3 -4.33301 3 -7s-0.833008 -4.83398 -2.5 -6.50098s-3.5 -2.5 -5.5 -2.5s-4.66699 1 -8 3c-18.667 13.333 -35.834 22.666 -51.501 27.999s-34.167 8 -55.5 8c-39.333 0 -72 -10.833 -98 -32.5s-45 -49.667 -57 -84s-18 -70.5 -18 -108.5
c0 -62.667 14 -115.834 42 -159.501s71.667 -65.5 131 -65.5c21.333 0 39.666 2.83301 54.999 8.5s32.666 15.167 51.999 28.5c3.33301 2 6 3 8 3s3.83301 -0.833008 5.5 -2.5z" />
    <glyph glyph-name="egrave" unicode="&#xe8;" horiz-adv-x="462" 
d="M95.5 59.5c-31.667 47 -47.5 104.833 -47.5 173.5c0 42 7 81.667 21 119s35.333 67.666 64 90.999s64.667 35 108 35c38.667 0 71.667 -10.333 99 -31s47.833 -47.667 61.5 -81s20.5 -69.333 20.5 -108c0 -10 -4.33301 -15 -13 -15h-341c0 -77.333 15 -135.833 45 -175.5
s72.667 -59.5 128 -59.5c22 0 42.833 3.66699 62.5 11s40.167 18.333 61.5 33c3.33301 2 6 3 8 3s3.83301 -0.666992 5.5 -2s2.5 -3.33301 2.5 -6s-1 -5 -3 -7c-16 -15.333 -37 -27.666 -63 -36.999s-50.667 -14 -74 -14c-65.333 0 -113.833 23.5 -145.5 70.5zM400 262
c0 31.333 -5.5 62 -16.5 92s-28.5 54.833 -52.5 74.5s-54 29.5 -90 29.5c-52 0 -92.5 -19 -121.5 -57s-45.833 -84.333 -50.5 -139h331zM270 529l-103 70c-3.33301 2 -5 4.66699 -5 8c0 2.66699 1 5 3 7s4.33301 3 7 3s6.33398 -1.66699 11.001 -5l103 -70
c3.33301 -2 5 -4.66699 5 -8c0 -2.66699 -1 -5 -3 -7s-4.33301 -3 -7 -3s-6.33398 1.66699 -11.001 5z" />
    <glyph glyph-name="eacute" unicode="&#xe9;" horiz-adv-x="462" 
d="M95.5 59.5c-31.667 47 -47.5 104.833 -47.5 173.5c0 42 7 81.667 21 119s35.333 67.666 64 90.999s64.667 35 108 35c38.667 0 71.667 -10.333 99 -31s47.833 -47.667 61.5 -81s20.5 -69.333 20.5 -108c0 -10 -4.33301 -15 -13 -15h-341c0 -77.333 15 -135.833 45 -175.5
s72.667 -59.5 128 -59.5c22 0 42.833 3.66699 62.5 11s40.167 18.333 61.5 33c3.33301 2 6 3 8 3s3.83301 -0.666992 5.5 -2s2.5 -3.33301 2.5 -6s-1 -5 -3 -7c-16 -15.333 -37 -27.666 -63 -36.999s-50.667 -14 -74 -14c-65.333 0 -113.833 23.5 -145.5 70.5zM400 262
c0 31.333 -5.5 62 -16.5 92s-28.5 54.833 -52.5 74.5s-54 29.5 -90 29.5c-52 0 -92.5 -19 -121.5 -57s-45.833 -84.333 -50.5 -139h331zM185 527c-2 2 -3 4.33301 -3 7c0 3.33301 1.66699 6 5 8l103 70c4.66699 3.33301 8.33398 5 11.001 5s5 -1 7 -3s3 -4.33301 3 -7
c0 -3.33301 -1.66699 -6 -5 -8l-103 -70c-4.66699 -3.33301 -8.33398 -5 -11.001 -5s-5 1 -7 3z" />
    <glyph glyph-name="ecircumflex" unicode="&#xea;" horiz-adv-x="462" 
d="M95.5 59.5c-31.667 47 -47.5 104.833 -47.5 173.5c0 42 7 81.667 21 119s35.333 67.666 64 90.999s64.667 35 108 35c38.667 0 71.667 -10.333 99 -31s47.833 -47.667 61.5 -81s20.5 -69.333 20.5 -108c0 -10 -4.33301 -15 -13 -15h-341c0 -77.333 15 -135.833 45 -175.5
s72.667 -59.5 128 -59.5c22 0 42.833 3.66699 62.5 11s40.167 18.333 61.5 33c3.33301 2 6 3 8 3s3.83301 -0.666992 5.5 -2s2.5 -3.33301 2.5 -6s-1 -5 -3 -7c-16 -15.333 -37 -27.666 -63 -36.999s-50.667 -14 -74 -14c-65.333 0 -113.833 23.5 -145.5 70.5zM400 262
c0 31.333 -5.5 62 -16.5 92s-28.5 54.833 -52.5 74.5s-54 29.5 -90 29.5c-52 0 -92.5 -19 -121.5 -57s-45.833 -84.333 -50.5 -139h331zM151 527c-2 2 -2.99805 4.33301 -2.99805 7s1.33301 5.33398 4 8.00098l76 79c2.66699 2.66699 5.66699 4 9 4s6.33301 -1.33301 9 -4
l76 -79c2.66699 -2.66699 4 -5.33398 4 -8.00098s-1 -5 -3 -7s-4.33301 -3 -7 -3s-5.33398 1.33301 -8.00098 4l-71 72l-71 -72c-2.66699 -2.66699 -5.33398 -4 -8.00098 -4s-5 1 -7 3z" />
    <glyph glyph-name="edieresis" unicode="&#xeb;" horiz-adv-x="462" 
d="M95.5 59.5c-31.667 47 -47.5 104.833 -47.5 173.5c0 42 7 81.667 21 119s35.333 67.666 64 90.999s64.667 35 108 35c38.667 0 71.667 -10.333 99 -31s47.833 -47.667 61.5 -81s20.5 -69.333 20.5 -108c0 -10 -4.33301 -15 -13 -15h-341c0 -77.333 15 -135.833 45 -175.5
s72.667 -59.5 128 -59.5c22 0 42.833 3.66699 62.5 11s40.167 18.333 61.5 33c3.33301 2 6 3 8 3s3.83301 -0.666992 5.5 -2s2.5 -3.33301 2.5 -6s-1 -5 -3 -7c-16 -15.333 -37 -27.666 -63 -36.999s-50.667 -14 -74 -14c-65.333 0 -113.833 23.5 -145.5 70.5zM400 262
c0 31.333 -5.5 62 -16.5 92s-28.5 54.833 -52.5 74.5s-54 29.5 -90 29.5c-52 0 -92.5 -19 -121.5 -57s-45.833 -84.333 -50.5 -139h331zM147.5 562c-4.33301 4.66699 -6.5 10 -6.5 16s2.16699 11.333 6.5 16s9.5 7 15.5 7s11.167 -2.33301 15.5 -7s6.5 -10 6.5 -16
s-2.16699 -11.333 -6.5 -16s-9.5 -7 -15.5 -7s-11.167 2.33301 -15.5 7zM294.5 562c-4.33301 4.66699 -6.5 10 -6.5 16s2.16699 11.333 6.5 16s9.5 7 15.5 7s11.167 -2.33301 15.5 -7s6.5 -10 6.5 -16s-2.16699 -11.333 -6.5 -16s-9.5 -7 -15.5 -7s-11.167 2.33301 -15.5 7z
" />
    <glyph glyph-name="igrave" unicode="&#xec;" horiz-adv-x="166" 
d="M76 3c-2 2 -3 4.33301 -3 7v447c0 2.66699 1 5 3 7s4.33301 3 7 3s4.83398 -1 6.50098 -3s2.5 -4.33301 2.5 -7v-447c0 -2.66699 -0.833008 -5 -2.5 -7s-3.83398 -3 -6.50098 -3s-5 1 -7 3zM116 529l-103 70c-3.33301 2 -5 4.66699 -5 8c0 2.66699 1 5 3 7s4.33301 3 7 3
s6.33398 -1.66699 11.001 -5l103 -70c3.33301 -2 5 -4.66699 5 -8c0 -2.66699 -1 -5 -3 -7s-4.33301 -3 -7 -3s-6.33398 1.66699 -11.001 5z" />
    <glyph glyph-name="iacute" unicode="&#xed;" horiz-adv-x="166" 
d="M76 3c-2 2 -3 4.33301 -3 7v447c0 2.66699 1 5 3 7s4.33301 3 7 3s4.83398 -1 6.50098 -3s2.5 -4.33301 2.5 -7v-447c0 -2.66699 -0.833008 -5 -2.5 -7s-3.83398 -3 -6.50098 -3s-5 1 -7 3zM31 527c-2 2 -3 4.33301 -3 7c0 3.33301 1.66699 6 5 8l103 70
c4.66699 3.33301 8.33398 5 11.001 5s5 -1 7 -3s3 -4.33301 3 -7c0 -3.33301 -1.66699 -6 -5 -8l-103 -70c-4.66699 -3.33301 -8.33398 -5 -11.001 -5s-5 1 -7 3z" />
    <glyph glyph-name="icircumflex" unicode="&#xee;" horiz-adv-x="166" 
d="M76 3c-2 2 -3 4.33301 -3 7v447c0 2.66699 1 5 3 7s4.33301 3 7 3s4.83398 -1 6.50098 -3s2.5 -4.33301 2.5 -7v-447c0 -2.66699 -0.833008 -5 -2.5 -7s-3.83398 -3 -6.50098 -3s-5 1 -7 3zM-3 527c-2 2 -2.99805 4.33301 -2.99805 7s1.33301 5.33398 4 8.00098l76 79
c2.66699 2.66699 5.66699 4 9 4s6.33301 -1.33301 9 -4l76 -79c2.66699 -2.66699 4 -5.33398 4 -8.00098s-1 -5 -3 -7s-4.33301 -3 -7 -3s-5.33398 1.33301 -8.00098 4l-71 72l-71 -72c-2.66699 -2.66699 -5.33398 -4 -8.00098 -4s-5 1 -7 3z" />
    <glyph glyph-name="idieresis" unicode="&#xef;" horiz-adv-x="166" 
d="M76 3c-2 2 -3 4.33301 -3 7v447c0 2.66699 1 5 3 7s4.33301 3 7 3s4.83398 -1 6.50098 -3s2.5 -4.33301 2.5 -7v-447c0 -2.66699 -0.833008 -5 -2.5 -7s-3.83398 -3 -6.50098 -3s-5 1 -7 3zM-6.5 562c-4.33301 4.66699 -6.5 10 -6.5 16s2.16699 11.333 6.5 16
s9.5 7 15.5 7s11.167 -2.33301 15.5 -7s6.5 -10 6.5 -16s-2.16699 -11.333 -6.5 -16s-9.5 -7 -15.5 -7s-11.167 2.33301 -15.5 7zM140.5 562c-4.33301 4.66699 -6.5 10 -6.5 16s2.16699 11.333 6.5 16s9.5 7 15.5 7s11.167 -2.33301 15.5 -7s6.5 -10 6.5 -16
s-2.16699 -11.333 -6.5 -16s-9.5 -7 -15.5 -7s-11.167 2.33301 -15.5 7z" />
    <glyph glyph-name="eth" unicode="&#xf0;" horiz-adv-x="470" 
d="M393 493c18 -62 27.0039 -137.333 27.0039 -226c0 -84 -16.5 -151.333 -49.5 -202s-81.833 -76 -146.5 -76c-34.667 0 -65.334 9.66699 -92.001 29s-47.334 45.333 -62.001 78s-22 68.667 -22 108c0 40 7.33301 76.333 22 109s36.5 58.667 65.5 78s63.833 29 104.5 29
c14.667 0 27.5 -2.66699 38.5 -8s22.5 -13.333 34.5 -24l69 -62c6.66699 -5.33301 12.667 -12 18 -20c-2 76 -12 140.833 -30 194.5s-45 97.834 -81 132.501l-102 -66c-3.33301 -2 -6 -3 -8 -3c-2.66699 0 -5 1 -7 3s-3 4.33301 -3 7c0 4 2.66699 7.66699 8 11l96 62
c-18.667 16 -38.167 28.667 -58.5 38s-43.833 15.333 -70.5 18c-6.66699 1.33301 -10 4.33301 -10 9c0 6 3 9 9 9c25.333 -0.666992 51.166 -6.66699 77.499 -18s50.166 -26 71.499 -44l92 59c3.33301 2 6 3 8 3s4 -0.833008 6 -2.5s3 -3.83398 3 -6.50098
c0 -4 -2.33301 -7.66699 -7 -11l-87 -56c39.333 -39.333 68 -90 86 -152zM323.504 42.5c26.333 23 45.666 52.333 57.999 88s18.5 72.834 18.5 111.501c0 26.667 -10.667 50 -32 70l-69 62c-10 8.66699 -19.333 15.167 -28 19.5s-19 6.5 -31 6.5
c-55.333 0 -97.833 -18.5 -127.5 -55.5s-44.5 -83.833 -44.5 -140.5c0 -36 6.33301 -68.833 19 -98.5s30.834 -53.334 54.501 -71.001s51.167 -26.5 82.5 -26.5c40 0 73.167 11.5 99.5 34.5z" />
    <glyph glyph-name="ntilde" unicode="&#xf1;" horiz-adv-x="528" 
d="M73 10l-0.00195312 446.999c0 6.66699 3 10 9 10c6.66699 0 10 -3.33301 10 -10v-98c8 10 19 21 33 33l63 54c12.667 11.333 24.834 19.5 36.501 24.5s25.5 7.5 41.5 7.5c65.333 0 113.833 -23.5 145.5 -70.5s47.5 -104.833 47.5 -173.5v-224
c0 -6.66699 -3.33301 -10 -10 -10c-6 0 -9 3.33301 -9 10v224c0 62.667 -14.167 115.667 -42.5 159s-72.166 65 -131.499 65c-13.333 0 -24.5 -2.16699 -33.5 -6.5s-19.167 -11.166 -30.5 -20.499l-75 -64c-13.333 -11.333 -22.5 -21.333 -27.5 -30s-7.5 -19 -7.5 -31v-296
c0 -6.66699 -3.33301 -10 -10 -10c-6 -0 -9 3.33301 -9 10zM153.998 544.999c-2 2 -2.66602 4.33301 -1.99902 7c2 18 9 33.5 21 46.5s26.667 19.5 44 19.5c11.333 0 20.666 -2.5 27.999 -7.5s16 -12.833 26 -23.5c7.33301 -8.66699 14 -15.167 20 -19.5
s12.667 -6.5 20 -6.5c12 0 22.5 4.16699 31.5 12.5s14.833 20.5 17.5 36.5c0.666992 6 3.66699 9 9 9c2.66699 0 5 -1 7 -3s2.66699 -4.33301 2 -7c-2 -18 -9 -33.5 -21 -46.5s-27 -19.5 -45 -19.5c-11.333 0 -20.5 2.5 -27.5 7.5s-15.5 12.833 -25.5 23.5
c-7.33301 8 -14 14.333 -20 19s-12.667 7 -20 7c-24.667 0 -41 -16.333 -49 -49c-2 -6 -5 -9 -9 -9c-2.66699 0 -5 1 -7 3z" />
    <glyph glyph-name="ograve" unicode="&#xf2;" horiz-adv-x="482" 
d="M95.5 59.5c-31.667 47 -47.5 104.834 -47.5 173.501c0 42 7 81.667 21 119s35.333 67.666 64 90.999s64.667 35 108 35c65.333 0 113.833 -23.667 145.5 -71s47.5 -105.333 47.5 -174c0 -42 -7 -81.5 -21 -118.5s-35.333 -67.167 -64 -90.5s-64.667 -35 -108 -35
c-65.333 0 -113.833 23.5 -145.5 70.5zM339 40.501c26 21.667 45.167 49.5 57.5 83.5s18.5 70.333 18.5 109c0 62.667 -14 115.834 -42 159.501s-72 65.5 -132 65.5c-39.333 0 -72 -10.833 -98 -32.5s-45 -49.667 -57 -84s-18 -70.5 -18 -108.5
c0 -62.667 14 -115.834 42 -159.501s71.667 -65.5 131 -65.5c39.333 0 72 10.833 98 32.5zM274 529.001l-103 70c-3.33301 2 -5 4.66699 -5 8c0 2.66699 1 5 3 7s4.33301 3 7 3s6.33398 -1.66699 11.001 -5l103 -70c3.33301 -2 5 -4.66699 5 -8c0 -2.66699 -1 -5 -3 -7
s-4.33301 -3 -7 -3s-6.33398 1.66699 -11.001 5z" />
    <glyph glyph-name="oacute" unicode="&#xf3;" horiz-adv-x="482" 
d="M95.5 59.5c-31.667 47 -47.5 104.834 -47.5 173.501c0 42 7 81.667 21 119s35.333 67.666 64 90.999s64.667 35 108 35c65.333 0 113.833 -23.667 145.5 -71s47.5 -105.333 47.5 -174c0 -42 -7 -81.5 -21 -118.5s-35.333 -67.167 -64 -90.5s-64.667 -35 -108 -35
c-65.333 0 -113.833 23.5 -145.5 70.5zM339 40.501c26 21.667 45.167 49.5 57.5 83.5s18.5 70.333 18.5 109c0 62.667 -14 115.834 -42 159.501s-72 65.5 -132 65.5c-39.333 0 -72 -10.833 -98 -32.5s-45 -49.667 -57 -84s-18 -70.5 -18 -108.5
c0 -62.667 14 -115.834 42 -159.501s71.667 -65.5 131 -65.5c39.333 0 72 10.833 98 32.5zM189 527.001c-2 2 -3 4.33301 -3 7c0 3.33301 1.66699 6 5 8l103 70c4.66699 3.33301 8.33398 5 11.001 5s5 -1 7 -3s3 -4.33301 3 -7c0 -3.33301 -1.66699 -6 -5 -8l-103 -70
c-4.66699 -3.33301 -8.33398 -5 -11.001 -5s-5 1 -7 3z" />
    <glyph glyph-name="ocircumflex" unicode="&#xf4;" horiz-adv-x="482" 
d="M95.5 59.5c-31.667 47 -47.5 104.834 -47.5 173.501c0 42 7 81.667 21 119s35.333 67.666 64 90.999s64.667 35 108 35c65.333 0 113.833 -23.667 145.5 -71s47.5 -105.333 47.5 -174c0 -42 -7 -81.5 -21 -118.5s-35.333 -67.167 -64 -90.5s-64.667 -35 -108 -35
c-65.333 0 -113.833 23.5 -145.5 70.5zM339 40.501c26 21.667 45.167 49.5 57.5 83.5s18.5 70.333 18.5 109c0 62.667 -14 115.834 -42 159.501s-72 65.5 -132 65.5c-39.333 0 -72 -10.833 -98 -32.5s-45 -49.667 -57 -84s-18 -70.5 -18 -108.5
c0 -62.667 14 -115.834 42 -159.501s71.667 -65.5 131 -65.5c39.333 0 72 10.833 98 32.5zM155 527.001c-2 2 -2.99805 4.33301 -2.99805 7s1.33301 5.33398 4 8.00098l76 79c2.66699 2.66699 5.66699 4 9 4s6.33301 -1.33301 9 -4l76 -79
c2.66699 -2.66699 4 -5.33398 4 -8.00098s-1 -5 -3 -7s-4.33301 -3 -7 -3s-5.33398 1.33301 -8.00098 4l-71 72l-71 -72c-2.66699 -2.66699 -5.33398 -4 -8.00098 -4s-5 1 -7 3z" />
    <glyph glyph-name="otilde" unicode="&#xf5;" horiz-adv-x="482" 
d="M95.5 59.5c-31.667 47 -47.5 104.834 -47.5 173.501c0 42 7 81.667 21 119s35.333 67.666 64 90.999s64.667 35 108 35c65.333 0 113.833 -23.667 145.5 -71s47.5 -105.333 47.5 -174c0 -42 -7 -81.5 -21 -118.5s-35.333 -67.167 -64 -90.5s-64.667 -35 -108 -35
c-65.333 0 -113.833 23.5 -145.5 70.5zM339 40.501c26 21.667 45.167 49.5 57.5 83.5s18.5 70.333 18.5 109c0 62.667 -14 115.834 -42 159.501s-72 65.5 -132 65.5c-39.333 0 -72 -10.833 -98 -32.5s-45 -49.667 -57 -84s-18 -70.5 -18 -108.5
c0 -62.667 14 -115.834 42 -159.501s71.667 -65.5 131 -65.5c39.333 0 72 10.833 98 32.5zM131 545.001c-2 2 -2.66602 4.33301 -1.99902 7c2 18 9 33.5 21 46.5s26.667 19.5 44 19.5c11.333 0 20.666 -2.5 27.999 -7.5s16 -12.833 26 -23.5
c7.33301 -8.66699 14 -15.167 20 -19.5s12.667 -6.5 20 -6.5c12 0 22.5 4.16699 31.5 12.5s14.833 20.5 17.5 36.5c0.666992 6 3.66699 9 9 9c2.66699 0 5 -1 7 -3s2.66699 -4.33301 2 -7c-2 -18 -9 -33.5 -21 -46.5s-27 -19.5 -45 -19.5c-11.333 0 -20.5 2.5 -27.5 7.5
s-15.5 12.833 -25.5 23.5c-7.33301 8 -14 14.333 -20 19s-12.667 7 -20 7c-24.667 0 -41 -16.333 -49 -49c-2 -6 -5 -9 -9 -9c-2.66699 0 -5 1 -7 3z" />
    <glyph glyph-name="odieresis" unicode="&#xf6;" horiz-adv-x="482" 
d="M95.5 59.5c-31.667 47 -47.5 104.834 -47.5 173.501c0 42 7 81.667 21 119s35.333 67.666 64 90.999s64.667 35 108 35c65.333 0 113.833 -23.667 145.5 -71s47.5 -105.333 47.5 -174c0 -42 -7 -81.5 -21 -118.5s-35.333 -67.167 -64 -90.5s-64.667 -35 -108 -35
c-65.333 0 -113.833 23.5 -145.5 70.5zM339 40.501c26 21.667 45.167 49.5 57.5 83.5s18.5 70.333 18.5 109c0 62.667 -14 115.834 -42 159.501s-72 65.5 -132 65.5c-39.333 0 -72 -10.833 -98 -32.5s-45 -49.667 -57 -84s-18 -70.5 -18 -108.5
c0 -62.667 14 -115.834 42 -159.501s71.667 -65.5 131 -65.5c39.333 0 72 10.833 98 32.5zM151.5 562.001c-4.33301 4.66699 -6.5 10 -6.5 16s2.16699 11.333 6.5 16s9.5 7 15.5 7s11.167 -2.33301 15.5 -7s6.5 -10 6.5 -16s-2.16699 -11.333 -6.5 -16s-9.5 -7 -15.5 -7
s-11.167 2.33301 -15.5 7zM298.5 562.001c-4.33301 4.66699 -6.5 10 -6.5 16s2.16699 11.333 6.5 16s9.5 7 15.5 7s11.167 -2.33301 15.5 -7s6.5 -10 6.5 -16s-2.16699 -11.333 -6.5 -16s-9.5 -7 -15.5 -7s-11.167 2.33301 -15.5 7z" />
    <glyph glyph-name="divide" unicode="&#xf7;" 
d="M76 233c-2 2 -3 4.33301 -3 7s1 5 3 7s4.33301 3 7 3h383c2.66699 0 5 -1 7 -3s3 -4.33301 3 -7s-1 -5 -3 -7s-4.33301 -3 -7 -3h-383c-2.66699 0 -5 1 -7 3zM258.5 373c-4.33301 4.66699 -6.5 10 -6.5 16s2.16699 11.333 6.5 16s9.5 7 15.5 7s11.167 -2.33301 15.5 -7
s6.5 -10 6.5 -16s-2.16699 -11.333 -6.5 -16s-9.5 -7 -15.5 -7s-11.167 2.33301 -15.5 7zM258.5 76c-4.33301 4.66699 -6.5 10 -6.5 16s2.16699 11.333 6.5 16s9.5 7 15.5 7s11.167 -2.33301 15.5 -7s6.5 -10 6.5 -16s-2.16699 -11.333 -6.5 -16s-9.5 -7 -15.5 -7
s-11.167 2.33301 -15.5 7z" />
    <glyph glyph-name="oslash" unicode="&#xf8;" horiz-adv-x="482" 
d="M440 469l-52.001 -64.999c30.667 -44 46 -101 46 -171c0 -42 -7 -81.5 -21 -118.5s-35.333 -67.167 -64 -90.5s-64.667 -35 -108 -35c-56.667 0 -101.667 19.333 -135 58l-45 -57c-5.33301 -7.33301 -10 -11 -14 -11c-6 0 -9 3 -9 9c0 3.33301 1.33301 6.66602 4 9.99902
l51 65c-15.333 22 -26.666 47.833 -33.999 77.5s-11 60.5 -11 92.5c0 42 7 81.667 21 119s35.333 67.666 64 90.999s64.667 35 108 35c56 0 101 -19.333 135 -58l45 57c5.33301 7.33301 10 11 14 11c6 0 9 -3 9 -9c0 -3.33301 -1.33301 -6.66602 -4 -9.99902z
M105.999 78.001l258 327c-29.333 36 -70.333 54 -123 54c-39.333 0 -72 -11 -98 -33s-45.167 -50.167 -57.5 -84.5s-18.5 -70.5 -18.5 -108.5c0 -63.333 13 -115 39 -155zM376.999 389.001l-258.998 -327c29.333 -36.667 70.333 -55 123 -55
c39.333 0 72.166 10.833 98.499 32.5s45.666 49.667 57.999 84s18.5 70.833 18.5 109.5c0 64 -13 116 -39 156z" />
    <glyph glyph-name="ugrave" unicode="&#xf9;" horiz-adv-x="516" 
d="M115.5 59.5c-31 47 -46.501 104.835 -46.501 173.502v224c0 6.66699 3 10 9 10c6.66699 0 10 -3.33301 10 -10v-224c0 -62.667 13.833 -115.834 41.5 -159.501s70.5 -65.5 128.5 -65.5c59.333 0 102.5 21.667 129.5 65s40.5 96.666 40.5 159.999v224c0 6.66699 3 10 9 10
c6.66699 0 10 -3.33301 10 -10v-224c0 -69.333 -15.167 -127.333 -45.5 -174s-78.166 -70 -143.499 -70c-64 0 -111.5 23.5 -142.5 70.5zM290.999 529.002l-103 70c-3.33301 2 -5 4.66699 -5 8c0 2.66699 1 5 3 7s4.33301 3 7 3s6.33398 -1.66699 11.001 -5l103 -70
c3.33301 -2 5 -4.66699 5 -8c0 -2.66699 -1 -5 -3 -7s-4.33301 -3 -7 -3s-6.33398 1.66699 -11.001 5z" />
    <glyph glyph-name="uacute" unicode="&#xfa;" horiz-adv-x="516" 
d="M115.5 59.5c-31 47 -46.501 104.835 -46.501 173.502v224c0 6.66699 3 10 9 10c6.66699 0 10 -3.33301 10 -10v-224c0 -62.667 13.833 -115.834 41.5 -159.501s70.5 -65.5 128.5 -65.5c59.333 0 102.5 21.667 129.5 65s40.5 96.666 40.5 159.999v224c0 6.66699 3 10 9 10
c6.66699 0 10 -3.33301 10 -10v-224c0 -69.333 -15.167 -127.333 -45.5 -174s-78.166 -70 -143.499 -70c-64 0 -111.5 23.5 -142.5 70.5zM205.999 527.002c-2 2 -3 4.33301 -3 7c0 3.33301 1.66699 6 5 8l103 70c4.66699 3.33301 8.33398 5 11.001 5s5 -1 7 -3
s3 -4.33301 3 -7c0 -3.33301 -1.66699 -6 -5 -8l-103 -70c-4.66699 -3.33301 -8.33398 -5 -11.001 -5s-5 1 -7 3z" />
    <glyph glyph-name="ucircumflex" unicode="&#xfb;" horiz-adv-x="516" 
d="M115.5 59.5c-31 47 -46.501 104.835 -46.501 173.502v224c0 6.66699 3 10 9 10c6.66699 0 10 -3.33301 10 -10v-224c0 -62.667 13.833 -115.834 41.5 -159.501s70.5 -65.5 128.5 -65.5c59.333 0 102.5 21.667 129.5 65s40.5 96.666 40.5 159.999v224c0 6.66699 3 10 9 10
c6.66699 0 10 -3.33301 10 -10v-224c0 -69.333 -15.167 -127.333 -45.5 -174s-78.166 -70 -143.499 -70c-64 0 -111.5 23.5 -142.5 70.5zM171.999 527.002c-2 2 -2.99805 4.33301 -2.99805 7s1.33301 5.33398 4 8.00098l76 79c2.66699 2.66699 5.66699 4 9 4
s6.33301 -1.33301 9 -4l76 -79c2.66699 -2.66699 4 -5.33398 4 -8.00098s-1 -5 -3 -7s-4.33301 -3 -7 -3s-5.33398 1.33301 -8.00098 4l-71 72l-71 -72c-2.66699 -2.66699 -5.33398 -4 -8.00098 -4s-5 1 -7 3z" />
    <glyph glyph-name="udieresis" unicode="&#xfc;" horiz-adv-x="516" 
d="M115.5 59.5c-31 47 -46.501 104.835 -46.501 173.502v224c0 6.66699 3 10 9 10c6.66699 0 10 -3.33301 10 -10v-224c0 -62.667 13.833 -115.834 41.5 -159.501s70.5 -65.5 128.5 -65.5c59.333 0 102.5 21.667 129.5 65s40.5 96.666 40.5 159.999v224c0 6.66699 3 10 9 10
c6.66699 0 10 -3.33301 10 -10v-224c0 -69.333 -15.167 -127.333 -45.5 -174s-78.166 -70 -143.499 -70c-64 0 -111.5 23.5 -142.5 70.5zM168.499 562.002c-4.33301 4.66699 -6.5 10 -6.5 16s2.16699 11.333 6.5 16s9.5 7 15.5 7s11.167 -2.33301 15.5 -7s6.5 -10 6.5 -16
s-2.16699 -11.333 -6.5 -16s-9.5 -7 -15.5 -7s-11.167 2.33301 -15.5 7zM315.499 562.002c-4.33301 4.66699 -6.5 10 -6.5 16s2.16699 11.333 6.5 16s9.5 7 15.5 7s11.167 -2.33301 15.5 -7s6.5 -10 6.5 -16s-2.16699 -11.333 -6.5 -16s-9.5 -7 -15.5 -7
s-11.167 2.33301 -15.5 7z" />
    <glyph glyph-name="yacute" unicode="&#xfd;" horiz-adv-x="515" 
d="M238 -255c0 6.66699 3.33301 10.001 10 10.001c51.333 0 92 17.333 122 52c18 20.667 31.333 46.5 40 77.5s13 63.833 13 98.5v114c-6 -7.33301 -14.333 -16 -25 -26l-58 -50c-12.667 -11.333 -24.834 -19.5 -36.501 -24.5s-25.5 -7.5 -41.5 -7.5
c-65.333 0 -113.833 23.5 -145.5 70.5s-47.5 104.833 -47.5 173.5v224c0 6.66699 3.33301 10 10 10c6 0 9 -3.33301 9 -10v-224c0 -62.667 14.167 -115.834 42.5 -159.501s72.166 -65.5 131.499 -65.5c13.333 0 24.5 2.16699 33.5 6.5s19.167 11.166 30.5 20.499l61 52
c12.667 11.333 21.834 21.5 27.501 30.5s8.5 18.833 8.5 29.5v310c0 6.66699 3 10 9 10c6.66699 0 10 -3.33301 10 -10v-474c0 -37.333 -4.83301 -72.666 -14.5 -105.999s-24.167 -61.333 -43.5 -84c-33.333 -38.667 -78.666 -58 -135.999 -58
c-6.66699 0 -10 3.33301 -10 10zM206 527.001c-2 2 -3 4.33301 -3 7c0 3.33301 1.66699 6 5 8l103 70c4.66699 3.33301 8.33398 5 11.001 5s5 -1 7 -3s3 -4.33301 3 -7c0 -3.33301 -1.66699 -6 -5 -8l-103 -70c-4.66699 -3.33301 -8.33398 -5 -11.001 -5s-5 1 -7 3z" />
    <glyph glyph-name="thorn" unicode="&#xfe;" horiz-adv-x="507" 
d="M73 -244l0.000976562 955c0 6.66699 3 10 9 10c6.66699 0 10 -3.33301 10 -10v-353c4.66699 6.66699 13.667 16 27 28l69 60c13.333 11.333 25.833 19.5 37.5 24.5s25.167 7.5 40.5 7.5c65.333 0 113.833 -23.667 145.5 -71s47.5 -105.333 47.5 -174
c0 -42 -7 -81.5 -21 -118.5s-35.333 -67.167 -64 -90.5s-64.667 -35 -108 -35c-42 0 -77.833 10.5 -107.5 31.5s-51.834 51.5 -66.501 91.5v-356c0 -6.66699 -3.33301 -10 -10 -10c-6 0 -9 3.33301 -9 10zM364.001 40.5c26 21.667 45.001 49.502 57.001 83.502
s18 70.333 18 109c0 63.333 -13.833 116.666 -41.5 159.999s-71.5 65 -131.5 65c-13.333 0 -24.5 -2 -33.5 -6s-19.167 -11 -30.5 -21l-75 -64c-13.333 -11.333 -22.5 -21.5 -27.5 -30.5s-7.5 -19.167 -7.5 -30.5v-73c0 -62.667 14.167 -115.834 42.5 -159.501
s72.166 -65.5 131.499 -65.5c39.333 0 72 10.833 98 32.5z" />
    <glyph glyph-name="ydieresis" unicode="&#xff;" horiz-adv-x="515" 
d="M238 -255c0 6.66699 3.33301 10.001 10 10.001c51.333 0 92 17.333 122 52c18 20.667 31.333 46.5 40 77.5s13 63.833 13 98.5v114c-6 -7.33301 -14.333 -16 -25 -26l-58 -50c-12.667 -11.333 -24.834 -19.5 -36.501 -24.5s-25.5 -7.5 -41.5 -7.5
c-65.333 0 -113.833 23.5 -145.5 70.5s-47.5 104.833 -47.5 173.5v224c0 6.66699 3.33301 10 10 10c6 0 9 -3.33301 9 -10v-224c0 -62.667 14.167 -115.834 42.5 -159.501s72.166 -65.5 131.499 -65.5c13.333 0 24.5 2.16699 33.5 6.5s19.167 11.166 30.5 20.499l61 52
c12.667 11.333 21.834 21.5 27.501 30.5s8.5 18.833 8.5 29.5v310c0 6.66699 3 10 9 10c6.66699 0 10 -3.33301 10 -10v-474c0 -37.333 -4.83301 -72.666 -14.5 -105.999s-24.167 -61.333 -43.5 -84c-33.333 -38.667 -78.666 -58 -135.999 -58
c-6.66699 0 -10 3.33301 -10 10zM168.5 562.001c-4.33301 4.66699 -6.5 10 -6.5 16s2.16699 11.333 6.5 16s9.5 7 15.5 7s11.167 -2.33301 15.5 -7s6.5 -10 6.5 -16s-2.16699 -11.333 -6.5 -16s-9.5 -7 -15.5 -7s-11.167 2.33301 -15.5 7zM315.5 562.001
c-4.33301 4.66699 -6.5 10 -6.5 16s2.16699 11.333 6.5 16s9.5 7 15.5 7s11.167 -2.33301 15.5 -7s6.5 -10 6.5 -16s-2.16699 -11.333 -6.5 -16s-9.5 -7 -15.5 -7s-11.167 2.33301 -15.5 7z" />
    <glyph glyph-name="Amacron" unicode="&#x100;" horiz-adv-x="549" 
d="M523 8c0 -2.66699 -1 -4.66895 -3 -6.00195s-4.33301 -2 -7 -2c-4.66699 0 -8 2.33301 -10 7l-97 267h-266l-94 -267c-2 -4.66699 -5.33301 -7 -10 -7c-2.66699 0 -4.83398 0.833008 -6.50098 2.5s-2.5 3.83398 -2.5 6.50098l2 9l229 650
c2.66699 7.33301 4.83398 12 6.50098 14s4.16699 3 7.5 3c2.66699 0 5 -1.16699 7 -3.5s4 -6.16602 6 -11.499l236 -654zM400 292.998l-128 353l-125 -353h253zM183 775.998c-2 2 -3 4.33301 -3 7s1 5 3 7s4.33301 3 7 3h169c2.66699 0 5 -1 7 -3s3 -4.33301 3 -7
s-1 -5 -3 -7s-4.33301 -3 -7 -3h-169c-2.66699 0 -5 1 -7 3z" />
    <glyph glyph-name="amacron" unicode="&#x101;" horiz-adv-x="503" 
d="M95.5 60c-31.667 47.333 -47.502 105.333 -47.502 174c0 42 7 81.5 21 118.5s35.333 67.167 64 90.5s64.667 35 108 35c66.667 0 115.5 -24 146.5 -72s46.5 -107.333 46.5 -178v-218c0 -6.66699 -3.33301 -10 -10 -10c-6 -0 -9 3.33301 -9 10v98
c-5.33301 -7.33301 -12.666 -15 -21.999 -23l-74 -64c-13.333 -11.333 -25.666 -19.5 -36.999 -24.5s-25 -7.5 -41 -7.5c-65.333 0 -113.833 23.667 -145.5 71zM274.498 14c9.66699 4 19.832 10.998 30.499 20.998l74 64c12.667 10.667 21.834 20.834 27.501 30.501
s8.5 20.167 8.5 31.5v67c0 64.667 -13.833 119.334 -41.5 164.001s-71.834 67 -132.501 67c-39.333 0 -72 -10.833 -98 -32.5s-45 -49.5 -57 -83.5s-18 -70.333 -18 -109c0 -63.333 14 -116.833 42 -160.5s71.667 -65.5 131 -65.5c12.667 0 23.834 2 33.501 6z
M154.996 559.998c-2 2 -3 4.33301 -3 7s1 5 3 7s4.33301 3 7 3h169c2.66699 0 5 -1 7 -3s3 -4.33301 3 -7s-1 -5 -3 -7s-4.33301 -3 -7 -3h-169c-2.66699 0 -5 1 -7 3z" />
    <glyph glyph-name="Abreve" unicode="&#x102;" horiz-adv-x="549" 
d="M523 8c0 -2.66699 -1 -4.66895 -3 -6.00195s-4.33301 -2 -7 -2c-4.66699 0 -8 2.33301 -10 7l-97 267h-266l-94 -267c-2 -4.66699 -5.33301 -7 -10 -7c-2.66699 0 -4.83398 0.833008 -6.50098 2.5s-2.5 3.83398 -2.5 6.50098l2 9l229 650
c2.66699 7.33301 4.83398 12 6.50098 14s4.16699 3 7.5 3c2.66699 0 5 -1.16699 7 -3.5s4 -6.16602 6 -11.499l236 -654zM400 292.998l-128 353l-125 -353h253zM220 770.498c-16 13 -25.665 30.167 -28.998 51.5v2c0 6 3 9 9 9c5.33301 0 8.66602 -3.66699 9.99902 -11
c2.66699 -14.667 10.667 -26.834 24 -36.501s27 -14.5 41 -14.5c14.667 0 28.334 4.83301 41.001 14.5s20.334 21.834 23.001 36.501c1.33301 7.33301 4.66602 11 9.99902 11c4 0 6.66699 -1.16699 8 -3.5s1.66602 -4.83301 0.999023 -7.5
c-3.33301 -21.333 -12.833 -38.5 -28.5 -51.5s-33.834 -19.5 -54.501 -19.5s-39 6.5 -55 19.5z" />
    <glyph glyph-name="abreve" unicode="&#x103;" horiz-adv-x="503" 
d="M95.5 60c-31.667 47.333 -47.502 105.333 -47.502 174c0 42 7 81.5 21 118.5s35.333 67.167 64 90.5s64.667 35 108 35c66.667 0 115.5 -24 146.5 -72s46.5 -107.333 46.5 -178v-218c0 -6.66699 -3.33301 -10 -10 -10c-6 -0 -9 3.33301 -9 10v98
c-5.33301 -7.33301 -12.666 -15 -21.999 -23l-74 -64c-13.333 -11.333 -25.666 -19.5 -36.999 -24.5s-25 -7.5 -41 -7.5c-65.333 0 -113.833 23.667 -145.5 71zM274.498 14c9.66699 4 19.832 10.998 30.499 20.998l74 64c12.667 10.667 21.834 20.834 27.501 30.501
s8.5 20.167 8.5 31.5v67c0 64.667 -13.833 119.334 -41.5 164.001s-71.834 67 -132.501 67c-39.333 0 -72 -10.833 -98 -32.5s-45 -49.5 -57 -83.5s-18 -70.333 -18 -109c0 -63.333 14 -116.833 42 -160.5s71.667 -65.5 131 -65.5c12.667 0 23.834 2 33.501 6z
M191.996 547.498c-16 13 -25.665 30.167 -28.998 51.5v2c0 6 3 9 9 9c5.33301 0 8.66602 -3.66699 9.99902 -11c2.66699 -14.667 10.667 -26.834 24 -36.501s27 -14.5 41 -14.5c14.667 0 28.334 4.83301 41.001 14.5s20.334 21.834 23.001 36.501
c1.33301 7.33301 4.66602 11 9.99902 11c4 0 6.66699 -1.16699 8 -3.5s1.66602 -4.83301 0.999023 -7.5c-3.33301 -21.333 -12.833 -38.5 -28.5 -51.5s-33.834 -19.5 -54.501 -19.5s-39 6.5 -55 19.5z" />
    <glyph glyph-name="Aogonek" unicode="&#x104;" horiz-adv-x="547" 
d="M520 -119c0 -4.66699 -4.5 -9.83496 -13.5 -15.502s-18.833 -8.5 -29.5 -8.5c-14.667 0 -27 4.66699 -37 14s-15 21 -15 35c0 13.333 4.5 26.5 13.5 39.5s23.5 28.5 43.5 46.5l17 15c2 2 2.33301 4.66699 1 8l-94 259h-266l-94 -267c-2 -4.66699 -5.33301 -7 -10 -7
c-2.66699 0 -4.83398 0.833008 -6.50098 2.5s-2.5 3.83398 -2.5 6.50098l2 9l229 650c2.66699 7.33301 4.83398 12 6.50098 14s4.16699 3 7.5 3c2.66699 0 5 -1.16699 7 -3.5s4 -6.16602 6 -11.499l232 -643c2.66699 -7.33301 4 -13 4 -17s-2.33301 -8.33301 -7 -13l-21 -21
c-16.667 -16.667 -28.5 -29.5 -35.5 -38.5s-10.5 -18.833 -10.5 -29.5c0 -9.33301 2.83301 -16.833 8.5 -22.5s13.167 -8.5 22.5 -8.5c7.33301 0 14 2 20 6s10.333 6 13 6c6 0 9 -2.66699 9 -8zM400 292.999l-128 353l-125 -353h253z" />
    <glyph glyph-name="aogonek" unicode="&#x105;" horiz-adv-x="503" 
d="M356 -128.5c-10 9.66699 -15.0039 22.1699 -15.0039 37.5029c0 10 2.83301 18.833 8.5 26.5s12.334 14.667 20.001 21s12.834 10.833 15.501 13.5l9 8c8.66699 7.33301 14.334 14.333 17.001 21s4 15.667 4 27v82c-5.33301 -7.33301 -12.666 -15 -21.999 -23l-74 -64
c-13.333 -11.333 -25.666 -19.5 -36.999 -24.5s-25 -7.5 -41 -7.5c-65.333 0 -113.833 23.667 -145.5 71s-47.5 105.333 -47.5 174c0 42 7 81.5 21 118.5s35.333 67.167 64 90.5s64.667 35 108 35c66.667 0 115.5 -24 146.5 -72s46.5 -107.333 46.5 -178v-204
c0 -14.667 -1.66699 -25.834 -5 -33.501s-10 -15.834 -20 -24.501l-7 -6c-2.66699 -2 -7.83398 -6.33301 -15.501 -13s-13.5 -13.167 -17.5 -19.5s-6 -12.833 -6 -19.5c0 -9.33301 2.83301 -16.833 8.5 -22.5s13.167 -8.5 22.5 -8.5c7.33301 0 14 2 20 6s10.333 6 13 6
c6 0 9 -2.66699 9 -8c0 -4.66699 -4.5 -9.83398 -13.5 -15.501s-18.833 -8.5 -29.5 -8.5c-14.667 0 -27 4.83301 -37 14.5zM274.496 14.0029c9.66699 4 19.832 10.998 30.499 20.998l74 64c12.667 10.667 21.834 20.834 27.501 30.501s8.5 20.167 8.5 31.5v67
c0 64.667 -13.833 119.334 -41.5 164.001s-71.834 67 -132.501 67c-39.333 0 -72 -10.833 -98 -32.5s-45 -49.5 -57 -83.5s-18 -70.333 -18 -109c0 -63.333 14 -116.833 42 -160.5s71.667 -65.5 131 -65.5c12.667 0 23.834 2 33.501 6z" />
    <glyph glyph-name="Cacute" unicode="&#x106;" horiz-adv-x="500" 
d="M166 41.5c-37.333 35 -64.001 79.334 -80.001 133.001s-24 110.167 -24 169.5c0 57.333 8.5 112.666 25.5 165.999s44.333 97.5 82 132.5s85.5 52.5 143.5 52.5c64.667 0 117.334 -20 158.001 -60c2 -2 3 -4.66699 3 -8c0 -2.66699 -1 -4.83398 -3 -6.50098
s-4.33301 -2.5 -7 -2.5s-6 1.66699 -10 5c-23.333 18.667 -45.333 32 -66 40s-45.667 12 -75 12c-54 0 -98.333 -16.667 -133 -50s-59.667 -75.166 -75 -125.499s-23 -102.166 -23 -155.499c0 -55.333 7.16699 -108.333 21.5 -159s38.833 -92.834 73.5 -126.501
s80 -50.5 136 -50.5c29.333 0 54.5 4.5 75.5 13.5s43.833 23.5 68.5 43.5c2 2 4.33301 3 7 3s5 -1 7 -3s3 -4.33301 3 -7s-1 -5 -3 -7c-20.667 -20.667 -44.667 -36.167 -72 -46.5s-56 -15.5 -86 -15.5c-60.667 0 -109.667 17.5 -147 52.5zM250.999 750.001
c-2 2 -3 4.33301 -3 7c0 3.33301 1.66699 6 5 8l103 70c4.66699 3.33301 8.33398 5 11.001 5s5 -1 7 -3s3 -4.33301 3 -7c0 -3.33301 -1.66699 -6 -5 -8l-103 -70c-4.66699 -3.33301 -8.33398 -5 -11.001 -5s-5 1 -7 3z" />
    <glyph glyph-name="cacute" unicode="&#x107;" horiz-adv-x="399" 
d="M95.5 59.5c-31.667 47 -47.4971 104.838 -47.4971 173.505c0 42 7 81.667 21 119s35.333 67.666 64 90.999s64.667 35 108 35c22.667 0 44.5 -3.5 65.5 -10.5s39.167 -17.833 54.5 -32.5c2 -2 3 -4.33301 3 -7s-0.833008 -4.83398 -2.5 -6.50098s-3.5 -2.5 -5.5 -2.5
s-4.66699 1 -8 3c-18.667 13.333 -35.834 22.666 -51.501 27.999s-34.167 8 -55.5 8c-39.333 0 -72 -10.833 -98 -32.5s-45 -49.667 -57 -84s-18 -70.5 -18 -108.5c0 -62.667 14 -115.834 42 -159.501s71.667 -65.5 131 -65.5c21.333 0 39.666 2.83301 54.999 8.5
s32.666 15.167 51.999 28.5c3.33301 2 6 3 8 3s3.83301 -0.833008 5.5 -2.5s2.5 -3.83398 2.5 -6.50098s-1 -5 -3 -7c-15.333 -14.667 -33.5 -25.5 -54.5 -32.5s-42.833 -10.5 -65.5 -10.5c-65.333 0 -113.833 23.5 -145.5 70.5zM179.003 527.005c-2 2 -3 4.33301 -3 7
c0 3.33301 1.66699 6 5 8l103 70c4.66699 3.33301 8.33398 5 11.001 5s5 -1 7 -3s3 -4.33301 3 -7c0 -3.33301 -1.66699 -6 -5 -8l-103 -70c-4.66699 -3.33301 -8.33398 -5 -11.001 -5s-5 1 -7 3z" />
    <glyph glyph-name="Ccircumflex" unicode="&#x108;" horiz-adv-x="500" 
d="M166 41.5c-37.333 35 -64.001 79.334 -80.001 133.001s-24 110.167 -24 169.5c0 57.333 8.5 112.666 25.5 165.999s44.333 97.5 82 132.5s85.5 52.5 143.5 52.5c64.667 0 117.334 -20 158.001 -60c2 -2 3 -4.66699 3 -8c0 -2.66699 -1 -4.83398 -3 -6.50098
s-4.33301 -2.5 -7 -2.5s-6 1.66699 -10 5c-23.333 18.667 -45.333 32 -66 40s-45.667 12 -75 12c-54 0 -98.333 -16.667 -133 -50s-59.667 -75.166 -75 -125.499s-23 -102.166 -23 -155.499c0 -55.333 7.16699 -108.333 21.5 -159s38.833 -92.834 73.5 -126.501
s80 -50.5 136 -50.5c29.333 0 54.5 4.5 75.5 13.5s43.833 23.5 68.5 43.5c2 2 4.33301 3 7 3s5 -1 7 -3s3 -4.33301 3 -7s-1 -5 -3 -7c-20.667 -20.667 -44.667 -36.167 -72 -46.5s-56 -15.5 -86 -15.5c-60.667 0 -109.667 17.5 -147 52.5zM216.999 750.001
c-2 2 -2.99805 4.33301 -2.99805 7s1.33301 5.33398 4 8.00098l76 79c2.66699 2.66699 5.66699 4 9 4s6.33301 -1.33301 9 -4l76 -79c2.66699 -2.66699 4 -5.33398 4 -8.00098s-1 -5 -3 -7s-4.33301 -3 -7 -3s-5.33398 1.33301 -8.00098 4l-71 72l-71 -72
c-2.66699 -2.66699 -5.33398 -4 -8.00098 -4s-5 1 -7 3z" />
    <glyph glyph-name="ccircumflex" unicode="&#x109;" horiz-adv-x="399" 
d="M95.5 59.5c-31.667 47 -47.4971 104.838 -47.4971 173.505c0 42 7 81.667 21 119s35.333 67.666 64 90.999s64.667 35 108 35c22.667 0 44.5 -3.5 65.5 -10.5s39.167 -17.833 54.5 -32.5c2 -2 3 -4.33301 3 -7s-0.833008 -4.83398 -2.5 -6.50098s-3.5 -2.5 -5.5 -2.5
s-4.66699 1 -8 3c-18.667 13.333 -35.834 22.666 -51.501 27.999s-34.167 8 -55.5 8c-39.333 0 -72 -10.833 -98 -32.5s-45 -49.667 -57 -84s-18 -70.5 -18 -108.5c0 -62.667 14 -115.834 42 -159.501s71.667 -65.5 131 -65.5c21.333 0 39.666 2.83301 54.999 8.5
s32.666 15.167 51.999 28.5c3.33301 2 6 3 8 3s3.83301 -0.833008 5.5 -2.5s2.5 -3.83398 2.5 -6.50098s-1 -5 -3 -7c-15.333 -14.667 -33.5 -25.5 -54.5 -32.5s-42.833 -10.5 -65.5 -10.5c-65.333 0 -113.833 23.5 -145.5 70.5zM145.003 527.005
c-2 2 -2.99805 4.33301 -2.99805 7s1.33301 5.33398 4 8.00098l76 79c2.66699 2.66699 5.66699 4 9 4s6.33301 -1.33301 9 -4l76 -79c2.66699 -2.66699 4 -5.33398 4 -8.00098s-1 -5 -3 -7s-4.33301 -3 -7 -3s-5.33398 1.33301 -8.00098 4l-71 72l-71 -72
c-2.66699 -2.66699 -5.33398 -4 -8.00098 -4s-5 1 -7 3z" />
    <glyph glyph-name="Cdotaccent" unicode="&#x10a;" horiz-adv-x="500" 
d="M166 41.5c-37.333 35 -64.001 79.334 -80.001 133.001s-24 110.167 -24 169.5c0 57.333 8.5 112.666 25.5 165.999s44.333 97.5 82 132.5s85.5 52.5 143.5 52.5c64.667 0 117.334 -20 158.001 -60c2 -2 3 -4.66699 3 -8c0 -2.66699 -1 -4.83398 -3 -6.50098
s-4.33301 -2.5 -7 -2.5s-6 1.66699 -10 5c-23.333 18.667 -45.333 32 -66 40s-45.667 12 -75 12c-54 0 -98.333 -16.667 -133 -50s-59.667 -75.166 -75 -125.499s-23 -102.166 -23 -155.499c0 -55.333 7.16699 -108.333 21.5 -159s38.833 -92.834 73.5 -126.501
s80 -50.5 136 -50.5c29.333 0 54.5 4.5 75.5 13.5s43.833 23.5 68.5 43.5c2 2 4.33301 3 7 3s5 -1 7 -3s3 -4.33301 3 -7s-1 -5 -3 -7c-20.667 -20.667 -44.667 -36.167 -72 -46.5s-56 -15.5 -86 -15.5c-60.667 0 -109.667 17.5 -147 52.5zM287.499 785.001
c-4.33301 4.66699 -6.5 10 -6.5 16s2.16699 11.333 6.5 16s9.5 7 15.5 7s11.167 -2.33301 15.5 -7s6.5 -10 6.5 -16s-2.16699 -11.333 -6.5 -16s-9.5 -7 -15.5 -7s-11.167 2.33301 -15.5 7z" />
    <glyph glyph-name="cdotaccent" unicode="&#x10b;" horiz-adv-x="399" 
d="M95.5 59.5c-31.667 47 -47.4971 104.838 -47.4971 173.505c0 42 7 81.667 21 119s35.333 67.666 64 90.999s64.667 35 108 35c22.667 0 44.5 -3.5 65.5 -10.5s39.167 -17.833 54.5 -32.5c2 -2 3 -4.33301 3 -7s-0.833008 -4.83398 -2.5 -6.50098s-3.5 -2.5 -5.5 -2.5
s-4.66699 1 -8 3c-18.667 13.333 -35.834 22.666 -51.501 27.999s-34.167 8 -55.5 8c-39.333 0 -72 -10.833 -98 -32.5s-45 -49.667 -57 -84s-18 -70.5 -18 -108.5c0 -62.667 14 -115.834 42 -159.501s71.667 -65.5 131 -65.5c21.333 0 39.666 2.83301 54.999 8.5
s32.666 15.167 51.999 28.5c3.33301 2 6 3 8 3s3.83301 -0.833008 5.5 -2.5s2.5 -3.83398 2.5 -6.50098s-1 -5 -3 -7c-15.333 -14.667 -33.5 -25.5 -54.5 -32.5s-42.833 -10.5 -65.5 -10.5c-65.333 0 -113.833 23.5 -145.5 70.5zM215.503 562.005
c-4.33301 4.66699 -6.5 10 -6.5 16s2.16699 11.333 6.5 16s9.5 7 15.5 7s11.167 -2.33301 15.5 -7s6.5 -10 6.5 -16s-2.16699 -11.333 -6.5 -16s-9.5 -7 -15.5 -7s-11.167 2.33301 -15.5 7z" />
    <glyph glyph-name="Ccaron" unicode="&#x10c;" horiz-adv-x="500" 
d="M166 41.5c-37.333 35 -64.001 79.334 -80.001 133.001s-24 110.167 -24 169.5c0 57.333 8.5 112.666 25.5 165.999s44.333 97.5 82 132.5s85.5 52.5 143.5 52.5c64.667 0 117.334 -20 158.001 -60c2 -2 3 -4.66699 3 -8c0 -2.66699 -1 -4.83398 -3 -6.50098
s-4.33301 -2.5 -7 -2.5s-6 1.66699 -10 5c-23.333 18.667 -45.333 32 -66 40s-45.667 12 -75 12c-54 0 -98.333 -16.667 -133 -50s-59.667 -75.166 -75 -125.499s-23 -102.166 -23 -155.499c0 -55.333 7.16699 -108.333 21.5 -159s38.833 -92.834 73.5 -126.501
s80 -50.5 136 -50.5c29.333 0 54.5 4.5 75.5 13.5s43.833 23.5 68.5 43.5c2 2 4.33301 3 7 3s5 -1 7 -3s3 -4.33301 3 -7s-1 -5 -3 -7c-20.667 -20.667 -44.667 -36.167 -72 -46.5s-56 -15.5 -86 -15.5c-60.667 0 -109.667 17.5 -147 52.5zM293.999 751.001l-76.002 79
c-2.66699 2.66699 -4 5.33398 -4 8.00098s1 5 3 7s4.33301 3 7 3s5.33398 -1.33301 8.00098 -4l71 -72l71 72c2.66699 2.66699 5.33398 4 8.00098 4s5 -1 7 -3s3 -4.33301 3 -7s-1.33301 -5.33398 -4 -8.00098l-76 -79c-2.66699 -2.66699 -5.66699 -4 -9 -4
s-6.33301 1.33301 -9 4z" />
    <glyph glyph-name="ccaron" unicode="&#x10d;" horiz-adv-x="399" 
d="M95.5 59.5c-31.667 47 -47.4971 104.838 -47.4971 173.505c0 42 7 81.667 21 119s35.333 67.666 64 90.999s64.667 35 108 35c22.667 0 44.5 -3.5 65.5 -10.5s39.167 -17.833 54.5 -32.5c2 -2 3 -4.33301 3 -7s-0.833008 -4.83398 -2.5 -6.50098s-3.5 -2.5 -5.5 -2.5
s-4.66699 1 -8 3c-18.667 13.333 -35.834 22.666 -51.501 27.999s-34.167 8 -55.5 8c-39.333 0 -72 -10.833 -98 -32.5s-45 -49.667 -57 -84s-18 -70.5 -18 -108.5c0 -62.667 14 -115.834 42 -159.501s71.667 -65.5 131 -65.5c21.333 0 39.666 2.83301 54.999 8.5
s32.666 15.167 51.999 28.5c3.33301 2 6 3 8 3s3.83301 -0.833008 5.5 -2.5s2.5 -3.83398 2.5 -6.50098s-1 -5 -3 -7c-15.333 -14.667 -33.5 -25.5 -54.5 -32.5s-42.833 -10.5 -65.5 -10.5c-65.333 0 -113.833 23.5 -145.5 70.5zM222.003 528.005l-76.002 79
c-2.66699 2.66699 -4 5.33398 -4 8.00098s1 5 3 7s4.33301 3 7 3s5.33398 -1.33301 8.00098 -4l71 -72l71 72c2.66699 2.66699 5.33398 4 8.00098 4s5 -1 7 -3s3 -4.33301 3 -7s-1.33301 -5.33398 -4 -8.00098l-76 -79c-2.66699 -2.66699 -5.66699 -4 -9 -4
s-6.33301 1.33301 -9 4z" />
    <glyph glyph-name="Dcaron" unicode="&#x10e;" horiz-adv-x="617" 
d="M111 3c-2 2 -3 4.33301 -3 7v665c0 2.66699 1 5 3 7s4.33301 3 7 3h206c57.333 0 103.166 -17.167 137.499 -51.5s58.5 -77.166 72.5 -128.499s21 -105.333 21 -162s-7 -110.834 -21 -162.501s-38.167 -94.667 -72.5 -129s-80.166 -51.5 -137.499 -51.5h-206
c-2.66699 0 -5 1 -7 3zM324 19c52.667 0 94.667 16.499 126 49.499s53.333 73.833 66 122.5s19 99.334 19 152.001c0 86.667 -16 162.167 -48 226.5s-87 96.5 -165 96.5h-194v-647h196zM280 750.999l-76.002 79c-2.66699 2.66699 -4 5.33398 -4 8.00098s1 5 3 7
s4.33301 3 7 3s5.33398 -1.33301 8.00098 -4l71 -72l71 72c2.66699 2.66699 5.33398 4 8.00098 4s5 -1 7 -3s3 -4.33301 3 -7s-1.33301 -5.33398 -4 -8.00098l-76 -79c-2.66699 -2.66699 -5.66699 -4 -9 -4s-6.33301 1.33301 -9 4z" />
    <glyph glyph-name="dcaron" unicode="&#x10f;" horiz-adv-x="535" 
d="M95.5 60c-31.667 47.333 -47.502 105.333 -47.502 174c0 42 7 81.5 21 118.5s35.333 67.167 64 90.5s64.667 35 108 35c42 0 77.833 -10.667 107.5 -32s51.834 -52 66.501 -92v357c0 6.66699 3 10 9 10c6.66699 0 10 -3.33301 10 -10v-701
c0 -6.66699 -3.33301 -10 -10 -10c-6 -0 -9 3.33301 -9 10v100c-2.66699 -4 -10 -12 -22 -24l-74 -65c-13.333 -11.333 -25.666 -19.5 -36.999 -24.5s-25 -7.5 -41 -7.5c-65.333 0 -113.833 23.667 -145.5 71zM274.498 14c9 4 19.167 11 30.5 21l74 65
c13.333 12 22.666 22.167 27.999 30.5s8 18.5 8 30.5v73c0 62.667 -14.167 115.667 -42.5 159s-72.166 65 -131.499 65c-39.333 0 -72 -10.667 -98 -32s-45 -49 -57 -83s-18 -70.333 -18 -109c0 -63.333 14 -116.833 42 -160.5s71.667 -65.5 131 -65.5
c13.333 0 24.5 2 33.5 6zM488.998 599c0 2 0.666992 4.99902 2 8.99902l29 103c2 6.66699 5.33301 10 10 10c4 0 6.66699 -1.66699 8 -5s1.33301 -7.66602 0 -12.999l-29 -104c-2 -6.66699 -5.33301 -10 -10 -10c-6.66699 0 -10 3.33301 -10 10z" />
    <glyph glyph-name="Dcroat" unicode="&#x110;" horiz-adv-x="617" 
d="M461.5 633.5c34.333 -34.333 58.5 -77.166 72.5 -128.499s21 -105.333 21 -162s-7 -110.834 -21 -162.501s-38.167 -94.667 -72.5 -129s-80.166 -51.5 -137.499 -51.5h-206c-2.66699 0 -5 1 -7 3s-3 4.33301 -3 7v357h-59c-2.66699 0 -4.83398 1 -6.50098 3
s-2.5 4.33301 -2.5 7s0.833008 5 2.5 7s3.83398 3 6.50098 3h59v288c0 2.66699 1 5 3 7s4.33301 3 7 3h206c57.333 0 103.166 -17.167 137.499 -51.5zM450 68.5c31.333 33 53.333 73.832 66 122.499s19 99.334 19 152.001c0 86.667 -16 162.167 -48 226.5
s-87 96.5 -165 96.5h-194v-279h152c2.66699 0 5 -1 7 -3s3 -4.33301 3 -7s-1 -5 -3 -7s-4.33301 -3 -7 -3h-152v-348h196c52.667 0 94.667 16.5 126 49.5z" />
    <glyph glyph-name="dcroat" unicode="&#x111;" horiz-adv-x="507" 
d="M496 599c2 -2 2.99805 -4.33301 2.99805 -7s-1 -5 -3 -7s-4.33301 -3 -7 -3h-55v-572c0 -6.66699 -3.33301 -10 -10 -10c-6 -0 -9 3.33301 -9 10v100c-2.66699 -4 -10 -12 -22 -24l-74 -65c-13.333 -11.333 -25.666 -19.5 -36.999 -24.5s-25 -7.5 -41 -7.5
c-65.333 0 -113.833 23.667 -145.5 71s-47.5 105.333 -47.5 174c0 42 7 81.5 21 118.5s35.333 67.167 64 90.5s64.667 35 108 35c42 0 77.833 -10.667 107.5 -32s51.834 -52 66.501 -92v228h-170c-2.66699 0 -4.83398 1 -6.50098 3s-2.5 4.33301 -2.5 7s0.833008 5 2.5 7
s3.83398 3 6.50098 3h170v109c0 6.66699 3 10 9 10c6.66699 0 10 -3.33301 10 -10v-109h55c2.66699 0 5 -1 7 -3zM414.998 234c0 62.667 -14.167 115.667 -42.5 159s-72.166 65 -131.499 65c-39.333 0 -72 -10.667 -98 -32s-45 -49 -57 -83s-18 -70.333 -18 -109
c0 -63.333 14 -116.833 42 -160.5s71.667 -65.5 131 -65.5c13.333 0 24.5 2 33.5 6s19.167 11 30.5 21l74 65c13.333 12 22.666 22.167 27.999 30.5s8 18.5 8 30.5v73z" />
    <glyph glyph-name="Emacron" unicode="&#x112;" horiz-adv-x="473" 
d="M111 3c-2 2 -3 4.33594 -3 7.00293v665c0 2.66699 1 5 3 7s4.33301 3 7 3h295c2.66699 0 5 -1 7 -3s3 -4.33301 3 -7s-1 -4.83398 -3 -6.50098s-4.33301 -2.5 -7 -2.5h-285v-295h242c2.66699 0 5 -0.833008 7 -2.5s3 -3.83398 3 -6.50098s-1 -5 -3 -7s-4.33301 -3 -7 -3
h-242v-333h285c2.66699 0 5 -1 7 -3s3 -4.33301 3 -7s-1 -4.83398 -3 -6.50098s-4.33301 -2.5 -7 -2.5h-295c-2.66699 0 -5 1 -7 3zM175 776.003c-2 2 -3 4.33301 -3 7s1 5 3 7s4.33301 3 7 3h169c2.66699 0 5 -1 7 -3s3 -4.33301 3 -7s-1 -5 -3 -7s-4.33301 -3 -7 -3h-169
c-2.66699 0 -5 1 -7 3z" />
    <glyph glyph-name="emacron" unicode="&#x113;" horiz-adv-x="462" 
d="M95.5 59.5c-31.667 47 -47.5 104.833 -47.5 173.5c0 42 7 81.667 21 119s35.333 67.666 64 90.999s64.667 35 108 35c38.667 0 71.667 -10.333 99 -31s47.833 -47.667 61.5 -81s20.5 -69.333 20.5 -108c0 -10 -4.33301 -15 -13 -15h-341c0 -77.333 15 -135.833 45 -175.5
s72.667 -59.5 128 -59.5c22 0 42.833 3.66699 62.5 11s40.167 18.333 61.5 33c3.33301 2 6 3 8 3s3.83301 -0.666992 5.5 -2s2.5 -3.33301 2.5 -6s-1 -5 -3 -7c-16 -15.333 -37 -27.666 -63 -36.999s-50.667 -14 -74 -14c-65.333 0 -113.833 23.5 -145.5 70.5zM400 262
c0 31.333 -5.5 62 -16.5 92s-28.5 54.833 -52.5 74.5s-54 29.5 -90 29.5c-52 0 -92.5 -19 -121.5 -57s-45.833 -84.333 -50.5 -139h331zM145 560c-2 2 -3 4.33301 -3 7s1 5 3 7s4.33301 3 7 3h169c2.66699 0 5 -1 7 -3s3 -4.33301 3 -7s-1 -5 -3 -7s-4.33301 -3 -7 -3h-169
c-2.66699 0 -5 1 -7 3z" />
    <glyph glyph-name="Ebreve" unicode="&#x114;" horiz-adv-x="473" 
d="M111 3c-2 2 -3 4.33594 -3 7.00293v665c0 2.66699 1 5 3 7s4.33301 3 7 3h295c2.66699 0 5 -1 7 -3s3 -4.33301 3 -7s-1 -4.83398 -3 -6.50098s-4.33301 -2.5 -7 -2.5h-285v-295h242c2.66699 0 5 -0.833008 7 -2.5s3 -3.83398 3 -6.50098s-1 -5 -3 -7s-4.33301 -3 -7 -3
h-242v-333h285c2.66699 0 5 -1 7 -3s3 -4.33301 3 -7s-1 -4.83398 -3 -6.50098s-4.33301 -2.5 -7 -2.5h-295c-2.66699 0 -5 1 -7 3zM212 770.503c-16 13 -25.665 30.167 -28.998 51.5v2c0 6 3 9 9 9c5.33301 0 8.66602 -3.66699 9.99902 -11
c2.66699 -14.667 10.667 -26.834 24 -36.501s27 -14.5 41 -14.5c14.667 0 28.334 4.83301 41.001 14.5s20.334 21.834 23.001 36.501c1.33301 7.33301 4.66602 11 9.99902 11c4 0 6.66699 -1.16699 8 -3.5s1.66602 -4.83301 0.999023 -7.5
c-3.33301 -21.333 -12.833 -38.5 -28.5 -51.5s-33.834 -19.5 -54.501 -19.5s-39 6.5 -55 19.5z" />
    <glyph glyph-name="ebreve" unicode="&#x115;" horiz-adv-x="462" 
d="M95.5 59.5c-31.667 47 -47.5 104.833 -47.5 173.5c0 42 7 81.667 21 119s35.333 67.666 64 90.999s64.667 35 108 35c38.667 0 71.667 -10.333 99 -31s47.833 -47.667 61.5 -81s20.5 -69.333 20.5 -108c0 -10 -4.33301 -15 -13 -15h-341c0 -77.333 15 -135.833 45 -175.5
s72.667 -59.5 128 -59.5c22 0 42.833 3.66699 62.5 11s40.167 18.333 61.5 33c3.33301 2 6 3 8 3s3.83301 -0.666992 5.5 -2s2.5 -3.33301 2.5 -6s-1 -5 -3 -7c-16 -15.333 -37 -27.666 -63 -36.999s-50.667 -14 -74 -14c-65.333 0 -113.833 23.5 -145.5 70.5zM400 262
c0 31.333 -5.5 62 -16.5 92s-28.5 54.833 -52.5 74.5s-54 29.5 -90 29.5c-52 0 -92.5 -19 -121.5 -57s-45.833 -84.333 -50.5 -139h331zM182 547.5c-16 13 -25.665 30.167 -28.998 51.5v2c0 6 3 9 9 9c5.33301 0 8.66602 -3.66699 9.99902 -11
c2.66699 -14.667 10.667 -26.834 24 -36.501s27 -14.5 41 -14.5c14.667 0 28.334 4.83301 41.001 14.5s20.334 21.834 23.001 36.501c1.33301 7.33301 4.66602 11 9.99902 11c4 0 6.66699 -1.16699 8 -3.5s1.66602 -4.83301 0.999023 -7.5
c-3.33301 -21.333 -12.833 -38.5 -28.5 -51.5s-33.834 -19.5 -54.501 -19.5s-39 6.5 -55 19.5z" />
    <glyph glyph-name="Edotaccent" unicode="&#x116;" horiz-adv-x="473" 
d="M111 3c-2 2 -3 4.33594 -3 7.00293v665c0 2.66699 1 5 3 7s4.33301 3 7 3h295c2.66699 0 5 -1 7 -3s3 -4.33301 3 -7s-1 -4.83398 -3 -6.50098s-4.33301 -2.5 -7 -2.5h-285v-295h242c2.66699 0 5 -0.833008 7 -2.5s3 -3.83398 3 -6.50098s-1 -5 -3 -7s-4.33301 -3 -7 -3
h-242v-333h285c2.66699 0 5 -1 7 -3s3 -4.33301 3 -7s-1 -4.83398 -3 -6.50098s-4.33301 -2.5 -7 -2.5h-295c-2.66699 0 -5 1 -7 3zM251.5 785.003c-4.33301 4.66699 -6.5 10 -6.5 16s2.16699 11.333 6.5 16s9.5 7 15.5 7s11.167 -2.33301 15.5 -7s6.5 -10 6.5 -16
s-2.16699 -11.333 -6.5 -16s-9.5 -7 -15.5 -7s-11.167 2.33301 -15.5 7z" />
    <glyph glyph-name="edotaccent" unicode="&#x117;" horiz-adv-x="462" 
d="M95.5 59.5c-31.667 47 -47.5 104.833 -47.5 173.5c0 42 7 81.667 21 119s35.333 67.666 64 90.999s64.667 35 108 35c38.667 0 71.667 -10.333 99 -31s47.833 -47.667 61.5 -81s20.5 -69.333 20.5 -108c0 -10 -4.33301 -15 -13 -15h-341c0 -77.333 15 -135.833 45 -175.5
s72.667 -59.5 128 -59.5c22 0 42.833 3.66699 62.5 11s40.167 18.333 61.5 33c3.33301 2 6 3 8 3s3.83301 -0.666992 5.5 -2s2.5 -3.33301 2.5 -6s-1 -5 -3 -7c-16 -15.333 -37 -27.666 -63 -36.999s-50.667 -14 -74 -14c-65.333 0 -113.833 23.5 -145.5 70.5zM400 262
c0 31.333 -5.5 62 -16.5 92s-28.5 54.833 -52.5 74.5s-54 29.5 -90 29.5c-52 0 -92.5 -19 -121.5 -57s-45.833 -84.333 -50.5 -139h331zM221.5 562c-4.33301 4.66699 -6.5 10 -6.5 16s2.16699 11.333 6.5 16s9.5 7 15.5 7s11.167 -2.33301 15.5 -7s6.5 -10 6.5 -16
s-2.16699 -11.333 -6.5 -16s-9.5 -7 -15.5 -7s-11.167 2.33301 -15.5 7z" />
    <glyph glyph-name="Eogonek" unicode="&#x118;" horiz-adv-x="473" 
d="M340 -128.5c-10 9.66699 -15 22.1689 -15 37.502c0 12 4.5 24.333 13.5 37s23.5 28 43.5 46l9 8h-273c-2.66699 0 -5 1 -7 3s-3 4.33301 -3 7v665c0 2.66699 1 5 3 7s4.33301 3 7 3h295c2.66699 0 5 -1 7 -3s3 -4.33301 3 -7s-1 -4.83398 -3 -6.50098
s-4.33301 -2.5 -7 -2.5h-285v-295h242c2.66699 0 5 -1 7 -3s3 -4.33301 3 -7c0 -2 -1 -4 -3 -6s-4.33301 -3 -7 -3h-242v-333h285c2.66699 0 5 -1 7 -3s3 -4 3 -6c0 -2.66699 -3 -7 -9 -13l-21 -21c-16 -16 -27.667 -29 -35 -39s-11 -19.667 -11 -29
s2.83301 -16.833 8.5 -22.5s13.167 -8.5 22.5 -8.5c7.33301 0 14 2 20 6s10.333 6 13 6c6 0 9 -2.66699 9 -8c0 -4.66699 -4.5 -9.83398 -13.5 -15.501s-18.833 -8.5 -29.5 -8.5c-14.667 0 -27 4.83301 -37 14.5z" />
    <glyph glyph-name="eogonek" unicode="&#x119;" horiz-adv-x="462" 
d="M340 447c27.333 -20.667 47.833 -47.665 61.5 -80.998s20.5 -69.333 20.5 -108c0 -10 -4.33301 -15 -13 -15h-341c0 -77.333 15 -135.833 45 -175.5s72.667 -59.5 128 -59.5c22 0 42.833 3.66699 62.5 11s40.167 18.333 61.5 33c3.33301 2 6 3 8 3
s3.83301 -0.666992 5.5 -2s2.5 -3.33301 2.5 -6c0 -2 -1.66699 -4.83301 -5 -8.5s-8 -8.5 -14 -14.5c-4.66699 -4 -14 -13 -28 -27l-21 -21c-16.667 -16.667 -28.5 -29.5 -35.5 -38.5s-10.5 -18.833 -10.5 -29.5c0 -9.33301 2.83301 -16.833 8.5 -22.5
s13.167 -8.5 22.5 -8.5c7.33301 0 14 2 20 6s10.333 6 13 6c6 0 9 -2.66699 9 -8c0 -4.66699 -4.5 -9.83398 -13.5 -15.501s-18.833 -8.5 -29.5 -8.5c-14.667 0 -27 4.83301 -37 14.5s-15 22.167 -15 37.5c0 12 4.5 24.167 13.5 36.5s23.5 27.833 43.5 46.5l12 11
c-26 -9.33301 -50.333 -14 -73 -14c-65.333 0 -113.833 23.5 -145.5 70.5s-47.5 104.833 -47.5 173.5c0 42 7 81.667 21 119s35.333 67.666 64 90.999s64.667 35 108 35c38.667 0 71.667 -10.333 99 -31zM400 262.002c0 31.333 -5.5 62 -16.5 92s-28.5 54.833 -52.5 74.5
s-54 29.5 -90 29.5c-52 0 -92.5 -19 -121.5 -57s-45.833 -84.333 -50.5 -139h331z" />
    <glyph glyph-name="Ecaron" unicode="&#x11a;" horiz-adv-x="473" 
d="M111 3c-2 2 -3 4.33594 -3 7.00293v665c0 2.66699 1 5 3 7s4.33301 3 7 3h295c2.66699 0 5 -1 7 -3s3 -4.33301 3 -7s-1 -4.83398 -3 -6.50098s-4.33301 -2.5 -7 -2.5h-285v-295h242c2.66699 0 5 -0.833008 7 -2.5s3 -3.83398 3 -6.50098s-1 -5 -3 -7s-4.33301 -3 -7 -3
h-242v-333h285c2.66699 0 5 -1 7 -3s3 -4.33301 3 -7s-1 -4.83398 -3 -6.50098s-4.33301 -2.5 -7 -2.5h-295c-2.66699 0 -5 1 -7 3zM258 751.003l-76.002 79c-2.66699 2.66699 -4 5.33398 -4 8.00098s1 5 3 7s4.33301 3 7 3s5.33398 -1.33301 8.00098 -4l71 -72l71 72
c2.66699 2.66699 5.33398 4 8.00098 4s5 -1 7 -3s3 -4.33301 3 -7s-1.33301 -5.33398 -4 -8.00098l-76 -79c-2.66699 -2.66699 -5.66699 -4 -9 -4s-6.33301 1.33301 -9 4z" />
    <glyph glyph-name="ecaron" unicode="&#x11b;" horiz-adv-x="462" 
d="M95.5 59.5c-31.667 47 -47.5 104.833 -47.5 173.5c0 42 7 81.667 21 119s35.333 67.666 64 90.999s64.667 35 108 35c38.667 0 71.667 -10.333 99 -31s47.833 -47.667 61.5 -81s20.5 -69.333 20.5 -108c0 -10 -4.33301 -15 -13 -15h-341c0 -77.333 15 -135.833 45 -175.5
s72.667 -59.5 128 -59.5c22 0 42.833 3.66699 62.5 11s40.167 18.333 61.5 33c3.33301 2 6 3 8 3s3.83301 -0.666992 5.5 -2s2.5 -3.33301 2.5 -6s-1 -5 -3 -7c-16 -15.333 -37 -27.666 -63 -36.999s-50.667 -14 -74 -14c-65.333 0 -113.833 23.5 -145.5 70.5zM400 262
c0 31.333 -5.5 62 -16.5 92s-28.5 54.833 -52.5 74.5s-54 29.5 -90 29.5c-52 0 -92.5 -19 -121.5 -57s-45.833 -84.333 -50.5 -139h331zM228 528l-76.002 79c-2.66699 2.66699 -4 5.33398 -4 8.00098s1 5 3 7s4.33301 3 7 3s5.33398 -1.33301 8.00098 -4l71 -72l71 72
c2.66699 2.66699 5.33398 4 8.00098 4s5 -1 7 -3s3 -4.33301 3 -7s-1.33301 -5.33398 -4 -8.00098l-76 -79c-2.66699 -2.66699 -5.66699 -4 -9 -4s-6.33301 1.33301 -9 4z" />
    <glyph glyph-name="Gcircumflex" unicode="&#x11c;" horiz-adv-x="593" 
d="M166 41.5c-37.333 35 -63.999 79.166 -79.999 132.499s-24 109.666 -24 168.999c0 56.667 8.5 111.834 25.5 165.501s44.333 98.167 82 133.5s85.5 53 143.5 53c30 0 58.667 -5.16699 86 -15.5s51.333 -25.833 72 -46.5c2 -2 3 -4.33301 3 -7s-1 -5 -3 -7
s-4.33301 -3 -7 -3s-5 1 -7 3c-23.333 20 -45.833 34.333 -67.5 43s-47.167 13 -76.5 13c-54 0 -98.333 -16.833 -133 -50.5s-59.667 -75.667 -75 -126s-23 -102.166 -23 -155.499c0 -55.333 7.16699 -108.333 21.5 -159s38.833 -92.667 73.5 -126s80 -50 136 -50
c39.333 0 74.333 10.5 105 31.5s54.5 50.167 71.5 87.5s25.5 80 25.5 128v78h-192c-6.66699 0 -10 3.33301 -10 10s3.33301 10 10 10h202c6.66699 0 10 -5.33301 10 -16v-83c0 -50 -9.5 -95.167 -28.5 -135.5s-45.333 -72 -79 -95s-71.834 -34.5 -114.501 -34.5
c-60.667 0 -109.667 17.5 -147 52.5zM217.001 749.999c-2 2 -2.99805 4.33301 -2.99805 7s1.33301 5.33398 4 8.00098l76 79c2.66699 2.66699 5.66699 4 9 4s6.33301 -1.33301 9 -4l76 -79c2.66699 -2.66699 4 -5.33398 4 -8.00098s-1 -5 -3 -7s-4.33301 -3 -7 -3
s-5.33398 1.33301 -8.00098 4l-71 72l-71 -72c-2.66699 -2.66699 -5.33398 -4 -8.00098 -4s-5 1 -7 3z" />
    <glyph glyph-name="gcircumflex" unicode="&#x11d;" horiz-adv-x="507" 
d="M231 -255c0 6.66699 3.33398 10.001 10.001 10.001c54.667 0 96.667 19 126 57c16.667 21.333 28.834 47.166 36.501 77.499s11.5 62.833 11.5 97.5v134c-14.667 -39.333 -36.834 -69.333 -66.501 -90s-65.5 -31 -107.5 -31c-42.667 0 -78.5 11 -107.5 33
s-50.5 51 -64.5 87s-21 75 -21 117c0 68 15.833 125.167 47.5 171.5s80.167 69.5 145.5 69.5c16 0 29.667 -2.5 41 -7.5s23.666 -13.167 36.999 -24.5l74 -64c8 -6.66699 15.333 -14.667 22 -24v99c0 6.66699 3 10 9 10c6.66699 0 10 -3.33301 10 -10v-470
c0 -37.333 -4.33301 -72.5 -13 -105.5s-22 -60.833 -40 -83.5c-33.333 -42 -80 -63 -140 -63c-6.66699 0 -10 3.33301 -10 10zM372.501 83.001c28.333 42 42.501 94.333 42.501 157v66c0 10.667 -3.5 21.5 -10.5 32.5s-15.5 20.5 -25.5 28.5l-74 64
c-11.333 10 -21.5 17 -30.5 21s-20.167 6 -33.5 6c-59.333 0 -103 -21.167 -131 -63.5s-42 -94.833 -42 -157.5c0 -60 14.333 -111.167 43 -153.5s72 -63.5 130 -63.5c59.333 0 103.166 21 131.499 63zM168.002 527.001c-2 2 -2.99805 4.33301 -2.99805 7
s1.33301 5.33398 4 8.00098l76 79c2.66699 2.66699 5.66699 4 9 4s6.33301 -1.33301 9 -4l76 -79c2.66699 -2.66699 4 -5.33398 4 -8.00098s-1 -5 -3 -7s-4.33301 -3 -7 -3s-5.33398 1.33301 -8.00098 4l-71 72l-71 -72c-2.66699 -2.66699 -5.33398 -4 -8.00098 -4
s-5 1 -7 3z" />
    <glyph glyph-name="Gbreve" unicode="&#x11e;" horiz-adv-x="593" 
d="M166 41.5c-37.333 35 -63.999 79.166 -79.999 132.499s-24 109.666 -24 168.999c0 56.667 8.5 111.834 25.5 165.501s44.333 98.167 82 133.5s85.5 53 143.5 53c30 0 58.667 -5.16699 86 -15.5s51.333 -25.833 72 -46.5c2 -2 3 -4.33301 3 -7s-1 -5 -3 -7
s-4.33301 -3 -7 -3s-5 1 -7 3c-23.333 20 -45.833 34.333 -67.5 43s-47.167 13 -76.5 13c-54 0 -98.333 -16.833 -133 -50.5s-59.667 -75.667 -75 -126s-23 -102.166 -23 -155.499c0 -55.333 7.16699 -108.333 21.5 -159s38.833 -92.667 73.5 -126s80 -50 136 -50
c39.333 0 74.333 10.5 105 31.5s54.5 50.167 71.5 87.5s25.5 80 25.5 128v78h-192c-6.66699 0 -10 3.33301 -10 10s3.33301 10 10 10h202c6.66699 0 10 -5.33301 10 -16v-83c0 -50 -9.5 -95.167 -28.5 -135.5s-45.333 -72 -79 -95s-71.834 -34.5 -114.501 -34.5
c-60.667 0 -109.667 17.5 -147 52.5zM248.001 770.499c-16 13 -25.665 30.167 -28.998 51.5v2c0 6 3 9 9 9c5.33301 0 8.66602 -3.66699 9.99902 -11c2.66699 -14.667 10.667 -26.834 24 -36.501s27 -14.5 41 -14.5c14.667 0 28.334 4.83301 41.001 14.5
s20.334 21.834 23.001 36.501c1.33301 7.33301 4.66602 11 9.99902 11c4 0 6.66699 -1.16699 8 -3.5s1.66602 -4.83301 0.999023 -7.5c-3.33301 -21.333 -12.833 -38.5 -28.5 -51.5s-33.834 -19.5 -54.501 -19.5s-39 6.5 -55 19.5z" />
    <glyph glyph-name="gbreve" unicode="&#x11f;" horiz-adv-x="507" 
d="M231 -255c0 6.66699 3.33398 10.001 10.001 10.001c54.667 0 96.667 19 126 57c16.667 21.333 28.834 47.166 36.501 77.499s11.5 62.833 11.5 97.5v134c-14.667 -39.333 -36.834 -69.333 -66.501 -90s-65.5 -31 -107.5 -31c-42.667 0 -78.5 11 -107.5 33
s-50.5 51 -64.5 87s-21 75 -21 117c0 68 15.833 125.167 47.5 171.5s80.167 69.5 145.5 69.5c16 0 29.667 -2.5 41 -7.5s23.666 -13.167 36.999 -24.5l74 -64c8 -6.66699 15.333 -14.667 22 -24v99c0 6.66699 3 10 9 10c6.66699 0 10 -3.33301 10 -10v-470
c0 -37.333 -4.33301 -72.5 -13 -105.5s-22 -60.833 -40 -83.5c-33.333 -42 -80 -63 -140 -63c-6.66699 0 -10 3.33301 -10 10zM372.501 83.001c28.333 42 42.501 94.333 42.501 157v66c0 10.667 -3.5 21.5 -10.5 32.5s-15.5 20.5 -25.5 28.5l-74 64
c-11.333 10 -21.5 17 -30.5 21s-20.167 6 -33.5 6c-59.333 0 -103 -21.167 -131 -63.5s-42 -94.833 -42 -157.5c0 -60 14.333 -111.167 43 -153.5s72 -63.5 130 -63.5c59.333 0 103.166 21 131.499 63zM199.002 547.501c-16 13 -25.665 30.167 -28.998 51.5v2c0 6 3 9 9 9
c5.33301 0 8.66602 -3.66699 9.99902 -11c2.66699 -14.667 10.667 -26.834 24 -36.501s27 -14.5 41 -14.5c14.667 0 28.334 4.83301 41.001 14.5s20.334 21.834 23.001 36.501c1.33301 7.33301 4.66602 11 9.99902 11c4 0 6.66699 -1.16699 8 -3.5
s1.66602 -4.83301 0.999023 -7.5c-3.33301 -21.333 -12.833 -38.5 -28.5 -51.5s-33.834 -19.5 -54.501 -19.5s-39 6.5 -55 19.5z" />
    <glyph glyph-name="Gdotaccent" unicode="&#x120;" horiz-adv-x="593" 
d="M166 41.5c-37.333 35 -63.999 79.166 -79.999 132.499s-24 109.666 -24 168.999c0 56.667 8.5 111.834 25.5 165.501s44.333 98.167 82 133.5s85.5 53 143.5 53c30 0 58.667 -5.16699 86 -15.5s51.333 -25.833 72 -46.5c2 -2 3 -4.33301 3 -7s-1 -5 -3 -7
s-4.33301 -3 -7 -3s-5 1 -7 3c-23.333 20 -45.833 34.333 -67.5 43s-47.167 13 -76.5 13c-54 0 -98.333 -16.833 -133 -50.5s-59.667 -75.667 -75 -126s-23 -102.166 -23 -155.499c0 -55.333 7.16699 -108.333 21.5 -159s38.833 -92.667 73.5 -126s80 -50 136 -50
c39.333 0 74.333 10.5 105 31.5s54.5 50.167 71.5 87.5s25.5 80 25.5 128v78h-192c-6.66699 0 -10 3.33301 -10 10s3.33301 10 10 10h202c6.66699 0 10 -5.33301 10 -16v-83c0 -50 -9.5 -95.167 -28.5 -135.5s-45.333 -72 -79 -95s-71.834 -34.5 -114.501 -34.5
c-60.667 0 -109.667 17.5 -147 52.5zM287.501 784.999c-4.33301 4.66699 -6.5 10 -6.5 16s2.16699 11.333 6.5 16s9.5 7 15.5 7s11.167 -2.33301 15.5 -7s6.5 -10 6.5 -16s-2.16699 -11.333 -6.5 -16s-9.5 -7 -15.5 -7s-11.167 2.33301 -15.5 7z" />
    <glyph glyph-name="gdotaccent" unicode="&#x121;" horiz-adv-x="507" 
d="M231 -255c0 6.66699 3.33398 10.001 10.001 10.001c54.667 0 96.667 19 126 57c16.667 21.333 28.834 47.166 36.501 77.499s11.5 62.833 11.5 97.5v134c-14.667 -39.333 -36.834 -69.333 -66.501 -90s-65.5 -31 -107.5 -31c-42.667 0 -78.5 11 -107.5 33
s-50.5 51 -64.5 87s-21 75 -21 117c0 68 15.833 125.167 47.5 171.5s80.167 69.5 145.5 69.5c16 0 29.667 -2.5 41 -7.5s23.666 -13.167 36.999 -24.5l74 -64c8 -6.66699 15.333 -14.667 22 -24v99c0 6.66699 3 10 9 10c6.66699 0 10 -3.33301 10 -10v-470
c0 -37.333 -4.33301 -72.5 -13 -105.5s-22 -60.833 -40 -83.5c-33.333 -42 -80 -63 -140 -63c-6.66699 0 -10 3.33301 -10 10zM372.501 83.001c28.333 42 42.501 94.333 42.501 157v66c0 10.667 -3.5 21.5 -10.5 32.5s-15.5 20.5 -25.5 28.5l-74 64
c-11.333 10 -21.5 17 -30.5 21s-20.167 6 -33.5 6c-59.333 0 -103 -21.167 -131 -63.5s-42 -94.833 -42 -157.5c0 -60 14.333 -111.167 43 -153.5s72 -63.5 130 -63.5c59.333 0 103.166 21 131.499 63zM238.502 562.001c-4.33301 4.66699 -6.5 10 -6.5 16
s2.16699 11.333 6.5 16s9.5 7 15.5 7s11.167 -2.33301 15.5 -7s6.5 -10 6.5 -16s-2.16699 -11.333 -6.5 -16s-9.5 -7 -15.5 -7s-11.167 2.33301 -15.5 7z" />
    <glyph glyph-name="Gcommaaccent" unicode="&#x122;" horiz-adv-x="593" 
d="M166 41.5c-37.333 35 -63.999 79.166 -79.999 132.499s-24 109.666 -24 168.999c0 56.667 8.5 111.834 25.5 165.501s44.333 98.167 82 133.5s85.5 53 143.5 53c30 0 58.667 -5.16699 86 -15.5s51.333 -25.833 72 -46.5c2 -2 3 -4.33301 3 -7s-1 -5 -3 -7
s-4.33301 -3 -7 -3s-5 1 -7 3c-23.333 20 -45.833 34.333 -67.5 43s-47.167 13 -76.5 13c-54 0 -98.333 -16.833 -133 -50.5s-59.667 -75.667 -75 -126s-23 -102.166 -23 -155.499c0 -55.333 7.16699 -108.333 21.5 -159s38.833 -92.667 73.5 -126s80 -50 136 -50
c39.333 0 74.333 10.5 105 31.5s54.5 50.167 71.5 87.5s25.5 80 25.5 128v78h-192c-6.66699 0 -10 3.33301 -10 10s3.33301 10 10 10h202c6.66699 0 10 -5.33301 10 -16v-83c0 -50 -9.5 -95.167 -28.5 -135.5s-45.333 -72 -79 -95s-71.834 -34.5 -114.501 -34.5
c-60.667 0 -109.667 17.5 -147 52.5zM263.001 -161.001c0 2 0.666992 4.99902 2 8.99902l29 103c2 6.66699 5.33301 10 10 10c4 0 6.66699 -1.66699 8 -5s1.33301 -7.66602 0 -12.999l-29 -104c-2 -6.66699 -5.33301 -10 -10 -10c-6.66699 0 -10 3.33301 -10 10z" />
    <glyph glyph-name="gcommaaccent" unicode="&#x123;" horiz-adv-x="507" 
d="M264 530c-10 8.66699 -17.668 20.167 -23.001 34.5s-8 28.833 -8 43.5v47c0 2.66699 0.833008 5 2.5 7s3.83398 3 6.50098 3s5 -1 7 -3s3 -4.33301 3 -7v-47c0 -13.333 2.16699 -24.666 6.5 -33.999s9 -17.5 14 -24.5s7.5 -11.167 7.5 -12.5
c0 -2.66699 -0.833008 -4.83398 -2.5 -6.50098s-3.83398 -2.5 -6.50098 -2.5c-3.33301 0 -5.66602 0.666992 -6.99902 2zM230.999 -255c0 6.66699 3.33398 10.001 10.001 10.001c54.667 0 96.667 19 126 57c16.667 21.333 28.834 47.166 36.501 77.499
s11.5 62.833 11.5 97.5v134c-14.667 -39.333 -36.834 -69.333 -66.501 -90s-65.5 -31 -107.5 -31c-42.667 0 -78.5 11 -107.5 33s-50.5 51 -64.5 87s-21 75 -21 117c0 68 15.833 125.167 47.5 171.5s80.167 69.5 145.5 69.5c16 0 29.667 -2.5 41 -7.5
s23.666 -13.167 36.999 -24.5l74 -64c8 -6.66699 15.333 -14.667 22 -24v99c0 6.66699 3 10 9 10c6.66699 0 10 -3.33301 10 -10v-470c0 -37.333 -4.33301 -72.5 -13 -105.5s-22 -60.833 -40 -83.5c-33.333 -42 -80 -63 -140 -63c-6.66699 0 -10 3.33301 -10 10z
M372.5 83.001c28.333 42 42.501 94.333 42.501 157v66c0 10.667 -3.5 21.5 -10.5 32.5s-15.5 20.5 -25.5 28.5l-74 64c-11.333 10 -21.5 17 -30.5 21s-20.167 6 -33.5 6c-59.333 0 -103 -21.167 -131 -63.5s-42 -94.833 -42 -157.5c0 -60 14.333 -111.167 43 -153.5
s72 -63.5 130 -63.5c59.333 0 103.166 21 131.499 63z" />
    <glyph glyph-name="Hcircumflex" unicode="&#x124;" horiz-adv-x="638" 
d="M111 3c-2 2 -3 4.33301 -3 7v665c0 2.66699 1 5 3 7s4.33301 3 7 3s5 -1 7 -3s3 -4.33301 3 -7v-324h382v324c0 2.66699 1 5 3 7s4.33301 3 7 3s5 -1 7 -3s3 -4.33301 3 -7v-665c0 -2.66699 -1 -5 -3 -7s-4.33301 -3 -7 -3s-5 1 -7 3s-3 4.33301 -3 7v322h-382v-322
c0 -2.66699 -1 -5 -3 -7s-4.33301 -3 -7 -3s-5 1 -7 3zM233 750c-2 2 -2.99805 4.33301 -2.99805 7s1.33301 5.33398 4 8.00098l76 79c2.66699 2.66699 5.66699 4 9 4s6.33301 -1.33301 9 -4l76 -79c2.66699 -2.66699 4 -5.33398 4 -8.00098s-1 -5 -3 -7s-4.33301 -3 -7 -3
s-5.33398 1.33301 -8.00098 4l-71 72l-71 -72c-2.66699 -2.66699 -5.33398 -4 -8.00098 -4s-5 1 -7 3z" />
    <glyph glyph-name="hcircumflex" unicode="&#x125;" horiz-adv-x="528" 
d="M73 10l-0.00195312 700.999c0 6.66699 3 10 9 10c6.66699 0 10 -3.33301 10 -10v-352c6.66699 8 15.667 17.333 27 28l69 59c12.667 11.333 24.834 19.5 36.501 24.5s25.5 7.5 41.5 7.5c65.333 0 113.833 -23.5 145.5 -70.5s47.5 -104.833 47.5 -173.5v-224
c0 -6.66699 -3.33301 -10 -10 -10c-6 0 -9 3.33301 -9 10v224c0 62.667 -14.167 115.667 -42.5 159s-72.166 65 -131.499 65c-13.333 0 -24.5 -2.16699 -33.5 -6.5s-19.167 -11.166 -30.5 -20.499l-75 -64c-12.667 -10.667 -21.667 -20.5 -27 -29.5s-8 -19.167 -8 -30.5
v-297c0 -6.66699 -3.33301 -10 -10 -10c-6 -0 -9 3.33301 -9 10zM-4.00195 749.999c-2 2 -2.99805 4.33301 -2.99805 7s1.33301 5.33398 4 8.00098l76 79c2.66699 2.66699 5.66699 4 9 4s6.33301 -1.33301 9 -4l76 -79c2.66699 -2.66699 4 -5.33398 4 -8.00098s-1 -5 -3 -7
s-4.33301 -3 -7 -3s-5.33398 1.33301 -8.00098 4l-71 72l-71 -72c-2.66699 -2.66699 -5.33398 -4 -8.00098 -4s-5 1 -7 3z" />
    <glyph glyph-name="Hbar" unicode="&#x126;" horiz-adv-x="638" 
d="M111 3c-2 2 -3 4.33301 -3 7v507h-68c-2.66699 0 -5 1 -7 3s-3 4.33301 -3 7s1 5 3 7s4.33301 3 7 3h68v138c0 2.66699 1 5 3 7s4.33301 3 7 3s5 -1 7 -3s3 -4.33301 3 -7v-138h382v138c0 2.66699 1 5 3 7s4.33301 3 7 3s5 -1 7 -3s3 -4.33301 3 -7v-138h67
c2.66699 0 5 -1 7 -3s3 -4.33301 3 -7s-1 -5 -3 -7s-4.33301 -3 -7 -3h-67v-507c0 -2.66699 -1 -5 -3 -7s-4.33301 -3 -7 -3s-5 1 -7 3s-3 4.33301 -3 7v321h-382v-321c0 -2.66699 -1 -5 -3 -7s-4.33301 -3 -7 -3s-5 1 -7 3zM510 351v166h-382v-166h382z" />
    <glyph glyph-name="hbar" unicode="&#x127;" horiz-adv-x="528" 
d="M411.5 407.5c31.667 -47 47.498 -104.834 47.498 -173.501v-224c0 -6.66699 -3.33301 -10 -10 -10c-6 0 -9 3.33301 -9 10v224c0 62.667 -14.167 115.667 -42.5 159s-72.166 65 -131.499 65c-13.333 0 -24.5 -2.16699 -33.5 -6.5s-19.167 -11.166 -30.5 -20.499l-75 -64
c-12.667 -10.667 -21.667 -20.5 -27 -29.5s-8 -19.167 -8 -30.5v-297c0 -6.66699 -3.33301 -10 -10 -10c-6 -0 -9 3.33301 -9 10v564h-54c-2.66699 0 -5 1 -7 3s-3 4.33301 -3 7s1 5 3 7s4.33301 3 7 3h54v117c0 6.66699 3 10 9 10c6.66699 0 10 -3.33301 10 -10v-117h148
c2.66699 0 5 -1 7 -3s3 -4.33301 3 -7s-1 -5 -3 -7s-4.33301 -3 -7 -3h-148v-215c6.66699 8 15.667 17.333 27 28l69 59c12.667 11.333 24.834 19.5 36.501 24.5s25.5 7.5 41.5 7.5c65.333 0 113.833 -23.5 145.5 -70.5z" />
    <glyph glyph-name="Itilde" unicode="&#x128;" horiz-adv-x="236" 
d="M111 3c-2 2 -3 4.33301 -3 7v665c0 2.66699 1 5 3 7s4.33301 3 7 3s5 -1 7 -3s3 -4.33301 3 -7v-665c0 -2.66699 -1 -5 -3 -7s-4.33301 -3 -7 -3s-5 1 -7 3zM7 761c-2 2 -2.66602 4.33301 -1.99902 7c2 18 9 33.5 21 46.5s26.667 19.5 44 19.5
c11.333 0 20.666 -2.5 27.999 -7.5s16 -12.833 26 -23.5c7.33301 -8.66699 14 -15.167 20 -19.5s12.667 -6.5 20 -6.5c12 0 22.5 4.16699 31.5 12.5s14.833 20.5 17.5 36.5c0.666992 6 3.66699 9 9 9c2.66699 0 5 -1 7 -3s2.66699 -4.33301 2 -7c-2 -18 -9 -33.5 -21 -46.5
s-27 -19.5 -45 -19.5c-11.333 0 -20.5 2.5 -27.5 7.5s-15.5 12.833 -25.5 23.5c-7.33301 8 -14 14.333 -20 19s-12.667 7 -20 7c-24.667 0 -41 -16.333 -49 -49c-2 -6 -5 -9 -9 -9c-2.66699 0 -5 1 -7 3z" />
    <glyph glyph-name="itilde" unicode="&#x129;" horiz-adv-x="166" 
d="M76 3c-2 2 -3 4.33301 -3 7v447c0 2.66699 1 5 3 7s4.33301 3 7 3s4.83398 -1 6.50098 -3s2.5 -4.33301 2.5 -7v-447c0 -2.66699 -0.833008 -5 -2.5 -7s-3.83398 -3 -6.50098 -3s-5 1 -7 3zM-27 545c-2 2 -2.66602 4.33301 -1.99902 7c2 18 9 33.5 21 46.5
s26.667 19.5 44 19.5c11.333 0 20.666 -2.5 27.999 -7.5s16 -12.833 26 -23.5c7.33301 -8.66699 14 -15.167 20 -19.5s12.667 -6.5 20 -6.5c12 0 22.5 4.16699 31.5 12.5s14.833 20.5 17.5 36.5c0.666992 6 3.66699 9 9 9c2.66699 0 5 -1 7 -3s2.66699 -4.33301 2 -7
c-2 -18 -9 -33.5 -21 -46.5s-27 -19.5 -45 -19.5c-11.333 0 -20.5 2.5 -27.5 7.5s-15.5 12.833 -25.5 23.5c-7.33301 8 -14 14.333 -20 19s-12.667 7 -20 7c-24.667 0 -41 -16.333 -49 -49c-2 -6 -5 -9 -9 -9c-2.66699 0 -5 1 -7 3z" />
    <glyph glyph-name="Imacron" unicode="&#x12a;" horiz-adv-x="236" 
d="M111 3c-2 2 -3 4.33301 -3 7v665c0 2.66699 1 5 3 7s4.33301 3 7 3s5 -1 7 -3s3 -4.33301 3 -7v-665c0 -2.66699 -1 -5 -3 -7s-4.33301 -3 -7 -3s-5 1 -7 3zM26 776c-2 2 -3 4.33301 -3 7s1 5 3 7s4.33301 3 7 3h169c2.66699 0 5 -1 7 -3s3 -4.33301 3 -7s-1 -5 -3 -7
s-4.33301 -3 -7 -3h-169c-2.66699 0 -5 1 -7 3z" />
    <glyph glyph-name="imacron" unicode="&#x12b;" horiz-adv-x="166" 
d="M76 3c-2 2 -3 4.33301 -3 7v447c0 2.66699 1 5 3 7s4.33301 3 7 3s4.83398 -1 6.50098 -3s2.5 -4.33301 2.5 -7v-447c0 -2.66699 -0.833008 -5 -2.5 -7s-3.83398 -3 -6.50098 -3s-5 1 -7 3zM-9 560c-2 2 -3 4.33301 -3 7s1 5 3 7s4.33301 3 7 3h169c2.66699 0 5 -1 7 -3
s3 -4.33301 3 -7s-1 -5 -3 -7s-4.33301 -3 -7 -3h-169c-2.66699 0 -5 1 -7 3z" />
    <glyph glyph-name="Ibreve" unicode="&#x12c;" horiz-adv-x="236" 
d="M111 3c-2 2 -3 4.33301 -3 7v665c0 2.66699 1 5 3 7s4.33301 3 7 3s5 -1 7 -3s3 -4.33301 3 -7v-665c0 -2.66699 -1 -5 -3 -7s-4.33301 -3 -7 -3s-5 1 -7 3zM63 770.5c-16 13 -25.665 30.167 -28.998 51.5v2c0 6 3 9 9 9c5.33301 0 8.66602 -3.66699 9.99902 -11
c2.66699 -14.667 10.667 -26.834 24 -36.501s27 -14.5 41 -14.5c14.667 0 28.334 4.83301 41.001 14.5s20.334 21.834 23.001 36.501c1.33301 7.33301 4.66602 11 9.99902 11c4 0 6.66699 -1.16699 8 -3.5s1.66602 -4.83301 0.999023 -7.5
c-3.33301 -21.333 -12.833 -38.5 -28.5 -51.5s-33.834 -19.5 -54.501 -19.5s-39 6.5 -55 19.5z" />
    <glyph glyph-name="ibreve" unicode="&#x12d;" horiz-adv-x="166" 
d="M76 3c-2 2 -3 4.33301 -3 7v447c0 2.66699 1 5 3 7s4.33301 3 7 3s4.83398 -1 6.50098 -3s2.5 -4.33301 2.5 -7v-447c0 -2.66699 -0.833008 -5 -2.5 -7s-3.83398 -3 -6.50098 -3s-5 1 -7 3zM28 547.5c-16 13 -25.665 30.167 -28.998 51.5v2c0 6 3 9 9 9
c5.33301 0 8.66602 -3.66699 9.99902 -11c2.66699 -14.667 10.667 -26.834 24 -36.501s27 -14.5 41 -14.5c14.667 0 28.334 4.83301 41.001 14.5s20.334 21.834 23.001 36.501c1.33301 7.33301 4.66602 11 9.99902 11c4 0 6.66699 -1.16699 8 -3.5
s1.66602 -4.83301 0.999023 -7.5c-3.33301 -21.333 -12.833 -38.5 -28.5 -51.5s-33.834 -19.5 -54.501 -19.5s-39 6.5 -55 19.5z" />
    <glyph glyph-name="Iogonek" unicode="&#x12e;" horiz-adv-x="236" 
d="M49 -128.5c-10 9.66699 -15.001 22.1699 -15.001 37.5029c0 11.333 3.33301 21.166 10 29.499s17.334 18.5 32.001 30.5l10 9c8.66699 7.33301 14.5 14.333 17.5 21s4.5 15.667 4.5 27v649c0 2.66699 1 5 3 7s4.33301 3 7 3s5 -1 7 -3s3 -4.33301 3 -7v-650
c0 -14 -1.83301 -25 -5.5 -33s-10.5 -16.667 -20.5 -26l-12 -11c-11.333 -9.33301 -19.833 -17.333 -25.5 -24s-8.5 -14.334 -8.5 -23.001c0 -9.33301 2.83301 -16.833 8.5 -22.5s13.167 -8.5 22.5 -8.5c7.33301 0 14 2 20 6s10.333 6 13 6c6 0 9 -2.66699 9 -8
c0 -4.66699 -4.5 -9.83398 -13.5 -15.501s-18.833 -8.5 -29.5 -8.5c-14.667 0 -27 4.83301 -37 14.5z" />
    <glyph glyph-name="iogonek" unicode="&#x12f;" horiz-adv-x="166" 
d="M67.5 656c-4.33301 4.66699 -6.5 10 -6.5 16s2.16699 11.333 6.5 16s9.5 7 15.5 7s11.167 -2.33301 15.5 -7s6.5 -10 6.5 -16s-2.16699 -11.333 -6.5 -16s-9.5 -7 -15.5 -7s-11.167 2.33301 -15.5 7zM14 -128.5c-10 9.66699 -15.001 22.168 -15.001 37.501
c0 11.333 3.16699 21 9.5 29s16.5 18 30.5 30l12 10c8.66699 7.33301 14.5 14.333 17.5 21s4.5 15.667 4.5 27v431c0 2.66699 1 5 3 7s4.33301 3 7 3s4.83398 -1 6.50098 -3s2.5 -4.33301 2.5 -7v-433c0 -14 -1.83301 -24.833 -5.5 -32.5s-10.167 -16.167 -19.5 -25.5
l-15 -13c-10 -8 -17.667 -15.5 -23 -22.5s-8 -14.5 -8 -22.5c0 -9.33301 2.83301 -16.833 8.5 -22.5s13.167 -8.5 22.5 -8.5c7.33301 0 14 2 20 6s10.333 6 13 6c6 0 9 -2.66699 9 -8c0 -4.66699 -4.5 -9.83398 -13.5 -15.501s-18.833 -8.5 -29.5 -8.5
c-14.667 0 -27 4.83301 -37 14.5z" />
    <glyph glyph-name="Idotaccent" unicode="&#x130;" horiz-adv-x="236" 
d="M111 3c-2 2 -3 4.33301 -3 7v665c0 2.66699 1 5 3 7s4.33301 3 7 3s5 -1 7 -3s3 -4.33301 3 -7v-665c0 -2.66699 -1 -5 -3 -7s-4.33301 -3 -7 -3s-5 1 -7 3zM102.5 785c-4.33301 4.66699 -6.5 10 -6.5 16s2.16699 11.333 6.5 16s9.5 7 15.5 7s11.167 -2.33301 15.5 -7
s6.5 -10 6.5 -16s-2.16699 -11.333 -6.5 -16s-9.5 -7 -15.5 -7s-11.167 2.33301 -15.5 7z" />
    <glyph glyph-name="dotlessi" unicode="&#x131;" horiz-adv-x="166" 
d="M76 3c-2 2 -3 4.33301 -3 7v447c0 2.66699 1 5 3 7s4.33301 3 7 3s4.83398 -1 6.50098 -3s2.5 -4.33301 2.5 -7v-447c0 -2.66699 -0.833008 -5 -2.5 -7s-3.83398 -3 -6.50098 -3s-5 1 -7 3z" />
    <glyph glyph-name="IJ" unicode="&#x132;" horiz-adv-x="544" 
d="M111 3c-2 2 -3 4.33301 -3 7v665c0 2.66699 1 5 3 7s4.33301 3 7 3s5 -1 7 -3s3 -4.33301 3 -7v-665c0 -2.66699 -1 -5 -3 -7s-4.33301 -3 -7 -3s-5 1 -7 3zM241 -1c0 6 3.33398 9 10.001 9c57.333 0 100.666 23.667 129.999 71c23.333 38 35 87 35 147v449
c0 6.66699 3.33301 10 10 10s10 -3.33301 10 -10v-449c0 -63.333 -12.667 -115.333 -38 -156c-32.667 -54 -81.667 -81 -147 -81c-6.66699 0 -10 3.33301 -10 10z" />
    <glyph glyph-name="ij" unicode="&#x133;" horiz-adv-x="390" 
d="M67.5 656c-4.33301 4.66699 -6.5 10 -6.5 16s2.16699 11.333 6.5 16s9.5 7 15.5 7s11.167 -2.33301 15.5 -7s6.5 -10 6.5 -16s-2.16699 -11.333 -6.5 -16s-9.5 -7 -15.5 -7s-11.167 2.33301 -15.5 7zM76.5 3c-1.66699 2 -2.5 4.33301 -2.5 7v447c0 2.66699 1 5 3 7
s4.33301 3 7 3s4.83398 -1 6.50098 -3s2.5 -4.33301 2.5 -7v-447c0 -2.66699 -1 -5 -3 -7s-4.33301 -3 -7 -3s-4.83398 1 -6.50098 3zM292.5 656c-4.33301 4.66699 -6.5 10 -6.5 16s2.16699 11.333 6.5 16s9.5 7 15.5 7s11.167 -2.33301 15.5 -7s6.5 -10 6.5 -16
s-2.16699 -11.333 -6.5 -16s-9.5 -7 -15.5 -7s-11.167 2.33301 -15.5 7zM116 -255c0 6.66699 3.33203 10 9.99902 10c57.333 0 101.333 22 132 66c14 20.667 24.333 45 31 73s10 57.667 10 89v474c0 6.66699 3.33301 10 10 10c2.66699 0 4.83398 -1 6.50098 -3
s2.5 -4.33301 2.5 -7v-474c0 -72 -15 -130 -45 -174c-33.333 -49.333 -82.333 -74 -147 -74c-6.66699 0 -10 3.33301 -10 10z" />
    <glyph glyph-name="Jcircumflex" unicode="&#x134;" horiz-adv-x="308" 
d="M5 -1c0 6 3.33398 9 10.001 9c57.333 0 100.666 23.667 129.999 71c23.333 38 35 87 35 147v449c0 6.66699 3.33301 10 10 10s10 -3.33301 10 -10v-449c0 -63.333 -12.667 -115.333 -38 -156c-32.667 -54 -81.667 -81 -147 -81c-6.66699 0 -10 3.33301 -10 10z
M104.001 750c-2 2 -2.99805 4.33301 -2.99805 7s1.33301 5.33398 4 8.00098l76 79c2.66699 2.66699 5.66699 4 9 4s6.33301 -1.33301 9 -4l76 -79c2.66699 -2.66699 4 -5.33398 4 -8.00098s-1 -5 -3 -7s-4.33301 -3 -7 -3s-5.33398 1.33301 -8.00098 4l-71 72l-71 -72
c-2.66699 -2.66699 -5.33398 -4 -8.00098 -4s-5 1 -7 3z" />
    <glyph glyph-name="jcircumflex" unicode="&#x135;" horiz-adv-x="267" 
d="M5 -255c0 6.66699 3.33203 10 9.99902 10c57.333 0 101.333 22 132 66c14 20.667 24.333 45 31 73s10 57.667 10 89v474c0 6.66699 3.33301 10 10 10c2.66699 0 4.83398 -1 6.50098 -3s2.5 -4.33301 2.5 -7v-474c0 -72 -15 -130 -45 -174
c-33.333 -49.333 -82.333 -74 -147 -74c-6.66699 0 -10 3.33301 -10 10zM111.999 527c-2 2 -2.99805 4.33301 -2.99805 7s1.33301 5.33398 4 8.00098l76 79c2.66699 2.66699 5.66699 4 9 4s6.33301 -1.33301 9 -4l76 -79c2.66699 -2.66699 4 -5.33398 4 -8.00098
s-1 -5 -3 -7s-4.33301 -3 -7 -3s-5.33398 1.33301 -8.00098 4l-71 72l-71 -72c-2.66699 -2.66699 -5.33398 -4 -8.00098 -4s-5 1 -7 3z" />
    <glyph glyph-name="Kcommaaccent" unicode="&#x136;" horiz-adv-x="554" 
d="M108 10v665.002c0 6.66699 3.33301 10 10 10s10 -3.33301 10 -10v-301h110c28 0 47.333 8 58 24l188 280c3.33301 4.66699 6.66602 7 9.99902 7c2.66699 0 4.83398 -0.833008 6.50098 -2.5s2.5 -3.83398 2.5 -6.50098c0 -2 -1 -4.66699 -3 -8l-188 -282
c-4.66699 -6.66699 -11 -12.667 -19 -18l197 -349c2.66699 -4.66699 4 -8.33398 4 -11.001s-1 -4.66699 -3 -6s-4.33301 -2 -7 -2c-3.33301 0 -6 2 -8 6l-199 354c-12 -4 -25 -6 -39 -6h-110v-344c0 -6.66699 -3.33301 -10 -10 -10s-10 3.33301 -10 10zM237 -160.998
c0 2 0.666992 4.99902 2 8.99902l29 103c2 6.66699 5.33301 10 10 10c4 0 6.66699 -1.66699 8 -5s1.33301 -7.66602 0 -12.999l-29 -104c-2 -6.66699 -5.33301 -10 -10 -10c-6.66699 0 -10 3.33301 -10 10z" />
    <glyph glyph-name="kcommaaccent" unicode="&#x137;" horiz-adv-x="392" 
d="M73 10l0.00390625 701.001c0 6.66699 3 10 9 10c6.66699 0 10 -3.33301 10 -10v-404h65c13.333 0 24.666 2.16699 33.999 6.5s19.333 11.166 30 20.499l74 65c11.333 10 19.666 19.333 24.999 28s9 18.667 11 30c1.33301 6.66699 4.66602 10 9.99902 10
c6 0 9 -3.66699 9 -11c0 -23.333 -13.667 -47 -41 -71l-62 -56c-10 -9.33301 -21 -17.666 -33 -24.999l167 -282c3.33301 -6 5 -10.333 5 -13s-1 -4.83398 -3 -6.50098s-4.33301 -2.5 -7 -2.5c-4 0 -7.66699 3 -11 9l-168 285c-10.667 -4.66699 -26.334 -7 -47.001 -7h-58
v-277c0 -6.66699 -3.33301 -10 -10 -10c-6 -0 -9 3.33301 -9 10zM171.004 -160.999c0 2 0.666992 4.99902 2 8.99902l29 103c2 6.66699 5.33301 10 10 10c4 0 6.66699 -1.66699 8 -5s1.33301 -7.66602 0 -12.999l-29 -104c-2 -6.66699 -5.33301 -10 -10 -10
c-6.66699 0 -10 3.33301 -10 10z" />
    <glyph glyph-name="kgreenlandic" unicode="&#x138;" horiz-adv-x="392" 
d="M73 10l0.00390625 447.001c0 6.66699 3 10 9 10c6.66699 0 10 -3.33301 10 -10v-150h65c13.333 0 24.666 2.16699 33.999 6.5s19.333 11.166 30 20.499l74 65c11.333 10 19.666 19.333 24.999 28s9 18.667 11 30c1.33301 6.66699 4.66602 10 9.99902 10
c6 0 9 -3.66699 9 -11c0 -23.333 -13.667 -47 -41 -71l-62 -56c-10 -9.33301 -21 -17.666 -33 -24.999l167 -282c3.33301 -6 5 -10.333 5 -13s-1 -4.83398 -3 -6.50098s-4.33301 -2.5 -7 -2.5c-4 0 -7.66699 3 -11 9l-168 285c-10.667 -4.66699 -26.334 -7 -47.001 -7h-58
v-277c0 -6.66699 -3.33301 -10 -10 -10c-6 -0 -9 3.33301 -9 10z" />
    <glyph glyph-name="Lacute" unicode="&#x139;" horiz-adv-x="429" 
d="M111 3c-2 2 -3 4.33301 -3 7v665c0 6.66699 3.33301 10 10 10s10 -3.33301 10 -10v-655h286c6.66699 0 10 -3.33301 10 -10s-3.33301 -10 -10 -10h-296c-2.66699 0 -5 1 -7 3zM113 750c-2 2 -3 4.33301 -3 7c0 3.33301 1.66699 6 5 8l103 70
c4.66699 3.33301 8.33398 5 11.001 5s5 -1 7 -3s3 -4.33301 3 -7c0 -3.33301 -1.66699 -6 -5 -8l-103 -70c-4.66699 -3.33301 -8.33398 -5 -11.001 -5s-5 1 -7 3z" />
    <glyph glyph-name="lacute" unicode="&#x13a;" horiz-adv-x="210" 
d="M99.5 33.5c-13 22.333 -19.502 54.5 -19.502 96.5v581c0 2.66699 1 5 3 7s4.33301 3 7 3s4.83398 -1 6.50098 -3s2.5 -4.33301 2.5 -7v-570c0 -41.333 4.33301 -72 13 -92s24.334 -30 47.001 -30c7.33301 0 11 -3 11 -9c0 -6.66699 -4 -10 -12 -10
c-26 0 -45.5 11.167 -58.5 33.5zM50.998 750c-2 2 -3 4.33301 -3 7c0 3.33301 1.66699 6 5 8l103 70c4.66699 3.33301 8.33398 5 11.001 5s5 -1 7 -3s3 -4.33301 3 -7c0 -3.33301 -1.66699 -6 -5 -8l-103 -70c-4.66699 -3.33301 -8.33398 -5 -11.001 -5s-5 1 -7 3z" />
    <glyph glyph-name="Lcommaaccent" unicode="&#x13b;" horiz-adv-x="429" 
d="M111 3c-2 2 -3 4.33301 -3 7v665c0 6.66699 3.33301 10 10 10s10 -3.33301 10 -10v-655h286c6.66699 0 10 -3.33301 10 -10s-3.33301 -10 -10 -10h-296c-2.66699 0 -5 1 -7 3zM213 -161c0 2 0.666992 4.99902 2 8.99902l29 103c2 6.66699 5.33301 10 10 10
c4 0 6.66699 -1.66699 8 -5s1.33301 -7.66602 0 -12.999l-29 -104c-2 -6.66699 -5.33301 -10 -10 -10c-6.66699 0 -10 3.33301 -10 10z" />
    <glyph glyph-name="lcommaaccent" unicode="&#x13c;" horiz-adv-x="210" 
d="M99.5 33.5c-13 22.333 -19.502 54.5 -19.502 96.5v581c0 2.66699 1 5 3 7s4.33301 3 7 3s4.83398 -1 6.50098 -3s2.5 -4.33301 2.5 -7v-570c0 -41.333 4.33301 -72 13 -92s24.334 -30 47.001 -30c7.33301 0 11 -3 11 -9c0 -6.66699 -4 -10 -12 -10
c-26 0 -45.5 11.167 -58.5 33.5zM89.998 -161c0 2 0.666992 4.99902 2 8.99902l29 103c2 6.66699 5.33301 10 10 10c4 0 6.66699 -1.66699 8 -5s1.33301 -7.66602 0 -12.999l-29 -104c-2 -6.66699 -5.33301 -10 -10 -10c-6.66699 0 -10 3.33301 -10 10z" />
    <glyph glyph-name="Lcaron" unicode="&#x13d;" horiz-adv-x="429" 
d="M111 3c-2 2 -3 4.33301 -3 7v665c0 6.66699 3.33301 10 10 10s10 -3.33301 10 -10v-655h286c6.66699 0 10 -3.33301 10 -10s-3.33301 -10 -10 -10h-296c-2.66699 0 -5 1 -7 3zM217 563c0 2 0.666992 4.99902 2 8.99902l29 103c2 6.66699 5.33301 10 10 10
c4 0 6.66699 -1.66699 8 -5s1.33301 -7.66602 0 -12.999l-29 -104c-2 -6.66699 -5.33301 -10 -10 -10c-6.66699 0 -10 3.33301 -10 10z" />
    <glyph glyph-name="lcaron" unicode="&#x13e;" horiz-adv-x="210" 
d="M99.5 33.5c-13 22.333 -19.502 54.5 -19.502 96.5v581c0 2.66699 1 5 3 7s4.33301 3 7 3s4.83398 -1 6.50098 -3s2.5 -4.33301 2.5 -7v-570c0 -41.333 4.33301 -72 13 -92s24.334 -30 47.001 -30c7.33301 0 11 -3 11 -9c0 -6.66699 -4 -10 -12 -10
c-26 0 -45.5 11.167 -58.5 33.5zM146.998 599c0 2 0.666992 4.99902 2 8.99902l29 103c2 6.66699 5.33301 10 10 10c4 0 6.66699 -1.66699 8 -5s1.33301 -7.66602 0 -12.999l-29 -104c-2 -6.66699 -5.33301 -10 -10 -10c-6.66699 0 -10 3.33301 -10 10z" />
    <glyph glyph-name="Ldot" unicode="&#x13f;" horiz-adv-x="429" 
d="M111 3c-2 2 -3 4.33301 -3 7v665c0 6.66699 3.33301 10 10 10s10 -3.33301 10 -10v-655h286c6.66699 0 10 -3.33301 10 -10s-3.33301 -10 -10 -10h-296c-2.66699 0 -5 1 -7 3zM278.5 320c-4.33301 4.66699 -6.5 10 -6.5 16s2.16699 11.333 6.5 16s9.5 7 15.5 7
s11.167 -2.33301 15.5 -7s6.5 -10 6.5 -16s-2.16699 -11.333 -6.5 -16s-9.5 -7 -15.5 -7s-11.167 2.33301 -15.5 7z" />
    <glyph glyph-name="ldot" unicode="&#x140;" horiz-adv-x="212" 
d="M99.5 33.5c-13 22.333 -19.502 54.5 -19.502 96.5v581c0 2.66699 1 5 3 7s4.33301 3 7 3s4.83398 -1 6.50098 -3s2.5 -4.33301 2.5 -7v-570c0 -41.333 4.33301 -72 13 -92s24.334 -30 47.001 -30c7.33301 0 11 -3 11 -9c0 -6.66699 -4 -10 -12 -10
c-26 0 -45.5 11.167 -58.5 33.5zM166.498 365c-4.33301 4.66699 -6.5 10 -6.5 16s2.16699 11.333 6.5 16s9.5 7 15.5 7s11.167 -2.33301 15.5 -7s6.5 -10 6.5 -16s-2.16699 -11.333 -6.5 -16s-9.5 -7 -15.5 -7s-11.167 2.33301 -15.5 7z" />
    <glyph glyph-name="Lslash" unicode="&#x141;" horiz-adv-x="429" 
d="M424 10c0 -6.66699 -3.33301 -10 -10 -10h-296c-2.66699 0 -5 1 -7 3s-3 4.33301 -3 7v313l-70 -59c-2 -2 -4.33301 -3 -7 -3s-5 1 -7 3s-3 4.33301 -3 7s1.33301 5.33398 4 8.00098l83 70v326c0 6.66699 3.33301 10 10 10s10 -3.33301 10 -10v-309l113 95
c2 2 4.33301 3 7 3s5 -1 7 -3s3 -4.33301 3 -7s-1.33301 -5.33398 -4 -8.00098l-126 -106v-320h286c6.66699 0 10 -3.33301 10 -10z" />
    <glyph glyph-name="lslash" unicode="&#x142;" horiz-adv-x="209" 
d="M101 350l-0.00195312 -209c0 -41.333 4.33301 -72 13 -92s24.334 -30 47.001 -30c7.33301 0 11 -3 11 -9c0 -6.66699 -4 -10 -12 -10c-26 0 -45.5 11.167 -58.5 33.5s-19.5 54.5 -19.5 96.5v205l-65 -51c-2 -2 -4.33301 -3 -7 -3s-5 1 -7 3s-3 4.33301 -3 7
s1.33301 5.33398 4 8.00098l78 61v351c0 2.66699 1 5 3 7s4.33301 3 7 3s4.83398 -1 6.50098 -3s2.5 -4.33301 2.5 -7v-336l71 55c2 2 4.33301 3 7 3s5 -1 7 -3s3 -4.33301 3 -7s-1.33301 -5.33398 -4 -8.00098z" />
    <glyph glyph-name="Nacute" unicode="&#x143;" horiz-adv-x="647" 
d="M519 7l-391 633v-630c0 -6.66699 -3.33301 -10 -10 -10s-10 3.33301 -10 10v665c0 3.33301 1 6 3 8s4.33301 3 7 3c4 0 7.66699 -2.66699 11 -8l391 -633v630c0 6.66699 3.33301 10 10 10c6 0 9 -3.33301 9 -10v-665c0 -7.33301 -3 -11 -9 -11
c-4 0 -7.66699 2.66699 -11 8zM302 750c-2 2 -3 4.33301 -3 7c0 3.33301 1.66699 6 5 8l103 70c4.66699 3.33301 8.33398 5 11.001 5s5 -1 7 -3s3 -4.33301 3 -7c0 -3.33301 -1.66699 -6 -5 -8l-103 -70c-4.66699 -3.33301 -8.33398 -5 -11.001 -5s-5 1 -7 3z" />
    <glyph glyph-name="nacute" unicode="&#x144;" horiz-adv-x="528" 
d="M73 10l-0.00195312 446.999c0 6.66699 3 10 9 10c6.66699 0 10 -3.33301 10 -10v-98c8 10 19 21 33 33l63 54c12.667 11.333 24.834 19.5 36.501 24.5s25.5 7.5 41.5 7.5c65.333 0 113.833 -23.5 145.5 -70.5s47.5 -104.833 47.5 -173.5v-224
c0 -6.66699 -3.33301 -10 -10 -10c-6 0 -9 3.33301 -9 10v224c0 62.667 -14.167 115.667 -42.5 159s-72.166 65 -131.499 65c-13.333 0 -24.5 -2.16699 -33.5 -6.5s-19.167 -11.166 -30.5 -20.499l-75 -64c-13.333 -11.333 -22.5 -21.333 -27.5 -30s-7.5 -19 -7.5 -31v-296
c0 -6.66699 -3.33301 -10 -10 -10c-6 -0 -9 3.33301 -9 10zM211.998 526.999c-2 2 -3 4.33301 -3 7c0 3.33301 1.66699 6 5 8l103 70c4.66699 3.33301 8.33398 5 11.001 5s5 -1 7 -3s3 -4.33301 3 -7c0 -3.33301 -1.66699 -6 -5 -8l-103 -70
c-4.66699 -3.33301 -8.33398 -5 -11.001 -5s-5 1 -7 3z" />
    <glyph glyph-name="Ncommaaccent" unicode="&#x145;" horiz-adv-x="647" 
d="M519 7l-391 633v-630c0 -6.66699 -3.33301 -10 -10 -10s-10 3.33301 -10 10v665c0 3.33301 1 6 3 8s4.33301 3 7 3c4 0 7.66699 -2.66699 11 -8l391 -633v630c0 6.66699 3.33301 10 10 10c6 0 9 -3.33301 9 -10v-665c0 -7.33301 -3 -11 -9 -11
c-4 0 -7.66699 2.66699 -11 8zM284 -161c0 2 0.666992 4.99902 2 8.99902l29 103c2 6.66699 5.33301 10 10 10c4 0 6.66699 -1.66699 8 -5s1.33301 -7.66602 0 -12.999l-29 -104c-2 -6.66699 -5.33301 -10 -10 -10c-6.66699 0 -10 3.33301 -10 10z" />
    <glyph glyph-name="ncommaaccent" unicode="&#x146;" horiz-adv-x="528" 
d="M73 10l-0.00195312 446.999c0 6.66699 3 10 9 10c6.66699 0 10 -3.33301 10 -10v-98c8 10 19 21 33 33l63 54c12.667 11.333 24.834 19.5 36.501 24.5s25.5 7.5 41.5 7.5c65.333 0 113.833 -23.5 145.5 -70.5s47.5 -104.833 47.5 -173.5v-224
c0 -6.66699 -3.33301 -10 -10 -10c-6 0 -9 3.33301 -9 10v224c0 62.667 -14.167 115.667 -42.5 159s-72.166 65 -131.499 65c-13.333 0 -24.5 -2.16699 -33.5 -6.5s-19.167 -11.166 -30.5 -20.499l-75 -64c-13.333 -11.333 -22.5 -21.333 -27.5 -30s-7.5 -19 -7.5 -31v-296
c0 -6.66699 -3.33301 -10 -10 -10c-6 -0 -9 3.33301 -9 10zM233.998 -161.001c0 2 0.666992 4.99902 2 8.99902l29 103c2 6.66699 5.33301 10 10 10c4 0 6.66699 -1.66699 8 -5s1.33301 -7.66602 0 -12.999l-29 -104c-2 -6.66699 -5.33301 -10 -10 -10
c-6.66699 0 -10 3.33301 -10 10z" />
    <glyph glyph-name="Ncaron" unicode="&#x147;" horiz-adv-x="647" 
d="M519 7l-391 633v-630c0 -6.66699 -3.33301 -10 -10 -10s-10 3.33301 -10 10v665c0 3.33301 1 6 3 8s4.33301 3 7 3c4 0 7.66699 -2.66699 11 -8l391 -633v630c0 6.66699 3.33301 10 10 10c6 0 9 -3.33301 9 -10v-665c0 -7.33301 -3 -11 -9 -11
c-4 0 -7.66699 2.66699 -11 8zM325 751l-76.002 79c-2.66699 2.66699 -4 5.33398 -4 8.00098s1 5 3 7s4.33301 3 7 3s5.33398 -1.33301 8.00098 -4l71 -72l71 72c2.66699 2.66699 5.33398 4 8.00098 4s5 -1 7 -3s3 -4.33301 3 -7s-1.33301 -5.33398 -4 -8.00098l-76 -79
c-2.66699 -2.66699 -5.66699 -4 -9 -4s-6.33301 1.33301 -9 4z" />
    <glyph glyph-name="ncaron" unicode="&#x148;" horiz-adv-x="528" 
d="M73 10l-0.00195312 446.999c0 6.66699 3 10 9 10c6.66699 0 10 -3.33301 10 -10v-98c8 10 19 21 33 33l63 54c12.667 11.333 24.834 19.5 36.501 24.5s25.5 7.5 41.5 7.5c65.333 0 113.833 -23.5 145.5 -70.5s47.5 -104.833 47.5 -173.5v-224
c0 -6.66699 -3.33301 -10 -10 -10c-6 0 -9 3.33301 -9 10v224c0 62.667 -14.167 115.667 -42.5 159s-72.166 65 -131.499 65c-13.333 0 -24.5 -2.16699 -33.5 -6.5s-19.167 -11.166 -30.5 -20.499l-75 -64c-13.333 -11.333 -22.5 -21.333 -27.5 -30s-7.5 -19 -7.5 -31v-296
c0 -6.66699 -3.33301 -10 -10 -10c-6 -0 -9 3.33301 -9 10zM254.998 527.999l-76.002 79c-2.66699 2.66699 -4 5.33398 -4 8.00098s1 5 3 7s4.33301 3 7 3s5.33398 -1.33301 8.00098 -4l71 -72l71 72c2.66699 2.66699 5.33398 4 8.00098 4s5 -1 7 -3s3 -4.33301 3 -7
s-1.33301 -5.33398 -4 -8.00098l-76 -79c-2.66699 -2.66699 -5.66699 -4 -9 -4s-6.33301 1.33301 -9 4z" />
    <glyph glyph-name="napostrophe" unicode="&#x149;" horiz-adv-x="528" 
d="M73 10l-0.00195312 446.999c0 6.66699 3 10 9 10c6.66699 0 10 -3.33301 10 -10v-98c8 10 19 21 33 33l63 54c12.667 11.333 24.834 19.5 36.501 24.5s25.5 7.5 41.5 7.5c65.333 0 113.833 -23.5 145.5 -70.5s47.5 -104.833 47.5 -173.5v-224
c0 -6.66699 -3.33301 -10 -10 -10c-6 0 -9 3.33301 -9 10v224c0 62.667 -14.167 115.667 -42.5 159s-72.166 65 -131.499 65c-13.333 0 -24.5 -2.16699 -33.5 -6.5s-19.167 -11.166 -30.5 -20.499l-75 -64c-13.333 -11.333 -22.5 -21.333 -27.5 -30s-7.5 -19 -7.5 -31v-296
c0 -6.66699 -3.33301 -10 -10 -10c-6 -0 -9 3.33301 -9 10zM9.49805 533.999c-1.66699 1.33301 -2.5 3.33301 -2.5 6c0 2 2.66699 7 8 15s10 16.5 14 25.5s6 19.833 6 32.5v61c0 7.33301 3.33301 11 10 11c6 0 9 -3.66699 9 -11v-61c0 -28 -10 -53.667 -30 -77
c-2.66699 -2.66699 -5.66699 -4 -9 -4c-2 0 -3.83301 0.666992 -5.5 2z" />
    <glyph glyph-name="Eng" unicode="&#x14a;" horiz-adv-x="647" 
d="M337 -205c0 6.66699 3.33398 10 10.001 10c56 0 99 21 129 63c25.333 34.667 39.666 81 42.999 139l-391 633v-630c0 -6.66699 -3.33301 -10 -10 -10s-10 3.33301 -10 10v665c0 3.33301 1 6 3 8s4.33301 3 7 3c4 0 7.66699 -2.66699 11 -8l391 -633v630
c0 6.66699 3.33301 10 10 10c6 0 9 -3.33301 9 -10v-642c0 -73.333 -15.333 -132 -46 -176c-34 -48 -82.667 -72 -146 -72c-6.66699 0 -10 3.33301 -10 10z" />
    <glyph glyph-name="eng" unicode="&#x14b;" horiz-adv-x="528" 
d="M257 -205c0 6.66699 3.33105 9.99805 9.99805 9.99805c48 0 86.667 15.333 116 46c20 20.667 34.5 47 43.5 79s13.5 66.333 13.5 103v201c0 62.667 -14.167 115.667 -42.5 159s-72.166 65 -131.499 65c-13.333 0 -24.5 -2.16699 -33.5 -6.5
s-19.167 -11.166 -30.5 -20.499l-75 -64c-13.333 -11.333 -22.5 -21.333 -27.5 -30s-7.5 -19 -7.5 -31v-296c0 -6.66699 -3.33301 -10 -10 -10c-6 0 -9 3.33301 -9 10v447c0 6.66699 3 10 9 10c6.66699 0 10 -3.33301 10 -10v-98c8 10 19 21 33 33l63 54
c12.667 11.333 24.834 19.5 36.501 24.5s25.5 7.5 41.5 7.5c65.333 0 113.833 -23.5 145.5 -70.5s47.5 -104.833 47.5 -173.5v-201c0 -39.333 -5 -76.166 -15 -110.499s-25.667 -62.833 -47 -85.5c-32.667 -34.667 -76 -52 -130 -52c-6.66699 0 -10 3.33301 -10 10z" />
    <glyph glyph-name="Omacron" unicode="&#x14c;" horiz-adv-x="620" 
d="M163.5 43.5c-37 36.333 -63.167 81.166 -78.5 134.499s-23 108.333 -23 165s7.66699 111.5 23 164.5s41.5 97.5 78.5 133.5s86.167 54 147.5 54s110.333 -18 147 -54s62.5 -80.5 77.5 -133.5s22.5 -107.833 22.5 -164.5s-7.5 -111.667 -22.5 -165
s-40.833 -98.166 -77.5 -134.499s-85.667 -54.5 -147 -54.5s-110.5 18.167 -147.5 54.5zM447 60c34 34.667 57.667 77.335 71 128.002s20 102.334 20 155.001s-6.66699 104.167 -20 154.5s-37 92.666 -71 126.999s-79.333 51.5 -136 51.5s-102.167 -17.333 -136.5 -52
s-58.333 -77 -72 -127s-20.5 -101.333 -20.5 -154s6.83301 -104.334 20.5 -155.001s37.667 -93.334 72 -128.001s79.833 -52 136.5 -52s102 17.333 136 52zM218 776.001c-2 2 -3 4.33301 -3 7s1 5 3 7s4.33301 3 7 3h169c2.66699 0 5 -1 7 -3s3 -4.33301 3 -7s-1 -5 -3 -7
s-4.33301 -3 -7 -3h-169c-2.66699 0 -5 1 -7 3z" />
    <glyph glyph-name="omacron" unicode="&#x14d;" horiz-adv-x="482" 
d="M95.5 59.5c-31.667 47 -47.5 104.834 -47.5 173.501c0 42 7 81.667 21 119s35.333 67.666 64 90.999s64.667 35 108 35c65.333 0 113.833 -23.667 145.5 -71s47.5 -105.333 47.5 -174c0 -42 -7 -81.5 -21 -118.5s-35.333 -67.167 -64 -90.5s-64.667 -35 -108 -35
c-65.333 0 -113.833 23.5 -145.5 70.5zM339 40.501c26 21.667 45.167 49.5 57.5 83.5s18.5 70.333 18.5 109c0 62.667 -14 115.834 -42 159.501s-72 65.5 -132 65.5c-39.333 0 -72 -10.833 -98 -32.5s-45 -49.667 -57 -84s-18 -70.5 -18 -108.5
c0 -62.667 14 -115.834 42 -159.501s71.667 -65.5 131 -65.5c39.333 0 72 10.833 98 32.5zM149 560.001c-2 2 -3 4.33301 -3 7s1 5 3 7s4.33301 3 7 3h169c2.66699 0 5 -1 7 -3s3 -4.33301 3 -7s-1 -5 -3 -7s-4.33301 -3 -7 -3h-169c-2.66699 0 -5 1 -7 3z" />
    <glyph glyph-name="Obreve" unicode="&#x14e;" horiz-adv-x="620" 
d="M163.5 43.5c-37 36.333 -63.167 81.166 -78.5 134.499s-23 108.333 -23 165s7.66699 111.5 23 164.5s41.5 97.5 78.5 133.5s86.167 54 147.5 54s110.333 -18 147 -54s62.5 -80.5 77.5 -133.5s22.5 -107.833 22.5 -164.5s-7.5 -111.667 -22.5 -165
s-40.833 -98.166 -77.5 -134.499s-85.667 -54.5 -147 -54.5s-110.5 18.167 -147.5 54.5zM447 60c34 34.667 57.667 77.335 71 128.002s20 102.334 20 155.001s-6.66699 104.167 -20 154.5s-37 92.666 -71 126.999s-79.333 51.5 -136 51.5s-102.167 -17.333 -136.5 -52
s-58.333 -77 -72 -127s-20.5 -101.333 -20.5 -154s6.83301 -104.334 20.5 -155.001s37.667 -93.334 72 -128.001s79.833 -52 136.5 -52s102 17.333 136 52zM255 770.501c-16 13 -25.665 30.167 -28.998 51.5v2c0 6 3 9 9 9c5.33301 0 8.66602 -3.66699 9.99902 -11
c2.66699 -14.667 10.667 -26.834 24 -36.501s27 -14.5 41 -14.5c14.667 0 28.334 4.83301 41.001 14.5s20.334 21.834 23.001 36.501c1.33301 7.33301 4.66602 11 9.99902 11c4 0 6.66699 -1.16699 8 -3.5s1.66602 -4.83301 0.999023 -7.5
c-3.33301 -21.333 -12.833 -38.5 -28.5 -51.5s-33.834 -19.5 -54.501 -19.5s-39 6.5 -55 19.5z" />
    <glyph glyph-name="obreve" unicode="&#x14f;" horiz-adv-x="482" 
d="M95.5 59.5c-31.667 47 -47.5 104.834 -47.5 173.501c0 42 7 81.667 21 119s35.333 67.666 64 90.999s64.667 35 108 35c65.333 0 113.833 -23.667 145.5 -71s47.5 -105.333 47.5 -174c0 -42 -7 -81.5 -21 -118.5s-35.333 -67.167 -64 -90.5s-64.667 -35 -108 -35
c-65.333 0 -113.833 23.5 -145.5 70.5zM339 40.501c26 21.667 45.167 49.5 57.5 83.5s18.5 70.333 18.5 109c0 62.667 -14 115.834 -42 159.501s-72 65.5 -132 65.5c-39.333 0 -72 -10.833 -98 -32.5s-45 -49.667 -57 -84s-18 -70.5 -18 -108.5
c0 -62.667 14 -115.834 42 -159.501s71.667 -65.5 131 -65.5c39.333 0 72 10.833 98 32.5zM186 547.501c-16 13 -25.665 30.167 -28.998 51.5v2c0 6 3 9 9 9c5.33301 0 8.66602 -3.66699 9.99902 -11c2.66699 -14.667 10.667 -26.834 24 -36.501s27 -14.5 41 -14.5
c14.667 0 28.334 4.83301 41.001 14.5s20.334 21.834 23.001 36.501c1.33301 7.33301 4.66602 11 9.99902 11c4 0 6.66699 -1.16699 8 -3.5s1.66602 -4.83301 0.999023 -7.5c-3.33301 -21.333 -12.833 -38.5 -28.5 -51.5s-33.834 -19.5 -54.501 -19.5s-39 6.5 -55 19.5z" />
    <glyph glyph-name="Ohungarumlaut" unicode="&#x150;" horiz-adv-x="620" 
d="M163.5 43.5c-37 36.333 -63.167 81.166 -78.5 134.499s-23 108.333 -23 165s7.66699 111.5 23 164.5s41.5 97.5 78.5 133.5s86.167 54 147.5 54s110.333 -18 147 -54s62.5 -80.5 77.5 -133.5s22.5 -107.833 22.5 -164.5s-7.5 -111.667 -22.5 -165
s-40.833 -98.166 -77.5 -134.499s-85.667 -54.5 -147 -54.5s-110.5 18.167 -147.5 54.5zM447 60c34 34.667 57.667 77.335 71 128.002s20 102.334 20 155.001s-6.66699 104.167 -20 154.5s-37 92.666 -71 126.999s-79.333 51.5 -136 51.5s-102.167 -17.333 -136.5 -52
s-58.333 -77 -72 -127s-20.5 -101.333 -20.5 -154s6.83301 -104.334 20.5 -155.001s37.667 -93.334 72 -128.001s79.833 -52 136.5 -52s102 17.333 136 52zM233 752.001c-2 2 -3 4.33301 -3 7c0 3.33301 1.66699 6 5 8l103 70c4.66699 3.33301 8.33398 5 11.001 5s5 -1 7 -3
s3 -4.33301 3 -7c0 -3.33301 -1.66699 -6 -5 -8l-103 -70c-4.66699 -3.33301 -8.33398 -5 -11.001 -5s-5 1 -7 3zM354 752.001c-2 2 -3 4.33301 -3 7c0 3.33301 1.66699 6 5 8l103 70c4.66699 3.33301 8.33398 5 11.001 5s5 -1 7 -3s3 -4.33301 3 -7
c0 -3.33301 -1.66699 -6 -5 -8l-103 -70c-4.66699 -3.33301 -8.33398 -5 -11.001 -5s-5 1 -7 3z" />
    <glyph glyph-name="ohungarumlaut" unicode="&#x151;" horiz-adv-x="482" 
d="M95.5 59.5c-31.667 47 -47.5 104.834 -47.5 173.501c0 42 7 81.667 21 119s35.333 67.666 64 90.999s64.667 35 108 35c65.333 0 113.833 -23.667 145.5 -71s47.5 -105.333 47.5 -174c0 -42 -7 -81.5 -21 -118.5s-35.333 -67.167 -64 -90.5s-64.667 -35 -108 -35
c-65.333 0 -113.833 23.5 -145.5 70.5zM339 40.501c26 21.667 45.167 49.5 57.5 83.5s18.5 70.333 18.5 109c0 62.667 -14 115.834 -42 159.501s-72 65.5 -132 65.5c-39.333 0 -72 -10.833 -98 -32.5s-45 -49.667 -57 -84s-18 -70.5 -18 -108.5
c0 -62.667 14 -115.834 42 -159.501s71.667 -65.5 131 -65.5c39.333 0 72 10.833 98 32.5zM154 527.001c-2 2 -3 4.33301 -3 7c0 3.33301 1.66699 6 5 8l103 70c4.66699 3.33301 8.33398 5 11.001 5s5 -1 7 -3s3 -4.33301 3 -7c0 -3.33301 -1.66699 -6 -5 -8l-103 -70
c-4.66699 -3.33301 -8.33398 -5 -11.001 -5s-5 1 -7 3zM275 527.001c-2 2 -3 4.33301 -3 7c0 3.33301 1.66699 6 5 8l103 70c4.66699 3.33301 8.33398 5 11.001 5s5 -1 7 -3s3 -4.33301 3 -7c0 -3.33301 -1.66699 -6 -5 -8l-103 -70
c-4.66699 -3.33301 -8.33398 -5 -11.001 -5s-5 1 -7 3z" />
    </font>
</defs>
</svg>
